<svg id="Capa_1" enable-background="new 0 0 512 512" height="512" viewBox="0 0 512 512" width="512" xmlns="http://www.w3.org/2000/svg"><g><path d="m498.77 434.55-213.597-213.583c-10.098-10.098-10.157-26.435-.119-36.45 42.232-42.096 42.44-110.215.079-152.571-33.434-33.43-84.684-41.099-126.379-19.227-41.373-22.209-93.512-14.95-127.246 18.781-33.792 33.79-41.019 86.013-18.691 127.426-21.446 41.691-13.53 92.488 19.621 125.637 41.639 41.633 110.011 42.578 152.844-.366 9.762-9.851 25.456-10.016 35.158-.315l42.692 42.689-43.294 43.292c-5.856 5.856-5.859 15.359 0 21.218l42.609 42.606c5.858 5.858 15.356 5.856 21.215 0l21.991-21.991 21.392 21.391-10.695 10.694c-5.856 5.856-5.859 15.359 0 21.218l42.609 42.606c5.857 5.857 15.356 5.859 21.215 0l32.002-32 22.77 22.769c17.597 17.595 46.228 17.595 63.824 0 17.639-17.636 17.64-46.185 0-63.824zm-21.214 42.608c-5.899 5.899-15.496 5.899-21.395 0l-33.377-33.375c-5.858-5.857-15.356-5.858-21.215 0l-32.002 32-21.392-21.391 10.695-10.694c5.856-5.856 5.859-15.359 0-21.218l-42.609-42.607c-5.859-5.858-15.356-5.857-21.216 0l-21.991 21.992-21.392-21.391 43.294-43.292c5.856-5.856 5.859-15.359 0-21.218l-53.302-53.298c-20.376-20.373-54.804-22.468-77.944.673-30.344 30.343-79.716 30.347-110.057.008-25.516-25.515-30.058-66.126-10.799-96.563 3.153-4.983 3.094-11.352-.151-16.277-20.202-30.655-15.989-71.781 10.019-97.786 25.982-25.98 67.073-30.214 97.708-10.068 4.964 3.263 11.384 3.292 16.374.072 30.528-19.692 71.37-15.3 97.114 10.441 30.249 30.245 30.291 79.834-.059 110.115-21.772 21.725-21.749 57.059.099 78.906l213.597 213.583c5.912 5.91 5.912 15.476.001 21.388z"/><path d="m85.38 85.369c-17.638 17.639-17.64 46.184 0 63.825 17.597 17.595 46.227 17.596 63.824 0 17.638-17.636 17.641-46.186 0-63.825-17.596-17.594-46.228-17.594-63.824 0zm42.609 42.607c-5.899 5.899-15.496 5.899-21.395 0-5.91-5.908-5.912-15.478 0-21.388 5.897-5.897 15.495-5.899 21.395 0 5.912 5.911 5.912 15.476 0 21.388z"/></g></svg>