<?xml version="1.0" encoding="utf-8"?>
<!-- Generator: Adobe Illustrator 21.1.0, SVG Export Plug-In . SVG Version: 6.00 Build 0)  -->
<svg version="1.1" id="Capa_1" xmlns="http://www.w3.org/2000/svg" xmlns:xlink="http://www.w3.org/1999/xlink" x="0px" y="0px"
	 viewBox="0 0 468.5 340" style="enable-background:new 0 0 468.5 340;" xml:space="preserve">
<g>
	<path d="M138.3,97.6h-17.4V80.1c0-3.6-2.3-6.8-5.7-8c-5.3-1.9-10.9-2.8-16.6-2.8S87.3,70.3,82,72.1c-3.4,1.2-5.7,4.4-5.7,8v17.4
		H58.8c-3.6,0-6.8,2.3-8,5.7c-1.9,5.3-2.8,10.9-2.8,16.6s0.9,11.3,2.8,16.6c1.2,3.4,4.4,5.7,8,5.7h17.4v17.4c0,3.6,2.3,6.8,5.7,8
		c5.3,1.9,10.9,2.8,16.6,2.8s11.3-0.9,16.6-2.8c3.4-1.2,5.7-4.4,5.7-8v-17.4h17.4c3.6,0,6.8-2.3,8-5.7c1.9-5.3,2.8-10.9,2.8-16.6
		c0-5.7-0.9-11.3-2.8-16.6C145.2,99.9,141.9,97.6,138.3,97.6z M131.7,125.2h-19.3c-4.7,0-8.5,3.8-8.5,8.5V153
		c-3.5,0.6-7.1,0.6-10.6,0v-19.3c0-4.7-3.8-8.5-8.5-8.5H65.4c-0.3-1.7-0.4-3.5-0.4-5.3s0.1-3.6,0.4-5.3h19.3c4.7,0,8.5-3.8,8.5-8.5
		V86.7c3.5-0.6,7.1-0.6,10.6,0v19.3c0,4.7,3.8,8.5,8.5,8.5h19.3c0.3,1.7,0.4,3.5,0.4,5.3C132.1,121.7,132,123.4,131.7,125.2z"/>
	<path d="M254.3,102.2C254.3,102.2,254.3,102.2,254.3,102.2c8,0,14.5-6.5,14.5-14.5c0-8-6.5-14.4-14.5-14.4c-8,0-14.5,6.5-14.4,14.5
		C239.9,95.8,246.4,102.2,254.3,102.2z"/>
	<path d="M413.7,112.6c-15-16.2-39.6-18.1-57.1-4.3c-4.8,3.8-10.4,7-16.5,9.6c-6.8-39.1-24.5-74.9-51.8-104.3
		c-15-16.2-39.6-18.1-57.1-4.3c-14.5,11.4-36.2,17.9-59.5,17.9c-23.3,0-45-6.5-59.5-17.9C94.5-4.6,69.9-2.7,54.8,13.5
		C19.5,51.7,0,101.4,0,153.4c0,19.5,2.7,38.8,8.1,57.4c3.9,13.6,14.4,24.2,28,28.3c4,1.2,8.2,1.8,12.3,1.8c9.7,0,19.2-3.4,26.8-9.8
		c16.6-13.9,36-24.1,56.7-29.7c-4.2,16.5-6.4,33.6-6.4,51c0,19.5,2.7,38.8,8.1,57.4c3.9,13.6,14.4,24.2,28,28.3
		c4,1.2,8.2,1.8,12.3,1.8c9.7,0,19.2-3.4,26.8-9.8c26.9-22.6,61.2-35,96.4-35s69.4,12.4,96.4,35c10.9,9.1,25.4,12.1,39,7.9
		c13.6-4.1,24-14.7,28-28.3c5.4-18.6,8.1-37.9,8.1-57.4C468.5,200.4,449,150.8,413.7,112.6z M62.3,215.8c-5.7,4.8-13.2,6.3-20.4,4.1
		c-7.2-2.2-12.5-7.6-14.6-14.7C22.5,188.5,20,171,20,153.4c0-47,17.6-91.8,49.5-126.3c7.9-8.5,20.9-9.5,30.1-2.2
		c18,14.1,44.2,22.2,71.9,22.2c27.7,0,53.9-8.1,71.9-22.2c9.3-7.3,22.2-6.3,30.1,2.2c25.2,27.2,41.4,60.5,47.2,96.7
		c-6.8,1.4-13.9,2.2-21.2,2.3c1-1.9,1.5-4.1,1.5-6.4c0-8-6.5-14.4-14.5-14.4c-8,0-14.4,6.5-14.4,14.5c0,1.3,0.2,2.6,0.6,3.9
		c-13.7-2.9-25.9-8.2-35.2-15.4c-17.5-13.8-42.1-11.9-57.1,4.3c-18.2,19.6-32.1,42.2-41.4,66.7C110.8,184.7,84.4,197.3,62.3,215.8z
		 M441.2,304.3c-2.1,7.2-7.4,12.5-14.6,14.7c-7.2,2.2-14.6,0.7-20.4-4.1c-30.5-25.6-69.3-39.7-109.2-39.7s-78.7,14.1-109.2,39.7
		c-5.7,4.8-13.2,6.3-20.4,4.1c-7.2-2.2-12.5-7.6-14.6-14.7c-4.9-16.8-7.3-34.2-7.3-51.8c0-47,17.6-91.8,49.5-126.3
		c4.3-4.7,10.2-7.1,16.2-7.1c4.9,0,9.8,1.6,13.9,4.9c18,14.1,44.2,22.2,71.9,22.2s53.9-8.1,71.9-22.2c9.3-7.3,22.2-6.3,30.1,2.2
		c31.9,34.4,49.5,79.3,49.5,126.3C448.5,270.1,446,287.5,441.2,304.3z"/>
	<path d="M263.8,196.6h-17.4v-17.4c0-3.6-2.3-6.8-5.7-8c-5.3-1.9-10.9-2.8-16.6-2.8c-5.7,0-11.3,0.9-16.6,2.8
		c-3.4,1.2-5.7,4.4-5.7,8v17.4h-17.4c-3.6,0-6.8,2.3-8,5.7c-1.9,5.3-2.8,10.9-2.8,16.6s0.9,11.3,2.8,16.6c1.2,3.4,4.4,5.7,8,5.7
		h17.4v17.4c0,3.6,2.3,6.8,5.7,8c5.3,1.9,10.9,2.8,16.6,2.8c5.7,0,11.3-0.9,16.6-2.8c3.4-1.2,5.7-4.4,5.7-8v-17.4h17.4
		c3.6,0,6.8-2.3,8-5.7c1.9-5.3,2.8-10.9,2.8-16.6s-0.9-11.3-2.8-16.6C270.6,198.9,267.4,196.6,263.8,196.6z M257.2,224.3h-19.3
		c-4.7,0-8.5,3.8-8.5,8.5v19.3c-3.5,0.6-7.1,0.6-10.6,0v-19.3c0-4.7-3.8-8.5-8.5-8.5h-19.3c-0.3-1.7-0.4-3.5-0.4-5.3
		s0.1-3.6,0.4-5.3h19.3c4.7,0,8.5-3.8,8.5-8.5v-19.3c3.5-0.6,7.1-0.6,10.6,0v19.3c0,4.7,3.8,8.5,8.5,8.5h19.3
		c0.3,1.7,0.4,3.5,0.4,5.3S257.5,222.5,257.2,224.3z"/>
	<path d="M412,233.3C412,233.3,412,233.3,412,233.3c8,0,14.5-6.5,14.5-14.5c0-8-6.5-14.4-14.5-14.4c-8,0-14.4,6.5-14.4,14.5
		C397.5,226.9,404,233.3,412,233.3z"/>
	<path d="M347.7,204.5c-8,0-14.5,6.5-14.4,14.5c0,8,6.5,14.5,14.5,14.4c8,0,14.5-6.5,14.4-14.5C362.2,211,355.7,204.5,347.7,204.5z"
		/>
	<path d="M379.9,236.6c-0.1,0-0.2,0-0.3,0c-7.9,0.1-14.3,6.5-14.3,14.5c0,8,6.5,14.5,14.5,14.5c0,0,0,0,0,0c0,0,0.1,0,0.1,0
		c0,0,0,0,0.1,0c8,0,14.4-6.5,14.4-14.5C394.4,243,387.9,236.6,379.9,236.6z"/>
	<path d="M379.8,201.3C379.8,201.3,379.8,201.3,379.8,201.3c8,0,14.5-6.5,14.5-14.5c0-8-6.5-14.5-14.5-14.4c-8,0-14.5,6.5-14.4,14.5
		C365.3,194.8,371.8,201.3,379.8,201.3z"/>
</g>
</svg>
