<svg xmlns="http://www.w3.org/2000/svg" viewBox="0 0 288.75 288.75"><title>a</title><g id="Layer_2" data-name="Layer 2"><g id="Layer_1-2" data-name="Layer 1"><path d="M148.88,230.58h0M63.47,164.46h0" fill="#37474f"/><polyline points="63.24 164.76 148.66 230.88 149.11 230.29 63.7 164.17 63.24 164.76" fill="#9e9d9e"/><polyline points="233.47 188.16 233.47 188.16 233.47 188.16" fill="#37474f"/><polyline points="175.73 164.67 233.32 188.51 233.61 187.81 176.02 163.98 175.73 164.67" fill="#9e9d9e"/><line x1="176.15" y1="164.6" x2="176.15" y2="164.6" fill="#9e9e9e"/><polyline points="176.52 164.55 162.61 68.27 161.87 68.37 175.78 164.66 176.52 164.55" fill="#9e9d9e"/><polyline points="162.04 68.13 225.14 77.63 225.25 76.89 162.16 67.39 162.04 68.13" fill="#9e9d9e"/><polyline points="176.15 164.19 176.15 164.19 176.15 164.19" fill="#9e9e9e"/><polyline points="225.19 77.26 225.19 77.26 225.19 77.26 225.19 77.26" fill="#9e9e9e"/><polyline points="224.87 77.08 175.83 164.01 176.48 164.38 225.52 77.45 224.87 77.08" fill="#9e9d9e"/><path d="M59.27,164.47h0a4.44,4.44,0,1,1,4.44,4.44A4.44,4.44,0,0,1,59.27,164.47Z" fill="#ffd967" fill-rule="evenodd"/><path d="M59.27,164.47h.38a4.07,4.07,0,1,1,1.19,2.87,4.05,4.05,0,0,1-1.19-2.87h-.75a4.82,4.82,0,1,0,4.82-4.82,4.82,4.82,0,0,0-4.82,4.82Z" fill="#616261"/><path d="M219.89,76.82h0a4.44,4.44,0,1,1,4.44,4.44A4.44,4.44,0,0,1,219.89,76.82Z" fill="#ffd967" fill-rule="evenodd"/><path d="M219.89,76.82h.38a4.07,4.07,0,1,1,1.19,2.88,4.05,4.05,0,0,1-1.19-2.87h-.75A4.82,4.82,0,1,0,224.33,72a4.82,4.82,0,0,0-4.82,4.82Z" fill="#616261"/><path d="M228.77,188h0a4.44,4.44,0,1,1,4.44,4.44A4.44,4.44,0,0,1,228.77,188Z" fill="#ffd967" fill-rule="evenodd"/><path d="M228.77,188h.38a4.07,4.07,0,1,1,1.19,2.88,4.05,4.05,0,0,1-1.19-2.88h-.75a4.82,4.82,0,1,0,4.82-4.82A4.82,4.82,0,0,0,228.4,188Z" fill="#616261"/><polyline points="175.84 164.72 149.29 230.72 175.84 164.72" fill="#37474f"/><polyline points="175.87 164.64 175.87 164.64 175.84 164.72 175.87 164.64" fill="#9e9e9e"/><polyline points="175.89 164.61 175.87 164.64 175.89 164.61" fill="#9e9e9e"/><polyline points="149.64 230.86 176.24 164.75 175.54 164.47 148.94 230.58" fill="#9e9d9e"/><path d="M144.38,230h0a4.44,4.44,0,1,1,4.44,4.44A4.44,4.44,0,0,1,144.38,230Z" fill="#ffd967" fill-rule="evenodd"/><path d="M144.38,230h.38a4.07,4.07,0,1,1,1.19,2.88,4.05,4.05,0,0,1-1.19-2.88H144a4.82,4.82,0,1,0,4.82-4.82A4.82,4.82,0,0,0,144,230Z" fill="#616261"/><path d="M171.49,164.47h0a4.44,4.44,0,1,1,4.44,4.44A4.44,4.44,0,0,1,171.49,164.47Z" fill="#ffd967" fill-rule="evenodd"/><path d="M171.49,164.47h.38a4.07,4.07,0,1,1,1.19,2.88,4.05,4.05,0,0,1-1.19-2.87h-.75a4.82,4.82,0,1,0,4.82-4.82,4.82,4.82,0,0,0-4.82,4.82Z" fill="#616261"/><polyline points="54.75 49.55 161.81 68.11 54.75 49.55" fill="#37474f"/><polyline points="54.69 49.91 161.74 68.48 161.87 67.74 54.81 49.18" fill="#9e9d9e"/><path d="M157.28,67.93h0a4.44,4.44,0,1,1,4.44,4.44A4.44,4.44,0,0,1,157.28,67.93Z" fill="#ffd967" fill-rule="evenodd"/><path d="M157.28,67.93h.38a4.07,4.07,0,1,1,1.19,2.88,4.05,4.05,0,0,1-1.19-2.87h-.75a4.82,4.82,0,1,0,4.82-4.82,4.82,4.82,0,0,0-4.82,4.82Z" fill="#616261"/><path d="M50.39,49.63h0a4.44,4.44,0,1,1,4.44,4.44A4.44,4.44,0,0,1,50.39,49.63Z" fill="#ffd967" fill-rule="evenodd"/><path d="M50.39,49.63h.38A4.07,4.07,0,1,1,52,52.5a4.05,4.05,0,0,1-1.19-2.88H50a4.82,4.82,0,1,0,4.82-4.82A4.82,4.82,0,0,0,50,49.63Z" fill="#616261"/><rect x="0.38" y="0.38" width="36" height="36" fill="#616261"/><rect x="36.38" y="0.38" width="36" height="36" fill="#616261"/><rect x="72.38" y="0.38" width="36" height="36" fill="#616261"/><rect x="108.38" y="0.38" width="36" height="36" fill="#616261"/><rect x="144.38" y="0.38" width="36" height="36" fill="#616261"/><rect x="180.38" y="0.38" width="36" height="36" fill="#616261"/><rect x="216.38" y="0.38" width="36" height="36" fill="#616261"/><rect x="252.38" y="0.38" width="36" height="36" fill="#616261"/><rect x="0.38" y="36.38" width="36" height="36" fill="#616261"/><rect x="252.38" y="36.38" width="36" height="36" fill="#616261"/><rect x="0.38" y="72.38" width="36" height="36" fill="#616261"/><rect x="72.38" y="72.38" width="36" height="36" fill="#cc4327"/><rect x="252.38" y="72.38" width="36" height="36" fill="#616261"/><rect x="0.38" y="108.38" width="36" height="36" fill="#616261"/><rect x="36.38" y="108.38" width="36" height="36" fill="#616261"/><rect x="72.38" y="108.38" width="36" height="36" fill="#616261"/><rect x="108.38" y="108.38" width="36" height="36" fill="#616261"/><rect x="252.38" y="108.38" width="36" height="36" fill="#616261"/><rect x="0.38" y="144.38" width="36" height="36" fill="#616261"/><rect x="252.38" y="144.38" width="36" height="36" fill="#616261"/><rect x="0.38" y="180.37" width="36" height="36" fill="#616261"/><rect x="72.38" y="180.37" width="36" height="36" fill="#355caa"/><rect x="252.38" y="180.37" width="36" height="36" fill="#616261"/><rect x="0.38" y="216.37" width="36" height="36" fill="#616261"/><rect x="252.38" y="216.37" width="36" height="36" fill="#616261"/><rect x="0.38" y="252.37" width="36" height="36" fill="#616261"/><rect x="36.38" y="252.37" width="36" height="36" fill="#616261"/><rect x="72.38" y="252.37" width="36" height="36" fill="#616261"/><rect x="108.38" y="252.37" width="36" height="36" fill="#616261"/><rect x="144.38" y="252.37" width="36" height="36" fill="#616261"/><rect x="180.38" y="252.37" width="36" height="36" fill="#616261"/><rect x="216.38" y="252.37" width="36" height="36" fill="#616261"/><rect x="252.38" y="252.37" width="36" height="36" fill="#616261"/><polyline points="0 0 0 288.75 0.75 288.75 0.75 0" fill="#9e9d9e"/><polyline points="36 36 36 108 36.75 108 36.75 36" fill="#9e9d9e"/><polyline points="36 144 36 252 36.75 252 36.75 144" fill="#9e9d9e"/><polyline points="72 72 72 108 72.75 108 72.75 72"/><polyline points="72 180 72 216 72.75 216 72.75 180"/><polyline points="108 72 108 108 108.75 108 108.75 72"/><polyline points="108 180 108 216 108.75 216 108.75 180"/><polyline points="144 108 144 144 144.75 144 144.75 108" fill="#9e9d9e"/><polyline points="252 36 252 252 252.75 252 252.75 36" fill="#9e9d9e"/><polyline points="288 0 288 288.75 288.75 288.75 288.75 0" fill="#9e9d9e"/><polyline points="0 0.75 288.75 0.75 288.75 0 0 0" fill="#9e9d9e"/><polyline points="36 36.75 252 36.75 252 36 36 36" fill="#9e9d9e"/><polyline points="72 72.75 108 72.75 108 72 72 72"/><polyline points="36 108.75 72 108.75 72 108 36 108" fill="#9e9d9e"/><polyline points="72 108.75 108 108.75 108 108 72 108"/><polyline points="108 108.75 144 108.75 144 108 108 108" fill="#9e9d9e"/><polyline points="36 144.75 144 144.75 144 144 36 144" fill="#9e9d9e"/><polyline points="72 180.75 108 180.75 108 180 72 180"/><polyline points="72 216.75 108 216.75 108 216 72 216"/><polyline points="36 252.75 252 252.75 252 252 36 252" fill="#9e9d9e"/><polyline points="0 288.75 288.75 288.75 288.75 288 0 288" fill="#9e9d9e"/></g></g></svg>