<svg xmlns="http://www.w3.org/2000/svg" viewBox="0 0 14.3 10.19"><title>a2</title><g id="Layer_2" data-name="Layer 2"><g id="Layer_1-2" data-name="Layer 1"><path d="M0,10.19,3.85.17H5.28l4.1,10H7.87l-1.17-3H2.51l-1.1,3ZM2.89,6.08h3.4l-1-2.78Q4.76,2,4.53,1.22A12.77,12.77,0,0,1,4,3.14Zm8.57-3.68Q10.58,2.22,9.78,2l.31-1a10.51,10.51,0,0,1,1.58.66Q11.55.46,11.54,0h1q0,.68-.16,1.7A11.84,11.84,0,0,1,14,1l.31,1a8.51,8.51,0,0,1-1.7.38,11.45,11.45,0,0,1,1.18,1.29L13,4.27A16.9,16.9,0,0,1,12,2.8a11,11,0,0,1-.89,1.47l-.81-.58a14.17,14.17,0,0,1,1.13-1.29Z" fill="#fff"/></g></g></svg>