<svg xmlns="http://www.w3.org/2000/svg" viewBox="0 0 288.75 288.75"><title>bfs</title><g id="Layer_2" data-name="Layer 2"><g id="Layer_1-2" data-name="Layer 1"><rect x="0.38" y="0.38" width="36" height="36" fill="#616261"/><rect x="36.38" y="0.38" width="36" height="36" fill="#616261"/><rect x="72.38" y="0.38" width="36" height="36" fill="#616261"/><rect x="108.38" y="0.38" width="36" height="36" fill="#616261"/><rect x="144.38" y="0.38" width="36" height="36" fill="#616261"/><rect x="180.38" y="0.38" width="36" height="36" fill="#616261"/><rect x="216.38" y="0.38" width="36" height="36" fill="#616261"/><rect x="252.38" y="0.38" width="36" height="36" fill="#616261"/><rect x="0.38" y="36.38" width="36" height="36" fill="#616261"/><rect x="252.38" y="36.38" width="36" height="36" fill="#616261"/><rect x="0.38" y="72.38" width="36" height="36" fill="#616261"/><rect x="72.38" y="72.38" width="36" height="36" fill="#cc4327"/><rect x="252.38" y="72.38" width="36" height="36" fill="#616261"/><rect x="0.38" y="108.38" width="36" height="36" fill="#616261"/><rect x="36.38" y="108.38" width="36" height="36" fill="#616261"/><rect x="72.38" y="108.38" width="36" height="36" fill="#616261"/><rect x="108.38" y="108.38" width="36" height="36" fill="#616261"/><rect x="144.38" y="108.38" width="36" height="36" fill="#cbd9f0"/><rect x="252.38" y="108.38" width="36" height="36" fill="#616261"/><rect x="0.38" y="144.38" width="36" height="36" fill="#616261"/><rect x="36.38" y="144.38" width="36" height="36" fill="#749cd2"/><rect x="72.38" y="144.38" width="36" height="36" fill="#4975ba"/><rect x="108.38" y="144.38" width="36" height="36" fill="#749cd2"/><rect x="144.38" y="144.38" width="36" height="36" fill="#a7c1e4"/><rect x="180.38" y="144.38" width="36" height="36" fill="#cbd9f0"/><rect x="252.38" y="144.38" width="36" height="36" fill="#616261"/><rect x="0.38" y="180.37" width="36" height="36" fill="#616261"/><rect x="36.38" y="180.37" width="36" height="36" fill="#4975ba"/><rect x="72.38" y="180.37" width="36" height="36" fill="#355caa"/><rect x="108.38" y="180.37" width="36" height="36" fill="#4975ba"/><rect x="144.38" y="180.37" width="36" height="36" fill="#749cd2"/><rect x="180.38" y="180.37" width="36" height="36" fill="#9fc5e8"/><rect x="216.38" y="180.37" width="36" height="36" fill="#cbd9f0"/><rect x="252.38" y="180.37" width="36" height="36" fill="#616261"/><rect x="0.38" y="216.37" width="36" height="36" fill="#616261"/><rect x="36.38" y="216.37" width="36" height="36" fill="#749cd2"/><rect x="72.38" y="216.37" width="36" height="36" fill="#4975ba"/><rect x="108.38" y="216.37" width="36" height="36" fill="#749cd2"/><rect x="144.38" y="216.37" width="36" height="36" fill="#a7c1e4"/><rect x="180.38" y="216.37" width="36" height="36" fill="#cbd9f0"/><rect x="252.38" y="216.37" width="36" height="36" fill="#616261"/><rect x="0.38" y="252.37" width="36" height="36" fill="#616261"/><rect x="36.38" y="252.37" width="36" height="36" fill="#616261"/><rect x="72.38" y="252.37" width="36" height="36" fill="#616261"/><rect x="108.38" y="252.37" width="36" height="36" fill="#616261"/><rect x="144.38" y="252.37" width="36" height="36" fill="#616261"/><rect x="180.38" y="252.37" width="36" height="36" fill="#616261"/><rect x="216.38" y="252.37" width="36" height="36" fill="#616261"/><rect x="252.38" y="252.37" width="36" height="36" fill="#616261"/><polyline points="0 0 0 288.75 0.75 288.75 0.75 0" fill="#9e9d9e"/><polyline points="36 0 36 288.75 36.75 288.75 36.75 0" fill="#9e9d9e"/><polyline points="72 0 72 72 72.75 72 72.75 0" fill="#9e9d9e"/><polyline points="72 72 72 108 72.75 108 72.75 72"/><polyline points="72 108 72 180 72.75 180 72.75 108" fill="#9e9d9e"/><polyline points="72 180 72 216 72.75 216 72.75 180"/><polyline points="72 216 72 288.75 72.75 288.75 72.75 216" fill="#9e9d9e"/><polyline points="108 0 108 72 108.75 72 108.75 0" fill="#9e9d9e"/><polyline points="108 72 108 108 108.75 108 108.75 72"/><polyline points="108 108 108 180 108.75 180 108.75 108" fill="#9e9d9e"/><polyline points="108 180 108 216 108.75 216 108.75 180"/><polyline points="108 216 108 288.75 108.75 288.75 108.75 216" fill="#9e9d9e"/><polyline points="144 0 144 288.75 144.75 288.75 144.75 0" fill="#9e9d9e"/><polyline points="180 0 180 288.75 180.75 288.75 180.75 0" fill="#9e9d9e"/><polyline points="216 0 216 288.75 216.75 288.75 216.75 0" fill="#9e9d9e"/><polyline points="252 0 252 288.75 252.75 288.75 252.75 0" fill="#9e9d9e"/><polyline points="288 0 288 288.75 288.75 288.75 288.75 0" fill="#9e9d9e"/><polyline points="0 0.75 288.75 0.75 288.75 0 0 0" fill="#9e9d9e"/><polyline points="0 36.75 288.75 36.75 288.75 36 0 36" fill="#9e9d9e"/><polyline points="0 72.75 72 72.75 72 72 0 72" fill="#9e9d9e"/><polyline points="72 72.75 108 72.75 108 72 72 72"/><polyline points="108 72.75 288.75 72.75 288.75 72 108 72" fill="#9e9d9e"/><polyline points="0 108.75 72 108.75 72 108 0 108" fill="#9e9d9e"/><polyline points="72 108.75 108 108.75 108 108 72 108"/><polyline points="108 108.75 288.75 108.75 288.75 108 108 108" fill="#9e9d9e"/><polyline points="0 144.75 288.75 144.75 288.75 144 0 144" fill="#9e9d9e"/><polyline points="0 180.75 72 180.75 72 180 0 180" fill="#9e9d9e"/><polyline points="72 180.75 108 180.75 108 180 72 180"/><polyline points="108 180.75 288.75 180.75 288.75 180 108 180" fill="#9e9d9e"/><polyline points="0 216.75 72 216.75 72 216 0 216" fill="#9e9d9e"/><polyline points="72 216.75 108 216.75 108 216 72 216"/><polyline points="108 216.75 288.75 216.75 288.75 216 108 216" fill="#9e9d9e"/><polyline points="0 252.75 288.75 252.75 288.75 252 0 252" fill="#9e9d9e"/><polyline points="0 288.75 288.75 288.75 288.75 288 0 288" fill="#9e9d9e"/></g></g></svg>