<svg xmlns="http://www.w3.org/2000/svg" viewBox="0 0 25.45 10.36"><title>bfs2</title><g id="Layer_2" data-name="Layer 2"><g id="Layer_1-2" data-name="Layer 1"><path d="M0,10.19V.17H3.76A4.65,4.65,0,0,1,5.6.48a2.37,2.37,0,0,1,1.09.94,2.47,2.47,0,0,1,.39,1.32,2.27,2.27,0,0,1-.35,1.21,2.49,2.49,0,0,1-1.05.92,2.62,2.62,0,0,1,1.4.91,2.44,2.44,0,0,1,.49,1.52,2.93,2.93,0,0,1-.3,1.31,2.53,2.53,0,0,1-.73.93,3.07,3.07,0,0,1-1.1.5,6.67,6.67,0,0,1-1.62.17ZM1.33,4.38H3.49a4.83,4.83,0,0,0,1.26-.12,1.41,1.41,0,0,0,.76-.5,1.44,1.44,0,0,0,.26-.87A1.61,1.61,0,0,0,5.54,2a1.21,1.21,0,0,0-.68-.52,5.71,5.71,0,0,0-1.52-.14h-2ZM1.33,9h2.5a5.74,5.74,0,0,0,.9,0,2.16,2.16,0,0,0,.77-.27A1.45,1.45,0,0,0,6,8.13a1.74,1.74,0,0,0,.2-.84,1.67,1.67,0,0,0-.29-1,1.51,1.51,0,0,0-.8-.58,4.94,4.94,0,0,0-1.47-.17H1.33Zm8.12,1.18V.17h6.76V1.35H10.77v3.1h4.7V5.64h-4.7v4.55Zm8-3.22,1.25-.11a2.76,2.76,0,0,0,.41,1.23,2.26,2.26,0,0,0,1,.78,3.82,3.82,0,0,0,1.54.3A3.69,3.69,0,0,0,23,8.95a1.86,1.86,0,0,0,.86-.62,1.44,1.44,0,0,0,.28-.86,1.3,1.3,0,0,0-.27-.82,2,2,0,0,0-.9-.59,17.66,17.66,0,0,0-1.78-.49,9.11,9.11,0,0,1-1.93-.63A2.71,2.71,0,0,1,18.2,4a2.29,2.29,0,0,1-.35-1.25,2.55,2.55,0,0,1,.43-1.42,2.67,2.67,0,0,1,1.26-1A4.77,4.77,0,0,1,21.38,0a5,5,0,0,1,2,.36,2.83,2.83,0,0,1,1.31,1.06A3,3,0,0,1,25.14,3l-1.27.1a2.05,2.05,0,0,0-.69-1.44,2.7,2.7,0,0,0-1.75-.49,2.8,2.8,0,0,0-1.75.44,1.32,1.32,0,0,0-.55,1.06,1.14,1.14,0,0,0,.39.89,5.28,5.28,0,0,0,2,.71,13.23,13.23,0,0,1,2.22.64,3,3,0,0,1,1.29,1,2.49,2.49,0,0,1,.42,1.43A2.73,2.73,0,0,1,25,8.87,3,3,0,0,1,23.67,10a4.59,4.59,0,0,1-1.93.39,5.77,5.77,0,0,1-2.28-.4A3.19,3.19,0,0,1,18,8.77,3.38,3.38,0,0,1,17.47,7Z" fill="#fff"/></g></g></svg>