<svg xmlns="http://www.w3.org/2000/svg" viewBox="0 0 661.41 268.1"><title>bt</title><g id="Layer_2" data-name="Layer 2"><g id="Layer_1-2" data-name="Layer 1"><path d="M290.86,4.72A4.34,4.34,0,0,1,295.2.38h73a4.34,4.34,0,0,1,4.34,4.34V22.09a4.34,4.34,0,0,1-4.34,4.34h-73a4.34,4.34,0,0,1-4.34-4.34V4.72" fill="#78909c" fill-rule="evenodd"/><path d="M290.86,4.72h.37a4,4,0,0,1,4-4h73a4,4,0,0,1,4,4V22.09a4,4,0,0,1-4,4h-73a4,4,0,0,1-4-4V4.72h-.75V22.09a4.72,4.72,0,0,0,4.72,4.72h73a4.72,4.72,0,0,0,4.72-4.72V4.72A4.72,4.72,0,0,0,368.22,0h-73a4.72,4.72,0,0,0-4.72,4.72h.38" fill="#9e9d9e"/><path d="M306.67,15.37l1.25-.11a2.76,2.76,0,0,0,.41,1.23,2.26,2.26,0,0,0,1,.78,3.82,3.82,0,0,0,1.54.3,3.69,3.69,0,0,0,1.34-.23,1.86,1.86,0,0,0,.86-.62,1.43,1.43,0,0,0,.28-.86,1.3,1.3,0,0,0-.27-.82,2,2,0,0,0-.9-.59,17.68,17.68,0,0,0-1.78-.49,9.11,9.11,0,0,1-1.93-.63,2.71,2.71,0,0,1-1.07-.93,2.29,2.29,0,0,1-.35-1.25,2.55,2.55,0,0,1,.43-1.42,2.67,2.67,0,0,1,1.26-1,4.77,4.77,0,0,1,1.84-.34,5,5,0,0,1,2,.36,2.83,2.83,0,0,1,1.31,1.06,3,3,0,0,1,.49,1.58l-1.27.1a2.05,2.05,0,0,0-.69-1.44,2.7,2.7,0,0,0-1.75-.49,2.8,2.8,0,0,0-1.75.44,1.32,1.32,0,0,0-.55,1.06,1.14,1.14,0,0,0,.39.89,5.28,5.28,0,0,0,2,.71,13.24,13.24,0,0,1,2.22.64,3,3,0,0,1,1.29,1,2.49,2.49,0,0,1,.42,1.43,2.73,2.73,0,0,1-.46,1.51,3,3,0,0,1-1.32,1.1,4.58,4.58,0,0,1-1.93.39,5.77,5.77,0,0,1-2.28-.4,3.19,3.19,0,0,1-1.44-1.19A3.38,3.38,0,0,1,306.67,15.37Zm14.59.88,1.27.16a3.1,3.1,0,0,1-1.11,1.73,3.77,3.77,0,0,1-4.6-.37,3.83,3.83,0,0,1-.93-2.75,4,4,0,0,1,.94-2.84,3.19,3.19,0,0,1,2.45-1,3.1,3.1,0,0,1,2.38,1,3.94,3.94,0,0,1,.92,2.79q0,.11,0,.33h-5.41a2.79,2.79,0,0,0,.68,1.83,2,2,0,0,0,1.52.64,1.88,1.88,0,0,0,1.16-.36A2.36,2.36,0,0,0,321.26,16.26Zm-4-2h4.05a2.46,2.46,0,0,0-.46-1.37,1.89,1.89,0,0,0-1.52-.71,2,2,0,0,0-1.43.57A2.25,2.25,0,0,0,317.22,14.27ZM324,18.59v-10h1.23v10Zm8.11-2.34,1.27.16a3.1,3.1,0,0,1-1.11,1.73,3.77,3.77,0,0,1-4.6-.37,3.83,3.83,0,0,1-.93-2.75,4,4,0,0,1,.94-2.84,3.19,3.19,0,0,1,2.45-1,3.1,3.1,0,0,1,2.38,1,3.94,3.94,0,0,1,.92,2.79q0,.11,0,.33H328a2.79,2.79,0,0,0,.68,1.83,2,2,0,0,0,1.52.64,1.88,1.88,0,0,0,1.16-.36A2.36,2.36,0,0,0,332.15,16.26Zm-4-2h4.05a2.46,2.46,0,0,0-.46-1.37,1.89,1.89,0,0,0-1.52-.71,2,2,0,0,0-1.43.57A2.25,2.25,0,0,0,328.11,14.27Zm11.59,1.67,1.21.16a3.14,3.14,0,0,1-1,2,3,3,0,0,1-2,.71,3.12,3.12,0,0,1-2.4-1,4,4,0,0,1-.91-2.79,5.05,5.05,0,0,1,.39-2.06,2.72,2.72,0,0,1,1.19-1.32,3.52,3.52,0,0,1,1.73-.44,3,3,0,0,1,1.93.6,2.74,2.74,0,0,1,1,1.7l-1.2.18a2,2,0,0,0-.6-1.1,1.57,1.57,0,0,0-1-.37,1.91,1.91,0,0,0-1.51.67,3.16,3.16,0,0,0-.58,2.11,3.27,3.27,0,0,0,.56,2.13,1.82,1.82,0,0,0,1.46.66,1.72,1.72,0,0,0,1.21-.44A2.21,2.21,0,0,0,339.7,15.94Zm4.41,1.61a4,4,0,0,0,.54,0l.18,1.09a4.57,4.57,0,0,1-.93.11,2.11,2.11,0,0,1-1-.21,1.19,1.19,0,0,1-.52-.56,4.4,4.4,0,0,1-.15-1.45V12.29h-.9v-1h.9V9.54l1.22-.74v2.54h1.24v1h-1.24v4.25a2.14,2.14,0,0,0,.06.68.51.51,0,0,0,.21.24.82.82,0,0,0,.42.09ZM345.39,15a3.74,3.74,0,0,1,1.12-3,3.38,3.38,0,0,1,2.28-.81,3.26,3.26,0,0,1,2.45,1,3.73,3.73,0,0,1,1,2.71,4.8,4.8,0,0,1-.42,2.2,3,3,0,0,1-1.22,1.25,3.56,3.56,0,0,1-1.75.44,3.26,3.26,0,0,1-2.46-1A3.9,3.9,0,0,1,345.39,15Zm1.26,0a3.09,3.09,0,0,0,.61,2.09,2,2,0,0,0,3.06,0,3.17,3.17,0,0,0,.61-2.13,3,3,0,0,0-.61-2,2,2,0,0,0-3.05,0A3.08,3.08,0,0,0,346.65,15Zm7,3.63V11.33h1.11v1.1a3,3,0,0,1,.78-1,1.37,1.37,0,0,1,.79-.25,2.4,2.4,0,0,1,1.26.4l-.42,1.14a1.76,1.76,0,0,0-.9-.27,1.17,1.17,0,0,0-.72.24,1.31,1.31,0,0,0-.46.67,4.79,4.79,0,0,0-.21,1.44v3.8Z" fill="#fff"/><rect x="530.77" y="0.38" width="130.26" height="77.57"/><path d="M530.77.38V.75H660.66V77.57H531.14V.38h-.37v0h-.37V77.94a.37.37,0,0,0,.38.38H661a.38.38,0,0,0,.38-.37V.38A.38.38,0,0,0,661,0H530.77a.37.37,0,0,0-.37.38Z" fill="#9e9d9e"/><path d="M540.59,19.51a4,4,0,0,0,.54,0l.18,1.09a4.57,4.57,0,0,1-.93.11,2.11,2.11,0,0,1-1-.21,1.19,1.19,0,0,1-.52-.56,4.4,4.4,0,0,1-.15-1.45V14.26h-.9v-1h.9v-1.8l1.22-.74v2.54h1.24v1h-1.24v4.25a2.14,2.14,0,0,0,.06.68.51.51,0,0,0,.21.24.82.82,0,0,0,.42.09Zm6.71,1.05a2.61,2.61,0,0,1-.25-.9,4.58,4.58,0,0,1-1.32.82,3.8,3.8,0,0,1-1.36.24,2.64,2.64,0,0,1-1.84-.58,1.93,1.93,0,0,1-.64-1.49,2,2,0,0,1,.24-1,2,2,0,0,1,.64-.71,3,3,0,0,1,.89-.4,8.8,8.8,0,0,1,1.09-.18A11.25,11.25,0,0,0,547,16q0-.25,0-.32a1.36,1.36,0,0,0-.35-1.06,2.06,2.06,0,0,0-1.4-.42,2.17,2.17,0,0,0-1.28.3,1.86,1.86,0,0,0-.61,1.08l-1.2-.16a3,3,0,0,1,.54-1.25,2.37,2.37,0,0,1,1.09-.73,4.85,4.85,0,0,1,1.65-.26,4.36,4.36,0,0,1,1.51.22,2,2,0,0,1,.85.55,1.94,1.94,0,0,1,.38.84,6.93,6.93,0,0,1,.06,1.13v1.64a17.41,17.41,0,0,0,.08,2.17,2.74,2.74,0,0,0,.31.87ZM547,16.92a9,9,0,0,1-2,.46,4.65,4.65,0,0,0-1.07.25,1.07,1.07,0,0,0-.49.4,1.09,1.09,0,0,0,.2,1.4,1.6,1.6,0,0,0,1.09.33,2.54,2.54,0,0,0,1.26-.31,1.92,1.92,0,0,0,.81-.85,3,3,0,0,0,.2-1.23Zm3.14,3.64V13.31h1.11v1.1a3,3,0,0,1,.78-1,1.37,1.37,0,0,1,.79-.25,2.4,2.4,0,0,1,1.26.4l-.42,1.14a1.76,1.76,0,0,0-.9-.27,1.17,1.17,0,0,0-.72.24,1.31,1.31,0,0,0-.46.67,4.79,4.79,0,0,0-.21,1.44v3.8Zm4.45.6,1.2.18a1.14,1.14,0,0,0,.42.81,2,2,0,0,0,1.25.34,2.2,2.2,0,0,0,1.32-.34,1.68,1.68,0,0,0,.63-1,7.86,7.86,0,0,0,.09-1.58,2.53,2.53,0,0,1-2,1,2.74,2.74,0,0,1-2.32-1.08,4.16,4.16,0,0,1-.82-2.59,4.82,4.82,0,0,1,.38-1.92,3,3,0,0,1,1.09-1.36,2.94,2.94,0,0,1,1.68-.48,2.6,2.6,0,0,1,2.12,1v-.87h1.13v6.28a6,6,0,0,1-.35,2.4,2.52,2.52,0,0,1-1.09,1.12,3.79,3.79,0,0,1-1.84.41,3.47,3.47,0,0,1-2.1-.58A2,2,0,0,1,554.54,21.17Zm1-4.36a3.15,3.15,0,0,0,.57,2.08,1.87,1.87,0,0,0,2.84,0,3,3,0,0,0,.57-2,3,3,0,0,0-.59-2,1.83,1.83,0,0,0-1.43-.68,1.78,1.78,0,0,0-1.39.67A3,3,0,0,0,555.56,16.81Zm12,1.42,1.27.16a3.1,3.1,0,0,1-1.11,1.73,3.77,3.77,0,0,1-4.6-.37,3.83,3.83,0,0,1-.93-2.75,4,4,0,0,1,.94-2.84,3.19,3.19,0,0,1,2.45-1,3.1,3.1,0,0,1,2.38,1,3.94,3.94,0,0,1,.92,2.79q0,.11,0,.33h-5.41a2.79,2.79,0,0,0,.68,1.83,2,2,0,0,0,1.52.64,1.88,1.88,0,0,0,1.16-.36A2.36,2.36,0,0,0,567.52,18.23Zm-4-2h4.05a2.46,2.46,0,0,0-.46-1.37,1.89,1.89,0,0,0-1.52-.71,2,2,0,0,0-1.43.57A2.25,2.25,0,0,0,563.48,16.24Zm9,3.27a4,4,0,0,0,.54,0l.18,1.09a4.57,4.57,0,0,1-.93.11,2.11,2.11,0,0,1-1-.21,1.19,1.19,0,0,1-.52-.56,4.4,4.4,0,0,1-.15-1.45V14.26h-.9v-1h.9v-1.8l1.22-.74v2.54H573v1h-1.24v4.25a2.14,2.14,0,0,0,.06.68.51.51,0,0,0,.21.24.82.82,0,0,0,.42.09Zm2.07-4.81v-1.4H576v1.4Zm0,5.86v-1.4H576v1.4Zm7.41,0V13.31h1.11v1a2.61,2.61,0,0,1,2.31-1.2,3,3,0,0,1,1.21.24,1.9,1.9,0,0,1,.82.62,2.38,2.38,0,0,1,.38.91,7.06,7.06,0,0,1,.07,1.2v4.46h-1.23V16.15a3.31,3.31,0,0,0-.14-1.12,1.18,1.18,0,0,0-.51-.59,1.62,1.62,0,0,0-.86-.22,2,2,0,0,0-1.36.5,2.46,2.46,0,0,0-.57,1.89v4Zm12.54,0V19.5a2.66,2.66,0,0,1-2.3,1.23,2.94,2.94,0,0,1-1.2-.25,2,2,0,0,1-.83-.62,2.32,2.32,0,0,1-.38-.91,6.24,6.24,0,0,1-.08-1.15v-4.5H591v4a7.17,7.17,0,0,0,.08,1.3,1.28,1.28,0,0,0,.49.76,1.52,1.52,0,0,0,.93.28,2,2,0,0,0,1-.28,1.58,1.58,0,0,0,.69-.77,3.88,3.88,0,0,0,.2-1.42V13.31h1.23v7.26Zm3,0v-10h1.23v10Zm3.11,0v-10h1.23v10Z" fill="#fff"/><path d="M346.69,246a4.34,4.34,0,0,1,4.34-4.34h73a4.34,4.34,0,0,1,4.34,4.34v17.37a4.34,4.34,0,0,1-4.34,4.34H351a4.34,4.34,0,0,1-4.34-4.34V246" fill="#e0e0e0" fill-rule="evenodd"/><path d="M346.69,246h.37a4,4,0,0,1,4-4h73a4,4,0,0,1,4,4v17.37a4,4,0,0,1-4,4H351a4,4,0,0,1-4-4V246h-.75v17.37A4.72,4.72,0,0,0,351,268.1h73a4.72,4.72,0,0,0,4.72-4.72V246a4.72,4.72,0,0,0-4.72-4.72H351a4.72,4.72,0,0,0-4.72,4.72h.38" fill="#9e9d9e"/><path d="M368.08,259.89l3.85-10h1.43l4.1,10h-1.51l-1.17-3h-4.19l-1.1,3Zm2.89-4.12h3.4l-1-2.78q-.48-1.26-.71-2.08a12.78,12.78,0,0,1-.54,1.91Zm9.52,3.06a4,4,0,0,0,.54,0l.18,1.09a4.57,4.57,0,0,1-.93.11,2.11,2.11,0,0,1-1-.21,1.19,1.19,0,0,1-.52-.56,4.4,4.4,0,0,1-.15-1.45v-4.18h-.9v-1h.9v-1.8l1.22-.74v2.54H381v1H379.8v4.25a2.14,2.14,0,0,0,.06.68.51.51,0,0,0,.21.24.82.82,0,0,0,.42.09Zm3.88,0a4,4,0,0,0,.54,0l.18,1.09a4.57,4.57,0,0,1-.93.11,2.11,2.11,0,0,1-1-.21,1.19,1.19,0,0,1-.52-.56,4.4,4.4,0,0,1-.15-1.45v-4.18h-.9v-1h.9v-1.8l1.22-.74v2.54h1.24v1h-1.24v4.25a2.14,2.14,0,0,0,.06.68.51.51,0,0,0,.21.24.82.82,0,0,0,.42.09Zm6.71,1.05a2.61,2.61,0,0,1-.25-.9,4.58,4.58,0,0,1-1.32.82,3.8,3.8,0,0,1-1.36.24,2.64,2.64,0,0,1-1.84-.58,1.93,1.93,0,0,1-.64-1.49,2,2,0,0,1,.24-1,2,2,0,0,1,.64-.71,3,3,0,0,1,.89-.4,8.8,8.8,0,0,1,1.09-.18,11.25,11.25,0,0,0,2.19-.42q0-.25,0-.32a1.36,1.36,0,0,0-.35-1.06,2.06,2.06,0,0,0-1.4-.42,2.17,2.17,0,0,0-1.28.3,1.86,1.86,0,0,0-.61,1.08l-1.2-.16a3,3,0,0,1,.54-1.25,2.37,2.37,0,0,1,1.09-.73,4.85,4.85,0,0,1,1.65-.26,4.36,4.36,0,0,1,1.51.22,2,2,0,0,1,.85.55,1.94,1.94,0,0,1,.38.84,6.93,6.93,0,0,1,.06,1.13v1.64a17.41,17.41,0,0,0,.08,2.17,2.73,2.73,0,0,0,.31.87Zm-.35-3.64a9,9,0,0,1-2,.46,4.65,4.65,0,0,0-1.07.25,1.07,1.07,0,0,0-.49.4,1.09,1.09,0,0,0,.2,1.4,1.6,1.6,0,0,0,1.09.33,2.54,2.54,0,0,0,1.26-.31,1.92,1.92,0,0,0,.81-.85,3,3,0,0,0,.2-1.23Zm7.89,1,1.21.16a3.14,3.14,0,0,1-1,2,3,3,0,0,1-2,.71,3.12,3.12,0,0,1-2.4-1,4,4,0,0,1-.91-2.79,5.05,5.05,0,0,1,.39-2.06,2.72,2.72,0,0,1,1.19-1.32,3.52,3.52,0,0,1,1.73-.44,3,3,0,0,1,1.93.6,2.74,2.74,0,0,1,1,1.7l-1.2.18a2,2,0,0,0-.6-1.1,1.57,1.57,0,0,0-1-.37,1.91,1.91,0,0,0-1.51.67,3.16,3.16,0,0,0-.58,2.11,3.27,3.27,0,0,0,.56,2.13,1.82,1.82,0,0,0,1.46.66,1.72,1.72,0,0,0,1.21-.44A2.21,2.21,0,0,0,398.62,257.23Zm2.27,2.66v-10h1.23v5.71l2.91-3h1.59l-2.78,2.69,3.06,4.57h-1.52l-2.4-3.71-.87.83v2.88Z"/><path d="M235,246a4.34,4.34,0,0,1,4.34-4.34h73a4.34,4.34,0,0,1,4.34,4.34v17.37a4.34,4.34,0,0,1-4.34,4.34h-73a4.34,4.34,0,0,1-4.34-4.34V246" fill="#e0e0e0" fill-rule="evenodd"/><path d="M235,246h.37a4,4,0,0,1,4-4h73a4,4,0,0,1,4,4v17.37a4,4,0,0,1-4,4h-73a4,4,0,0,1-4-4V246h-.75v17.37a4.72,4.72,0,0,0,4.72,4.72h73a4.72,4.72,0,0,0,4.72-4.72V246a4.72,4.72,0,0,0-4.72-4.72h-73A4.72,4.72,0,0,0,234.6,246H235" fill="#9e9d9e"/><path d="M256.76,259.89v-10h6.76v1.18h-5.43v3.1h4.7v1.18h-4.7v4.55Zm7.86-3.63a3.74,3.74,0,0,1,1.12-3,3.38,3.38,0,0,1,2.28-.81,3.26,3.26,0,0,1,2.45,1,3.73,3.73,0,0,1,1,2.71,4.8,4.8,0,0,1-.42,2.2,3,3,0,0,1-1.22,1.25,3.56,3.56,0,0,1-1.75.44,3.26,3.26,0,0,1-2.46-1A3.9,3.9,0,0,1,264.62,256.26Zm1.26,0a3.09,3.09,0,0,0,.61,2.09,2,2,0,0,0,3.06,0,3.17,3.17,0,0,0,.61-2.13,3,3,0,0,0-.61-2,2,2,0,0,0-3.05,0A3.08,3.08,0,0,0,265.88,256.26Zm7,3.63v-10h1.23v10Zm3.11,0v-10h1.23v10Zm2.68-3.63a3.74,3.74,0,0,1,1.12-3,3.38,3.38,0,0,1,2.28-.81,3.26,3.26,0,0,1,2.45,1,3.73,3.73,0,0,1,1,2.71,4.8,4.8,0,0,1-.42,2.2,3,3,0,0,1-1.22,1.25,3.56,3.56,0,0,1-1.75.44,3.26,3.26,0,0,1-2.46-1A3.9,3.9,0,0,1,278.62,256.26Zm1.26,0a3.09,3.09,0,0,0,.61,2.09,2,2,0,0,0,3.06,0,3.17,3.17,0,0,0,.61-2.13,3,3,0,0,0-.61-2,2,2,0,0,0-3.05,0A3.08,3.08,0,0,0,279.88,256.26Zm8.32,3.63L286,252.63h1.27l1.16,4.19.43,1.56.38-1.5,1.16-4.25h1.26l1.09,4.21.36,1.39.42-1.4,1.24-4.2h1.2l-2.27,7.26h-1.28l-1.16-4.35L291,254.3l-1.47,5.58Z"/><path d="M469.58,246a4.34,4.34,0,0,1,4.34-4.34h73a4.34,4.34,0,0,1,4.34,4.34v17.37a4.34,4.34,0,0,1-4.34,4.34h-73a4.34,4.34,0,0,1-4.34-4.34V246" fill="#e0e0e0" fill-rule="evenodd"/><path d="M469.58,246H470a4,4,0,0,1,4-4h73a4,4,0,0,1,4,4v17.37a4,4,0,0,1-4,4h-73a4,4,0,0,1-4-4V246h-.75v17.37a4.72,4.72,0,0,0,4.72,4.72h73a4.72,4.72,0,0,0,4.72-4.72V246a4.72,4.72,0,0,0-4.72-4.72h-73A4.72,4.72,0,0,0,469.2,246h.38" fill="#9e9d9e"/><path d="M489,259.89l-2.66-10h1.36l1.52,6.57q.25,1,.42,2.05.38-1.61.45-1.85l1.91-6.77h1.6l1.44,5.07a26.89,26.89,0,0,1,.78,3.55q.19-1,.5-2.18l1.57-6.44h1.33l-2.75,10h-1.28l-2.11-7.64q-.27-1-.31-1.18-.16.69-.29,1.18l-2.13,7.64Zm15.76,0a2.61,2.61,0,0,1-.25-.9,4.58,4.58,0,0,1-1.32.82,3.8,3.8,0,0,1-1.36.24,2.64,2.64,0,0,1-1.84-.58,1.93,1.93,0,0,1-.64-1.49,2,2,0,0,1,.24-1,2,2,0,0,1,.64-.71,3,3,0,0,1,.89-.4,8.8,8.8,0,0,1,1.09-.18,11.25,11.25,0,0,0,2.19-.42q0-.25,0-.32a1.36,1.36,0,0,0-.35-1.06,2.06,2.06,0,0,0-1.4-.42,2.17,2.17,0,0,0-1.28.3,1.86,1.86,0,0,0-.61,1.08l-1.2-.16a3,3,0,0,1,.54-1.25,2.37,2.37,0,0,1,1.09-.73,4.85,4.85,0,0,1,1.65-.26,4.36,4.36,0,0,1,1.51.22,2,2,0,0,1,.85.55,1.94,1.94,0,0,1,.38.84,6.93,6.93,0,0,1,.06,1.13v1.64a17.41,17.41,0,0,0,.08,2.17,2.73,2.73,0,0,0,.31.87Zm-.35-3.64a9,9,0,0,1-2,.46,4.65,4.65,0,0,0-1.07.25,1.07,1.07,0,0,0-.49.4,1.09,1.09,0,0,0,.2,1.4,1.6,1.6,0,0,0,1.09.33,2.54,2.54,0,0,0,1.26-.31,1.92,1.92,0,0,0,.81-.85,3,3,0,0,0,.2-1.23Zm3.15,3.64v-7.26h1.11v1a2.61,2.61,0,0,1,2.31-1.2,3,3,0,0,1,1.21.24,1.9,1.9,0,0,1,.82.62,2.38,2.38,0,0,1,.38.91,7.06,7.06,0,0,1,.07,1.2v4.46h-1.23v-4.42a3.32,3.32,0,0,0-.14-1.12,1.18,1.18,0,0,0-.51-.59,1.62,1.62,0,0,0-.86-.22,2,2,0,0,0-1.36.5,2.46,2.46,0,0,0-.57,1.89v4Zm12.49,0V259a2.26,2.26,0,0,1-2,1.08,2.85,2.85,0,0,1-1.6-.48,3.15,3.15,0,0,1-1.13-1.34,4.62,4.62,0,0,1-.4-2,5.16,5.16,0,0,1,.36-2,2.86,2.86,0,0,1,1.09-1.36,2.91,2.91,0,0,1,1.62-.47,2.42,2.42,0,0,1,2,1v-3.6h1.22v10Zm-3.89-3.62a3.15,3.15,0,0,0,.59,2.08,1.77,1.77,0,0,0,1.39.69,1.74,1.74,0,0,0,1.37-.66,3,3,0,0,0,.56-2,3.41,3.41,0,0,0-.57-2.19,1.77,1.77,0,0,0-1.42-.7,1.7,1.7,0,0,0-1.37.67A3.31,3.31,0,0,0,516.19,256.27Zm11.93,1.29,1.27.16a3.1,3.1,0,0,1-1.11,1.73,3.77,3.77,0,0,1-4.6-.37,3.83,3.83,0,0,1-.93-2.75,4,4,0,0,1,.94-2.84,3.19,3.19,0,0,1,2.45-1,3.1,3.1,0,0,1,2.38,1,3.94,3.94,0,0,1,.92,2.79q0,.11,0,.33H524a2.79,2.79,0,0,0,.68,1.83,2,2,0,0,0,1.52.64,1.88,1.88,0,0,0,1.16-.36A2.36,2.36,0,0,0,528.13,257.55Zm-4-2h4.05a2.46,2.46,0,0,0-.46-1.37,1.89,1.89,0,0,0-1.52-.71,2,2,0,0,0-1.43.57A2.25,2.25,0,0,0,524.09,255.56Zm6.84,4.33v-7.26H532v1.1a3,3,0,0,1,.78-1,1.37,1.37,0,0,1,.79-.25,2.4,2.4,0,0,1,1.26.4l-.42,1.14a1.76,1.76,0,0,0-.9-.27,1.17,1.17,0,0,0-.72.24,1.31,1.31,0,0,0-.46.67,4.79,4.79,0,0,0-.21,1.44v3.8Z"/><polyline points="269.22 94.83 331.69 77.95 394.15 94.83 331.69 111.7 269.22 94.83" fill="#ffd967" fill-rule="evenodd"/><path d="M269.22,94.83l.1.36,62.37-16.85,61,16.49-61,16.49L269.32,94.46l-.1.36.1.36-.1-.36-.1.36,62.47,16.87h.2l62.47-16.87a.38.38,0,0,0,0-.72L331.78,77.59h-.2L269.12,94.46a.38.38,0,0,0,0,.72l.1-.36" fill="#9e9d9e"/><path d="M312,100V91.18h-3.3V90h7.94v1.18h-3.32V100Zm9.28,0a2.61,2.61,0,0,1-.25-.9,4.58,4.58,0,0,1-1.32.82,3.8,3.8,0,0,1-1.36.24,2.64,2.64,0,0,1-1.84-.58,1.93,1.93,0,0,1-.64-1.49,2,2,0,0,1,.24-1,2,2,0,0,1,.64-.71,3,3,0,0,1,.89-.4,8.8,8.8,0,0,1,1.09-.18,11.25,11.25,0,0,0,2.19-.42q0-.25,0-.32a1.36,1.36,0,0,0-.35-1.06,2.06,2.06,0,0,0-1.4-.42,2.17,2.17,0,0,0-1.28.3,1.86,1.86,0,0,0-.61,1.08l-1.2-.16a3,3,0,0,1,.54-1.25,2.37,2.37,0,0,1,1.09-.73,4.85,4.85,0,0,1,1.65-.26,4.36,4.36,0,0,1,1.51.22,2,2,0,0,1,.85.55,1.94,1.94,0,0,1,.38.84,6.93,6.93,0,0,1,.06,1.13V97a17.41,17.41,0,0,0,.08,2.17,2.74,2.74,0,0,0,.31.87Zm-.35-3.64a9,9,0,0,1-2,.46,4.65,4.65,0,0,0-1.07.25,1.07,1.07,0,0,0-.49.4,1.09,1.09,0,0,0,.2,1.4,1.6,1.6,0,0,0,1.09.33,2.54,2.54,0,0,0,1.26-.31,1.92,1.92,0,0,0,.81-.85,3,3,0,0,0,.2-1.23ZM324,100V92.76h1.11v1.1a3,3,0,0,1,.78-1,1.37,1.37,0,0,1,.79-.25A2.4,2.4,0,0,1,328,93l-.42,1.14a1.76,1.76,0,0,0-.9-.27,1.17,1.17,0,0,0-.72.24,1.31,1.31,0,0,0-.46.67,4.79,4.79,0,0,0-.21,1.44V100Zm4.45.6,1.2.18a1.14,1.14,0,0,0,.42.81,2,2,0,0,0,1.25.34,2.2,2.2,0,0,0,1.32-.34,1.68,1.68,0,0,0,.63-1,7.87,7.87,0,0,0,.09-1.58,2.53,2.53,0,0,1-2,1,2.74,2.74,0,0,1-2.32-1.08,4.16,4.16,0,0,1-.82-2.59,4.82,4.82,0,0,1,.38-1.92,3,3,0,0,1,1.09-1.36,2.94,2.94,0,0,1,1.68-.48,2.6,2.6,0,0,1,2.12,1v-.87h1.13V99a6,6,0,0,1-.35,2.4,2.52,2.52,0,0,1-1.09,1.12,3.79,3.79,0,0,1-1.84.41,3.47,3.47,0,0,1-2.1-.58A2,2,0,0,1,328.49,100.62Zm1-4.36a3.15,3.15,0,0,0,.57,2.08,1.87,1.87,0,0,0,2.84,0,3,3,0,0,0,.57-2,3,3,0,0,0-.59-2,1.83,1.83,0,0,0-1.43-.68,1.78,1.78,0,0,0-1.39.67A3,3,0,0,0,329.51,96.26Zm12,1.42,1.27.16a3.1,3.1,0,0,1-1.11,1.73,3.77,3.77,0,0,1-4.6-.37,3.83,3.83,0,0,1-.93-2.75A4,4,0,0,1,337,93.6a3.19,3.19,0,0,1,2.45-1,3.1,3.1,0,0,1,2.38,1,3.94,3.94,0,0,1,.92,2.79q0,.11,0,.33h-5.41a2.79,2.79,0,0,0,.68,1.83,2,2,0,0,0,1.52.64,1.88,1.88,0,0,0,1.16-.36A2.36,2.36,0,0,0,341.47,97.68Zm-4-2h4.05a2.46,2.46,0,0,0-.46-1.37,1.89,1.89,0,0,0-1.52-.71,2,2,0,0,0-1.43.57A2.25,2.25,0,0,0,337.43,95.69Zm9,3.27a4,4,0,0,0,.54,0l.18,1.09a4.57,4.57,0,0,1-.93.11,2.11,2.11,0,0,1-1-.21,1.19,1.19,0,0,1-.52-.56,4.4,4.4,0,0,1-.15-1.45V93.71h-.9v-1h.9V91l1.22-.74v2.54H347v1h-1.24V98a2.14,2.14,0,0,0,.06.68.51.51,0,0,0,.21.24.82.82,0,0,0,.42.09Zm4-1.42q0-.25,0-.37a3.44,3.44,0,0,1,.21-1.25,2.85,2.85,0,0,1,.49-.8,9.21,9.21,0,0,1,.89-.86,4.18,4.18,0,0,0,.83-.9,1.45,1.45,0,0,0,.19-.73,1.71,1.71,0,0,0-.56-1.26,1.9,1.9,0,0,0-1.37-.54,1.85,1.85,0,0,0-1.31.49,2.59,2.59,0,0,0-.69,1.54l-1.26-.15a3,3,0,0,1,3.25-2.89,3.34,3.34,0,0,1,2.34.8,2.53,2.53,0,0,1,.88,1.93,2.45,2.45,0,0,1-.31,1.21,5.74,5.74,0,0,1-1.2,1.35,6.09,6.09,0,0,0-.79.79,1.75,1.75,0,0,0-.27.58,4.87,4.87,0,0,0-.1,1.07Zm-.08,2.47v-1.4h1.4V100Z"/><polyline points="34.62 94.83 97.08 77.95 159.55 94.83 97.08 111.7 34.62 94.83" fill="#ffd967" fill-rule="evenodd"/><path d="M34.62,94.83l.1.36L97.08,78.34l61,16.49-61,16.49L34.71,94.46l-.1.36.1.36-.1-.36-.1.36L97,112.06h.2l62.47-16.87a.38.38,0,0,0,0-.72L97.18,77.59H97L34.52,94.46a.38.38,0,0,0,0,.72l.1-.36" fill="#9e9d9e"/><path d="M85.76,100V90h1.33v4.12H92.3V90h1.33v10H92.3V95.29H87.09V100Zm9.92-8.61V90h1.23v1.42Zm0,8.61V92.76h1.23V100ZM100.93,99a4,4,0,0,0,.54,0l.18,1.09a4.57,4.57,0,0,1-.93.11,2.11,2.11,0,0,1-1-.21,1.19,1.19,0,0,1-.52-.56A4.4,4.4,0,0,1,99,97.89V93.71h-.9v-1H99V91l1.22-.74v2.54h1.24v1h-1.24V98a2.14,2.14,0,0,0,.06.68.51.51,0,0,0,.21.24.82.82,0,0,0,.42.09Zm4-1.42q0-.25,0-.37a3.44,3.44,0,0,1,.21-1.25,2.85,2.85,0,0,1,.49-.8,9.2,9.2,0,0,1,.89-.86,4.18,4.18,0,0,0,.83-.9,1.45,1.45,0,0,0,.19-.73,1.71,1.71,0,0,0-.56-1.26,1.9,1.9,0,0,0-1.37-.54,1.85,1.85,0,0,0-1.31.49,2.59,2.59,0,0,0-.69,1.54l-1.26-.15a3,3,0,0,1,3.25-2.89,3.34,3.34,0,0,1,2.34.8,2.53,2.53,0,0,1,.88,1.93,2.45,2.45,0,0,1-.31,1.21,5.74,5.74,0,0,1-1.2,1.35,6.09,6.09,0,0,0-.79.79,1.75,1.75,0,0,0-.27.58,4.86,4.86,0,0,0-.1,1.07Zm-.08,2.47v-1.4h1.4V100Z"/><path d="M112.08,246a4.34,4.34,0,0,1,4.34-4.34h73a4.34,4.34,0,0,1,4.34,4.34v17.37a4.34,4.34,0,0,1-4.34,4.34h-73a4.34,4.34,0,0,1-4.34-4.34V246" fill="#e0e0e0" fill-rule="evenodd"/><path d="M112.08,246h.38a4,4,0,0,1,4-4h73a4,4,0,0,1,4,4v17.37a4,4,0,0,1-4,4h-73a4,4,0,0,1-4-4V246h-.75v17.37a4.72,4.72,0,0,0,4.72,4.72h73a4.72,4.72,0,0,0,4.72-4.72V246a4.72,4.72,0,0,0-4.72-4.72h-73a4.72,4.72,0,0,0-4.72,4.72h.38" fill="#9e9d9e"/><path d="M131.46,259.89v-10h3.45a8.37,8.37,0,0,1,1.78.14,3.4,3.4,0,0,1,1.47.72,4.08,4.08,0,0,1,1.19,1.71,6.72,6.72,0,0,1,.39,2.38,7,7,0,0,1-.27,2,4.91,4.91,0,0,1-.68,1.46,3.63,3.63,0,0,1-.91.91,3.72,3.72,0,0,1-1.2.5,6.83,6.83,0,0,1-1.61.17Zm1.33-1.18h2.14a5.19,5.19,0,0,0,1.56-.18,2.22,2.22,0,0,0,.9-.52,3.16,3.16,0,0,0,.73-1.27,6.2,6.2,0,0,0,.26-1.93,4.66,4.66,0,0,0-.52-2.42,2.6,2.6,0,0,0-1.25-1.13,5.19,5.19,0,0,0-1.72-.21h-2.11Zm13.59-1.16,1.27.16a3.1,3.1,0,0,1-1.11,1.73,3.77,3.77,0,0,1-4.6-.37,3.83,3.83,0,0,1-.93-2.75,4,4,0,0,1,.94-2.84,3.19,3.19,0,0,1,2.45-1,3.1,3.1,0,0,1,2.38,1,3.94,3.94,0,0,1,.92,2.79q0,.11,0,.33h-5.41a2.79,2.79,0,0,0,.68,1.83,2,2,0,0,0,1.52.64,1.88,1.88,0,0,0,1.16-.36A2.36,2.36,0,0,0,146.38,257.55Zm-4-2h4.05a2.46,2.46,0,0,0-.46-1.37,1.89,1.89,0,0,0-1.52-.71A2,2,0,0,0,143,254,2.25,2.25,0,0,0,142.34,255.56Zm7.15,4.33v-6.3H148.4v-1h1.09v-.77a3.38,3.38,0,0,1,.13-1.09,1.57,1.57,0,0,1,.63-.78,2.25,2.25,0,0,1,1.25-.3,6,6,0,0,1,1.15.12l-.18,1.07a4.13,4.13,0,0,0-.72-.07,1.08,1.08,0,0,0-.79.24,1.3,1.3,0,0,0-.23.9v.67h1.42v1h-1.42v6.3Zm8.55-2.34,1.27.16a3.1,3.1,0,0,1-1.11,1.73,3.77,3.77,0,0,1-4.6-.37,3.83,3.83,0,0,1-.93-2.75,4,4,0,0,1,.94-2.84,3.19,3.19,0,0,1,2.45-1,3.1,3.1,0,0,1,2.38,1,3.94,3.94,0,0,1,.92,2.79q0,.11,0,.33h-5.41a2.79,2.79,0,0,0,.68,1.83,2,2,0,0,0,1.52.64,1.88,1.88,0,0,0,1.16-.36A2.36,2.36,0,0,0,158,257.55Zm-4-2h4.05a2.46,2.46,0,0,0-.46-1.37,1.89,1.89,0,0,0-1.52-.71,2,2,0,0,0-1.43.57A2.25,2.25,0,0,0,154,255.56Zm6.85,4.33v-7.26H162v1a2.61,2.61,0,0,1,2.31-1.2,3,3,0,0,1,1.21.24,1.9,1.9,0,0,1,.82.62,2.38,2.38,0,0,1,.38.91,7.05,7.05,0,0,1,.07,1.2v4.46h-1.23v-4.42a3.32,3.32,0,0,0-.14-1.12,1.18,1.18,0,0,0-.51-.59,1.62,1.62,0,0,0-.86-.22,2,2,0,0,0-1.36.5,2.46,2.46,0,0,0-.57,1.89v4Zm12.49,0V259a2.26,2.26,0,0,1-2,1.08,2.85,2.85,0,0,1-1.6-.48,3.15,3.15,0,0,1-1.13-1.34,4.62,4.62,0,0,1-.4-2,5.16,5.16,0,0,1,.36-2,2.86,2.86,0,0,1,1.09-1.36,2.91,2.91,0,0,1,1.62-.47,2.42,2.42,0,0,1,2,1v-3.6h1.22v10Zm-3.89-3.62a3.15,3.15,0,0,0,.59,2.08,1.77,1.77,0,0,0,1.39.69,1.74,1.74,0,0,0,1.37-.66,3,3,0,0,0,.56-2,3.41,3.41,0,0,0-.57-2.19,1.77,1.77,0,0,0-1.42-.7,1.7,1.7,0,0,0-1.37.67A3.31,3.31,0,0,0,169.46,256.27Z"/><path d="M.37,246a4.34,4.34,0,0,1,4.34-4.34h73A4.34,4.34,0,0,1,82.08,246v17.37a4.34,4.34,0,0,1-4.34,4.34h-73a4.34,4.34,0,0,1-4.34-4.34V246" fill="#e0e0e0" fill-rule="evenodd"/><path d="M.37,246H.75a4,4,0,0,1,4-4h73a4,4,0,0,1,4,4v17.37a4,4,0,0,1-4,4h-73a4,4,0,0,1-4-4V246H0v17.37a4.72,4.72,0,0,0,4.72,4.72h73a4.72,4.72,0,0,0,4.72-4.72V246a4.72,4.72,0,0,0-4.72-4.72h-73A4.72,4.72,0,0,0,0,246H.37" fill="#9e9d9e"/><path d="M11.52,256.67l1.25-.11a2.76,2.76,0,0,0,.41,1.23,2.26,2.26,0,0,0,1,.78,3.82,3.82,0,0,0,1.54.3,3.69,3.69,0,0,0,1.34-.23,1.86,1.86,0,0,0,.86-.62,1.44,1.44,0,0,0,.28-.86,1.3,1.3,0,0,0-.27-.82,2,2,0,0,0-.9-.59,17.67,17.67,0,0,0-1.78-.49,9.11,9.11,0,0,1-1.93-.63,2.71,2.71,0,0,1-1.07-.93,2.29,2.29,0,0,1-.35-1.25,2.55,2.55,0,0,1,.43-1.42,2.67,2.67,0,0,1,1.26-1,4.77,4.77,0,0,1,1.84-.34,5,5,0,0,1,2,.36,2.83,2.83,0,0,1,1.31,1.06,3,3,0,0,1,.49,1.58l-1.27.1a2.05,2.05,0,0,0-.69-1.44,2.7,2.7,0,0,0-1.75-.49,2.8,2.8,0,0,0-1.75.44,1.32,1.32,0,0,0-.55,1.06,1.14,1.14,0,0,0,.39.89,5.28,5.28,0,0,0,2,.71,13.24,13.24,0,0,1,2.22.64,3,3,0,0,1,1.29,1,2.49,2.49,0,0,1,.42,1.43,2.73,2.73,0,0,1-.46,1.51,3,3,0,0,1-1.32,1.1,4.59,4.59,0,0,1-1.93.39,5.77,5.77,0,0,1-2.28-.4,3.19,3.19,0,0,1-1.44-1.19A3.38,3.38,0,0,1,11.52,256.67Zm14.59.88,1.27.16a3.1,3.1,0,0,1-1.11,1.73,3.35,3.35,0,0,1-2.08.62,3.32,3.32,0,0,1-2.53-1,3.83,3.83,0,0,1-.93-2.75,4,4,0,0,1,.94-2.84,3.19,3.19,0,0,1,2.45-1,3.1,3.1,0,0,1,2.38,1,3.94,3.94,0,0,1,.92,2.79q0,.11,0,.33H22a2.79,2.79,0,0,0,.68,1.83,2,2,0,0,0,1.52.64,1.88,1.88,0,0,0,1.16-.36A2.36,2.36,0,0,0,26.11,257.55Zm-4-2h4.05a2.46,2.46,0,0,0-.46-1.37,1.89,1.89,0,0,0-1.52-.71,2,2,0,0,0-1.43.57A2.25,2.25,0,0,0,22.07,255.56Zm9,3.27a4,4,0,0,0,.54,0l.18,1.09a4.57,4.57,0,0,1-.93.11,2.11,2.11,0,0,1-1-.21,1.19,1.19,0,0,1-.52-.56,4.4,4.4,0,0,1-.15-1.45v-4.18h-.9v-1h.9v-1.8l1.22-.74v2.54h1.24v1H30.37v4.25a2.14,2.14,0,0,0,.06.68.51.51,0,0,0,.21.24.82.82,0,0,0,.42.09Zm7.76,0a4,4,0,0,0,.54,0l.18,1.09a4.57,4.57,0,0,1-.93.11,2.11,2.11,0,0,1-1-.21,1.19,1.19,0,0,1-.52-.56,4.4,4.4,0,0,1-.15-1.45v-4.18H36v-1h.9v-1.8l1.22-.74v2.54h1.24v1H38.13v4.25a2.14,2.14,0,0,0,.06.68.51.51,0,0,0,.21.24.82.82,0,0,0,.42.09Zm6.71,1.05a2.61,2.61,0,0,1-.25-.9,4.58,4.58,0,0,1-1.32.82,3.8,3.8,0,0,1-1.36.24,2.64,2.64,0,0,1-1.84-.58,1.93,1.93,0,0,1-.64-1.49,2,2,0,0,1,.24-1,2,2,0,0,1,.64-.71,3,3,0,0,1,.89-.4,8.8,8.8,0,0,1,1.09-.18,11.25,11.25,0,0,0,2.19-.42q0-.25,0-.32a1.36,1.36,0,0,0-.35-1.06,2.06,2.06,0,0,0-1.4-.42,2.17,2.17,0,0,0-1.28.3,1.86,1.86,0,0,0-.61,1.08l-1.2-.16a3,3,0,0,1,.54-1.25,2.37,2.37,0,0,1,1.09-.73,4.85,4.85,0,0,1,1.65-.26,4.36,4.36,0,0,1,1.51.22,2,2,0,0,1,.85.55,1.94,1.94,0,0,1,.38.84,6.93,6.93,0,0,1,.06,1.13v1.64a17.4,17.4,0,0,0,.08,2.17,2.73,2.73,0,0,0,.31.87Zm-.35-3.64a9,9,0,0,1-2,.46,4.65,4.65,0,0,0-1.07.25,1.07,1.07,0,0,0-.49.4,1.09,1.09,0,0,0,.2,1.4,1.6,1.6,0,0,0,1.09.33,2.54,2.54,0,0,0,1.26-.31,1.92,1.92,0,0,0,.81-.85,3,3,0,0,0,.2-1.23Zm3.14,3.64v-7.26h1.11v1.1a3,3,0,0,1,.78-1,1.37,1.37,0,0,1,.79-.25,2.4,2.4,0,0,1,1.26.4L51.85,254a1.76,1.76,0,0,0-.9-.27,1.17,1.17,0,0,0-.72.24,1.31,1.31,0,0,0-.46.67,4.79,4.79,0,0,0-.21,1.44v3.8Zm4.45.6,1.2.18a1.14,1.14,0,0,0,.42.81,2,2,0,0,0,1.25.34,2.2,2.2,0,0,0,1.32-.34,1.68,1.68,0,0,0,.63-1,7.87,7.87,0,0,0,.09-1.58,2.53,2.53,0,0,1-2,1,2.74,2.74,0,0,1-2.32-1.08,4.16,4.16,0,0,1-.82-2.59,4.82,4.82,0,0,1,.38-1.92A3,3,0,0,1,54,252.94a2.94,2.94,0,0,1,1.68-.48,2.6,2.6,0,0,1,2.12,1v-.87h1.13v6.28a6,6,0,0,1-.35,2.4,2.53,2.53,0,0,1-1.09,1.12,3.79,3.79,0,0,1-1.84.41,3.47,3.47,0,0,1-2.1-.58A2,2,0,0,1,52.78,260.49Zm1-4.36a3.15,3.15,0,0,0,.57,2.08,1.87,1.87,0,0,0,2.84,0,3,3,0,0,0,.57-2,3,3,0,0,0-.59-2,1.83,1.83,0,0,0-1.43-.68,1.78,1.78,0,0,0-1.39.67A3,3,0,0,0,53.8,256.13Zm12,1.42,1.27.16a3.1,3.1,0,0,1-1.11,1.73,3.77,3.77,0,0,1-4.6-.37,3.83,3.83,0,0,1-.93-2.75,4,4,0,0,1,.94-2.84,3.19,3.19,0,0,1,2.45-1,3.1,3.1,0,0,1,2.38,1,3.94,3.94,0,0,1,.92,2.79q0,.11,0,.33H61.65a2.79,2.79,0,0,0,.68,1.83,2,2,0,0,0,1.52.64,1.88,1.88,0,0,0,1.16-.36A2.36,2.36,0,0,0,65.76,257.55Zm-4-2h4.05a2.46,2.46,0,0,0-.46-1.37,1.89,1.89,0,0,0-1.52-.71,2,2,0,0,0-1.43.57A2.25,2.25,0,0,0,61.72,255.56Zm9,3.27a4,4,0,0,0,.54,0l.18,1.09a4.57,4.57,0,0,1-.93.11,2.11,2.11,0,0,1-1-.21,1.19,1.19,0,0,1-.52-.56,4.4,4.4,0,0,1-.15-1.45v-4.18h-.9v-1h.9v-1.8l1.22-.74v2.54h1.24v1H70v4.25a2.14,2.14,0,0,0,.06.68.51.51,0,0,0,.21.24.82.82,0,0,0,.42.09Z"/><path d="M56.23,168a4.34,4.34,0,0,1,4.34-4.34h73a4.34,4.34,0,0,1,4.34,4.34v17.37a4.34,4.34,0,0,1-4.34,4.34h-73a4.34,4.34,0,0,1-4.34-4.34V168" fill="#78909c" fill-rule="evenodd"/><path d="M56.23,168h.37a4,4,0,0,1,4-4h73a4,4,0,0,1,4,4v17.37a4,4,0,0,1-4,4h-73a4,4,0,0,1-4-4V168h-.75v17.37a4.72,4.72,0,0,0,4.72,4.72h73a4.72,4.72,0,0,0,4.72-4.72V168a4.72,4.72,0,0,0-4.72-4.72h-73A4.72,4.72,0,0,0,55.85,168h.38" fill="#9e9d9e"/><path d="M66.2,178.66l1.25-.11a2.76,2.76,0,0,0,.41,1.23,2.26,2.26,0,0,0,1,.78,3.82,3.82,0,0,0,1.54.3,3.69,3.69,0,0,0,1.34-.23,1.86,1.86,0,0,0,.86-.62,1.44,1.44,0,0,0,.28-.86,1.3,1.3,0,0,0-.27-.82,2,2,0,0,0-.9-.59,17.68,17.68,0,0,0-1.78-.49,9.11,9.11,0,0,1-1.93-.63,2.71,2.71,0,0,1-1.07-.93,2.29,2.29,0,0,1-.35-1.25A2.55,2.55,0,0,1,67,173a2.67,2.67,0,0,1,1.26-1,4.77,4.77,0,0,1,1.84-.34,5,5,0,0,1,2,.36,2.83,2.83,0,0,1,1.31,1.06,3,3,0,0,1,.49,1.58l-1.27.1a2.05,2.05,0,0,0-.69-1.44,2.7,2.7,0,0,0-1.75-.49,2.8,2.8,0,0,0-1.75.44,1.32,1.32,0,0,0-.55,1.06,1.14,1.14,0,0,0,.39.89,5.28,5.28,0,0,0,2,.71,13.24,13.24,0,0,1,2.22.64,3,3,0,0,1,1.29,1,2.49,2.49,0,0,1,.42,1.43,2.73,2.73,0,0,1-.46,1.51,3,3,0,0,1-1.32,1.1,4.59,4.59,0,0,1-1.93.39,5.77,5.77,0,0,1-2.28-.4,3.19,3.19,0,0,1-1.44-1.19A3.38,3.38,0,0,1,66.2,178.66Zm14.59.88,1.27.16a3.1,3.1,0,0,1-1.11,1.73,3.77,3.77,0,0,1-4.6-.37,3.83,3.83,0,0,1-.93-2.75,4,4,0,0,1,.94-2.84,3.19,3.19,0,0,1,2.45-1,3.1,3.1,0,0,1,2.38,1,3.94,3.94,0,0,1,.92,2.79q0,.11,0,.33H76.68a2.79,2.79,0,0,0,.68,1.83,2,2,0,0,0,1.52.64,1.88,1.88,0,0,0,1.16-.36A2.36,2.36,0,0,0,80.79,179.54Zm-4-2H80.8a2.46,2.46,0,0,0-.46-1.37,1.89,1.89,0,0,0-1.52-.71,2,2,0,0,0-1.43.57A2.25,2.25,0,0,0,76.75,177.55Zm11.48,7.11V181.1a2.2,2.2,0,0,1-.8.67,2.36,2.36,0,0,1-1.1.27,2.9,2.9,0,0,1-2.23-1,4.06,4.06,0,0,1-.93-2.83,4.85,4.85,0,0,1,.38-2,2.83,2.83,0,0,1,1.1-1.32,2.94,2.94,0,0,1,1.58-.45,2.43,2.43,0,0,1,2.12,1.13v-1h1.11v10Zm-3.79-6.43a3.21,3.21,0,0,0,.59,2.1,1.78,1.78,0,0,0,1.41.7,1.72,1.72,0,0,0,1.35-.67,3.07,3.07,0,0,0,.57-2,3.39,3.39,0,0,0-.6-2.18,1.77,1.77,0,0,0-1.4-.73,1.7,1.7,0,0,0-1.36.68A3.32,3.32,0,0,0,84.44,178.23Zm11.71,3.65v-1.07a2.66,2.66,0,0,1-2.3,1.23,2.94,2.94,0,0,1-1.2-.25,2,2,0,0,1-.83-.62,2.32,2.32,0,0,1-.38-.91,6.24,6.24,0,0,1-.08-1.15v-4.5h1.23v4a7.17,7.17,0,0,0,.08,1.3,1.28,1.28,0,0,0,.49.76,1.52,1.52,0,0,0,.93.28,2,2,0,0,0,1-.28,1.58,1.58,0,0,0,.69-.77,3.88,3.88,0,0,0,.2-1.42v-3.89h1.23v7.26Zm8-2.34,1.27.16a3.1,3.1,0,0,1-1.11,1.73,3.77,3.77,0,0,1-4.6-.37,3.83,3.83,0,0,1-.93-2.75,4,4,0,0,1,.94-2.84,3.19,3.19,0,0,1,2.45-1,3.1,3.1,0,0,1,2.38,1,3.94,3.94,0,0,1,.92,2.79q0,.11,0,.33H100a2.79,2.79,0,0,0,.68,1.83,2,2,0,0,0,1.52.64,1.88,1.88,0,0,0,1.16-.36A2.36,2.36,0,0,0,104.14,179.54Zm-4-2h4.05a2.46,2.46,0,0,0-.46-1.37,1.89,1.89,0,0,0-1.52-.71,2,2,0,0,0-1.43.57A2.25,2.25,0,0,0,100.1,177.55Zm6.85,4.33v-7.26h1.11v1a2.61,2.61,0,0,1,2.31-1.2,3,3,0,0,1,1.21.24,1.9,1.9,0,0,1,.82.62,2.38,2.38,0,0,1,.38.91,7.05,7.05,0,0,1,.07,1.2v4.46h-1.23v-4.42a3.32,3.32,0,0,0-.14-1.12,1.18,1.18,0,0,0-.51-.59,1.62,1.62,0,0,0-.86-.22,2,2,0,0,0-1.36.5,2.46,2.46,0,0,0-.57,1.89v4Zm12.52-2.66,1.21.16a3.14,3.14,0,0,1-1,2,3,3,0,0,1-2,.71,3.12,3.12,0,0,1-2.4-1,4,4,0,0,1-.91-2.79,5.05,5.05,0,0,1,.39-2.06,2.72,2.72,0,0,1,1.19-1.32,3.52,3.52,0,0,1,1.73-.44,3,3,0,0,1,1.93.6,2.74,2.74,0,0,1,1,1.7l-1.2.18a2,2,0,0,0-.6-1.1,1.57,1.57,0,0,0-1-.37,1.91,1.91,0,0,0-1.51.67,3.16,3.16,0,0,0-.58,2.11,3.27,3.27,0,0,0,.56,2.13,1.82,1.82,0,0,0,1.46.66,1.72,1.72,0,0,0,1.21-.44A2.21,2.21,0,0,0,119.48,179.22Zm7.23.32,1.27.16a3.1,3.1,0,0,1-1.11,1.73,3.77,3.77,0,0,1-4.6-.37,3.83,3.83,0,0,1-.93-2.75,4,4,0,0,1,.94-2.84,3.19,3.19,0,0,1,2.45-1,3.1,3.1,0,0,1,2.38,1,3.94,3.94,0,0,1,.92,2.79q0,.11,0,.33H122.6a2.79,2.79,0,0,0,.68,1.83,2,2,0,0,0,1.52.64,1.88,1.88,0,0,0,1.16-.36A2.36,2.36,0,0,0,126.71,179.54Zm-4-2h4.05a2.46,2.46,0,0,0-.46-1.37,1.89,1.89,0,0,0-1.52-.71,2,2,0,0,0-1.43.57A2.25,2.25,0,0,0,122.67,177.55Z" fill="#fff"/><path d="M290.83,168a4.34,4.34,0,0,1,4.34-4.34h73a4.34,4.34,0,0,1,4.34,4.34v17.37a4.34,4.34,0,0,1-4.34,4.34h-73a4.34,4.34,0,0,1-4.34-4.34V168" fill="#78909c" fill-rule="evenodd"/><path d="M290.83,168h.37a4,4,0,0,1,4-4h73a4,4,0,0,1,4,4v17.37a4,4,0,0,1-4,4h-73a4,4,0,0,1-4-4V168h-.75v17.37a4.72,4.72,0,0,0,4.72,4.72h73a4.72,4.72,0,0,0,4.72-4.72V168a4.72,4.72,0,0,0-4.72-4.72h-73a4.72,4.72,0,0,0-4.72,4.72h.38" fill="#9e9d9e"/><path d="M306.65,178.66l1.25-.11a2.76,2.76,0,0,0,.41,1.23,2.26,2.26,0,0,0,1,.78,3.82,3.82,0,0,0,1.54.3,3.69,3.69,0,0,0,1.34-.23,1.86,1.86,0,0,0,.86-.62,1.43,1.43,0,0,0,.28-.86,1.3,1.3,0,0,0-.27-.82,2,2,0,0,0-.9-.59,17.68,17.68,0,0,0-1.78-.49,9.11,9.11,0,0,1-1.93-.63,2.71,2.71,0,0,1-1.07-.93,2.29,2.29,0,0,1-.35-1.25,2.55,2.55,0,0,1,.43-1.42,2.67,2.67,0,0,1,1.26-1,4.77,4.77,0,0,1,1.84-.34,5,5,0,0,1,2,.36,2.83,2.83,0,0,1,1.31,1.06,3,3,0,0,1,.49,1.58l-1.27.1a2.05,2.05,0,0,0-.69-1.44,2.7,2.7,0,0,0-1.75-.49,2.8,2.8,0,0,0-1.75.44,1.32,1.32,0,0,0-.55,1.06,1.14,1.14,0,0,0,.39.89,5.28,5.28,0,0,0,2,.71,13.24,13.24,0,0,1,2.22.64,3,3,0,0,1,1.29,1,2.49,2.49,0,0,1,.42,1.43,2.73,2.73,0,0,1-.46,1.51,3,3,0,0,1-1.32,1.1,4.58,4.58,0,0,1-1.93.39,5.77,5.77,0,0,1-2.28-.4,3.19,3.19,0,0,1-1.44-1.19A3.38,3.38,0,0,1,306.65,178.66Zm14.59.88,1.27.16a3.1,3.1,0,0,1-1.11,1.73,3.77,3.77,0,0,1-4.6-.37,3.83,3.83,0,0,1-.93-2.75,4,4,0,0,1,.94-2.84,3.19,3.19,0,0,1,2.45-1,3.1,3.1,0,0,1,2.38,1,3.94,3.94,0,0,1,.92,2.79q0,.11,0,.33h-5.41a2.79,2.79,0,0,0,.68,1.83,2,2,0,0,0,1.52.64,1.88,1.88,0,0,0,1.16-.36A2.36,2.36,0,0,0,321.24,179.54Zm-4-2h4.05a2.46,2.46,0,0,0-.46-1.37,1.89,1.89,0,0,0-1.52-.71,2,2,0,0,0-1.43.57A2.25,2.25,0,0,0,317.2,177.55Zm6.83,4.33v-10h1.23v10Zm8.11-2.34,1.27.16a3.1,3.1,0,0,1-1.11,1.73,3.77,3.77,0,0,1-4.6-.37,3.83,3.83,0,0,1-.93-2.75,4,4,0,0,1,.94-2.84,3.19,3.19,0,0,1,2.45-1,3.1,3.1,0,0,1,2.38,1,3.94,3.94,0,0,1,.92,2.79q0,.11,0,.33H328a2.79,2.79,0,0,0,.68,1.83,2,2,0,0,0,1.52.64,1.88,1.88,0,0,0,1.16-.36A2.36,2.36,0,0,0,332.13,179.54Zm-4-2h4.05a2.46,2.46,0,0,0-.46-1.37,1.89,1.89,0,0,0-1.52-.71,2,2,0,0,0-1.43.57A2.25,2.25,0,0,0,328.09,177.55Zm11.59,1.67,1.21.16a3.14,3.14,0,0,1-1,2,3,3,0,0,1-2,.71,3.12,3.12,0,0,1-2.4-1,4,4,0,0,1-.91-2.79,5.05,5.05,0,0,1,.39-2.06,2.72,2.72,0,0,1,1.19-1.32,3.52,3.52,0,0,1,1.73-.44,3,3,0,0,1,1.93.6,2.74,2.74,0,0,1,1,1.7l-1.2.18a2,2,0,0,0-.6-1.1,1.57,1.57,0,0,0-1-.37,1.91,1.91,0,0,0-1.51.67,3.16,3.16,0,0,0-.58,2.11,3.27,3.27,0,0,0,.56,2.13,1.82,1.82,0,0,0,1.46.66,1.72,1.72,0,0,0,1.21-.44A2.21,2.21,0,0,0,339.68,179.22Zm4.41,1.61a4,4,0,0,0,.54,0l.18,1.09a4.57,4.57,0,0,1-.93.11,2.11,2.11,0,0,1-1-.21,1.19,1.19,0,0,1-.52-.56,4.4,4.4,0,0,1-.15-1.45v-4.18h-.9v-1h.9v-1.8l1.22-.74v2.54h1.24v1h-1.24v4.25a2.14,2.14,0,0,0,.06.68.51.51,0,0,0,.21.24.82.82,0,0,0,.42.09Zm1.27-2.58a3.74,3.74,0,0,1,1.12-3,3.38,3.38,0,0,1,2.28-.81,3.26,3.26,0,0,1,2.45,1,3.73,3.73,0,0,1,1,2.71,4.8,4.8,0,0,1-.42,2.2,3,3,0,0,1-1.22,1.25,3.56,3.56,0,0,1-1.75.44,3.26,3.26,0,0,1-2.46-1A3.9,3.9,0,0,1,345.36,178.25Zm1.26,0a3.09,3.09,0,0,0,.61,2.09,2,2,0,0,0,3.06,0,3.17,3.17,0,0,0,.61-2.13,3,3,0,0,0-.61-2,2,2,0,0,0-3.05,0A3.08,3.08,0,0,0,346.63,178.25Zm7,3.63v-7.26h1.11v1.1a3,3,0,0,1,.78-1,1.37,1.37,0,0,1,.79-.25,2.4,2.4,0,0,1,1.26.4l-.42,1.14a1.76,1.76,0,0,0-.9-.27,1.17,1.17,0,0,0-.72.24,1.31,1.31,0,0,0-.46.67,4.79,4.79,0,0,0-.21,1.44v3.8Z" fill="#fff"/><polyline points="96.71 190.06 96.68 190.09 96.71 190.09 96.71 190.06" fill="#9e9e9e"/><polyline points="41.66 241.3 41.24 241.3 41.24 241.68 41.66 241.3" fill="#9e9e9e"/><path d="M96.71,189.71v25.6H41.24a.37.37,0,0,0-.37.38v21.49h.75V216.07H97.08a.37.37,0,0,0,.37-.38v-26h-.75" fill="#9e9d9e"/><polygon points="40 237.18 41.24 240.59 42.48 237.18 40 237.18" fill="#9e9d9e" fill-rule="evenodd"/><polygon points="40 237.18 39.65 237.31 41.24 241.68 43.02 236.81 39.47 236.81 39.65 237.31 40 237.18 40 237.56 41.94 237.56 41.24 239.49 40.35 237.06 40 237.18 40 237.56 40 237.18" fill="#9e9d9e"/><polyline points="97.46 190.06 97.46 190.09 97.49 190.09 97.46 190.06" fill="#9e9e9e"/><polyline points="152.93 241.3 152.51 241.3 152.93 241.68 152.93 241.3" fill="#9e9e9e"/><polyline points="97.08 189.71 97.08 189.71 97.08 215.69 97.46 215.69 97.46 190.09 97.46 190.06 97.08 189.71" fill="#9e9e9e"/><path d="M96.71,189.71v26a.37.37,0,0,0,.38.38h55.47v21.11h.75V215.69a.38.38,0,0,0-.37-.37H97.46v-25.6Z" fill="#9e9d9e"/><polygon points="151.69 237.18 152.93 240.59 154.16 237.18 151.69 237.18" fill="#9e9d9e" fill-rule="evenodd"/><polygon points="151.69 237.18 151.34 237.31 152.93 241.68 154.7 236.81 151.15 236.81 151.34 237.31 151.69 237.18 151.69 237.56 153.63 237.56 152.93 239.49 152.04 237.06 151.69 237.18 151.69 237.56 151.69 237.18" fill="#9e9d9e"/><polyline points="331.31 190.06 331.28 190.09 331.31 190.09 331.31 190.06" fill="#9e9e9e"/><polyline points="276.26 241.3 275.84 241.3 275.84 241.68 276.26 241.3" fill="#9e9e9e"/><path d="M331.31,189.71v25.6H275.84a.38.38,0,0,0-.37.38v21.49h.75V216.07h55.47a.38.38,0,0,0,.38-.38v-26h-.75" fill="#9e9d9e"/><polygon points="274.61 237.18 275.84 240.59 277.08 237.18 274.61 237.18" fill="#9e9d9e" fill-rule="evenodd"/><polygon points="274.61 237.18 274.25 237.31 275.84 241.68 277.62 236.81 274.07 236.81 274.25 237.31 274.61 237.18 274.61 237.56 276.55 237.56 275.84 239.49 274.96 237.06 274.61 237.18 274.61 237.56 274.61 237.18" fill="#9e9d9e"/><polyline points="332.06 190.06 332.06 190.09 332.09 190.09 332.06 190.06" fill="#9e9e9e"/><polyline points="387.55 241.3 387.14 241.3 387.55 241.68 387.55 241.3" fill="#9e9e9e"/><polyline points="331.69 189.71 331.69 189.71 331.69 215.69 332.06 215.69 332.06 190.09 332.06 190.06 331.69 189.71" fill="#9e9e9e"/><path d="M331.31,189.71v26a.37.37,0,0,0,.38.38h55.49v21.11h.75V215.69a.37.37,0,0,0-.37-.37H332.06v-25.6h-.75Z" fill="#9e9d9e"/><polygon points="386.31 237.18 387.55 240.59 388.79 237.18 386.31 237.18" fill="#9e9d9e" fill-rule="evenodd"/><polygon points="386.31 237.18 385.96 237.31 387.55 241.68 389.33 236.81 385.78 236.81 385.96 237.31 386.31 237.18 386.31 237.56 388.25 237.56 387.55 239.49 386.67 237.06 386.31 237.18 386.31 237.56 386.31 237.18" fill="#9e9d9e"/><polyline points="97.08 112.06 97.08 112.06 97.08 137.68 97.11 137.68 97.08 112.06" fill="#37474f"/><polyline points="97.08 111.7 97.08 112.06 97.08 112.06 97.08 111.7" fill="#9e9e9e"/><polyline points="97.13 137.68 97.11 137.68 97.13 163.28 97.13 163.28 97.13 137.68" fill="#37474f"/><polyline points="97.13 163.28 97.13 163.28 97.13 163.67 97.13 163.28" fill="#9e9e9e"/><path d="M96.71,111.7v26a.37.37,0,0,0,.38.38h0v-.37h-.37v21.49h.75V137.68a.37.37,0,0,0-.37-.37h0v.38h.38v-26Z" fill="#9e9d9e"/><polygon points="95.89 159.17 97.13 162.57 98.37 159.17 95.89 159.17" fill="#9e9d9e" fill-rule="evenodd"/><polygon points="95.89 159.17 95.54 159.3 97.13 163.67 98.91 158.79 95.36 158.79 95.54 159.3 95.89 159.17 95.89 159.54 97.83 159.54 97.13 161.48 96.24 159.04 95.89 159.17 95.89 159.54 95.89 159.17" fill="#9e9d9e"/><polyline points="331.69 112.06 331.69 112.06 331.69 137.68 331.71 137.68 331.69 112.06" fill="#37474f"/><polyline points="331.69 111.7 331.69 112.06 331.69 112.06 331.69 111.7" fill="#9e9e9e"/><polyline points="331.73 137.68 331.71 137.68 331.73 163.28 331.73 163.28 331.73 137.68" fill="#37474f"/><polyline points="331.73 163.28 331.73 163.28 331.73 163.67 331.73 163.28" fill="#9e9e9e"/><path d="M331.31,111.7v26a.37.37,0,0,0,.38.38h0v-.37h-.37v21.49h.75V137.68a.37.37,0,0,0-.37-.37h0v.38h.38v-26h-.75Z" fill="#9e9d9e"/><polygon points="330.49 159.17 331.73 162.57 332.97 159.17 330.49 159.17" fill="#9e9d9e" fill-rule="evenodd"/><polygon points="330.49 159.17 330.14 159.3 331.73 163.67 333.51 158.79 329.96 158.79 330.14 159.3 330.49 159.17 330.49 159.54 332.44 159.54 331.73 161.48 330.85 159.04 330.49 159.17 330.49 159.54 330.49 159.17" fill="#9e9d9e"/><polyline points="331.76 73.45 331.75 73.45 331.76 77.59 331.76 77.59 331.76 73.45" fill="#37474f"/><polyline points="331.76 77.59 331.76 77.59 331.76 77.95 331.76 77.59" fill="#9e9e9e"/><path d="M331.33,26.43V52.19a.38.38,0,0,0,.38.38h0v-.38h-.38V73.45h.75V52.19a.37.37,0,0,0-.37-.37h0v.37h.37V26.43h-.75" fill="#9e9d9e"/><polygon points="330.52 73.45 331.76 76.86 333 73.45 330.52 73.45" fill="#9e9d9e" fill-rule="evenodd"/><polygon points="330.52 73.45 330.17 73.58 331.76 77.95 333.53 73.08 329.98 73.08 330.17 73.58 330.52 73.45 330.52 73.83 332.46 73.83 331.76 75.76 330.87 73.32 330.52 73.45 330.52 73.83 330.52 73.45" fill="#9e9d9e"/><polyline points="331.33 26.51 330 26.81 331.33 26.81 331.33 26.51" fill="#9e9e9e"/><polyline points="97.18 77.59 97.09 77.59 97.09 77.95 97.88 77.78 97.18 77.59" fill="#9e9e9e"/><path d="M331.33,26.43V51.82H97.1a.37.37,0,0,0-.38.37V73.45h.75V52.57H331.71a.38.38,0,0,0,.37-.38V26.43h-.75" fill="#9e9d9e"/><polygon points="95.86 73.45 97.09 76.86 98.33 73.45 95.86 73.45" fill="#9e9d9e" fill-rule="evenodd"/><polygon points="95.86 73.45 95.5 73.58 97.09 77.95 98.87 73.08 95.32 73.08 95.5 73.58 95.86 73.45 95.86 73.83 97.8 73.83 97.09 75.76 96.21 73.32 95.86 73.45 95.86 73.83 95.86 73.45" fill="#9e9d9e"/><path d="M332.08,52v.18a.38.38,0,0,1,0,.13h.07v-.13a.38.38,0,0,0,0-.18" fill="#9e9e9e"/><polyline points="510.43 241.3 510.12 241.3 510.43 241.68 510.43 241.3" fill="#9e9e9e"/><polyline points="387.28 93.36 389.27 95.76 392.71 94.83 387.28 93.36" fill="#ffda67"/><path d="M386.45,92.36l.83,1,5.43,1.47-3.44.93.53.63,4.45-1.2a.38.38,0,0,0,0-.72l-7.8-2.11" fill="#9e9e9e"/><path d="M331.71,26.43h0V52.33h.35a.38.38,0,0,0,0-.13V26.88l-.37-.45" fill="#9e9e9e"/><path d="M331.33,26.43V52.33a.38.38,0,0,0,.38.37H510.06V237.18h.75V52.33a.37.37,0,0,0-.37-.37H332.08V26.43Z" fill="#9e9d9e"/><polygon points="509.19 237.18 510.43 240.58 511.67 237.18 509.19 237.18" fill="#9e9d9e" fill-rule="evenodd"/><polygon points="509.19 237.18 508.84 237.3 510.43 241.68 512.21 236.8 508.66 236.8 508.84 237.3 509.19 237.18 509.19 237.55 511.14 237.55 510.43 239.48 509.55 237.05 509.19 237.18 509.19 237.55 509.19 237.18" fill="#9e9d9e"/></g></g></svg>