<svg xmlns="http://www.w3.org/2000/svg" viewBox="0 0 368.31 269.76"><title>dt1</title><g id="Layer_2" data-name="Layer 2"><g id="Layer_1-2" data-name="Layer 1"><path d="M89.57,240.88h0a5.7,5.7,0,0,1,5.7-5.7h81.39a5.7,5.7,0,0,1,5.7,5.7v22.8a5.7,5.7,0,0,1-5.7,5.7H95.27a5.7,5.7,0,0,1-5.7-5.7Z" fill="#e0e0e0" fill-rule="evenodd"/><path d="M89.57,240.88h.37a5.33,5.33,0,0,1,5.33-5.33h81.39a5.33,5.33,0,0,1,5.33,5.33v22.8a5.33,5.33,0,0,1-5.33,5.33H95.27a5.33,5.33,0,0,1-5.33-5.33v-22.8H89.2v22.8a6.08,6.08,0,0,0,6.08,6.08h81.39a6.08,6.08,0,0,0,6.08-6.08v-22.8a6.08,6.08,0,0,0-6.08-6.08H95.27a6.08,6.08,0,0,0-6.08,6.08h.38" fill="#9e9d9e"/><path d="M104.34,257.47v-10h2l2.37,7.1q.33,1,.48,1.48.17-.55.53-1.61l2.4-7h1.78v10h-1.28v-8.39l-2.91,8.39h-1.2l-2.9-8.53v8.53Zm11.09-3.63a3.74,3.74,0,0,1,1.12-3,3.38,3.38,0,0,1,2.28-.81,3.26,3.26,0,0,1,2.45,1,3.73,3.73,0,0,1,1,2.71,4.8,4.8,0,0,1-.42,2.2,3,3,0,0,1-1.22,1.25,3.56,3.56,0,0,1-1.75.44,3.26,3.26,0,0,1-2.46-1A3.9,3.9,0,0,1,115.43,253.84Zm1.26,0a3.09,3.09,0,0,0,.61,2.09,2,2,0,0,0,3.06,0,3.17,3.17,0,0,0,.61-2.13,3,3,0,0,0-.61-2,2,2,0,0,0-3.05,0A3.08,3.08,0,0,0,116.69,253.84Zm9,3.63-2.76-7.26h1.3l1.56,4.35q.25.7.46,1.46.16-.57.46-1.38l1.61-4.43h1.26l-2.75,7.26Zm10-2.34,1.27.16A3.1,3.1,0,0,1,135.8,257a3.77,3.77,0,0,1-4.6-.37,3.83,3.83,0,0,1-.93-2.75,4,4,0,0,1,.94-2.84,3.19,3.19,0,0,1,2.45-1,3.1,3.1,0,0,1,2.38,1,3.94,3.94,0,0,1,.92,2.79q0,.11,0,.33h-5.41a2.79,2.79,0,0,0,.68,1.83,2,2,0,0,0,1.52.64,1.88,1.88,0,0,0,1.16-.36A2.36,2.36,0,0,0,135.64,255.13Zm-4-2h4.05a2.46,2.46,0,0,0-.46-1.37,1.89,1.89,0,0,0-1.52-.71,2,2,0,0,0-1.43.57A2.25,2.25,0,0,0,131.6,253.14Zm10.72,4.33v-7.26h1.11v1.1a3,3,0,0,1,.78-1A1.37,1.37,0,0,1,145,250a2.4,2.4,0,0,1,1.26.4l-.42,1.14a1.76,1.76,0,0,0-.9-.27,1.17,1.17,0,0,0-.72.24,1.31,1.31,0,0,0-.46.67,4.79,4.79,0,0,0-.21,1.44v3.8Zm4.68-8.61v-1.42h1.23v1.42Zm0,8.61v-7.26h1.23v7.26Zm2.88.6,1.2.18a1.14,1.14,0,0,0,.42.81,2,2,0,0,0,1.25.34,2.2,2.2,0,0,0,1.32-.34,1.68,1.68,0,0,0,.63-1,7.87,7.87,0,0,0,.09-1.58,2.53,2.53,0,0,1-2,1,2.74,2.74,0,0,1-2.32-1.08,4.16,4.16,0,0,1-.82-2.59,4.82,4.82,0,0,1,.38-1.92,3,3,0,0,1,1.09-1.36,2.94,2.94,0,0,1,1.68-.48,2.6,2.6,0,0,1,2.12,1v-.87H156v6.28a6,6,0,0,1-.35,2.4,2.52,2.52,0,0,1-1.09,1.12,3.79,3.79,0,0,1-1.84.41,3.47,3.47,0,0,1-2.1-.58A2,2,0,0,1,149.88,258.07Zm1-4.36a3.15,3.15,0,0,0,.57,2.08,1.87,1.87,0,0,0,2.84,0,3,3,0,0,0,.57-2,3,3,0,0,0-.59-2,1.83,1.83,0,0,0-1.43-.68,1.78,1.78,0,0,0-1.39.67A3,3,0,0,0,150.9,253.71Zm7,3.76v-10h1.23V251a2.75,2.75,0,0,1,2.17-1,2.93,2.93,0,0,1,1.4.32,1.87,1.87,0,0,1,.85.88,4,4,0,0,1,.26,1.63v4.6h-1.23v-4.6a1.9,1.9,0,0,0-.4-1.34,1.49,1.49,0,0,0-1.13-.42,2,2,0,0,0-1,.28,1.6,1.6,0,0,0-.69.77,3.53,3.53,0,0,0-.21,1.34v4Zm9.93-1.05a4,4,0,0,0,.54,0l.18,1.09a4.57,4.57,0,0,1-.93.11,2.11,2.11,0,0,1-1-.21,1.19,1.19,0,0,1-.52-.56,4.4,4.4,0,0,1-.15-1.45v-4.18H165v-1h.9v-1.8l1.22-.74v2.54h1.24v1h-1.24v4.25a2.14,2.14,0,0,0,.06.68.51.51,0,0,0,.21.24.82.82,0,0,0,.42.09Z"/><path d="M275.15,240.88h0a5.7,5.7,0,0,1,5.7-5.7h81.39a5.7,5.7,0,0,1,5.7,5.7v22.8a5.7,5.7,0,0,1-5.7,5.7H280.85a5.7,5.7,0,0,1-5.7-5.7Z" fill="#e0e0e0" fill-rule="evenodd"/><path d="M275.15,240.88h.38a5.33,5.33,0,0,1,5.33-5.33h81.39a5.33,5.33,0,0,1,5.33,5.33v22.8a5.33,5.33,0,0,1-5.33,5.33H280.85a5.33,5.33,0,0,1-5.33-5.33v-22.8h-.75v22.8a6.08,6.08,0,0,0,6.08,6.08h81.39a6.08,6.08,0,0,0,6.08-6.08v-22.8a6.08,6.08,0,0,0-6.08-6.08H280.85a6.08,6.08,0,0,0-6.08,6.08h.37" fill="#9e9d9e"/><path d="M311.57,257.47v-10h1.33v10Zm8.21,0v-.92a2.26,2.26,0,0,1-2,1.08,2.85,2.85,0,0,1-1.6-.48,3.15,3.15,0,0,1-1.13-1.34,4.62,4.62,0,0,1-.4-2,5.16,5.16,0,0,1,.36-2,2.86,2.86,0,0,1,1.09-1.36,2.91,2.91,0,0,1,1.62-.47,2.42,2.42,0,0,1,1.17.28,2.45,2.45,0,0,1,.83.72v-3.6h1.22v10Zm-3.89-3.62a3.15,3.15,0,0,0,.59,2.08,1.77,1.77,0,0,0,1.39.69,1.74,1.74,0,0,0,1.37-.66,3,3,0,0,0,.56-2,3.41,3.41,0,0,0-.57-2.19,1.77,1.77,0,0,0-1.42-.7,1.7,1.7,0,0,0-1.37.67A3.31,3.31,0,0,0,315.88,253.85Zm6.94,3.62v-10H324v10Zm8.11-2.34,1.27.16a3.1,3.1,0,0,1-1.11,1.73,3.77,3.77,0,0,1-4.6-.37,3.83,3.83,0,0,1-.93-2.75,4,4,0,0,1,.94-2.84,3.19,3.19,0,0,1,2.45-1,3.1,3.1,0,0,1,2.38,1,3.94,3.94,0,0,1,.92,2.79q0,.11,0,.33h-5.41a2.79,2.79,0,0,0,.68,1.83,2,2,0,0,0,1.52.64,1.88,1.88,0,0,0,1.16-.36A2.36,2.36,0,0,0,330.92,255.13Zm-4-2h4.05a2.46,2.46,0,0,0-.46-1.37,1.89,1.89,0,0,0-1.52-.71,2,2,0,0,0-1.43.57A2.25,2.25,0,0,0,326.88,253.14Z"/><polyline points="113.94 0.38 170.78 0.38 170.78 38.27 113.94 38.27 113.94 0.38" fill="#e0e0e0" fill-rule="evenodd"/><path d="M113.94.38V.75h56.47V37.89H114.31V.38h-.38v0h-.38V38.27a.38.38,0,0,0,.38.38h56.84a.37.37,0,0,0,.37-.38V.38a.37.37,0,0,0-.37-.38H113.94a.38.38,0,0,0-.38.38h.38" fill="#9e9d9e"/><path d="M128.21,21.29l1.25-.11a2.76,2.76,0,0,0,.41,1.23,2.26,2.26,0,0,0,1,.78,3.82,3.82,0,0,0,1.54.3,3.69,3.69,0,0,0,1.34-.23,1.86,1.86,0,0,0,.86-.62,1.44,1.44,0,0,0,.28-.86,1.3,1.3,0,0,0-.27-.82,2,2,0,0,0-.9-.59,17.68,17.68,0,0,0-1.78-.49,9.11,9.11,0,0,1-1.93-.63,2.71,2.71,0,0,1-1.07-.93,2.29,2.29,0,0,1-.35-1.25,2.55,2.55,0,0,1,.43-1.42,2.67,2.67,0,0,1,1.26-1,4.77,4.77,0,0,1,1.84-.34,5,5,0,0,1,2,.36,2.83,2.83,0,0,1,1.31,1.06,3,3,0,0,1,.49,1.58l-1.27.1a2.05,2.05,0,0,0-.69-1.44,2.7,2.7,0,0,0-1.75-.49,2.8,2.8,0,0,0-1.75.44,1.32,1.32,0,0,0-.55,1.06,1.14,1.14,0,0,0,.39.89,5.28,5.28,0,0,0,2,.71,13.24,13.24,0,0,1,2.22.64,3,3,0,0,1,1.29,1,2.49,2.49,0,0,1,.42,1.43,2.73,2.73,0,0,1-.46,1.51,3,3,0,0,1-1.32,1.1,4.59,4.59,0,0,1-1.93.39,5.77,5.77,0,0,1-2.28-.4,3.19,3.19,0,0,1-1.44-1.19A3.38,3.38,0,0,1,128.21,21.29ZM140,23.46a4,4,0,0,0,.54,0l.18,1.09a4.57,4.57,0,0,1-.93.11,2.11,2.11,0,0,1-1-.21,1.19,1.19,0,0,1-.52-.56,4.4,4.4,0,0,1-.15-1.45V18.21h-.9v-1h.9v-1.8l1.22-.74v2.54h1.24v1h-1.24v4.25a2.14,2.14,0,0,0,.06.68.51.51,0,0,0,.21.24.82.82,0,0,0,.42.09Zm6.71,1.05a2.61,2.61,0,0,1-.25-.9,4.58,4.58,0,0,1-1.32.82,3.8,3.8,0,0,1-1.36.24,2.64,2.64,0,0,1-1.84-.58,1.93,1.93,0,0,1-.64-1.49,2,2,0,0,1,.24-1,2,2,0,0,1,.64-.71,3,3,0,0,1,.89-.4,8.8,8.8,0,0,1,1.09-.18,11.24,11.24,0,0,0,2.19-.42q0-.25,0-.32a1.36,1.36,0,0,0-.35-1.06,2.06,2.06,0,0,0-1.4-.42,2.17,2.17,0,0,0-1.28.3,1.86,1.86,0,0,0-.61,1.08l-1.2-.16a3,3,0,0,1,.54-1.25,2.37,2.37,0,0,1,1.09-.73,4.85,4.85,0,0,1,1.65-.26,4.36,4.36,0,0,1,1.51.22,2,2,0,0,1,.85.55,1.94,1.94,0,0,1,.38.84,6.93,6.93,0,0,1,.06,1.13v1.64a17.41,17.41,0,0,0,.08,2.17,2.73,2.73,0,0,0,.31.87Zm-.35-3.64a9,9,0,0,1-2,.46,4.65,4.65,0,0,0-1.07.25,1.07,1.07,0,0,0-.49.4,1.09,1.09,0,0,0,.2,1.4,1.6,1.6,0,0,0,1.09.33,2.54,2.54,0,0,0,1.26-.31,1.92,1.92,0,0,0,.81-.85,3,3,0,0,0,.2-1.23Zm3.14,3.64V17.25h1.11v1.1a3,3,0,0,1,.78-1,1.37,1.37,0,0,1,.79-.25,2.4,2.4,0,0,1,1.26.4L153,18.63a1.76,1.76,0,0,0-.9-.27,1.17,1.17,0,0,0-.72.24,1.31,1.31,0,0,0-.46.67,4.79,4.79,0,0,0-.21,1.44v3.8Zm6.82-1.05a4,4,0,0,0,.54,0L157,24.5a4.57,4.57,0,0,1-.93.11,2.11,2.11,0,0,1-1-.21,1.19,1.19,0,0,1-.52-.56,4.4,4.4,0,0,1-.15-1.45V18.21h-.9v-1h.9v-1.8l1.22-.74v2.54h1.24v1h-1.24v4.25a2.14,2.14,0,0,0,.06.68.51.51,0,0,0,.21.24.82.82,0,0,0,.42.09Z"/><path d="M.38,167.7a5.7,5.7,0,0,1,5.7-5.7H87.46a5.7,5.7,0,0,1,5.7,5.7v22.8a5.7,5.7,0,0,1-5.7,5.7H6.08a5.7,5.7,0,0,1-5.7-5.7V167.7" fill="#e0e0e0" fill-rule="evenodd"/><path d="M.37,167.7H.75a5.33,5.33,0,0,1,5.33-5.33H87.46a5.33,5.33,0,0,1,5.33,5.33v22.8a5.33,5.33,0,0,1-5.33,5.33H6.08A5.33,5.33,0,0,1,.75,190.5V167.7H0v22.8a6.08,6.08,0,0,0,6.08,6.08H87.46a6.08,6.08,0,0,0,6.08-6.08V167.7a6.08,6.08,0,0,0-6.08-6.08H6.08A6.08,6.08,0,0,0,0,167.7H.37" fill="#9e9d9e"/><path d="M19.42,184.29v-10h2l2.37,7.1q.33,1,.48,1.48.17-.55.53-1.61l2.4-7H29v10H27.71V175.9l-2.91,8.39H23.6l-2.9-8.53v8.53Zm11.09-3.63a3.74,3.74,0,0,1,1.12-3,3.38,3.38,0,0,1,2.28-.81,3.26,3.26,0,0,1,2.45,1,3.73,3.73,0,0,1,1,2.71,4.8,4.8,0,0,1-.42,2.2A3,3,0,0,1,35.67,184a3.56,3.56,0,0,1-1.75.44,3.26,3.26,0,0,1-2.46-1A3.9,3.9,0,0,1,30.51,180.66Zm1.26,0a3.09,3.09,0,0,0,.61,2.09,2,2,0,0,0,3.06,0,3.17,3.17,0,0,0,.61-2.13,3,3,0,0,0-.61-2,2,2,0,0,0-3.05,0A3.08,3.08,0,0,0,31.78,180.66Zm9,3.63L38,177h1.3l1.56,4.35q.25.7.46,1.46.16-.57.46-1.38L43.4,177h1.26l-2.75,7.26Zm10-2.34,1.27.16a3.1,3.1,0,0,1-1.11,1.73,3.77,3.77,0,0,1-4.6-.37,3.83,3.83,0,0,1-.93-2.75,4,4,0,0,1,.94-2.84,3.19,3.19,0,0,1,2.45-1,3.1,3.1,0,0,1,2.38,1,3.94,3.94,0,0,1,.92,2.79q0,.11,0,.33H46.61a2.79,2.79,0,0,0,.68,1.83,2,2,0,0,0,1.52.64,1.88,1.88,0,0,0,1.16-.36A2.36,2.36,0,0,0,50.72,181.95Zm-4-2h4.05a2.46,2.46,0,0,0-.46-1.37,1.89,1.89,0,0,0-1.52-.71,2,2,0,0,0-1.43.57A2.25,2.25,0,0,0,46.68,180Zm10.7,4.33v-10h1.23v10Zm8.11-2.34,1.27.16a3.1,3.1,0,0,1-1.11,1.73,3.77,3.77,0,0,1-4.6-.37,3.83,3.83,0,0,1-.93-2.75,4,4,0,0,1,.94-2.84,3.19,3.19,0,0,1,2.45-1,3.1,3.1,0,0,1,2.38,1,3.94,3.94,0,0,1,.92,2.79q0,.11,0,.33H61.38a2.79,2.79,0,0,0,.68,1.83,2,2,0,0,0,1.52.64,1.88,1.88,0,0,0,1.16-.36A2.36,2.36,0,0,0,65.49,181.95Zm-4-2h4.05a2.46,2.46,0,0,0-.46-1.37,1.89,1.89,0,0,0-1.52-.71,2,2,0,0,0-1.43.57A2.25,2.25,0,0,0,61.45,180Zm7.15,4.33V178H67.51v-1H68.6v-.77a3.38,3.38,0,0,1,.13-1.09,1.57,1.57,0,0,1,.63-.78,2.25,2.25,0,0,1,1.25-.3,6,6,0,0,1,1.15.12l-.18,1.07a4.14,4.14,0,0,0-.72-.07,1.08,1.08,0,0,0-.79.24,1.3,1.3,0,0,0-.23.9V177h1.42v1H69.82v6.3Zm5.73-1.05a4,4,0,0,0,.54,0l.18,1.09a4.57,4.57,0,0,1-.93.11,2.11,2.11,0,0,1-1-.21,1.19,1.19,0,0,1-.52-.56,4.4,4.4,0,0,1-.15-1.45V178h-.9v-1h.9v-1.8l1.22-.74V177h1.24v1H73.63v4.25a2.14,2.14,0,0,0,.06.68.51.51,0,0,0,.21.24.82.82,0,0,0,.42.09Z"/><polyline points="156.34 179.1 232.34 150.43 308.34 179.1 232.34 207.76 156.34 179.1" fill="#e0e0e0" fill-rule="evenodd"/><path d="M156.34,179.1l.13.35,75.87-28.62,74.94,28.26-74.94,28.26-75.87-28.62-.13.35.13.35-.13-.35-.13.35,76,28.67h.26l76-28.67a.38.38,0,0,0,0-.7l-76-28.67h-.26l-76,28.67a.37.37,0,0,0,0,.7l.13-.35" fill="#9e9d9e"/><path d="M203.87,176V166h3.78a9.13,9.13,0,0,1,1.52.1,3,3,0,0,1,1.24.47,2.46,2.46,0,0,1,.8,1,3.26,3.26,0,0,1-.51,3.53,3.9,3.9,0,0,1-2.94.89h-2.57V176Zm1.33-5.26h2.59a2.75,2.75,0,0,0,1.83-.48,1.71,1.71,0,0,0,.54-1.35,1.81,1.81,0,0,0-.32-1.08,1.49,1.49,0,0,0-.84-.59,5.67,5.67,0,0,0-1.24-.09h-2.56ZM213,176V166h1.23v10Zm8.12,0a2.61,2.61,0,0,1-.25-.9,4.58,4.58,0,0,1-1.32.82,3.8,3.8,0,0,1-1.36.24,2.64,2.64,0,0,1-1.84-.58,1.93,1.93,0,0,1-.64-1.49,2,2,0,0,1,.24-1,2,2,0,0,1,.64-.71,3,3,0,0,1,.89-.4,8.8,8.8,0,0,1,1.09-.18,11.25,11.25,0,0,0,2.19-.42q0-.25,0-.32a1.36,1.36,0,0,0-.35-1.06,2.06,2.06,0,0,0-1.4-.42,2.17,2.17,0,0,0-1.28.3,1.86,1.86,0,0,0-.61,1.08l-1.2-.16a3,3,0,0,1,.54-1.25,2.37,2.37,0,0,1,1.09-.73,4.85,4.85,0,0,1,1.65-.26,4.36,4.36,0,0,1,1.51.22,2,2,0,0,1,.85.55,1.94,1.94,0,0,1,.38.84,6.93,6.93,0,0,1,.06,1.13V173a17.4,17.4,0,0,0,.08,2.17,2.73,2.73,0,0,0,.31.87Zm-.35-3.64a9,9,0,0,1-2,.46,4.65,4.65,0,0,0-1.07.25,1.07,1.07,0,0,0-.49.4,1.09,1.09,0,0,0,.2,1.4,1.6,1.6,0,0,0,1.09.33,2.54,2.54,0,0,0,1.26-.31,1.92,1.92,0,0,0,.81-.85,3,3,0,0,0,.2-1.23Zm3.89,6.59a2.47,2.47,0,0,1-.79-.15l-.14-1.16a2.74,2.74,0,0,0,.7.11,1.35,1.35,0,0,0,.66-.14,1.12,1.12,0,0,0,.4-.38,6.06,6.06,0,0,0,.38-.92l.11-.3-2.75-7.27h1.33l1.51,4.2q.29.8.53,1.68a16.53,16.53,0,0,1,.51-1.65l1.55-4.23h1.23l-2.76,7.38a14.52,14.52,0,0,1-.69,1.65,2.43,2.43,0,0,1-.75.89,1.78,1.78,0,0,1-1,.28Zm11.23-5.28,1.27.16a3.1,3.1,0,0,1-1.11,1.73,3.77,3.77,0,0,1-4.6-.37,3.83,3.83,0,0,1-.93-2.75,4,4,0,0,1,.94-2.84,3.19,3.19,0,0,1,2.45-1,3.1,3.1,0,0,1,2.38,1,3.94,3.94,0,0,1,.92,2.79q0,.11,0,.33h-5.41a2.79,2.79,0,0,0,.68,1.83,2,2,0,0,0,1.52.64,1.88,1.88,0,0,0,1.16-.36A2.36,2.36,0,0,0,235.9,173.7Zm-4-2h4.05a2.46,2.46,0,0,0-.46-1.37,1.89,1.89,0,0,0-1.52-.71,2,2,0,0,0-1.43.57A2.25,2.25,0,0,0,231.86,171.71ZM238.7,176v-7.26h1.11v1.1a3,3,0,0,1,.78-1,1.37,1.37,0,0,1,.79-.25,2.4,2.4,0,0,1,1.26.4l-.42,1.14a1.76,1.76,0,0,0-.9-.27,1.17,1.17,0,0,0-.72.24,1.31,1.31,0,0,0-.46.67,4.79,4.79,0,0,0-.21,1.44V176Zm8.1-3.63a3.74,3.74,0,0,1,1.12-3,3.38,3.38,0,0,1,2.28-.81,3.26,3.26,0,0,1,2.45,1,3.73,3.73,0,0,1,1,2.71,4.8,4.8,0,0,1-.42,2.2,3,3,0,0,1-1.22,1.25,3.56,3.56,0,0,1-1.75.44,3.26,3.26,0,0,1-2.46-1A3.9,3.9,0,0,1,246.79,172.41Zm1.26,0a3.09,3.09,0,0,0,.61,2.09,2,2,0,0,0,3.06,0,3.17,3.17,0,0,0,.61-2.13,3,3,0,0,0-.61-2,2,2,0,0,0-3.05,0A3.08,3.08,0,0,0,248.06,172.41Zm7,3.63v-7.26h1.11v1a2.61,2.61,0,0,1,2.31-1.2,3,3,0,0,1,1.21.24,1.9,1.9,0,0,1,.82.62,2.38,2.38,0,0,1,.38.91,7.06,7.06,0,0,1,.07,1.2V176H259.7v-4.42a3.32,3.32,0,0,0-.14-1.12,1.18,1.18,0,0,0-.51-.59,1.62,1.62,0,0,0-.86-.22,2,2,0,0,0-1.36.5,2.46,2.46,0,0,0-.57,1.89v4Z"/><path d="M206.24,191.48a4,4,0,0,0,.54,0l.18,1.09a4.57,4.57,0,0,1-.93.11,2.11,2.11,0,0,1-1-.21,1.19,1.19,0,0,1-.52-.56,4.4,4.4,0,0,1-.15-1.45v-4.18h-.9v-1h.9v-1.8l1.22-.74v2.54h1.24v1h-1.24v4.25a2.14,2.14,0,0,0,.06.68.51.51,0,0,0,.21.24.82.82,0,0,0,.42.09Zm1.73,1.05v-10h1.23v3.6a2.75,2.75,0,0,1,2.17-1,2.93,2.93,0,0,1,1.4.32,1.87,1.87,0,0,1,.85.88,4,4,0,0,1,.26,1.63v4.6h-1.23v-4.6a1.9,1.9,0,0,0-.4-1.34,1.49,1.49,0,0,0-1.13-.42,2,2,0,0,0-1,.28,1.6,1.6,0,0,0-.69.77,3.53,3.53,0,0,0-.21,1.34v4Zm12.75-2.34,1.27.16a3.1,3.1,0,0,1-1.11,1.73,3.77,3.77,0,0,1-4.6-.37,3.83,3.83,0,0,1-.93-2.75,4,4,0,0,1,.94-2.84,3.19,3.19,0,0,1,2.45-1,3.1,3.1,0,0,1,2.38,1,3.94,3.94,0,0,1,.92,2.79q0,.11,0,.33h-5.41a2.79,2.79,0,0,0,.68,1.83,2,2,0,0,0,1.52.64,1.88,1.88,0,0,0,1.16-.36A2.36,2.36,0,0,0,220.73,190.2Zm-4-2h4.05a2.46,2.46,0,0,0-.46-1.37,1.89,1.89,0,0,0-1.52-.71,2,2,0,0,0-1.43.57A2.25,2.25,0,0,0,216.69,188.21Zm10.72,4.33v-7.26h1.11v1.1a3,3,0,0,1,.78-1,1.37,1.37,0,0,1,.79-.25,2.4,2.4,0,0,1,1.26.4l-.42,1.14a1.76,1.76,0,0,0-.9-.27,1.17,1.17,0,0,0-.72.24,1.31,1.31,0,0,0-.46.67,4.79,4.79,0,0,0-.21,1.44v3.8Zm4.68-8.61v-1.42h1.23v1.42Zm0,8.61v-7.26h1.23v7.26Zm2.88.6,1.2.18a1.14,1.14,0,0,0,.42.81,2,2,0,0,0,1.25.34,2.2,2.2,0,0,0,1.32-.34,1.68,1.68,0,0,0,.63-1,7.87,7.87,0,0,0,.09-1.58,2.53,2.53,0,0,1-2,1,2.74,2.74,0,0,1-2.32-1.08,4.16,4.16,0,0,1-.82-2.59,4.82,4.82,0,0,1,.38-1.92,3,3,0,0,1,1.09-1.36,2.94,2.94,0,0,1,1.68-.48,2.6,2.6,0,0,1,2.12,1v-.87h1.13v6.28a6,6,0,0,1-.35,2.4,2.52,2.52,0,0,1-1.09,1.12,3.79,3.79,0,0,1-1.84.41,3.47,3.47,0,0,1-2.1-.58A2,2,0,0,1,235,193.14Zm1-4.36a3.15,3.15,0,0,0,.57,2.08,1.87,1.87,0,0,0,2.84,0,3,3,0,0,0,.57-2,3,3,0,0,0-.59-2,1.83,1.83,0,0,0-1.43-.68,1.78,1.78,0,0,0-1.39.67A3,3,0,0,0,236,188.78Zm7,3.76v-10h1.23v3.6a2.75,2.75,0,0,1,2.17-1,2.93,2.93,0,0,1,1.4.32,1.87,1.87,0,0,1,.85.88,4,4,0,0,1,.26,1.63v4.6h-1.23v-4.6a1.9,1.9,0,0,0-.4-1.34,1.49,1.49,0,0,0-1.13-.42,2,2,0,0,0-1,.28,1.6,1.6,0,0,0-.69.77,3.53,3.53,0,0,0-.21,1.34v4Zm9.93-1.05a4,4,0,0,0,.54,0l.18,1.09a4.57,4.57,0,0,1-.93.11,2.11,2.11,0,0,1-1-.21,1.19,1.19,0,0,1-.52-.56,4.4,4.4,0,0,1-.15-1.45v-4.18h-.9v-1h.9v-1.8l1.22-.74v2.54h1.24v1h-1.24v4.25a2.14,2.14,0,0,0,.06.68.51.51,0,0,0,.21.24.82.82,0,0,0,.42.09Zm4-1.42q0-.25,0-.37a3.44,3.44,0,0,1,.21-1.25,2.85,2.85,0,0,1,.49-.8,9.2,9.2,0,0,1,.89-.86,4.18,4.18,0,0,0,.83-.9,1.45,1.45,0,0,0,.19-.73,1.71,1.71,0,0,0-.56-1.26,1.9,1.9,0,0,0-1.37-.54,1.85,1.85,0,0,0-1.31.49,2.59,2.59,0,0,0-.69,1.54l-1.26-.15a3,3,0,0,1,3.25-2.89,3.34,3.34,0,0,1,2.34.8,2.53,2.53,0,0,1,.88,1.93,2.45,2.45,0,0,1-.31,1.21,5.73,5.73,0,0,1-1.2,1.35,6.09,6.09,0,0,0-.79.79,1.75,1.75,0,0,0-.27.58,4.87,4.87,0,0,0-.1,1.07Zm-.08,2.47v-1.4h1.4v1.4Z"/><polyline points="66.36 94.35 142.36 65.69 218.36 94.35 142.36 123.02 66.36 94.35" fill="#e0e0e0" fill-rule="evenodd"/><path d="M66.36,94.35l.13.35,75.87-28.62L217.3,94.35l-74.94,28.26L66.49,94l-.13.35.13.35-.13-.35-.13.35,76,28.67h.26l76-28.67a.38.38,0,0,0,0-.7l-76-28.67h-.26L66.23,94a.38.38,0,0,0,0,.7l.13-.35" fill="#9e9d9e"/><path d="M113.88,91.29v-10h3.78a9.13,9.13,0,0,1,1.52.1,3,3,0,0,1,1.24.47,2.46,2.46,0,0,1,.8,1,3.26,3.26,0,0,1-.51,3.53,3.9,3.9,0,0,1-2.94.89h-2.57v4.07ZM115.21,86h2.59a2.75,2.75,0,0,0,1.83-.48,1.71,1.71,0,0,0,.54-1.35,1.81,1.81,0,0,0-.32-1.08,1.49,1.49,0,0,0-.84-.59,5.67,5.67,0,0,0-1.24-.09h-2.56ZM123,91.29v-10h1.23v10Zm8.12,0a2.61,2.61,0,0,1-.25-.9,4.58,4.58,0,0,1-1.32.82,3.8,3.8,0,0,1-1.36.24,2.64,2.64,0,0,1-1.84-.58,1.93,1.93,0,0,1-.64-1.49,2,2,0,0,1,.24-1,2,2,0,0,1,.64-.71,3,3,0,0,1,.89-.4,8.8,8.8,0,0,1,1.09-.18,11.25,11.25,0,0,0,2.19-.42q0-.25,0-.32a1.36,1.36,0,0,0-.35-1.06,2.06,2.06,0,0,0-1.4-.42,2.17,2.17,0,0,0-1.28.3,1.86,1.86,0,0,0-.61,1.08L126,86.1a3,3,0,0,1,.54-1.25,2.37,2.37,0,0,1,1.09-.73,4.85,4.85,0,0,1,1.65-.26,4.36,4.36,0,0,1,1.51.22,2,2,0,0,1,.85.55,1.94,1.94,0,0,1,.38.84,6.93,6.93,0,0,1,.06,1.13v1.64a17.4,17.4,0,0,0,.08,2.17,2.73,2.73,0,0,0,.31.87Zm-.35-3.64a9,9,0,0,1-2,.46,4.65,4.65,0,0,0-1.07.25,1.07,1.07,0,0,0-.49.4,1.09,1.09,0,0,0,.2,1.4,1.6,1.6,0,0,0,1.09.33,2.54,2.54,0,0,0,1.26-.31,1.92,1.92,0,0,0,.81-.85,3,3,0,0,0,.2-1.23Zm3.89,6.59a2.47,2.47,0,0,1-.79-.15l-.14-1.16a2.74,2.74,0,0,0,.7.11,1.35,1.35,0,0,0,.66-.14,1.12,1.12,0,0,0,.4-.38,6.06,6.06,0,0,0,.38-.92l.11-.3L133.25,84h1.33l1.51,4.2q.29.8.53,1.68a16.53,16.53,0,0,1,.51-1.65L138.67,84h1.23l-2.76,7.38a14.52,14.52,0,0,1-.69,1.65,2.43,2.43,0,0,1-.75.89,1.78,1.78,0,0,1-1,.28ZM145.91,89l1.27.16a3.1,3.1,0,0,1-1.11,1.73,3.77,3.77,0,0,1-4.6-.37,3.83,3.83,0,0,1-.93-2.75,4,4,0,0,1,.94-2.84,3.19,3.19,0,0,1,2.45-1,3.1,3.1,0,0,1,2.38,1,3.94,3.94,0,0,1,.92,2.79q0,.11,0,.33H141.8a2.79,2.79,0,0,0,.68,1.83,2,2,0,0,0,1.52.64,1.88,1.88,0,0,0,1.16-.36A2.36,2.36,0,0,0,145.91,89Zm-4-2h4.05a2.46,2.46,0,0,0-.46-1.37,1.89,1.89,0,0,0-1.52-.71,2,2,0,0,0-1.43.57A2.25,2.25,0,0,0,141.87,87Zm6.84,4.33V84h1.11v1.1a3,3,0,0,1,.78-1,1.37,1.37,0,0,1,.79-.25,2.4,2.4,0,0,1,1.26.4l-.42,1.14a1.76,1.76,0,0,0-.9-.27,1.17,1.17,0,0,0-.72.24,1.31,1.31,0,0,0-.46.67,4.79,4.79,0,0,0-.21,1.44v3.8Zm8.1-3.63a3.74,3.74,0,0,1,1.12-3,3.38,3.38,0,0,1,2.28-.81,3.26,3.26,0,0,1,2.45,1,3.73,3.73,0,0,1,1,2.71,4.8,4.8,0,0,1-.42,2.2A3,3,0,0,1,162,91a3.56,3.56,0,0,1-1.75.44,3.26,3.26,0,0,1-2.46-1A3.9,3.9,0,0,1,156.81,87.66Zm1.26,0a3.09,3.09,0,0,0,.61,2.09,2,2,0,0,0,3.06,0,3.17,3.17,0,0,0,.61-2.13,3,3,0,0,0-.61-2,2,2,0,0,0-3.05,0A3.08,3.08,0,0,0,158.07,87.66Zm7,3.63V84h1.11v1a2.61,2.61,0,0,1,2.31-1.2,3,3,0,0,1,1.21.24,1.9,1.9,0,0,1,.82.62,2.38,2.38,0,0,1,.38.91,7.06,7.06,0,0,1,.07,1.2v4.46h-1.23V86.87a3.32,3.32,0,0,0-.14-1.12,1.18,1.18,0,0,0-.51-.59,1.62,1.62,0,0,0-.86-.22,2,2,0,0,0-1.36.5,2.46,2.46,0,0,0-.57,1.89v4Z"/><path d="M120.54,106.74a4,4,0,0,0,.54,0l.18,1.09a4.57,4.57,0,0,1-.93.11,2.11,2.11,0,0,1-1-.21,1.19,1.19,0,0,1-.52-.56,4.4,4.4,0,0,1-.15-1.45v-4.18h-.9v-1h.9v-1.8l1.22-.74v2.54h1.24v1h-1.24v4.25a2.14,2.14,0,0,0,.06.68.51.51,0,0,0,.21.24.82.82,0,0,0,.42.09Zm1.73,1.05v-10h1.23v3.6a2.75,2.75,0,0,1,2.17-1,2.93,2.93,0,0,1,1.4.32,1.87,1.87,0,0,1,.85.88,4,4,0,0,1,.26,1.63v4.6h-1.23v-4.6a1.9,1.9,0,0,0-.4-1.34,1.49,1.49,0,0,0-1.13-.42,2,2,0,0,0-1,.28,1.6,1.6,0,0,0-.69.77,3.53,3.53,0,0,0-.21,1.34v4ZM135,105.45l1.27.16a3.1,3.1,0,0,1-1.11,1.73,3.77,3.77,0,0,1-4.6-.37,3.83,3.83,0,0,1-.93-2.75,4,4,0,0,1,.94-2.84,3.19,3.19,0,0,1,2.45-1,3.1,3.1,0,0,1,2.38,1,3.94,3.94,0,0,1,.92,2.79q0,.11,0,.33h-5.41a2.79,2.79,0,0,0,.68,1.83,2,2,0,0,0,1.52.64,1.88,1.88,0,0,0,1.16-.36A2.36,2.36,0,0,0,135,105.45Zm-4-2H135a2.46,2.46,0,0,0-.46-1.37,1.89,1.89,0,0,0-1.52-.71,2,2,0,0,0-1.43.57A2.25,2.25,0,0,0,131,103.46Zm10.7,4.33v-10h1.23v10Zm8.11-2.34,1.27.16a3.1,3.1,0,0,1-1.11,1.73,3.77,3.77,0,0,1-4.6-.37,3.83,3.83,0,0,1-.93-2.75,4,4,0,0,1,.94-2.84,3.19,3.19,0,0,1,2.45-1,3.1,3.1,0,0,1,2.38,1,3.94,3.94,0,0,1,.92,2.79q0,.11,0,.33h-5.41a2.79,2.79,0,0,0,.68,1.83,2,2,0,0,0,1.52.64,1.88,1.88,0,0,0,1.16-.36A2.36,2.36,0,0,0,149.79,105.45Zm-4-2h4.05a2.46,2.46,0,0,0-.46-1.37,1.89,1.89,0,0,0-1.52-.71,2,2,0,0,0-1.43.57A2.25,2.25,0,0,0,145.75,103.46Zm7.15,4.33v-6.3h-1.09v-1h1.09v-.77a3.38,3.38,0,0,1,.13-1.09,1.57,1.57,0,0,1,.63-.78,2.25,2.25,0,0,1,1.25-.3,6,6,0,0,1,1.15.12l-.18,1.07a4.14,4.14,0,0,0-.72-.07,1.08,1.08,0,0,0-.79.24,1.3,1.3,0,0,0-.23.9v.67h1.42v1h-1.42v6.3Zm5.73-1.05a4,4,0,0,0,.54,0l.18,1.09a4.57,4.57,0,0,1-.93.11,2.11,2.11,0,0,1-1-.21,1.19,1.19,0,0,1-.52-.56,4.4,4.4,0,0,1-.15-1.45v-4.18h-.9v-1h.9v-1.8l1.22-.74v2.54h1.24v1h-1.24v4.25a2.14,2.14,0,0,0,.06.68.51.51,0,0,0,.21.24.82.82,0,0,0,.42.09Zm4-1.42q0-.25,0-.37a3.44,3.44,0,0,1,.21-1.25,2.85,2.85,0,0,1,.49-.8,9.2,9.2,0,0,1,.89-.86,4.18,4.18,0,0,0,.83-.9,1.45,1.45,0,0,0,.19-.73,1.71,1.71,0,0,0-.56-1.26,1.9,1.9,0,0,0-1.37-.54,1.85,1.85,0,0,0-1.31.49,2.59,2.59,0,0,0-.69,1.54l-1.26-.15a3,3,0,0,1,3.25-2.89,3.34,3.34,0,0,1,2.34.8,2.53,2.53,0,0,1,.88,1.93,2.45,2.45,0,0,1-.31,1.21,5.73,5.73,0,0,1-1.2,1.35,6.09,6.09,0,0,0-.79.79,1.75,1.75,0,0,0-.27.58,4.87,4.87,0,0,0-.1,1.07Zm-.08,2.47v-1.4H164v1.4Z"/><polyline points="46.89 161.62 46.78 161.62 46.78 162 46.89 161.62" fill="#9e9e9e"/><path d="M66.36,94H46.78a.37.37,0,0,0-.37.38V157.5h.75V94.73H66.36V94" fill="#9e9d9e"/><polygon points="45.54 157.5 46.78 160.91 48.02 157.5 45.54 157.5" fill="#9e9d9e" fill-rule="evenodd"/><polygon points="45.54 157.5 45.19 157.63 46.78 162 48.55 157.13 45 157.13 45.19 157.63 45.54 157.5 45.54 157.88 47.48 157.88 46.78 159.81 45.89 157.38 45.54 157.5 45.54 157.88 45.54 157.5" fill="#9e9d9e"/><polyline points="232.34 150.08 232.25 150.08 232.34 150.43 232.34 150.08" fill="#9e9e9e"/><path d="M218.36,94.73H232v51.2h.75V94.35a.37.37,0,0,0-.38-.38h-14v.75" fill="#9e9d9e"/><polygon points="231.1 145.93 232.34 149.33 233.58 145.93 231.1 145.93" fill="#9e9d9e" fill-rule="evenodd"/><polygon points="231.1 145.93 230.75 146.06 232.34 150.43 234.12 145.56 230.57 145.56 230.75 146.06 231.1 145.93 231.1 146.31 233.05 146.31 232.34 148.24 231.46 145.8 231.1 145.93 231.1 146.31 231.1 145.93" fill="#9e9d9e"/><polyline points="136.09 234.8 135.96 234.8 135.96 235.18 136.09 234.8" fill="#9e9e9e"/><path d="M156.34,178.72H136a.38.38,0,0,0-.38.38v51.58h.75v-51.2h20v-.75" fill="#9e9d9e"/><polygon points="134.72 230.68 135.96 234.08 137.2 230.68 134.72 230.68" fill="#9e9d9e" fill-rule="evenodd"/><polygon points="134.72 230.68 134.37 230.8 135.96 235.18 137.73 230.3 134.18 230.3 134.37 230.8 134.72 230.68 134.72 231.05 136.66 231.05 135.96 232.98 135.07 230.55 134.72 230.68 134.72 231.05 134.72 230.68" fill="#9e9d9e"/><polyline points="321.55 234.8 321.46 234.8 321.55 235.18 321.55 234.8" fill="#9e9e9e"/><path d="M308.34,179.47h12.83v51.2h.75V179.1a.37.37,0,0,0-.37-.38h-13.2v.75" fill="#9e9d9e"/><polygon points="320.31 230.68 321.55 234.08 322.79 230.68 320.31 230.68" fill="#9e9d9e" fill-rule="evenodd"/><polygon points="320.31 230.68 319.96 230.8 321.55 235.18 323.32 230.3 319.77 230.3 319.96 230.8 320.31 230.68 320.31 231.05 322.25 231.05 321.55 232.98 320.66 230.55 320.31 230.68 320.31 231.05 320.31 230.68" fill="#9e9d9e"/><polyline points="142.36 38.65 142.36 38.65 142.36 51.98 142.38 51.98 142.36 38.65" fill="#37474f"/><polyline points="142.36 38.27 142.36 38.65 142.36 38.65 142.36 38.27" fill="#9e9e9e"/><polyline points="142.41 51.98 142.38 51.98 142.41 65.33 142.41 65.33 142.41 51.98" fill="#37474f"/><polyline points="142.41 65.33 142.41 65.33 142.41 65.69 142.41 65.33" fill="#9e9e9e"/><path d="M142,38.27V52a.37.37,0,0,0,.38.38h0V52H142v9.22h.75V52a.37.37,0,0,0-.37-.37h0V52h.37V38.27H142Z" fill="#9e9d9e"/><polygon points="141.17 61.2 142.41 64.6 143.65 61.2 141.17 61.2" fill="#9e9d9e" fill-rule="evenodd"/><polygon points="141.17 61.2 140.82 61.32 142.41 65.69 144.18 60.82 140.63 60.82 140.82 61.32 141.17 61.2 141.17 61.57 143.11 61.57 142.41 63.5 141.52 61.07 141.17 61.2 141.17 61.57 141.17 61.2" fill="#9e9d9e"/><polyline points="46.78 105.29 46.4 105.29 46.4 139.49 46.78 139.49 46.78 105.29" fill="#9e9e9e"/><path d="M25,119a.23.23,0,0,0,0-.1q0-.25-1.22-.5l0-.41q.88,0,1.73,0t1.73,0l0,.41a3.35,3.35,0,0,0-.88.27A.83.83,0,0,0,26,119l-2.7,4.77a25.26,25.26,0,0,0,.08,2.58l0,.22a.42.42,0,0,0,.27.36,5.33,5.33,0,0,0,.92.24l0,.41q-.88,0-1.92,0t-1.92,0l0-.41a5.27,5.27,0,0,0,1-.25.43.43,0,0,0,.28-.35q.08-.62.1-2.7l-2.7-5a.83.83,0,0,0-.36-.36,3.71,3.71,0,0,0-.83-.25l0-.41q.88,0,1.92,0t1.92,0l0,.41q-1.25.24-1.25.5a.45.45,0,0,0,0,.11L23,123,25,119Zm6.54,7.88a3.6,3.6,0,0,1-2.3.87,2.85,2.85,0,0,1-2.24-.85,3.26,3.26,0,0,1-.76-2.25,3.75,3.75,0,0,1,.83-2.44,3,3,0,0,1,2.51-1,2.1,2.1,0,0,1,1.49.6,2.35,2.35,0,0,1,.64,1.79l-.48.57H29.88q-1.24,0-2.49.1v.13a2.93,2.93,0,0,0,.53,1.91,1.8,1.8,0,0,0,1.46.64,4.85,4.85,0,0,0,1.95-.45l.17.42Zm-1.12-3.33a2.07,2.07,0,0,0,0-.41,1.17,1.17,0,0,0-1.18-1.27,1.49,1.49,0,0,0-1.13.52,2.61,2.61,0,0,0-.63,1.27l2.9-.11Zm6.08-2.11.2.1a8.56,8.56,0,0,0,.08,1.39l-.36.13a1.9,1.9,0,0,0-.51-1,1.24,1.24,0,0,0-.83-.28,1.15,1.15,0,0,0-.8.27.82.82,0,0,0-.29.63,1.19,1.19,0,0,0,.73,1l1.43.78a1.66,1.66,0,0,1,.36,2.74,2.29,2.29,0,0,1-1.62.52,7.13,7.13,0,0,1-2.16-.35,9.91,9.91,0,0,0,.17-1.61l.36-.13q.13.5.19.69a2.47,2.47,0,0,0,.22.45.76.76,0,0,0,.41.35,2.48,2.48,0,0,0,.74.08,1.19,1.19,0,0,0,.81-.28.86.86,0,0,0,.32-.67,1.08,1.08,0,0,0-.66-1l-1.51-.84a1.6,1.6,0,0,1-.92-1.5,1.73,1.73,0,0,1,.55-1.26,2.06,2.06,0,0,1,1.53-.55A4,4,0,0,1,36.45,121.39Z" fill="#fff"/><polyline points="232.72 105.29 232.34 105.29 232.34 139.49 232.72 139.49 232.72 105.29" fill="#9e9e9e"/><path d="M251,125.73q0-.78,0-2.53,0-3.21-.08-4l0-.28q0-.34-.74-.48l-.57-.13,0-.41q.88,0,1.74,0t1.74,0l0,.41a4.84,4.84,0,0,0-.9.25.42.42,0,0,0-.25.36,21.12,21.12,0,0,0-.14,3q0,3.32.11,5.1l0,.53-1.12.13-5.68-7.64h-.07q-.06,1.23-.06,2.65,0,2.65.11,3.61l0,.29q0,.34.74.49l.57.11,0,.41q-.88,0-1.85,0t-1.85,0l0-.41a6.89,6.89,0,0,0,1-.25.43.43,0,0,0,.32-.35,26,26,0,0,0,.11-3q0-3.53-.08-4.4l0-.28a.42.42,0,0,0-.25-.36,4.84,4.84,0,0,0-.9-.25l0-.41q.88,0,2.09,0l5.81,7.74Zm5.59-4.59a3,3,0,0,1,2.32.81,3.27,3.27,0,0,1,.73,2.26,3.79,3.79,0,0,1-.83,2.47,3,3,0,0,1-2.43,1,3,3,0,0,1-2.32-.81,3.23,3.23,0,0,1-.73-2.25,3.83,3.83,0,0,1,.83-2.48A2.93,2.93,0,0,1,256.54,121.14Zm1.85,3.56q0-2.87-1.92-2.87a1.73,1.73,0,0,0-1.61,1,3.57,3.57,0,0,0-.38,1.53,3.63,3.63,0,0,0,.46,1.91,1.58,1.58,0,0,0,1.46.76,1.78,1.78,0,0,0,.94-.25,1.64,1.64,0,0,0,.62-.64,3.23,3.23,0,0,0,.43-1.46Z" fill="#fff"/><polyline points="135.96 190.03 135.58 190.03 135.58 224.24 135.96 224.24 135.96 190.03" fill="#9e9e9e"/><path d="M114.14,203.7a.23.23,0,0,0,0-.1q0-.25-1.22-.5l0-.41q.88,0,1.73,0t1.73,0l0,.41a3.35,3.35,0,0,0-.88.27.83.83,0,0,0-.38.41l-2.7,4.77a25.26,25.26,0,0,0,.08,2.58l0,.22a.42.42,0,0,0,.27.36,5.33,5.33,0,0,0,.92.24l0,.41q-.88,0-1.92,0t-1.92,0l0-.41a5.27,5.27,0,0,0,1-.25.43.43,0,0,0,.28-.35q.08-.62.1-2.7l-2.7-5a.83.83,0,0,0-.36-.36,3.71,3.71,0,0,0-.83-.25l0-.41q.88,0,1.92,0t1.92,0l0,.41q-1.25.24-1.25.5a.45.45,0,0,0,0,.11l2.07,4.07,2-4.09Zm6.54,7.88a3.6,3.6,0,0,1-2.3.87,2.85,2.85,0,0,1-2.24-.85,3.26,3.26,0,0,1-.76-2.25,3.75,3.75,0,0,1,.83-2.44,3,3,0,0,1,2.51-1,2.1,2.1,0,0,1,1.49.6,2.35,2.35,0,0,1,.64,1.79l-.48.57h-1.32q-1.24,0-2.49.1v.13a2.93,2.93,0,0,0,.53,1.91,1.8,1.8,0,0,0,1.46.64,4.85,4.85,0,0,0,1.95-.45l.17.42Zm-1.12-3.33a2.07,2.07,0,0,0,0-.41,1.17,1.17,0,0,0-1.18-1.27,1.49,1.49,0,0,0-1.13.52,2.61,2.61,0,0,0-.63,1.27l2.9-.11Zm6.08-2.11.2.1a8.56,8.56,0,0,0,.08,1.39l-.36.13a1.9,1.9,0,0,0-.51-1,1.24,1.24,0,0,0-.83-.28,1.15,1.15,0,0,0-.8.27.82.82,0,0,0-.29.63,1.19,1.19,0,0,0,.73,1l1.43.78a1.66,1.66,0,0,1,.36,2.74,2.29,2.29,0,0,1-1.62.53,7.13,7.13,0,0,1-2.16-.35,9.91,9.91,0,0,0,.17-1.61l.36-.13q.13.5.19.69a2.47,2.47,0,0,0,.22.45.76.76,0,0,0,.41.35,2.48,2.48,0,0,0,.74.08,1.19,1.19,0,0,0,.81-.28.86.86,0,0,0,.32-.67,1.08,1.08,0,0,0-.66-1l-1.51-.84a1.6,1.6,0,0,1-.92-1.5,1.73,1.73,0,0,1,.55-1.26,2.06,2.06,0,0,1,1.53-.55A4,4,0,0,1,125.63,206.14Z" fill="#fff"/><polyline points="321.92 190.03 321.55 190.03 321.55 224.24 321.92 224.24 321.92 190.03" fill="#9e9e9e"/><path d="M340.16,210.48q0-.78,0-2.53,0-3.21-.08-4l0-.28q0-.34-.74-.48l-.57-.13,0-.41q.88,0,1.74,0t1.74,0l0,.41a4.84,4.84,0,0,0-.9.25.42.42,0,0,0-.25.36,21.12,21.12,0,0,0-.14,3q0,3.32.11,5.1l0,.53-1.12.13-5.68-7.64h-.07q-.06,1.23-.06,2.65,0,2.65.11,3.61l0,.29q0,.34.74.49l.57.11,0,.41q-.88,0-1.85,0t-1.85,0l0-.41a6.89,6.89,0,0,0,1-.25.43.43,0,0,0,.32-.35,26,26,0,0,0,.11-3q0-3.53-.08-4.4l0-.28a.42.42,0,0,0-.25-.36,4.84,4.84,0,0,0-.9-.25l0-.41q.88,0,2.09,0l5.81,7.74Zm5.59-4.59a3,3,0,0,1,2.32.81,3.27,3.27,0,0,1,.73,2.26,3.79,3.79,0,0,1-.83,2.47,3,3,0,0,1-2.43,1,3,3,0,0,1-2.32-.8,3.23,3.23,0,0,1-.73-2.25,3.83,3.83,0,0,1,.83-2.48A2.93,2.93,0,0,1,345.75,205.89Zm1.85,3.56q0-2.87-1.92-2.87a1.73,1.73,0,0,0-1.61,1,3.57,3.57,0,0,0-.38,1.53,3.63,3.63,0,0,0,.46,1.91,1.58,1.58,0,0,0,1.46.76,1.78,1.78,0,0,0,.94-.25,1.64,1.64,0,0,0,.62-.64,3.23,3.23,0,0,0,.43-1.46Z" fill="#fff"/></g></g></svg>