<svg xmlns="http://www.w3.org/2000/svg" viewBox="0 0 570.75 186.14"><title>dt2</title><g id="Layer_2" data-name="Layer 2"><g id="Layer_1-2" data-name="Layer 1"><polyline points="0 0 0 186.13 0.75 186.13 0.75 0" fill="#9e9d9e"/><polyline points="142.5 0 142.5 186.13 143.25 186.13 143.25 0" fill="#9e9d9e"/><polyline points="285 0 285 186.13 285.75 186.13 285.75 0" fill="#9e9d9e"/><polyline points="427.5 0 427.5 186.13 428.25 186.13 428.25 0" fill="#9e9d9e"/><polyline points="570 0 570 186.13 570.75 186.13 570.75 0" fill="#9e9d9e"/><polyline points="0 0.75 570.75 0.75 570.75 0 0 0" fill="#9e9d9e"/><polyline points="0 31.65 570.75 31.65 570.75 30.9 0 30.9" fill="#9e9d9e"/><polyline points="0 62.55 570.75 62.55 570.75 61.8 0 61.8" fill="#9e9d9e"/><polyline points="0 93.44 570.75 93.44 570.75 92.69 0 92.69" fill="#9e9d9e"/><polyline points="0 124.34 570.75 124.34 570.75 123.59 0 123.59" fill="#9e9d9e"/><polyline points="0 155.24 570.75 155.24 570.75 154.49 0 154.49" fill="#9e9d9e"/><polyline points="0 186.14 570.75 186.14 570.75 185.39 0 185.39" fill="#9e9d9e"/><path d="M56,20.56v-10h1.36l5.26,7.87V10.54h1.27v10H62.5l-5.26-7.88v7.88Zm9.51-3.63a3.74,3.74,0,0,1,1.12-3,3.38,3.38,0,0,1,2.28-.81,3.26,3.26,0,0,1,2.45,1,3.73,3.73,0,0,1,1,2.71,4.8,4.8,0,0,1-.42,2.2,3,3,0,0,1-1.22,1.25,3.56,3.56,0,0,1-1.75.44,3.26,3.26,0,0,1-2.46-1A3.9,3.9,0,0,1,65.47,16.94Zm1.26,0A3.09,3.09,0,0,0,67.35,19a2,2,0,0,0,3.06,0A3.17,3.17,0,0,0,71,16.89a3,3,0,0,0-.61-2,2,2,0,0,0-3.05,0A3.08,3.08,0,0,0,66.74,16.94Zm11.69,3.63v-.92a2.26,2.26,0,0,1-2,1.08,2.85,2.85,0,0,1-1.6-.48,3.15,3.15,0,0,1-1.13-1.34,4.62,4.62,0,0,1-.4-2,5.16,5.16,0,0,1,.36-2,2.86,2.86,0,0,1,1.09-1.36,2.91,2.91,0,0,1,1.62-.47,2.42,2.42,0,0,1,2,1v-3.6h1.22v10Zm-3.89-3.62A3.15,3.15,0,0,0,75.12,19a1.77,1.77,0,0,0,1.39.69,1.74,1.74,0,0,0,1.37-.66,3,3,0,0,0,.56-2,3.41,3.41,0,0,0-.57-2.19,1.77,1.77,0,0,0-1.42-.7,1.7,1.7,0,0,0-1.37.67A3.31,3.31,0,0,0,74.54,16.94Zm11.93,1.29,1.27.16a3.1,3.1,0,0,1-1.11,1.73,3.77,3.77,0,0,1-4.6-.37A3.83,3.83,0,0,1,81.09,17,4,4,0,0,1,82,14.15a3.19,3.19,0,0,1,2.45-1,3.1,3.1,0,0,1,2.38,1,3.94,3.94,0,0,1,.92,2.79q0,.11,0,.33H82.36A2.79,2.79,0,0,0,83,19.08a2,2,0,0,0,1.52.64,1.88,1.88,0,0,0,1.16-.36A2.36,2.36,0,0,0,86.47,18.23Zm-4-2h4.05A2.46,2.46,0,0,0,86,14.86a1.89,1.89,0,0,0-1.52-.71,2,2,0,0,0-1.43.57A2.25,2.25,0,0,0,82.43,16.24Z" fill="#fff"/><path d="M188.38,20.56v-10h3.45a8.37,8.37,0,0,1,1.78.14,3.4,3.4,0,0,1,1.47.72,4.08,4.08,0,0,1,1.19,1.71,6.72,6.72,0,0,1,.39,2.38,7,7,0,0,1-.27,2,4.91,4.91,0,0,1-.68,1.46,3.63,3.63,0,0,1-.91.91,3.72,3.72,0,0,1-1.2.5,6.83,6.83,0,0,1-1.61.17Zm1.33-1.18h2.14a5.19,5.19,0,0,0,1.56-.18,2.22,2.22,0,0,0,.9-.52,3.16,3.16,0,0,0,.73-1.27,6.2,6.2,0,0,0,.26-1.93,4.66,4.66,0,0,0-.52-2.42,2.6,2.6,0,0,0-1.25-1.13,5.19,5.19,0,0,0-1.72-.21H189.7Zm13.59-1.16,1.27.16a3.1,3.1,0,0,1-1.11,1.73,3.77,3.77,0,0,1-4.6-.37,3.83,3.83,0,0,1-.93-2.75,4,4,0,0,1,.94-2.84,3.19,3.19,0,0,1,2.45-1,3.1,3.1,0,0,1,2.38,1,3.94,3.94,0,0,1,.92,2.79q0,.11,0,.33h-5.41a2.79,2.79,0,0,0,.68,1.83,2,2,0,0,0,1.52.64,1.88,1.88,0,0,0,1.16-.36A2.36,2.36,0,0,0,203.3,18.23Zm-4-2h4.05a2.46,2.46,0,0,0-.46-1.37,1.89,1.89,0,0,0-1.52-.71,2,2,0,0,0-1.43.57A2.25,2.25,0,0,0,199.26,16.24Zm11.59,1.67,1.21.16a3.14,3.14,0,0,1-1,2,3,3,0,0,1-2,.71,3.12,3.12,0,0,1-2.4-1,4,4,0,0,1-.91-2.79,5.05,5.05,0,0,1,.39-2.06,2.72,2.72,0,0,1,1.19-1.32,3.52,3.52,0,0,1,1.73-.44,3,3,0,0,1,1.93.6,2.74,2.74,0,0,1,1,1.7l-1.2.18a2,2,0,0,0-.6-1.1,1.57,1.57,0,0,0-1-.37,1.91,1.91,0,0,0-1.51.67,3.16,3.16,0,0,0-.58,2.11,3.27,3.27,0,0,0,.56,2.13,1.82,1.82,0,0,0,1.46.66,1.72,1.72,0,0,0,1.21-.44A2.21,2.21,0,0,0,210.85,17.91ZM213.12,12V10.54h1.23V12Zm0,8.61V13.31h1.23v7.26Zm2.61-2.17,1.22-.19a1.7,1.7,0,0,0,.57,1.12,2,2,0,0,0,1.31.39,1.92,1.92,0,0,0,1.26-.35,1,1,0,0,0,.41-.81.75.75,0,0,0-.36-.66,5.34,5.34,0,0,0-1.26-.42A11.47,11.47,0,0,1,217,16.9a1.79,1.79,0,0,1-1.06-1.66,1.87,1.87,0,0,1,.22-.9,2,2,0,0,1,.6-.69,2.54,2.54,0,0,1,.78-.36,3.72,3.72,0,0,1,1.06-.15,4.2,4.2,0,0,1,1.5.25,2,2,0,0,1,1,.67,2.61,2.61,0,0,1,.42,1.12l-1.2.16a1.32,1.32,0,0,0-.48-.87,1.74,1.74,0,0,0-1.11-.31,2,2,0,0,0-1.21.28.82.82,0,0,0-.36.66.68.68,0,0,0,.15.43,1.08,1.08,0,0,0,.47.33l1.09.31a15.15,15.15,0,0,1,1.82.57,1.85,1.85,0,0,1,.81.65,1.8,1.8,0,0,1,.29,1.05,2.07,2.07,0,0,1-.36,1.16,2.32,2.32,0,0,1-1,.84,3.77,3.77,0,0,1-1.53.3,3.41,3.41,0,0,1-2.16-.59A2.73,2.73,0,0,1,215.73,18.4Zm7.5-6.44V10.54h1.23V12Zm0,8.61V13.31h1.23v7.26Zm2.64-3.63a3.74,3.74,0,0,1,1.12-3,3.38,3.38,0,0,1,2.28-.81,3.26,3.26,0,0,1,2.45,1,3.73,3.73,0,0,1,1,2.71,4.8,4.8,0,0,1-.42,2.2A3,3,0,0,1,231,20.28a3.56,3.56,0,0,1-1.75.44,3.26,3.26,0,0,1-2.46-1A3.9,3.9,0,0,1,225.87,16.94Zm1.26,0a3.09,3.09,0,0,0,.61,2.09,2,2,0,0,0,3.06,0,3.17,3.17,0,0,0,.61-2.13,3,3,0,0,0-.61-2,2,2,0,0,0-3.05,0A3.08,3.08,0,0,0,227.13,16.94Zm7,3.63V13.31h1.11v1a2.61,2.61,0,0,1,2.31-1.2,3,3,0,0,1,1.21.24,1.9,1.9,0,0,1,.82.62,2.38,2.38,0,0,1,.38.91,7.06,7.06,0,0,1,.07,1.2v4.46h-1.23V16.15a3.32,3.32,0,0,0-.14-1.12,1.18,1.18,0,0,0-.51-.59,1.62,1.62,0,0,0-.86-.22,2,2,0,0,0-1.36.5,2.46,2.46,0,0,0-.57,1.89v4Z" fill="#fff"/><path d="M320,20.56l3.85-10h1.43l4.1,10h-1.51l-1.17-3h-4.19l-1.1,3Zm2.89-4.12h3.4l-1-2.78q-.48-1.26-.71-2.08a12.78,12.78,0,0,1-.54,1.91ZM335,17.91l1.21.16a3.14,3.14,0,0,1-1,2,3,3,0,0,1-2,.71,3.12,3.12,0,0,1-2.4-1,4,4,0,0,1-.91-2.79,5.05,5.05,0,0,1,.39-2.06,2.72,2.72,0,0,1,1.19-1.32,3.52,3.52,0,0,1,1.73-.44,3,3,0,0,1,1.93.6,2.74,2.74,0,0,1,1,1.7l-1.2.18a2,2,0,0,0-.6-1.1,1.57,1.57,0,0,0-1-.37,1.91,1.91,0,0,0-1.51.67,3.16,3.16,0,0,0-.58,2.11,3.27,3.27,0,0,0,.56,2.13,1.82,1.82,0,0,0,1.46.66,1.72,1.72,0,0,0,1.21-.44A2.21,2.21,0,0,0,335,17.91Zm4.41,1.61a4,4,0,0,0,.54,0l.18,1.09a4.57,4.57,0,0,1-.93.11,2.11,2.11,0,0,1-1-.21,1.19,1.19,0,0,1-.52-.56,4.4,4.4,0,0,1-.15-1.45V14.26h-.9v-1h.9v-1.8l1.22-.74v2.54H340v1h-1.24v4.25a2.14,2.14,0,0,0,.06.68.51.51,0,0,0,.21.24.82.82,0,0,0,.42.09ZM341.19,12V10.54h1.23V12Zm0,8.61V13.31h1.23v7.26Zm2.64-3.63a3.74,3.74,0,0,1,1.12-3,3.38,3.38,0,0,1,2.28-.81,3.26,3.26,0,0,1,2.45,1,3.73,3.73,0,0,1,1,2.71,4.8,4.8,0,0,1-.42,2.2A3,3,0,0,1,349,20.28a3.56,3.56,0,0,1-1.75.44,3.26,3.26,0,0,1-2.46-1A3.9,3.9,0,0,1,343.84,16.94Zm1.26,0a3.09,3.09,0,0,0,.61,2.09,2,2,0,0,0,3.06,0,3.17,3.17,0,0,0,.61-2.13,3,3,0,0,0-.61-2,2,2,0,0,0-3.05,0A3.08,3.08,0,0,0,345.1,16.94Zm7,3.63V13.31h1.11v1a2.61,2.61,0,0,1,2.31-1.2,3,3,0,0,1,1.21.24,1.9,1.9,0,0,1,.82.62,2.38,2.38,0,0,1,.38.91,7.06,7.06,0,0,1,.07,1.2v4.46h-1.23V16.15a3.32,3.32,0,0,0-.14-1.12,1.18,1.18,0,0,0-.51-.59,1.62,1.62,0,0,0-.86-.22,2,2,0,0,0-1.36.5,2.46,2.46,0,0,0-.57,1.89v4Zm10.74.17,2.91-10.36h1l-2.9,10.36Zm11.41-.17V16.32l-3.86-5.78H372l2,3q.55.85,1,1.7.45-.79,1.09-1.77L378,10.54h1.54l-4,5.78v4.25Zm10-2.34,1.27.16a3.1,3.1,0,0,1-1.11,1.73,3.77,3.77,0,0,1-4.6-.37,3.83,3.83,0,0,1-.93-2.75,4,4,0,0,1,.94-2.84,3.19,3.19,0,0,1,2.45-1,3.1,3.1,0,0,1,2.38,1,3.94,3.94,0,0,1,.92,2.79q0,.11,0,.33h-5.41a2.79,2.79,0,0,0,.68,1.83,2,2,0,0,0,1.52.64,1.88,1.88,0,0,0,1.16-.36A2.36,2.36,0,0,0,384.27,18.23Zm-4-2h4.05a2.46,2.46,0,0,0-.46-1.37,1.89,1.89,0,0,0-1.52-.71,2,2,0,0,0-1.43.57A2.25,2.25,0,0,0,380.23,16.24Zm6.36,2.16,1.22-.19a1.7,1.7,0,0,0,.57,1.12,2,2,0,0,0,1.31.39,1.92,1.92,0,0,0,1.26-.35,1,1,0,0,0,.41-.81.75.75,0,0,0-.36-.66,5.34,5.34,0,0,0-1.26-.42,11.47,11.47,0,0,1-1.88-.59,1.79,1.79,0,0,1-1.06-1.66,1.87,1.87,0,0,1,.22-.9,2,2,0,0,1,.6-.69,2.54,2.54,0,0,1,.78-.36,3.72,3.72,0,0,1,1.06-.15,4.2,4.2,0,0,1,1.5.25,2,2,0,0,1,1,.67,2.61,2.61,0,0,1,.42,1.12l-1.2.16a1.32,1.32,0,0,0-.48-.87,1.74,1.74,0,0,0-1.11-.31,2,2,0,0,0-1.21.28.82.82,0,0,0-.36.66.68.68,0,0,0,.15.43,1.08,1.08,0,0,0,.47.33l1.09.31a15.15,15.15,0,0,1,1.82.57,1.85,1.85,0,0,1,.81.65,1.8,1.8,0,0,1,.29,1.05,2.07,2.07,0,0,1-.36,1.16,2.32,2.32,0,0,1-1,.84,3.77,3.77,0,0,1-1.53.3,3.41,3.41,0,0,1-2.16-.59A2.73,2.73,0,0,1,386.59,18.4Z" fill="#fff"/><path d="M491.25,20.56v-10h1.36l5.26,7.87V10.54h1.27v10h-1.36l-5.26-7.88v7.88Zm9.51-3.63a3.74,3.74,0,0,1,1.12-3,3.38,3.38,0,0,1,2.28-.81,3.26,3.26,0,0,1,2.45,1,3.73,3.73,0,0,1,1,2.71,4.8,4.8,0,0,1-.42,2.2,3,3,0,0,1-1.22,1.25,3.56,3.56,0,0,1-1.75.44,3.26,3.26,0,0,1-2.46-1A3.9,3.9,0,0,1,500.75,16.94Zm1.26,0a3.09,3.09,0,0,0,.61,2.09,2,2,0,0,0,3.06,0,3.17,3.17,0,0,0,.61-2.13,3,3,0,0,0-.61-2,2,2,0,0,0-3.05,0A3.08,3.08,0,0,0,502,16.94Z" fill="#fff"/><path d="M69.31,50.59a6.6,6.6,0,0,1-1-4.07,9.17,9.17,0,0,1,.37-2.86A3.56,3.56,0,0,1,69.77,42a2.78,2.78,0,0,1,1.81-.59,3,3,0,0,1,1.42.32,2.71,2.71,0,0,1,1,.94,5,5,0,0,1,.62,1.49,9.9,9.9,0,0,1,.23,2.37,9.2,9.2,0,0,1-.36,2.85A3.56,3.56,0,0,1,73.4,51a2.78,2.78,0,0,1-1.82.59,2.75,2.75,0,0,1-2.28-1Zm.91-7.46a6.36,6.36,0,0,0-.64,3.38,6.28,6.28,0,0,0,.58,3.28,1.65,1.65,0,0,0,2.85,0,6.29,6.29,0,0,0,.58-3.28A6.28,6.28,0,0,0,73,43.23a1.71,1.71,0,0,0-1.44-.81,1.58,1.58,0,0,0-1.35.72Z" fill="#fff"/><path d="M158.81,51.46v-10h3.78a9.13,9.13,0,0,1,1.52.1,3,3,0,0,1,1.24.47,2.46,2.46,0,0,1,.8,1,3.26,3.26,0,0,1-.51,3.53,3.9,3.9,0,0,1-2.94.89h-2.57v4.07Zm1.33-5.26h2.59a2.75,2.75,0,0,0,1.83-.48,1.71,1.71,0,0,0,.54-1.35,1.81,1.81,0,0,0-.32-1.08,1.49,1.49,0,0,0-.84-.59,5.67,5.67,0,0,0-1.24-.09h-2.56ZM168,51.46v-10h1.23v10Zm8.12,0a2.61,2.61,0,0,1-.25-.9,4.58,4.58,0,0,1-1.32.82,3.8,3.8,0,0,1-1.36.24,2.64,2.64,0,0,1-1.84-.58,1.93,1.93,0,0,1-.64-1.49,2,2,0,0,1,.24-1,2,2,0,0,1,.64-.71,3,3,0,0,1,.89-.4,8.79,8.79,0,0,1,1.09-.18,11.25,11.25,0,0,0,2.19-.42q0-.25,0-.32a1.36,1.36,0,0,0-.35-1.06,2.06,2.06,0,0,0-1.4-.42,2.17,2.17,0,0,0-1.28.3,1.86,1.86,0,0,0-.61,1.08l-1.2-.16a3,3,0,0,1,.54-1.25,2.37,2.37,0,0,1,1.09-.73,4.85,4.85,0,0,1,1.65-.26,4.36,4.36,0,0,1,1.51.22,2,2,0,0,1,.85.55,1.94,1.94,0,0,1,.38.84,6.93,6.93,0,0,1,.06,1.13v1.64a17.4,17.4,0,0,0,.08,2.17,2.73,2.73,0,0,0,.31.87Zm-.35-3.64a9,9,0,0,1-2,.46,4.65,4.65,0,0,0-1.07.25,1.07,1.07,0,0,0-.49.4,1.09,1.09,0,0,0,.2,1.4,1.6,1.6,0,0,0,1.09.33,2.54,2.54,0,0,0,1.26-.31,1.92,1.92,0,0,0,.81-.85,3,3,0,0,0,.2-1.23Zm3.89,6.59a2.47,2.47,0,0,1-.79-.15l-.14-1.16a2.74,2.74,0,0,0,.7.11,1.35,1.35,0,0,0,.66-.14,1.12,1.12,0,0,0,.4-.38,6.05,6.05,0,0,0,.38-.92l.11-.3-2.75-7.27h1.33l1.51,4.2q.29.8.53,1.68a16.53,16.53,0,0,1,.51-1.65l1.55-4.23h1.23l-2.76,7.38a14.52,14.52,0,0,1-.69,1.65,2.43,2.43,0,0,1-.75.89,1.78,1.78,0,0,1-1,.28Zm11.23-5.28,1.27.16A3.1,3.1,0,0,1,191,51a3.77,3.77,0,0,1-4.6-.37,3.83,3.83,0,0,1-.93-2.75,4,4,0,0,1,.94-2.84,3.19,3.19,0,0,1,2.45-1,3.1,3.1,0,0,1,2.38,1,3.94,3.94,0,0,1,.92,2.79q0,.11,0,.33h-5.41a2.79,2.79,0,0,0,.68,1.83,2,2,0,0,0,1.52.64,1.88,1.88,0,0,0,1.16-.36A2.36,2.36,0,0,0,190.84,49.12Zm-4-2h4.05a2.46,2.46,0,0,0-.46-1.37,1.89,1.89,0,0,0-1.52-.71,2,2,0,0,0-1.43.57A2.25,2.25,0,0,0,186.8,47.14Zm6.84,4.33V44.2h1.11v1.1a3,3,0,0,1,.78-1,1.37,1.37,0,0,1,.79-.25,2.4,2.4,0,0,1,1.26.4l-.42,1.14a1.76,1.76,0,0,0-.9-.27,1.17,1.17,0,0,0-.72.24,1.31,1.31,0,0,0-.46.67,4.79,4.79,0,0,0-.21,1.44v3.8Zm8.1-3.63a3.74,3.74,0,0,1,1.12-3,3.38,3.38,0,0,1,2.28-.81,3.26,3.26,0,0,1,2.45,1,3.73,3.73,0,0,1,1,2.71,4.8,4.8,0,0,1-.42,2.2,3,3,0,0,1-1.22,1.25,3.56,3.56,0,0,1-1.75.44,3.26,3.26,0,0,1-2.46-1A3.9,3.9,0,0,1,201.74,47.83Zm1.26,0a3.09,3.09,0,0,0,.61,2.09,2,2,0,0,0,3.06,0,3.17,3.17,0,0,0,.61-2.13,3,3,0,0,0-.61-2,2,2,0,0,0-3.05,0A3.08,3.08,0,0,0,203,47.83Zm7,3.63V44.2h1.11v1A2.61,2.61,0,0,1,213.4,44a3,3,0,0,1,1.21.24,1.9,1.9,0,0,1,.82.62,2.38,2.38,0,0,1,.38.91,7.06,7.06,0,0,1,.07,1.2v4.46h-1.23V47a3.32,3.32,0,0,0-.14-1.12,1.18,1.18,0,0,0-.51-.59,1.62,1.62,0,0,0-.86-.22,2,2,0,0,0-1.36.5,2.46,2.46,0,0,0-.57,1.89v4Zm13.81-1.05a4,4,0,0,0,.54,0l.18,1.09a4.57,4.57,0,0,1-.93.11,2.11,2.11,0,0,1-1-.21,1.19,1.19,0,0,1-.52-.56,4.4,4.4,0,0,1-.15-1.45V45.16H221v-1h.9V42.4l1.22-.74V44.2h1.24v1h-1.24V49.4a2.14,2.14,0,0,0,.06.68.51.51,0,0,0,.21.24.82.82,0,0,0,.42.09Zm1.73,1.05v-10h1.23V45a2.75,2.75,0,0,1,2.17-1,2.93,2.93,0,0,1,1.4.32,1.87,1.87,0,0,1,.85.88,4,4,0,0,1,.26,1.63v4.6H230.2v-4.6a1.9,1.9,0,0,0-.4-1.34,1.49,1.49,0,0,0-1.13-.42,2,2,0,0,0-1,.28,1.6,1.6,0,0,0-.69.77,3.53,3.53,0,0,0-.21,1.34v4Zm12.75-2.34,1.27.16A3.1,3.1,0,0,1,238.43,51a3.77,3.77,0,0,1-4.6-.37,3.83,3.83,0,0,1-.93-2.75,4,4,0,0,1,.94-2.84,3.19,3.19,0,0,1,2.45-1,3.1,3.1,0,0,1,2.38,1,3.94,3.94,0,0,1,.92,2.79q0,.11,0,.33h-5.41a2.79,2.79,0,0,0,.68,1.83,2,2,0,0,0,1.52.64,1.88,1.88,0,0,0,1.16-.36A2.36,2.36,0,0,0,238.27,49.12Zm-4-2h4.05a2.46,2.46,0,0,0-.46-1.37,1.89,1.89,0,0,0-1.52-.71,2,2,0,0,0-1.43.57A2.25,2.25,0,0,0,234.23,47.14Zm10.7,4.33v-10h1.23v10ZM253,49.12l1.27.16A3.1,3.1,0,0,1,253.2,51a3.77,3.77,0,0,1-4.6-.37,3.83,3.83,0,0,1-.93-2.75,4,4,0,0,1,.94-2.84,3.19,3.19,0,0,1,2.45-1,3.1,3.1,0,0,1,2.38,1,3.94,3.94,0,0,1,.92,2.79q0,.11,0,.33h-5.41a2.79,2.79,0,0,0,.68,1.83,2,2,0,0,0,1.52.64,1.88,1.88,0,0,0,1.16-.36A2.36,2.36,0,0,0,253,49.12Zm-4-2h4.05a2.46,2.46,0,0,0-.46-1.37,1.89,1.89,0,0,0-1.52-.71,2,2,0,0,0-1.43.57A2.25,2.25,0,0,0,249,47.14Zm7.15,4.33v-6.3h-1.09v-1h1.09v-.77a3.38,3.38,0,0,1,.13-1.09,1.57,1.57,0,0,1,.63-.78,2.25,2.25,0,0,1,1.25-.3,6,6,0,0,1,1.15.12l-.18,1.07a4.14,4.14,0,0,0-.72-.07,1.08,1.08,0,0,0-.79.24,1.3,1.3,0,0,0-.23.9v.67h1.42v1h-1.42v6.3Zm5.73-1.05a4,4,0,0,0,.54,0l.18,1.09a4.57,4.57,0,0,1-.93.11,2.11,2.11,0,0,1-1-.21,1.19,1.19,0,0,1-.52-.56,4.4,4.4,0,0,1-.15-1.45V45.16h-.9v-1h.9V42.4l1.22-.74V44.2h1.24v1h-1.24V49.4a2.14,2.14,0,0,0,.06.68.51.51,0,0,0,.21.24.82.82,0,0,0,.42.09Zm4-1.42q0-.25,0-.37a3.44,3.44,0,0,1,.21-1.25,2.85,2.85,0,0,1,.49-.8,9.2,9.2,0,0,1,.89-.86,4.18,4.18,0,0,0,.83-.9,1.45,1.45,0,0,0,.19-.73,1.71,1.71,0,0,0-.56-1.26,1.9,1.9,0,0,0-1.37-.54,1.85,1.85,0,0,0-1.31.49,2.59,2.59,0,0,0-.69,1.54l-1.26-.15a3,3,0,0,1,3.25-2.89,3.34,3.34,0,0,1,2.34.8,2.53,2.53,0,0,1,.88,1.93,2.45,2.45,0,0,1-.31,1.21,5.74,5.74,0,0,1-1.2,1.35,6.09,6.09,0,0,0-.79.79,1.75,1.75,0,0,0-.27.58,4.86,4.86,0,0,0-.1,1.07Zm-.08,2.47v-1.4h1.4v1.4Z" fill="#fff"/><path d="M357.95,51.46h-1.23V43.62a6.36,6.36,0,0,1-1.17.85,8.25,8.25,0,0,1-1.3.64V43.92a7.43,7.43,0,0,0,1.8-1.18,4.63,4.63,0,0,0,1.09-1.34h.79Z" fill="#fff"/><path d="M502.28,50.28v1.18h-6.62a2.17,2.17,0,0,1,.14-.85,4.52,4.52,0,0,1,.81-1.33,12.68,12.68,0,0,1,1.61-1.52,13.64,13.64,0,0,0,2.21-2.12,2.54,2.54,0,0,0,.57-1.48,1.64,1.64,0,0,0-.52-1.23,1.89,1.89,0,0,0-1.36-.5,1.92,1.92,0,0,0-1.42.53,2,2,0,0,0-.54,1.48l-1.26-.13a3.11,3.11,0,0,1,1-2.16,3.33,3.33,0,0,1,2.28-.74,3.18,3.18,0,0,1,2.28.8,2.63,2.63,0,0,1,.84,2,3,3,0,0,1-.25,1.18,4.59,4.59,0,0,1-.82,1.22,19.92,19.92,0,0,1-1.9,1.76q-1.11.93-1.42,1.26a4,4,0,0,0-.52.67Z" fill="#fff"/><path d="M72.95,82.36H71.72V74.52a6.36,6.36,0,0,1-1.17.85,8.25,8.25,0,0,1-1.3.64V74.81a7.43,7.43,0,0,0,1.8-1.18,4.63,4.63,0,0,0,1.09-1.34h.79Z" fill="#fff"/><path d="M198.48,82.36v-10h3.45a8.37,8.37,0,0,1,1.78.14,3.4,3.4,0,0,1,1.47.72,4.08,4.08,0,0,1,1.19,1.71,6.72,6.72,0,0,1,.39,2.38,7,7,0,0,1-.27,2,4.91,4.91,0,0,1-.68,1.46,3.63,3.63,0,0,1-.91.91,3.72,3.72,0,0,1-1.2.5,6.83,6.83,0,0,1-1.61.17Zm1.33-1.18h2.14A5.19,5.19,0,0,0,203.5,81a2.22,2.22,0,0,0,.9-.52,3.16,3.16,0,0,0,.73-1.27,6.2,6.2,0,0,0,.26-1.93,4.66,4.66,0,0,0-.52-2.42,2.6,2.6,0,0,0-1.25-1.13,5.19,5.19,0,0,0-1.72-.21h-2.11ZM208,78.73a3.74,3.74,0,0,1,1.12-3,3.38,3.38,0,0,1,2.28-.81,3.26,3.26,0,0,1,2.45,1,3.73,3.73,0,0,1,1,2.71,4.8,4.8,0,0,1-.42,2.2,3,3,0,0,1-1.22,1.25,3.56,3.56,0,0,1-1.75.44,3.26,3.26,0,0,1-2.46-1A3.9,3.9,0,0,1,208,78.73Zm1.26,0a3.09,3.09,0,0,0,.61,2.09,2,2,0,0,0,3.06,0,3.17,3.17,0,0,0,.61-2.13,3,3,0,0,0-.61-2,2,2,0,0,0-3.05,0A3.08,3.08,0,0,0,209.24,78.73Zm7,3.63V75.1h1.11v1a2.61,2.61,0,0,1,2.31-1.2,3,3,0,0,1,1.21.24,1.9,1.9,0,0,1,.82.62,2.38,2.38,0,0,1,.38.91,7.06,7.06,0,0,1,.07,1.2v4.46h-1.23V77.94a3.31,3.31,0,0,0-.14-1.12,1.18,1.18,0,0,0-.51-.59,1.62,1.62,0,0,0-.86-.22,2,2,0,0,0-1.36.5,2.46,2.46,0,0,0-.57,1.89v4ZM229,80l1.27.16a3.1,3.1,0,0,1-1.11,1.73,3.77,3.77,0,0,1-4.6-.37,3.83,3.83,0,0,1-.93-2.75,4,4,0,0,1,.94-2.84,3.19,3.19,0,0,1,2.45-1,3.1,3.1,0,0,1,2.38,1,3.94,3.94,0,0,1,.92,2.79q0,.11,0,.33h-5.41a2.79,2.79,0,0,0,.68,1.83,2,2,0,0,0,1.52.64,1.88,1.88,0,0,0,1.16-.36A2.36,2.36,0,0,0,229,80Zm-4-2H229a2.46,2.46,0,0,0-.46-1.37,1.89,1.89,0,0,0-1.52-.71,2,2,0,0,0-1.43.57A2.25,2.25,0,0,0,224.93,78Z" fill="#fff"/><path d="M329.28,82.36v-10h2l2.37,7.1q.33,1,.48,1.48.17-.55.53-1.61l2.4-7h1.78v10h-1.28V74l-2.91,8.39h-1.2l-2.9-8.53v8.53Zm11.09-3.63a3.74,3.74,0,0,1,1.12-3,3.38,3.38,0,0,1,2.28-.81,3.26,3.26,0,0,1,2.45,1,3.73,3.73,0,0,1,1,2.71,4.8,4.8,0,0,1-.42,2.2,3,3,0,0,1-1.22,1.25,3.56,3.56,0,0,1-1.75.44,3.26,3.26,0,0,1-2.46-1A3.9,3.9,0,0,1,340.37,78.73Zm1.26,0a3.09,3.09,0,0,0,.61,2.09,2,2,0,0,0,3.06,0,3.17,3.17,0,0,0,.61-2.13,3,3,0,0,0-.61-2,2,2,0,0,0-3.05,0A3.08,3.08,0,0,0,341.63,78.73Zm9,3.63-2.76-7.26h1.3l1.56,4.35q.25.7.46,1.46.16-.57.46-1.38l1.61-4.43h1.26l-2.75,7.26Zm10-2.34,1.27.16a3.1,3.1,0,0,1-1.11,1.73,3.77,3.77,0,0,1-4.6-.37,3.83,3.83,0,0,1-.93-2.75,4,4,0,0,1,.94-2.84,3.19,3.19,0,0,1,2.45-1,3.1,3.1,0,0,1,2.38,1,3.94,3.94,0,0,1,.92,2.79q0,.11,0,.33h-5.41a2.79,2.79,0,0,0,.68,1.83,2,2,0,0,0,1.52.64,1.88,1.88,0,0,0,1.16-.36A2.36,2.36,0,0,0,360.58,80Zm-4-2h4.05a2.46,2.46,0,0,0-.46-1.37,1.89,1.89,0,0,0-1.52-.71,2,2,0,0,0-1.43.57A2.25,2.25,0,0,0,356.54,78Zm10.7,4.33v-10h1.23v10ZM375.35,80l1.27.16a3.1,3.1,0,0,1-1.11,1.73,3.77,3.77,0,0,1-4.6-.37,3.83,3.83,0,0,1-.93-2.75,4,4,0,0,1,.94-2.84,3.19,3.19,0,0,1,2.45-1,3.1,3.1,0,0,1,2.38,1,3.94,3.94,0,0,1,.92,2.79q0,.11,0,.33h-5.41a2.79,2.79,0,0,0,.68,1.83,2,2,0,0,0,1.52.64,1.88,1.88,0,0,0,1.16-.36A2.36,2.36,0,0,0,375.35,80Zm-4-2h4.05a2.46,2.46,0,0,0-.46-1.37,1.89,1.89,0,0,0-1.52-.71,2,2,0,0,0-1.43.57A2.25,2.25,0,0,0,371.31,78Zm7.15,4.33v-6.3h-1.09v-1h1.09v-.77a3.38,3.38,0,0,1,.13-1.09,1.57,1.57,0,0,1,.63-.78,2.25,2.25,0,0,1,1.25-.3,6,6,0,0,1,1.15.12l-.18,1.07a4.14,4.14,0,0,0-.72-.07,1.08,1.08,0,0,0-.79.24,1.3,1.3,0,0,0-.23.9v.67h1.42v1h-1.42v6.3Zm5.73-1.05a4,4,0,0,0,.54,0l.18,1.09a4.57,4.57,0,0,1-.93.11,2.11,2.11,0,0,1-1-.21,1.19,1.19,0,0,1-.52-.56,4.4,4.4,0,0,1-.15-1.45V76.06h-.9v-1h.9V73.3l1.22-.74V75.1h1.24v1h-1.24V80.3a2.14,2.14,0,0,0,.06.68.51.51,0,0,0,.21.24.82.82,0,0,0,.42.09Z" fill="#fff"/><rect x="497.24" y="78.12" width="3.78" height="1.24" fill="#fff"/><path d="M74.78,112.08v1.18H68.16a2.17,2.17,0,0,1,.14-.85,4.52,4.52,0,0,1,.81-1.33,12.69,12.69,0,0,1,1.61-1.52,13.64,13.64,0,0,0,2.21-2.12A2.54,2.54,0,0,0,73.5,106a1.64,1.64,0,0,0-.52-1.23,1.89,1.89,0,0,0-1.36-.5,1.92,1.92,0,0,0-1.42.53,2,2,0,0,0-.54,1.48l-1.26-.13a3.11,3.11,0,0,1,1-2.16,3.33,3.33,0,0,1,2.28-.74,3.18,3.18,0,0,1,2.28.8,2.63,2.63,0,0,1,.84,2,3,3,0,0,1-.25,1.18,4.59,4.59,0,0,1-.82,1.22,19.9,19.9,0,0,1-1.9,1.76q-1.11.93-1.42,1.26a4.05,4.05,0,0,0-.52.67Z" fill="#fff"/><path d="M154.54,113.26v-10h3.78a9.13,9.13,0,0,1,1.52.1,3,3,0,0,1,1.24.47,2.46,2.46,0,0,1,.8,1,3.26,3.26,0,0,1-.51,3.53,3.9,3.9,0,0,1-2.94.89h-2.57v4.07Zm1.33-5.26h2.59a2.75,2.75,0,0,0,1.83-.48,1.71,1.71,0,0,0,.54-1.35,1.81,1.81,0,0,0-.32-1.08,1.49,1.49,0,0,0-.84-.59,5.67,5.67,0,0,0-1.24-.09h-2.56Zm7.81,5.26v-10h1.23v10Zm8.12,0a2.61,2.61,0,0,1-.25-.9,4.58,4.58,0,0,1-1.32.82,3.8,3.8,0,0,1-1.36.24,2.64,2.64,0,0,1-1.84-.58,1.93,1.93,0,0,1-.64-1.49,2,2,0,0,1,.24-1,2,2,0,0,1,.64-.71,3,3,0,0,1,.89-.4,8.8,8.8,0,0,1,1.09-.18,11.25,11.25,0,0,0,2.19-.42q0-.25,0-.32a1.36,1.36,0,0,0-.35-1.06,2.06,2.06,0,0,0-1.4-.42,2.17,2.17,0,0,0-1.28.3,1.86,1.86,0,0,0-.61,1.08l-1.2-.16a3,3,0,0,1,.54-1.25,2.37,2.37,0,0,1,1.09-.73,4.85,4.85,0,0,1,1.65-.26,4.36,4.36,0,0,1,1.51.22,2,2,0,0,1,.85.55,1.94,1.94,0,0,1,.38.84,6.93,6.93,0,0,1,.06,1.13v1.64a17.41,17.41,0,0,0,.08,2.17,2.73,2.73,0,0,0,.31.87Zm-.35-3.64a9,9,0,0,1-2,.46,4.65,4.65,0,0,0-1.07.25,1.07,1.07,0,0,0-.49.4,1.09,1.09,0,0,0,.2,1.4,1.6,1.6,0,0,0,1.09.33,2.54,2.54,0,0,0,1.26-.31,1.92,1.92,0,0,0,.81-.85,3,3,0,0,0,.2-1.23Zm3.89,6.59a2.47,2.47,0,0,1-.79-.15l-.14-1.16a2.74,2.74,0,0,0,.7.11,1.35,1.35,0,0,0,.66-.14,1.12,1.12,0,0,0,.4-.38,6.05,6.05,0,0,0,.38-.92l.11-.3L173.9,106h1.33l1.51,4.2q.29.8.53,1.68a16.53,16.53,0,0,1,.51-1.65l1.55-4.23h1.23l-2.76,7.38a14.52,14.52,0,0,1-.69,1.65,2.43,2.43,0,0,1-.75.89,1.78,1.78,0,0,1-1,.28Zm11.23-5.28,1.27.16a3.1,3.1,0,0,1-1.11,1.73,3.77,3.77,0,0,1-4.6-.37,3.83,3.83,0,0,1-.93-2.75,4,4,0,0,1,.94-2.84,3.19,3.19,0,0,1,2.45-1,3.1,3.1,0,0,1,2.38,1,3.94,3.94,0,0,1,.92,2.79q0,.11,0,.33h-5.41a2.79,2.79,0,0,0,.68,1.83,2,2,0,0,0,1.52.64,1.88,1.88,0,0,0,1.16-.36A2.36,2.36,0,0,0,186.56,110.92Zm-4-2h4.05a2.46,2.46,0,0,0-.46-1.37,1.89,1.89,0,0,0-1.52-.71,2,2,0,0,0-1.43.57A2.25,2.25,0,0,0,182.52,108.93Zm6.84,4.33V106h1.11v1.1a3,3,0,0,1,.78-1,1.37,1.37,0,0,1,.79-.25,2.4,2.4,0,0,1,1.26.4l-.42,1.14a1.76,1.76,0,0,0-.9-.27,1.17,1.17,0,0,0-.72.24,1.31,1.31,0,0,0-.46.67,4.79,4.79,0,0,0-.21,1.44v3.8Zm8.1-3.63a3.74,3.74,0,0,1,1.12-3,3.38,3.38,0,0,1,2.28-.81,3.26,3.26,0,0,1,2.45,1,3.73,3.73,0,0,1,1,2.71,4.8,4.8,0,0,1-.42,2.2,3,3,0,0,1-1.22,1.25,3.56,3.56,0,0,1-1.75.44,3.26,3.26,0,0,1-2.46-1A3.9,3.9,0,0,1,197.46,109.63Zm1.26,0a3.09,3.09,0,0,0,.61,2.09,2,2,0,0,0,3.06,0,3.17,3.17,0,0,0,.61-2.13,3,3,0,0,0-.61-2,2,2,0,0,0-3.05,0A3.08,3.08,0,0,0,198.73,109.63Zm7,3.63V106h1.11v1a2.61,2.61,0,0,1,2.31-1.2,3,3,0,0,1,1.21.24,1.9,1.9,0,0,1,.82.62,2.38,2.38,0,0,1,.38.91,7.06,7.06,0,0,1,.07,1.2v4.46h-1.23v-4.42a3.32,3.32,0,0,0-.14-1.12,1.18,1.18,0,0,0-.51-.59,1.62,1.62,0,0,0-.86-.22,2,2,0,0,0-1.36.5,2.46,2.46,0,0,0-.57,1.89v4Zm13.81-1.05a4,4,0,0,0,.54,0l.18,1.09a4.57,4.57,0,0,1-.93.11,2.11,2.11,0,0,1-1-.21,1.19,1.19,0,0,1-.52-.56,4.4,4.4,0,0,1-.15-1.45V107h-.9v-1h.9v-1.8l1.22-.74V106h1.24v1h-1.24v4.25a2.14,2.14,0,0,0,.06.68.51.51,0,0,0,.21.24.82.82,0,0,0,.42.09Zm1.73,1.05v-10h1.23v3.6a2.75,2.75,0,0,1,2.17-1,2.93,2.93,0,0,1,1.4.32,1.87,1.87,0,0,1,.85.88,4,4,0,0,1,.26,1.63v4.6h-1.23v-4.6a1.9,1.9,0,0,0-.4-1.34,1.49,1.49,0,0,0-1.13-.42,2,2,0,0,0-1,.28,1.6,1.6,0,0,0-.69.77,3.53,3.53,0,0,0-.21,1.34v4ZM234,110.92l1.27.16a3.1,3.1,0,0,1-1.11,1.73,3.77,3.77,0,0,1-4.6-.37,3.83,3.83,0,0,1-.93-2.75,4,4,0,0,1,.94-2.84,3.19,3.19,0,0,1,2.45-1,3.1,3.1,0,0,1,2.38,1,3.94,3.94,0,0,1,.92,2.79q0,.11,0,.33h-5.41a2.79,2.79,0,0,0,.68,1.83,2,2,0,0,0,1.52.64,1.88,1.88,0,0,0,1.16-.36A2.36,2.36,0,0,0,234,110.92Zm-4-2H234a2.46,2.46,0,0,0-.46-1.37,1.89,1.89,0,0,0-1.52-.71,2,2,0,0,0-1.43.57A2.25,2.25,0,0,0,230,108.93Zm10.72,4.33V106h1.11v1.1a3,3,0,0,1,.78-1,1.37,1.37,0,0,1,.79-.25,2.4,2.4,0,0,1,1.26.4l-.42,1.14a1.76,1.76,0,0,0-.9-.27,1.17,1.17,0,0,0-.72.24,1.31,1.31,0,0,0-.46.67,4.79,4.79,0,0,0-.21,1.44v3.8Zm4.68-8.61v-1.42h1.23v1.42Zm0,8.61V106h1.23v7.26Zm2.88.6,1.2.18a1.14,1.14,0,0,0,.42.81,2,2,0,0,0,1.25.34,2.2,2.2,0,0,0,1.32-.34,1.68,1.68,0,0,0,.63-1,7.86,7.86,0,0,0,.09-1.58,2.53,2.53,0,0,1-2,1,2.74,2.74,0,0,1-2.32-1.08,4.16,4.16,0,0,1-.82-2.59,4.82,4.82,0,0,1,.38-1.92,3,3,0,0,1,1.09-1.36,2.94,2.94,0,0,1,1.68-.48,2.6,2.6,0,0,1,2.12,1V106h1.13v6.28a6,6,0,0,1-.35,2.4,2.52,2.52,0,0,1-1.09,1.12,3.79,3.79,0,0,1-1.84.41,3.47,3.47,0,0,1-2.1-.58A2,2,0,0,1,248.23,113.86Zm1-4.36a3.15,3.15,0,0,0,.57,2.08,1.87,1.87,0,0,0,2.84,0,3,3,0,0,0,.57-2,3,3,0,0,0-.59-2,1.83,1.83,0,0,0-1.43-.68,1.78,1.78,0,0,0-1.39.67A3,3,0,0,0,249.25,109.5Zm7,3.76v-10h1.23v3.6a2.75,2.75,0,0,1,2.17-1,2.93,2.93,0,0,1,1.4.32,1.87,1.87,0,0,1,.85.88,4,4,0,0,1,.26,1.63v4.6h-1.23v-4.6a1.9,1.9,0,0,0-.4-1.34,1.49,1.49,0,0,0-1.13-.42,2,2,0,0,0-1,.28,1.6,1.6,0,0,0-.69.77,3.53,3.53,0,0,0-.21,1.34v4Zm9.93-1.05a4,4,0,0,0,.54,0l.18,1.09a4.57,4.57,0,0,1-.93.11,2.11,2.11,0,0,1-1-.21,1.19,1.19,0,0,1-.52-.56,4.4,4.4,0,0,1-.15-1.45V107h-.9v-1h.9v-1.8l1.22-.74V106h1.24v1h-1.24v4.25a2.14,2.14,0,0,0,.06.68.51.51,0,0,0,.21.24.82.82,0,0,0,.42.09Zm4-1.42q0-.25,0-.37a3.44,3.44,0,0,1,.21-1.25,2.85,2.85,0,0,1,.49-.8,9.2,9.2,0,0,1,.89-.86,4.18,4.18,0,0,0,.83-.9,1.45,1.45,0,0,0,.19-.73,1.71,1.71,0,0,0-.56-1.26,1.9,1.9,0,0,0-1.37-.54,1.85,1.85,0,0,0-1.31.49,2.59,2.59,0,0,0-.69,1.54L267.6,106a3,3,0,0,1,3.25-2.89,3.34,3.34,0,0,1,2.34.8,2.53,2.53,0,0,1,.88,1.93,2.45,2.45,0,0,1-.31,1.21,5.74,5.74,0,0,1-1.2,1.35,6.09,6.09,0,0,0-.79.79,1.75,1.75,0,0,0-.27.58,4.87,4.87,0,0,0-.1,1.07Zm-.08,2.47v-1.4h1.4v1.4Z" fill="#fff"/><path d="M353.32,110.61l1.23-.16a2.71,2.71,0,0,0,.72,1.51,1.78,1.78,0,0,0,1.24.46,2,2,0,0,0,1.47-.6,2,2,0,0,0,.6-1.49,1.89,1.89,0,0,0-.55-1.4,1.91,1.91,0,0,0-1.41-.55,3.53,3.53,0,0,0-.87.14l.14-1.08h.2a2.53,2.53,0,0,0,1.42-.41,1.4,1.4,0,0,0,.63-1.26,1.5,1.5,0,0,0-.46-1.12,1.63,1.63,0,0,0-1.18-.44,1.68,1.68,0,0,0-1.2.45,2.26,2.26,0,0,0-.62,1.35l-1.23-.22a3.16,3.16,0,0,1,1-1.92,3,3,0,0,1,2-.68,3.28,3.28,0,0,1,1.51.35,2.55,2.55,0,0,1,1.06,1,2.47,2.47,0,0,1,.37,1.29A2.11,2.11,0,0,1,359,107a2.38,2.38,0,0,1-1,.85,2.33,2.33,0,0,1,1.38.85,2.59,2.59,0,0,1,.49,1.62,3,3,0,0,1-1,2.23,3.37,3.37,0,0,1-2.42.91,3.15,3.15,0,0,1-2.19-.79A3,3,0,0,1,353.32,110.61Z" fill="#fff"/><path d="M499.76,113.26v-2.4h-4.35v-1.13l4.57-6.49h1v6.49h1.35v1.13H501v2.4Zm0-3.53v-4.52l-3.14,4.52Z" fill="#fff"/><path d="M68.32,141.51l1.23-.16a2.71,2.71,0,0,0,.72,1.51,1.78,1.78,0,0,0,1.24.46,2,2,0,0,0,1.47-.6,2,2,0,0,0,.6-1.49,1.89,1.89,0,0,0-.55-1.4,1.91,1.91,0,0,0-1.41-.55,3.53,3.53,0,0,0-.87.14l.14-1.08h.2a2.53,2.53,0,0,0,1.42-.41,1.4,1.4,0,0,0,.63-1.26,1.5,1.5,0,0,0-.46-1.12,1.63,1.63,0,0,0-1.18-.44,1.68,1.68,0,0,0-1.2.45,2.26,2.26,0,0,0-.62,1.35l-1.23-.22a3.16,3.16,0,0,1,1-1.92,3,3,0,0,1,2-.68,3.28,3.28,0,0,1,1.51.35,2.55,2.55,0,0,1,1.06,1,2.47,2.47,0,0,1,.37,1.29,2.12,2.12,0,0,1-.35,1.18,2.38,2.38,0,0,1-1,.85,2.33,2.33,0,0,1,1.38.85,2.59,2.59,0,0,1,.49,1.62,3,3,0,0,1-1,2.23,3.37,3.37,0,0,1-2.42.91,3.15,3.15,0,0,1-2.19-.79A3,3,0,0,1,68.32,141.51Z" fill="#fff"/><path d="M198.48,144.16v-10h3.45a8.37,8.37,0,0,1,1.78.14,3.4,3.4,0,0,1,1.47.72,4.08,4.08,0,0,1,1.19,1.71,6.72,6.72,0,0,1,.39,2.38,7,7,0,0,1-.27,2,4.91,4.91,0,0,1-.68,1.46,3.63,3.63,0,0,1-.91.91,3.72,3.72,0,0,1-1.2.5,6.83,6.83,0,0,1-1.61.17Zm1.33-1.18h2.14a5.19,5.19,0,0,0,1.56-.18,2.22,2.22,0,0,0,.9-.52,3.16,3.16,0,0,0,.73-1.27,6.2,6.2,0,0,0,.26-1.93,4.66,4.66,0,0,0-.52-2.42,2.6,2.6,0,0,0-1.25-1.13,5.19,5.19,0,0,0-1.72-.21h-2.11Zm8.17-2.45a3.74,3.74,0,0,1,1.12-3,3.38,3.38,0,0,1,2.28-.81,3.26,3.26,0,0,1,2.45,1,3.73,3.73,0,0,1,1,2.71,4.8,4.8,0,0,1-.42,2.2,3,3,0,0,1-1.22,1.25,3.56,3.56,0,0,1-1.75.44,3.26,3.26,0,0,1-2.46-1A3.9,3.9,0,0,1,208,140.53Zm1.26,0a3.09,3.09,0,0,0,.61,2.09,2,2,0,0,0,3.06,0,3.17,3.17,0,0,0,.61-2.13,3,3,0,0,0-.61-2,2,2,0,0,0-3.05,0A3.08,3.08,0,0,0,209.24,140.53Zm7,3.63V136.9h1.11v1a2.61,2.61,0,0,1,2.31-1.2,3,3,0,0,1,1.21.24,1.9,1.9,0,0,1,.82.62,2.38,2.38,0,0,1,.38.91,7.06,7.06,0,0,1,.07,1.2v4.46h-1.23v-4.42a3.31,3.31,0,0,0-.14-1.12,1.18,1.18,0,0,0-.51-.59,1.62,1.62,0,0,0-.86-.22,2,2,0,0,0-1.36.5,2.46,2.46,0,0,0-.57,1.89v4ZM229,141.82l1.27.16a3.1,3.1,0,0,1-1.11,1.73,3.77,3.77,0,0,1-4.6-.37,3.83,3.83,0,0,1-.93-2.75,4,4,0,0,1,.94-2.84,3.19,3.19,0,0,1,2.45-1,3.1,3.1,0,0,1,2.38,1,3.94,3.94,0,0,1,.92,2.79q0,.11,0,.33h-5.41a2.79,2.79,0,0,0,.68,1.83,2,2,0,0,0,1.52.64,1.88,1.88,0,0,0,1.16-.36A2.36,2.36,0,0,0,229,141.82Zm-4-2H229a2.46,2.46,0,0,0-.46-1.37,1.89,1.89,0,0,0-1.52-.71,2,2,0,0,0-1.43.57A2.25,2.25,0,0,0,224.93,139.83Z" fill="#fff"/><path d="M325,144.16v-10h2l2.37,7.1q.33,1,.48,1.48.17-.55.53-1.61l2.4-7h1.78v10h-1.28v-8.39l-2.91,8.39h-1.2l-2.9-8.53v8.53Zm11.09-3.63a3.74,3.74,0,0,1,1.12-3,3.38,3.38,0,0,1,2.28-.81,3.26,3.26,0,0,1,2.45,1,3.73,3.73,0,0,1,1,2.71,4.8,4.8,0,0,1-.42,2.2,3,3,0,0,1-1.22,1.25,3.56,3.56,0,0,1-1.75.44,3.26,3.26,0,0,1-2.46-1A3.9,3.9,0,0,1,336.09,140.53Zm1.26,0a3.09,3.09,0,0,0,.61,2.09,2,2,0,0,0,3.06,0,3.17,3.17,0,0,0,.61-2.13,3,3,0,0,0-.61-2,2,2,0,0,0-3.05,0A3.08,3.08,0,0,0,337.36,140.53Zm9,3.63-2.76-7.26h1.3l1.56,4.35q.25.7.46,1.46.16-.57.46-1.38L349,136.9h1.26l-2.75,7.26Zm10-2.34,1.27.16a3.1,3.1,0,0,1-1.11,1.73,3.77,3.77,0,0,1-4.6-.37,3.83,3.83,0,0,1-.93-2.75,4,4,0,0,1,.94-2.84,3.19,3.19,0,0,1,2.45-1,3.1,3.1,0,0,1,2.38,1,3.94,3.94,0,0,1,.92,2.79q0,.11,0,.33h-5.41a2.79,2.79,0,0,0,.68,1.83,2,2,0,0,0,1.52.64,1.88,1.88,0,0,0,1.16-.36A2.36,2.36,0,0,0,356.3,141.82Zm-4-2h4.05a2.46,2.46,0,0,0-.46-1.37,1.89,1.89,0,0,0-1.52-.71,2,2,0,0,0-1.43.57A2.25,2.25,0,0,0,352.26,139.83ZM363,144.16V136.9h1.11V138a3,3,0,0,1,.78-1,1.37,1.37,0,0,1,.79-.25,2.4,2.4,0,0,1,1.26.4l-.42,1.14a1.76,1.76,0,0,0-.9-.27,1.17,1.17,0,0,0-.72.24,1.31,1.31,0,0,0-.46.67,4.79,4.79,0,0,0-.21,1.44v3.8Zm4.68-8.61v-1.42h1.23v1.42Zm0,8.61V136.9h1.23v7.26Zm2.88.6,1.2.18a1.14,1.14,0,0,0,.42.81,2,2,0,0,0,1.25.34,2.2,2.2,0,0,0,1.32-.34,1.68,1.68,0,0,0,.63-1,7.87,7.87,0,0,0,.09-1.58,2.53,2.53,0,0,1-2,1,2.74,2.74,0,0,1-2.32-1.08,4.16,4.16,0,0,1-.82-2.59,4.82,4.82,0,0,1,.38-1.92,3,3,0,0,1,1.09-1.36,2.94,2.94,0,0,1,1.68-.48,2.6,2.6,0,0,1,2.12,1v-.87h1.13v6.28a6,6,0,0,1-.35,2.4,2.53,2.53,0,0,1-1.09,1.12,3.79,3.79,0,0,1-1.84.41,3.47,3.47,0,0,1-2.1-.58A2,2,0,0,1,370.54,144.76Zm1-4.36a3.15,3.15,0,0,0,.57,2.08,1.87,1.87,0,0,0,2.84,0,3,3,0,0,0,.57-2,3,3,0,0,0-.59-2,1.83,1.83,0,0,0-1.43-.68,1.78,1.78,0,0,0-1.39.67A3,3,0,0,0,371.56,140.4Zm7,3.76v-10h1.23v3.6a2.75,2.75,0,0,1,2.17-1,2.93,2.93,0,0,1,1.4.32,1.87,1.87,0,0,1,.85.88,4,4,0,0,1,.26,1.63v4.6h-1.23v-4.6a1.9,1.9,0,0,0-.4-1.34,1.49,1.49,0,0,0-1.13-.42,2,2,0,0,0-1,.28,1.6,1.6,0,0,0-.69.77,3.53,3.53,0,0,0-.21,1.34v4Zm9.93-1.05a4,4,0,0,0,.54,0l.18,1.09a4.57,4.57,0,0,1-.93.11,2.11,2.11,0,0,1-1-.21,1.19,1.19,0,0,1-.52-.56,4.41,4.41,0,0,1-.15-1.45v-4.18h-.9v-1h.9v-1.8l1.22-.74v2.54H389v1h-1.24v4.25a2.14,2.14,0,0,0,.06.68.51.51,0,0,0,.21.24.82.82,0,0,0,.42.09Z" fill="#fff"/><rect x="497.24" y="139.91" width="3.78" height="1.24" fill="#fff"/><path d="M72.26,175.05v-2.4H67.91v-1.13L72.49,165h1v6.49h1.35v1.13H73.49v2.4Zm0-3.53V167l-3.14,4.52Z" fill="#fff"/><path d="M198.48,175.05V165h3.45a8.37,8.37,0,0,1,1.78.14,3.4,3.4,0,0,1,1.47.72,4.08,4.08,0,0,1,1.19,1.71,6.72,6.72,0,0,1,.39,2.38,7,7,0,0,1-.27,2,4.91,4.91,0,0,1-.68,1.46,3.63,3.63,0,0,1-.91.91,3.72,3.72,0,0,1-1.2.5,6.83,6.83,0,0,1-1.61.17Zm1.33-1.18h2.14a5.19,5.19,0,0,0,1.56-.18,2.22,2.22,0,0,0,.9-.52,3.16,3.16,0,0,0,.73-1.27,6.2,6.2,0,0,0,.26-1.93,4.66,4.66,0,0,0-.52-2.42,2.6,2.6,0,0,0-1.25-1.13,5.19,5.19,0,0,0-1.72-.21h-2.11Zm8.17-2.45a3.74,3.74,0,0,1,1.12-3,3.38,3.38,0,0,1,2.28-.81,3.26,3.26,0,0,1,2.45,1,3.73,3.73,0,0,1,1,2.71,4.8,4.8,0,0,1-.42,2.2,3,3,0,0,1-1.22,1.25,3.56,3.56,0,0,1-1.75.44,3.26,3.26,0,0,1-2.46-1A3.9,3.9,0,0,1,208,171.42Zm1.26,0a3.09,3.09,0,0,0,.61,2.09,2,2,0,0,0,3.06,0,3.17,3.17,0,0,0,.61-2.13,3,3,0,0,0-.61-2,2,2,0,0,0-3.05,0A3.08,3.08,0,0,0,209.24,171.42Zm7,3.63v-7.26h1.11v1a2.61,2.61,0,0,1,2.31-1.2,3,3,0,0,1,1.21.24,1.9,1.9,0,0,1,.82.62,2.38,2.38,0,0,1,.38.91,7.06,7.06,0,0,1,.07,1.2v4.46h-1.23v-4.42a3.31,3.31,0,0,0-.14-1.12,1.18,1.18,0,0,0-.51-.59,1.62,1.62,0,0,0-.86-.22,2,2,0,0,0-1.36.5,2.46,2.46,0,0,0-.57,1.89v4ZM229,172.72l1.27.16a3.1,3.1,0,0,1-1.11,1.73,3.77,3.77,0,0,1-4.6-.37,3.83,3.83,0,0,1-.93-2.75,4,4,0,0,1,.94-2.84,3.19,3.19,0,0,1,2.45-1,3.1,3.1,0,0,1,2.38,1,3.94,3.94,0,0,1,.92,2.79q0,.11,0,.33h-5.41a2.79,2.79,0,0,0,.68,1.83,2,2,0,0,0,1.52.64,1.88,1.88,0,0,0,1.16-.36A2.36,2.36,0,0,0,229,172.72Zm-4-2H229a2.46,2.46,0,0,0-.46-1.37,1.89,1.89,0,0,0-1.52-.71,2,2,0,0,0-1.43.57A2.25,2.25,0,0,0,224.93,170.73Z" fill="#fff"/><path d="M346.65,175.05V165H348v10Zm8.21,0v-.92a2.26,2.26,0,0,1-2,1.08,2.85,2.85,0,0,1-1.6-.48,3.15,3.15,0,0,1-1.13-1.34,4.62,4.62,0,0,1-.4-2,5.16,5.16,0,0,1,.36-2,2.86,2.86,0,0,1,1.09-1.36,2.91,2.91,0,0,1,1.62-.47,2.42,2.42,0,0,1,2,1V165H356v10ZM351,171.43a3.15,3.15,0,0,0,.59,2.08,1.77,1.77,0,0,0,1.39.69,1.74,1.74,0,0,0,1.37-.66,3,3,0,0,0,.56-2,3.41,3.41,0,0,0-.57-2.19,1.77,1.77,0,0,0-1.42-.7,1.7,1.7,0,0,0-1.37.67A3.31,3.31,0,0,0,351,171.43Zm6.94,3.62V165h1.23v10Zm8.11-2.34,1.27.16a3.1,3.1,0,0,1-1.11,1.73,3.77,3.77,0,0,1-4.6-.37,3.83,3.83,0,0,1-.93-2.75,4,4,0,0,1,.94-2.84,3.19,3.19,0,0,1,2.45-1,3.1,3.1,0,0,1,2.38,1,3.94,3.94,0,0,1,.92,2.79q0,.11,0,.33H361.9a2.79,2.79,0,0,0,.68,1.83,2,2,0,0,0,1.52.64,1.88,1.88,0,0,0,1.16-.36A2.36,2.36,0,0,0,366,172.72Zm-4-2H366a2.46,2.46,0,0,0-.46-1.37,1.89,1.89,0,0,0-1.52-.71,2,2,0,0,0-1.43.57A2.25,2.25,0,0,0,362,170.73Z" fill="#fff"/><rect x="497.24" y="170.81" width="3.78" height="1.24" fill="#fff"/></g></g></svg>