<svg xmlns="http://www.w3.org/2000/svg" viewBox="0 0 422.1 295.03"><title>fsm</title><g id="Layer_2" data-name="Layer 2"><g id="Layer_1-2" data-name="Layer 1"><path d="M228,248.09a46.57,46.57,0,1,1,46.57,46.57A46.57,46.57,0,0,1,228,248.09" fill="#e0e0e0" fill-rule="evenodd"/><path d="M228,248.09h.38a46.2,46.2,0,1,1,13.53,32.67,46,46,0,0,1-13.53-32.67h-.75a46.95,46.95,0,1,0,46.95-46.95,46.95,46.95,0,0,0-46.95,46.95H228" fill="#9e9d9e"/><path d="M253.1,253.28v-10h3.45a8.37,8.37,0,0,1,1.78.14,3.4,3.4,0,0,1,1.47.72,4.08,4.08,0,0,1,1.19,1.71,6.72,6.72,0,0,1,.39,2.38,7,7,0,0,1-.27,2,4.91,4.91,0,0,1-.68,1.46,3.63,3.63,0,0,1-.91.91,3.72,3.72,0,0,1-1.2.5,6.83,6.83,0,0,1-1.61.17Zm1.33-1.18h2.14a5.19,5.19,0,0,0,1.56-.18,2.22,2.22,0,0,0,.9-.52,3.16,3.16,0,0,0,.73-1.27,6.2,6.2,0,0,0,.26-1.93,4.66,4.66,0,0,0-.52-2.42,2.6,2.6,0,0,0-1.25-1.13,5.19,5.19,0,0,0-1.72-.21h-2.11ZM268,250.94l1.27.16a3.1,3.1,0,0,1-1.11,1.73,3.77,3.77,0,0,1-4.6-.37,3.83,3.83,0,0,1-.93-2.75,4,4,0,0,1,.94-2.84,3.19,3.19,0,0,1,2.45-1,3.1,3.1,0,0,1,2.38,1,3.94,3.94,0,0,1,.92,2.79q0,.11,0,.33h-5.41a2.79,2.79,0,0,0,.68,1.83,2,2,0,0,0,1.52.64,1.88,1.88,0,0,0,1.16-.36A2.36,2.36,0,0,0,268,250.94Zm-4-2H268a2.46,2.46,0,0,0-.46-1.37,1.89,1.89,0,0,0-1.52-.71,2,2,0,0,0-1.43.57A2.25,2.25,0,0,0,264,248.95Zm7.15,4.33V247H270v-1h1.09v-.77a3.38,3.38,0,0,1,.13-1.09,1.57,1.57,0,0,1,.63-.78,2.25,2.25,0,0,1,1.25-.3,6,6,0,0,1,1.15.12l-.18,1.07a4.14,4.14,0,0,0-.72-.07,1.08,1.08,0,0,0-.79.24,1.3,1.3,0,0,0-.23.9V246h1.42v1h-1.42v6.3Zm8.55-2.34,1.27.16a3.1,3.1,0,0,1-1.11,1.73,3.77,3.77,0,0,1-4.6-.37,3.83,3.83,0,0,1-.93-2.75,4,4,0,0,1,.94-2.84,3.19,3.19,0,0,1,2.45-1,3.1,3.1,0,0,1,2.38,1,3.94,3.94,0,0,1,.92,2.79q0,.11,0,.33h-5.41a2.79,2.79,0,0,0,.68,1.83,2,2,0,0,0,1.52.64,1.88,1.88,0,0,0,1.16-.36A2.36,2.36,0,0,0,279.68,250.94Zm-4-2h4.05a2.46,2.46,0,0,0-.46-1.37,1.89,1.89,0,0,0-1.52-.71,2,2,0,0,0-1.43.57A2.25,2.25,0,0,0,275.64,248.95Zm6.85,4.33V246h1.11v1a2.61,2.61,0,0,1,2.31-1.2,3,3,0,0,1,1.21.24,1.9,1.9,0,0,1,.82.62,2.38,2.38,0,0,1,.38.91,7.06,7.06,0,0,1,.07,1.2v4.46h-1.23v-4.42a3.32,3.32,0,0,0-.14-1.12,1.18,1.18,0,0,0-.51-.59,1.62,1.62,0,0,0-.86-.22,2,2,0,0,0-1.36.5,2.46,2.46,0,0,0-.57,1.89v4Zm12.49,0v-.92a2.26,2.26,0,0,1-2,1.08,2.85,2.85,0,0,1-1.6-.48,3.15,3.15,0,0,1-1.13-1.34,4.62,4.62,0,0,1-.4-2,5.16,5.16,0,0,1,.36-2,2.86,2.86,0,0,1,1.09-1.36,2.91,2.91,0,0,1,1.62-.47,2.42,2.42,0,0,1,1.17.28,2.45,2.45,0,0,1,.83.72v-3.6h1.22v10Zm-3.89-3.62a3.15,3.15,0,0,0,.59,2.08,1.77,1.77,0,0,0,1.39.69,1.74,1.74,0,0,0,1.37-.66,3,3,0,0,0,.56-2,3.41,3.41,0,0,0-.57-2.19,1.77,1.77,0,0,0-1.42-.7,1.7,1.7,0,0,0-1.37.67A3.31,3.31,0,0,0,291.1,249.65Z"/><path d="M127.44,147.52A46.57,46.57,0,1,1,174,194.09a46.57,46.57,0,0,1-46.57-46.57" fill="#e0e0e0" fill-rule="evenodd"/><path d="M127.44,147.52h.38a46.2,46.2,0,1,1,13.53,32.67,46,46,0,0,1-13.53-32.67h-.75A46.95,46.95,0,1,0,174,100.57a46.95,46.95,0,0,0-46.95,46.95h.37" fill="#9e9d9e"/><path d="M152.6,152.71l-2.66-10h1.36l1.52,6.57q.25,1,.42,2.05.38-1.61.45-1.85l1.91-6.77h1.6l1.44,5.07a26.91,26.91,0,0,1,.78,3.55q.19-1,.5-2.18l1.57-6.44h1.33l-2.75,10H158.8l-2.11-7.64q-.27-1-.31-1.18-.16.69-.29,1.18L154,152.71Zm15.76,0a2.61,2.61,0,0,1-.25-.9,4.58,4.58,0,0,1-1.32.82,3.8,3.8,0,0,1-1.36.24,2.64,2.64,0,0,1-1.84-.58,1.93,1.93,0,0,1-.64-1.49,2,2,0,0,1,.24-1,2,2,0,0,1,.64-.71,3,3,0,0,1,.89-.4,8.81,8.81,0,0,1,1.09-.18,11.24,11.24,0,0,0,2.19-.42q0-.25,0-.32a1.36,1.36,0,0,0-.35-1.06,2.06,2.06,0,0,0-1.4-.42,2.17,2.17,0,0,0-1.28.3,1.86,1.86,0,0,0-.61,1.08l-1.2-.16a3,3,0,0,1,.54-1.25,2.37,2.37,0,0,1,1.09-.73,4.85,4.85,0,0,1,1.65-.26,4.36,4.36,0,0,1,1.51.22,2,2,0,0,1,.85.55,1.94,1.94,0,0,1,.38.84,6.93,6.93,0,0,1,.06,1.13v1.64a17.41,17.41,0,0,0,.08,2.17,2.74,2.74,0,0,0,.31.87Zm-.35-3.64a9,9,0,0,1-2,.46,4.65,4.65,0,0,0-1.07.25,1.07,1.07,0,0,0-.49.4,1.09,1.09,0,0,0,.2,1.4,1.6,1.6,0,0,0,1.09.33,2.54,2.54,0,0,0,1.26-.31,1.92,1.92,0,0,0,.81-.85,3,3,0,0,0,.2-1.23Zm3.15,3.64v-7.26h1.11v1a2.61,2.61,0,0,1,2.31-1.2,3,3,0,0,1,1.21.24,1.9,1.9,0,0,1,.82.62,2.38,2.38,0,0,1,.38.91,7.05,7.05,0,0,1,.07,1.2v4.46h-1.23v-4.42a3.32,3.32,0,0,0-.14-1.12,1.18,1.18,0,0,0-.51-.59,1.62,1.62,0,0,0-.86-.22,2,2,0,0,0-1.36.5,2.46,2.46,0,0,0-.57,1.89v4Zm12.49,0v-.92a2.26,2.26,0,0,1-2,1.08,2.85,2.85,0,0,1-1.6-.48,3.15,3.15,0,0,1-1.13-1.34,4.62,4.62,0,0,1-.4-2,5.16,5.16,0,0,1,.36-2,2.86,2.86,0,0,1,1.09-1.36,2.91,2.91,0,0,1,1.62-.47,2.42,2.42,0,0,1,2,1v-3.6h1.22v10Zm-3.89-3.62a3.15,3.15,0,0,0,.59,2.08,1.77,1.77,0,0,0,1.39.69,1.74,1.74,0,0,0,1.37-.66,3,3,0,0,0,.56-2,3.41,3.41,0,0,0-.57-2.19,1.77,1.77,0,0,0-1.42-.7,1.7,1.7,0,0,0-1.37.67A3.31,3.31,0,0,0,179.77,149.08Zm11.93,1.29,1.27.16a3.1,3.1,0,0,1-1.11,1.73,3.77,3.77,0,0,1-4.6-.37,3.83,3.83,0,0,1-.93-2.75,4,4,0,0,1,.94-2.84,3.19,3.19,0,0,1,2.45-1,3.1,3.1,0,0,1,2.38,1,3.94,3.94,0,0,1,.92,2.79q0,.11,0,.33h-5.41a2.79,2.79,0,0,0,.68,1.83,2,2,0,0,0,1.52.64,1.88,1.88,0,0,0,1.16-.36A2.36,2.36,0,0,0,191.7,150.37Zm-4-2h4.05a2.46,2.46,0,0,0-.46-1.37,1.89,1.89,0,0,0-1.52-.71,2,2,0,0,0-1.43.57A2.25,2.25,0,0,0,187.66,148.38Zm6.84,4.33v-7.26h1.11v1.1a3,3,0,0,1,.78-1,1.37,1.37,0,0,1,.79-.25,2.4,2.4,0,0,1,1.26.4l-.42,1.14a1.76,1.76,0,0,0-.9-.27,1.17,1.17,0,0,0-.72.24,1.31,1.31,0,0,0-.46.67,4.79,4.79,0,0,0-.21,1.44v3.8Z"/><path d="M328.58,147.52a46.57,46.57,0,1,1,46.57,46.57,46.57,46.57,0,0,1-46.57-46.57" fill="#e0e0e0" fill-rule="evenodd"/><path d="M328.58,147.52H329a46.2,46.2,0,1,1,13.53,32.67A46.05,46.05,0,0,1,329,147.52h-.75a46.95,46.95,0,1,0,46.95-46.95,46.95,46.95,0,0,0-46.95,46.95h.38" fill="#9e9d9e"/><path d="M355.69,152.71l3.85-10H361l4.1,10h-1.51l-1.17-3H358.2l-1.1,3Zm2.89-4.12H362l-1-2.78q-.48-1.26-.71-2.08a12.78,12.78,0,0,1-.54,1.91Zm9.52,3.06a4,4,0,0,0,.54,0l.18,1.09a4.57,4.57,0,0,1-.93.11,2.11,2.11,0,0,1-1-.21,1.19,1.19,0,0,1-.52-.56,4.4,4.4,0,0,1-.15-1.45V146.4h-.9v-1h.9v-1.8l1.22-.74v2.54h1.24v1h-1.24v4.25a2.14,2.14,0,0,0,.06.68.51.51,0,0,0,.21.24.82.82,0,0,0,.42.09Zm3.88,0a4,4,0,0,0,.54,0l.18,1.09a4.57,4.57,0,0,1-.93.11,2.11,2.11,0,0,1-1-.21,1.19,1.19,0,0,1-.52-.56,4.4,4.4,0,0,1-.15-1.45V146.4h-.9v-1h.9v-1.8l1.22-.74v2.54h1.24v1h-1.24v4.25a2.14,2.14,0,0,0,.06.68.51.51,0,0,0,.21.24.82.82,0,0,0,.42.09Zm6.71,1.05a2.61,2.61,0,0,1-.25-.9,4.58,4.58,0,0,1-1.32.82,3.8,3.8,0,0,1-1.36.24,2.64,2.64,0,0,1-1.84-.58,1.93,1.93,0,0,1-.64-1.49,2,2,0,0,1,.24-1,2,2,0,0,1,.64-.71,3,3,0,0,1,.89-.4,8.81,8.81,0,0,1,1.09-.18,11.24,11.24,0,0,0,2.19-.42q0-.25,0-.32a1.36,1.36,0,0,0-.35-1.06,2.06,2.06,0,0,0-1.4-.42,2.17,2.17,0,0,0-1.28.3,1.86,1.86,0,0,0-.61,1.08l-1.2-.16a3,3,0,0,1,.54-1.25,2.37,2.37,0,0,1,1.09-.73,4.85,4.85,0,0,1,1.65-.26,4.36,4.36,0,0,1,1.51.22,2,2,0,0,1,.85.55,1.94,1.94,0,0,1,.38.84,6.93,6.93,0,0,1,.06,1.13v1.64a17.41,17.41,0,0,0,.08,2.17,2.73,2.73,0,0,0,.31.87Zm-.35-3.64a9,9,0,0,1-2,.46,4.65,4.65,0,0,0-1.07.25,1.07,1.07,0,0,0-.49.4,1.09,1.09,0,0,0,.2,1.4,1.6,1.6,0,0,0,1.09.33,2.54,2.54,0,0,0,1.26-.31,1.92,1.92,0,0,0,.81-.85,3,3,0,0,0,.2-1.23Zm7.89,1,1.21.16a3.14,3.14,0,0,1-1,2,3,3,0,0,1-2,.71,3.12,3.12,0,0,1-2.4-1,4,4,0,0,1-.91-2.79,5.05,5.05,0,0,1,.39-2.06,2.72,2.72,0,0,1,1.19-1.32,3.52,3.52,0,0,1,1.73-.44,3,3,0,0,1,1.93.6,2.74,2.74,0,0,1,1,1.7l-1.2.18a2,2,0,0,0-.6-1.1,1.57,1.57,0,0,0-1-.37A1.91,1.91,0,0,0,383,147a3.16,3.16,0,0,0-.58,2.11,3.27,3.27,0,0,0,.56,2.13,1.82,1.82,0,0,0,1.46.66,1.72,1.72,0,0,0,1.21-.44A2.21,2.21,0,0,0,386.23,150Zm2.27,2.66v-10h1.23v5.71l2.91-3h1.59l-2.78,2.69,3.06,4.57H393L390.6,149l-.87.83v2.88Z"/><path d="M228,46.95a46.57,46.57,0,1,1,46.57,46.57A46.57,46.57,0,0,1,228,46.95" fill="#e0e0e0" fill-rule="evenodd"/><path d="M228,46.95h.38a46.2,46.2,0,1,1,13.53,32.67,46,46,0,0,1-13.53-32.67h-.75A46.95,46.95,0,1,0,274.58,0a46.95,46.95,0,0,0-46.95,46.95H228" fill="#9e9d9e"/><path d="M255.51,52.14v-10h6.76V43.3h-5.43v3.1h4.7v1.18h-4.7v4.55Zm7.86-3.63a3.74,3.74,0,0,1,1.12-3,3.38,3.38,0,0,1,2.28-.81,3.26,3.26,0,0,1,2.45,1,3.73,3.73,0,0,1,1,2.71,4.8,4.8,0,0,1-.42,2.2,3,3,0,0,1-1.22,1.25,3.56,3.56,0,0,1-1.75.44,3.26,3.26,0,0,1-2.46-1A3.9,3.9,0,0,1,263.37,48.51Zm1.26,0a3.09,3.09,0,0,0,.61,2.09,2,2,0,0,0,3.06,0,3.17,3.17,0,0,0,.61-2.13,3,3,0,0,0-.61-2,2,2,0,0,0-3.05,0A3.08,3.08,0,0,0,264.63,48.51Zm7,3.63v-10h1.23v10Zm3.11,0v-10h1.23v10Zm2.68-3.63a3.74,3.74,0,0,1,1.12-3,3.38,3.38,0,0,1,2.28-.81,3.26,3.26,0,0,1,2.45,1,3.73,3.73,0,0,1,1,2.71,4.8,4.8,0,0,1-.42,2.2,3,3,0,0,1-1.22,1.25,3.56,3.56,0,0,1-1.75.44,3.26,3.26,0,0,1-2.46-1A3.9,3.9,0,0,1,277.37,48.51Zm1.26,0a3.09,3.09,0,0,0,.61,2.09,2,2,0,0,0,3.06,0,3.17,3.17,0,0,0,.61-2.13,3,3,0,0,0-.61-2,2,2,0,0,0-3.05,0A3.08,3.08,0,0,0,278.63,48.51ZM287,52.14l-2.22-7.26H286l1.16,4.19.43,1.56.38-1.5,1.16-4.25h1.26l1.09,4.21.36,1.39.42-1.4,1.24-4.2h1.2l-2.27,7.26h-1.28L290,47.79l-.28-1.24-1.47,5.58Z"/><path d="M.38,147.52A33.53,33.53,0,1,1,33.91,181,33.53,33.53,0,0,1,.38,147.52" fill="#e0e0e0" fill-rule="evenodd"/><path d="M.38,147.52H.75A33.16,33.16,0,1,1,10.46,171,33.05,33.05,0,0,1,.75,147.52H0a33.91,33.91,0,1,0,33.91-33.91A33.91,33.91,0,0,0,0,147.52H.38" fill="#9e9d9e"/><path d="M19.76,149.49l1.25-.11a2.76,2.76,0,0,0,.41,1.23,2.26,2.26,0,0,0,1,.78,3.82,3.82,0,0,0,1.54.3,3.69,3.69,0,0,0,1.34-.23,1.86,1.86,0,0,0,.86-.62,1.44,1.44,0,0,0,.28-.86,1.3,1.3,0,0,0-.27-.82,2,2,0,0,0-.9-.59,17.67,17.67,0,0,0-1.78-.49,9.11,9.11,0,0,1-1.93-.63,2.71,2.71,0,0,1-1.07-.93,2.29,2.29,0,0,1-.35-1.25,2.55,2.55,0,0,1,.43-1.42,2.67,2.67,0,0,1,1.26-1,4.77,4.77,0,0,1,1.84-.34,5,5,0,0,1,2,.36,2.83,2.83,0,0,1,1.31,1.06,3,3,0,0,1,.49,1.58l-1.27.1a2.05,2.05,0,0,0-.69-1.44,2.7,2.7,0,0,0-1.75-.49,2.8,2.8,0,0,0-1.75.44,1.32,1.32,0,0,0-.55,1.06,1.14,1.14,0,0,0,.39.89,5.28,5.28,0,0,0,2,.71,13.24,13.24,0,0,1,2.22.64,3,3,0,0,1,1.29,1,2.49,2.49,0,0,1,.42,1.43,2.73,2.73,0,0,1-.46,1.51,3,3,0,0,1-1.32,1.1,4.59,4.59,0,0,1-1.93.39,5.77,5.77,0,0,1-2.28-.4,3.19,3.19,0,0,1-1.44-1.19A3.38,3.38,0,0,1,19.76,149.49Zm11.76,2.17a4,4,0,0,0,.54,0l.18,1.09a4.57,4.57,0,0,1-.93.11,2.11,2.11,0,0,1-1-.21,1.19,1.19,0,0,1-.52-.56,4.4,4.4,0,0,1-.15-1.45V146.4h-.9v-1h.9v-1.8l1.22-.74v2.54h1.24v1H30.83v4.25a2.14,2.14,0,0,0,.06.68.51.51,0,0,0,.21.24.82.82,0,0,0,.42.09Zm6.71,1.05a2.61,2.61,0,0,1-.25-.9,4.58,4.58,0,0,1-1.32.82,3.8,3.8,0,0,1-1.36.24,2.64,2.64,0,0,1-1.84-.58,1.93,1.93,0,0,1-.64-1.49,2,2,0,0,1,.24-1,2,2,0,0,1,.64-.71,3,3,0,0,1,.89-.4,8.8,8.8,0,0,1,1.09-.18,11.25,11.25,0,0,0,2.19-.42q0-.25,0-.32a1.36,1.36,0,0,0-.35-1.06,2.06,2.06,0,0,0-1.4-.42,2.17,2.17,0,0,0-1.28.3,1.86,1.86,0,0,0-.61,1.08l-1.2-.16a3,3,0,0,1,.54-1.25,2.37,2.37,0,0,1,1.09-.73,4.85,4.85,0,0,1,1.65-.26,4.36,4.36,0,0,1,1.51.22,2,2,0,0,1,.85.55,1.94,1.94,0,0,1,.38.84,6.93,6.93,0,0,1,.06,1.13v1.64a17.4,17.4,0,0,0,.08,2.17,2.73,2.73,0,0,0,.31.87Zm-.35-3.64a9,9,0,0,1-2,.46,4.65,4.65,0,0,0-1.07.25,1.07,1.07,0,0,0-.49.4,1.09,1.09,0,0,0,.2,1.4,1.6,1.6,0,0,0,1.09.33,2.54,2.54,0,0,0,1.26-.31,1.92,1.92,0,0,0,.81-.85,3,3,0,0,0,.2-1.23ZM41,152.71v-7.26h1.11v1.1a3,3,0,0,1,.78-1,1.37,1.37,0,0,1,.79-.25,2.4,2.4,0,0,1,1.26.4l-.42,1.14a1.76,1.76,0,0,0-.9-.27,1.17,1.17,0,0,0-.72.24,1.31,1.31,0,0,0-.46.67,4.79,4.79,0,0,0-.21,1.44v3.8Zm6.82-1.05a4,4,0,0,0,.54,0l.18,1.09a4.57,4.57,0,0,1-.93.11,2.11,2.11,0,0,1-1-.21,1.19,1.19,0,0,1-.52-.56,4.4,4.4,0,0,1-.15-1.45V146.4H45v-1h.9v-1.8l1.22-.74v2.54h1.24v1H47.15v4.25a2.14,2.14,0,0,0,.06.68.51.51,0,0,0,.21.24.82.82,0,0,0,.42.09Z"/><polyline points="127.06 147.52 67.81 147.52 67.81 147.52 127.06 147.52 127.06 147.52" fill="#37474f"/><polyline points="127.44 147.52 127.06 147.52 127.06 147.52 127.44 147.52" fill="#9e9e9e"/><polyline points="67.81 147.52 67.44 147.52 67.81 147.52 67.81 147.52" fill="#9e9e9e"/><polyline points="67.44 147.89 122.94 147.89 122.94 147.14 67.44 147.14" fill="#9e9d9e"/><polygon points="122.94 148.75 126.34 147.52 122.94 146.28 122.94 148.75" fill="#9e9d9e" fill-rule="evenodd"/><polygon points="122.94 148.75 123.07 149.11 127.44 147.52 122.56 145.74 122.56 149.29 123.07 149.11 122.94 148.75 123.31 148.75 123.31 146.81 125.25 147.52 122.81 148.4 122.94 148.75 123.31 148.75 122.94 148.75" fill="#9e9d9e"/><polyline points="241.38 80.14 207.21 114.32 207.21 114.32 241.38 80.14 241.38 80.14" fill="#37474f"/><polyline points="207.21 114.32 206.94 114.59 207.21 114.32 207.21 114.32" fill="#9e9e9e"/><polyline points="241.64 79.89 241.38 80.14 241.38 80.14 241.64 79.89" fill="#9e9e9e"/><polyline points="207.21 114.85 238.72 83.33 238.19 82.8 206.67 114.32" fill="#cbd9f0"/><polygon points="239.33 83.94 240.87 80.66 237.58 82.19 239.33 83.94" fill="#cbd9f0" fill-rule="evenodd"/><polygon points="239.33 83.94 239.67 84.1 241.64 79.89 236.94 82.08 239.45 84.59 239.67 84.1 239.33 83.94 239.6 83.68 238.23 82.3 240.09 81.44 238.99 83.78 239.33 83.94 239.6 83.68 239.33 83.94" fill="#cbd9f0"/><polyline points="307.77 80.14 307.77 80.14 341.95 114.32 341.95 114.32 307.77 80.14" fill="#37474f"/><polyline points="341.95 114.32 341.95 114.32 342.21 114.58 341.95 114.32" fill="#9e9e9e"/><polyline points="307.51 79.88 307.77 80.14 307.77 80.14 307.51 79.88" fill="#9e9e9e"/><polyline points="307.25 80.14 338.76 111.66 339.29 111.13 307.77 79.61" fill="#d5a6bd"/><polygon points="338.15 112.27 341.44 113.8 339.9 110.52 338.15 112.27" fill="#d5a6bd" fill-rule="evenodd"/><polygon points="338.15 112.27 338 112.61 342.21 114.58 340.02 109.88 337.51 112.39 338 112.61 338.15 112.27 338.42 112.54 339.79 111.16 340.66 113.03 338.31 111.93 338.15 112.27 338.42 112.54 338.15 112.27" fill="#d5a6bd"/><polyline points="341.95 180.71 307.78 214.89 307.77 214.89 341.95 180.71 341.95 180.71" fill="#37474f"/><polyline points="307.78 214.89 307.52 215.15 307.78 214.89 307.77 214.89" fill="#9e9e9e"/><polyline points="342.22 180.45 341.95 180.71 341.95 180.71 342.22 180.45" fill="#9e9e9e"/><polyline points="341.95 180.18 310.44 211.7 310.97 212.23 342.49 180.71" fill="#ffd967"/><polygon points="309.82 211.09 308.3 214.37 311.58 212.84 309.82 211.09" fill="#ffd967" fill-rule="evenodd"/><polygon points="309.82 211.09 309.49 210.93 307.52 215.15 312.22 212.96 309.71 210.45 309.49 210.93 309.82 211.09 309.56 211.35 310.93 212.73 309.07 213.6 310.17 211.25 309.82 211.09 309.56 211.35 309.82 211.09" fill="#ffd967"/><polyline points="374.78 194.46 321.52 247.71 321.52 247.71 374.78 194.46 374.78 194.46" fill="#37474f"/><polyline points="321.52 247.71 321.15 248.09 321.52 247.71 321.52 247.71" fill="#9e9e9e"/><polyline points="375.15 194.09 374.78 194.46 374.78 194.46 375.15 194.09" fill="#9e9e9e"/><polyline points="321.42 248.35 372.23 197.53 371.7 197 320.88 247.82" fill="#f5f5f5"/><polygon points="372.85 198.15 374.38 194.86 371.09 196.39 372.85 198.15" fill="#f5f5f5" fill-rule="evenodd"/><polygon points="372.85 198.15 373.19 198.3 375.15 194.09 370.45 196.28 372.96 198.79 373.19 198.3 372.85 198.15 373.11 197.88 371.74 196.51 373.6 195.64 372.5 197.99 372.85 198.15 373.11 197.88 372.85 198.15" fill="#f5f5f5"/><polyline points="207.21 180.71 207.21 180.71 241.38 214.89 241.38 214.89 207.21 180.71" fill="#37474f"/><polyline points="241.38 214.89 241.38 214.89 241.64 215.15 241.38 214.89" fill="#9e9e9e"/><polyline points="206.94 180.45 207.21 180.71 207.21 180.71 206.94 180.45" fill="#9e9e9e"/><polyline points="206.67 180.71 238.19 212.23 238.72 211.7 207.21 180.18" fill="#cbd9f0"/><polygon points="237.58 212.84 240.87 214.37 239.33 211.09 237.58 212.84" fill="#cbd9f0" fill-rule="evenodd"/><polygon points="237.58 212.84 237.42 213.18 241.64 215.15 239.45 210.45 236.94 212.96 237.42 213.18 237.58 212.84 237.85 213.11 239.22 211.73 240.09 213.6 237.74 212.5 237.58 212.84 237.85 213.11 237.58 212.84" fill="#cbd9f0"/><polyline points="274.58 93.89 274.58 93.89 274.58 98.02 274.58 93.89" fill="#37474f"/><line x1="274.58" y1="201.52" x2="274.58" y2="201.52" fill="#9e9e9e"/><polyline points="274.58 93.52 274.58 93.89 274.58 93.89 274.58 93.52" fill="#9e9e9e"/><polyline points="274.95 201.52 274.95 98.02 274.2 98.02 274.2 201.52 274.95 201.52" fill="#f5f5f5"/><polygon points="275.82 98.02 274.58 94.61 273.34 98.02 275.82 98.02" fill="#f5f5f5" fill-rule="evenodd"/><polygon points="275.82 98.02 276.17 97.89 274.58 93.52 272.81 98.39 276.35 98.39 276.17 97.89 275.82 98.02 275.82 97.64 273.88 97.64 274.58 95.71 275.47 98.14 275.82 98.02 275.82 97.64 275.82 98.02" fill="#f5f5f5"/><polyline points="328.2 147.52 274.95 147.52 328.2 147.52 328.2 147.52" fill="#37474f"/><polyline points="328.58 147.52 328.2 147.52 328.2 147.52 328.58 147.52" fill="#9e9e9e"/><polyline points="274.2 147.52 220.96 147.52 220.96 147.52 274.2 147.52" fill="#37474f"/><polyline points="220.96 147.52 220.58 147.52 220.96 147.52 220.96 147.52" fill="#9e9e9e"/><polyline points="274.95 147.52 274.2 147.52 274.95 147.52" fill="#f5f6f6"/><polyline points="328.58 147.14 225.08 147.14 225.08 147.89 328.58 147.89" fill="#ffd967"/><polygon points="225.08 146.28 221.68 147.52 225.08 148.75 225.08 146.28" fill="#ffd967" fill-rule="evenodd"/><polygon points="225.08 146.28 224.95 145.93 220.58 147.52 225.46 149.29 225.46 145.74 224.95 145.93 225.08 146.28 224.71 146.28 224.71 148.22 222.77 147.52 225.21 146.63 225.08 146.28 224.71 146.28 225.08 146.28" fill="#ffd967"/><polyline points="321.52 47.32 321.52 47.32 374.78 100.57 374.78 100.57 321.52 47.32" fill="#37474f"/><polyline points="374.78 100.57 374.78 100.57 375.15 100.94 374.78 100.57" fill="#9e9e9e"/><polyline points="321.15 46.95 321.52 47.32 321.52 47.32 321.15 46.95" fill="#9e9e9e"/><polyline points="375.42 100.68 324.6 49.86 324.07 50.39 374.88 101.21" fill="#ffd967"/><polygon points="325.21 49.25 321.93 47.72 323.46 51 325.21 49.25" fill="#ffd967" fill-rule="evenodd"/><polygon points="325.21 49.25 325.37 48.91 321.15 46.95 323.34 51.65 325.85 49.14 325.37 48.91 325.21 49.25 324.94 48.99 323.57 50.36 322.7 48.5 325.05 49.59 325.21 49.25 324.94 48.99 325.21 49.25" fill="#ffd967"/><path d="M47.93,63.52h0A46.57,46.57,0,1,1,94.5,110.09,46.57,46.57,0,0,1,47.93,63.52Z" fill="#e0e0e0" fill-rule="evenodd"/><path d="M47.93,63.52h.38A46.2,46.2,0,1,1,61.83,96.18,46,46,0,0,1,48.3,63.52h-.75A46.95,46.95,0,1,0,94.5,16.57,46.95,46.95,0,0,0,47.55,63.52Z" fill="#9e9d9e"/><path d="M80,64.78V63.6h4.25v3.72a7.5,7.5,0,0,1-2,1.17,6,6,0,0,1-2.13.39,5.69,5.69,0,0,1-2.68-.63,4.18,4.18,0,0,1-1.82-1.83A5.76,5.76,0,0,1,75,63.74,6.2,6.2,0,0,1,75.63,61a4.07,4.07,0,0,1,1.76-1.88A5.52,5.52,0,0,1,80,58.51a5.24,5.24,0,0,1,2,.35,3.26,3.26,0,0,1,1.38,1,4.36,4.36,0,0,1,.76,1.64l-1.2.33a3.71,3.71,0,0,0-.56-1.2,2.3,2.3,0,0,0-1-.7A3.51,3.51,0,0,0,80,59.65a4.07,4.07,0,0,0-1.57.28,2.93,2.93,0,0,0-1.07.73,3.47,3.47,0,0,0-.63,1,5.24,5.24,0,0,0-.38,2,4.89,4.89,0,0,0,.46,2.24,3,3,0,0,0,1.34,1.34,4.16,4.16,0,0,0,1.87.44,4.45,4.45,0,0,0,1.68-.33A4.34,4.34,0,0,0,83,66.64V64.78Zm6,3.93v-10h1.23v10Zm2.68-3.63a3.74,3.74,0,0,1,1.12-3,3.38,3.38,0,0,1,2.28-.81,3.26,3.26,0,0,1,2.45,1,3.73,3.73,0,0,1,1,2.71,4.8,4.8,0,0,1-.42,2.2,3,3,0,0,1-1.22,1.25,3.56,3.56,0,0,1-1.75.44,3.26,3.26,0,0,1-2.46-1A3.9,3.9,0,0,1,88.73,65.08Zm1.26,0a3.09,3.09,0,0,0,.61,2.09,2,2,0,0,0,3.06,0A3.17,3.17,0,0,0,94.26,65a3,3,0,0,0-.61-2,2,2,0,0,0-3.05,0A3.08,3.08,0,0,0,90,65.08Zm8.11,3.63H97v-10h1.23v3.58a2.43,2.43,0,0,1,2-1,3,3,0,0,1,1.27.27,2.59,2.59,0,0,1,1,.76,3.67,3.67,0,0,1,.6,1.18,4.86,4.86,0,0,1,.22,1.48,4.15,4.15,0,0,1-.92,2.88,2.89,2.89,0,0,1-2.21,1,2.31,2.31,0,0,1-2-1.07Zm0-3.68a3.77,3.77,0,0,0,.36,1.89,1.76,1.76,0,0,0,3,.25,3.18,3.18,0,0,0,.59-2.09,3.24,3.24,0,0,0-.56-2.1,1.72,1.72,0,0,0-1.36-.68,1.77,1.77,0,0,0-1.39.7A3.08,3.08,0,0,0,98.09,65Zm11.65,3.68a2.61,2.61,0,0,1-.25-.9,4.58,4.58,0,0,1-1.32.82,3.8,3.8,0,0,1-1.36.24,2.64,2.64,0,0,1-1.84-.58,1.93,1.93,0,0,1-.64-1.49,2,2,0,0,1,.24-1,2,2,0,0,1,.64-.71,3,3,0,0,1,.89-.4,8.8,8.8,0,0,1,1.09-.18,11.25,11.25,0,0,0,2.19-.42q0-.25,0-.32a1.36,1.36,0,0,0-.35-1.06,2.06,2.06,0,0,0-1.4-.42,2.17,2.17,0,0,0-1.28.3,1.86,1.86,0,0,0-.61,1.08l-1.2-.16a3,3,0,0,1,.54-1.25,2.37,2.37,0,0,1,1.09-.73,4.85,4.85,0,0,1,1.65-.26,4.36,4.36,0,0,1,1.51.22,2,2,0,0,1,.85.55,1.94,1.94,0,0,1,.38.84,6.93,6.93,0,0,1,.06,1.13v1.64a17.41,17.41,0,0,0,.08,2.17,2.74,2.74,0,0,0,.31.87Zm-.35-3.64a9,9,0,0,1-2,.46,4.65,4.65,0,0,0-1.07.25,1.07,1.07,0,0,0-.49.4,1.09,1.09,0,0,0,.2,1.4,1.6,1.6,0,0,0,1.09.33,2.54,2.54,0,0,0,1.26-.31,1.92,1.92,0,0,0,.81-.85,3,3,0,0,0,.2-1.23Zm3.12,3.64v-10h1.23v10Z"/></g></g></svg>