<svg xmlns="http://www.w3.org/2000/svg" viewBox="0 0 573.38 295.03"><title>hsfm</title><g id="Layer_2" data-name="Layer 2"><g id="Layer_1-2" data-name="Layer 1"><path d="M228,248.09a46.57,46.57,0,1,1,46.57,46.57A46.57,46.57,0,0,1,228,248.09" fill="#e0e0e0" fill-rule="evenodd"/><path d="M228,248.09h.37a46.2,46.2,0,1,1,13.53,32.67,46,46,0,0,1-13.53-32.67h-.75a46.95,46.95,0,1,0,46.95-46.95,46.95,46.95,0,0,0-46.95,46.95H228" fill="#9e9d9e"/><path d="M253.1,253.28v-10h3.45a8.37,8.37,0,0,1,1.78.14,3.4,3.4,0,0,1,1.47.72,4.08,4.08,0,0,1,1.19,1.71,6.72,6.72,0,0,1,.39,2.38,7,7,0,0,1-.27,2,4.91,4.91,0,0,1-.68,1.46,3.63,3.63,0,0,1-.91.91,3.72,3.72,0,0,1-1.2.5,6.83,6.83,0,0,1-1.61.17Zm1.33-1.18h2.14a5.19,5.19,0,0,0,1.56-.18,2.22,2.22,0,0,0,.9-.52,3.16,3.16,0,0,0,.73-1.27,6.2,6.2,0,0,0,.26-1.93,4.66,4.66,0,0,0-.52-2.42,2.6,2.6,0,0,0-1.25-1.13,5.19,5.19,0,0,0-1.72-.21h-2.11ZM268,250.94l1.27.16a3.1,3.1,0,0,1-1.11,1.73,3.77,3.77,0,0,1-4.6-.37,3.83,3.83,0,0,1-.93-2.75,4,4,0,0,1,.94-2.84,3.19,3.19,0,0,1,2.45-1,3.1,3.1,0,0,1,2.38,1,3.94,3.94,0,0,1,.92,2.79q0,.11,0,.33h-5.41a2.79,2.79,0,0,0,.68,1.83,2,2,0,0,0,1.52.64,1.88,1.88,0,0,0,1.16-.36A2.36,2.36,0,0,0,268,250.94Zm-4-2H268a2.46,2.46,0,0,0-.46-1.37,1.89,1.89,0,0,0-1.52-.71,2,2,0,0,0-1.43.57A2.25,2.25,0,0,0,264,248.95Zm7.15,4.33V247H270v-1h1.09v-.77a3.38,3.38,0,0,1,.13-1.09,1.57,1.57,0,0,1,.63-.78,2.25,2.25,0,0,1,1.25-.3,6,6,0,0,1,1.15.12l-.18,1.07a4.13,4.13,0,0,0-.72-.07,1.08,1.08,0,0,0-.79.24,1.3,1.3,0,0,0-.23.9V246h1.42v1h-1.42v6.3Zm8.55-2.34,1.27.16a3.1,3.1,0,0,1-1.11,1.73,3.77,3.77,0,0,1-4.6-.37,3.83,3.83,0,0,1-.93-2.75,4,4,0,0,1,.94-2.84,3.19,3.19,0,0,1,2.45-1,3.1,3.1,0,0,1,2.38,1,3.94,3.94,0,0,1,.92,2.79q0,.11,0,.33h-5.41a2.79,2.79,0,0,0,.68,1.83,2,2,0,0,0,1.52.64,1.88,1.88,0,0,0,1.16-.36A2.36,2.36,0,0,0,279.68,250.94Zm-4-2h4.05a2.46,2.46,0,0,0-.46-1.37,1.89,1.89,0,0,0-1.52-.71,2,2,0,0,0-1.43.57A2.25,2.25,0,0,0,275.64,248.95Zm6.85,4.33V246h1.11v1a2.61,2.61,0,0,1,2.31-1.2,3,3,0,0,1,1.21.24,1.9,1.9,0,0,1,.82.62,2.38,2.38,0,0,1,.38.91,7.06,7.06,0,0,1,.07,1.2v4.46h-1.23v-4.42a3.32,3.32,0,0,0-.14-1.12,1.18,1.18,0,0,0-.51-.59,1.62,1.62,0,0,0-.86-.22,2,2,0,0,0-1.36.5,2.46,2.46,0,0,0-.57,1.89v4Zm12.49,0v-.92a2.26,2.26,0,0,1-2,1.08,2.85,2.85,0,0,1-1.6-.48,3.15,3.15,0,0,1-1.13-1.34,4.62,4.62,0,0,1-.4-2,5.16,5.16,0,0,1,.36-2,2.86,2.86,0,0,1,1.09-1.36,2.91,2.91,0,0,1,1.62-.47,2.42,2.42,0,0,1,2,1v-3.6h1.22v10Zm-3.89-3.62a3.15,3.15,0,0,0,.59,2.08,1.77,1.77,0,0,0,1.39.69,1.74,1.74,0,0,0,1.37-.66,3,3,0,0,0,.56-2,3.41,3.41,0,0,0-.57-2.19,1.77,1.77,0,0,0-1.42-.7,1.7,1.7,0,0,0-1.37.67A3.31,3.31,0,0,0,291.1,249.65Z"/><path d="M127.44,147.52A46.57,46.57,0,1,1,174,194.09a46.57,46.57,0,0,1-46.57-46.57" fill="#e0e0e0" fill-rule="evenodd"/><path d="M127.44,147.52h.37a46.2,46.2,0,1,1,13.53,32.67,46.05,46.05,0,0,1-13.53-32.67h-.75A46.95,46.95,0,1,0,174,100.57a46.95,46.95,0,0,0-46.95,46.95h.38" fill="#9e9d9e"/><path d="M152.6,152.71l-2.66-10h1.36l1.52,6.57q.25,1,.42,2.05.38-1.61.45-1.85l1.91-6.77h1.6l1.44,5.07a26.91,26.91,0,0,1,.78,3.55q.19-1,.5-2.18l1.57-6.44h1.33l-2.75,10H158.8l-2.11-7.64q-.27-1-.31-1.18-.16.69-.29,1.18L154,152.71Zm15.76,0a2.61,2.61,0,0,1-.25-.9,4.58,4.58,0,0,1-1.32.82,3.8,3.8,0,0,1-1.36.24,2.64,2.64,0,0,1-1.84-.58,1.93,1.93,0,0,1-.64-1.49,2,2,0,0,1,.24-1,2,2,0,0,1,.64-.71,3,3,0,0,1,.89-.4,8.8,8.8,0,0,1,1.09-.18,11.25,11.25,0,0,0,2.19-.42q0-.25,0-.32a1.36,1.36,0,0,0-.35-1.06,2.06,2.06,0,0,0-1.4-.42,2.17,2.17,0,0,0-1.28.3,1.86,1.86,0,0,0-.61,1.08l-1.2-.16a3,3,0,0,1,.54-1.25,2.37,2.37,0,0,1,1.09-.73,4.85,4.85,0,0,1,1.65-.26,4.36,4.36,0,0,1,1.51.22,2,2,0,0,1,.85.55,1.94,1.94,0,0,1,.38.84,6.93,6.93,0,0,1,.06,1.13v1.64a17.41,17.41,0,0,0,.08,2.17,2.74,2.74,0,0,0,.31.87Zm-.35-3.64a9,9,0,0,1-2,.46,4.65,4.65,0,0,0-1.07.25,1.07,1.07,0,0,0-.49.4,1.09,1.09,0,0,0,.2,1.4,1.6,1.6,0,0,0,1.09.33,2.54,2.54,0,0,0,1.26-.31,1.92,1.92,0,0,0,.81-.85,3,3,0,0,0,.2-1.23Zm3.15,3.64v-7.26h1.11v1a2.61,2.61,0,0,1,2.31-1.2,3,3,0,0,1,1.21.24,1.9,1.9,0,0,1,.82.62,2.38,2.38,0,0,1,.38.91,7.05,7.05,0,0,1,.07,1.2v4.46h-1.23v-4.42a3.32,3.32,0,0,0-.14-1.12,1.18,1.18,0,0,0-.51-.59,1.62,1.62,0,0,0-.86-.22,2,2,0,0,0-1.36.5,2.46,2.46,0,0,0-.57,1.89v4Zm12.49,0v-.92a2.26,2.26,0,0,1-2,1.08,2.85,2.85,0,0,1-1.6-.48,3.15,3.15,0,0,1-1.13-1.34,4.62,4.62,0,0,1-.4-2,5.16,5.16,0,0,1,.36-2,2.86,2.86,0,0,1,1.09-1.36,2.91,2.91,0,0,1,1.62-.47,2.42,2.42,0,0,1,2,1v-3.6h1.22v10Zm-3.89-3.62a3.15,3.15,0,0,0,.59,2.08,1.77,1.77,0,0,0,1.39.69,1.74,1.74,0,0,0,1.37-.66,3,3,0,0,0,.56-2,3.41,3.41,0,0,0-.57-2.19,1.77,1.77,0,0,0-1.42-.7,1.7,1.7,0,0,0-1.37.67A3.31,3.31,0,0,0,179.77,149.08Zm11.93,1.29,1.27.16a3.1,3.1,0,0,1-1.11,1.73,3.77,3.77,0,0,1-4.6-.37,3.83,3.83,0,0,1-.93-2.75,4,4,0,0,1,.94-2.84,3.19,3.19,0,0,1,2.45-1,3.1,3.1,0,0,1,2.38,1,3.94,3.94,0,0,1,.92,2.79q0,.11,0,.33h-5.41a2.79,2.79,0,0,0,.68,1.83,2,2,0,0,0,1.52.64,1.88,1.88,0,0,0,1.16-.36A2.36,2.36,0,0,0,191.7,150.37Zm-4-2h4.05a2.46,2.46,0,0,0-.46-1.37,1.89,1.89,0,0,0-1.52-.71,2,2,0,0,0-1.43.57A2.25,2.25,0,0,0,187.66,148.38Zm6.84,4.33v-7.26h1.11v1.1a3,3,0,0,1,.78-1,1.37,1.37,0,0,1,.79-.25,2.4,2.4,0,0,1,1.26.4l-.42,1.14a1.76,1.76,0,0,0-.9-.27,1.17,1.17,0,0,0-.72.24,1.31,1.31,0,0,0-.46.67,4.79,4.79,0,0,0-.21,1.44v3.8Z"/><path d="M333.32,147.52h.37a116.45,116.45,0,0,1,35-83.22,120.76,120.76,0,0,1,169,0,116.45,116.45,0,0,1,0,166.43,120.76,120.76,0,0,1-169,0,116.45,116.45,0,0,1-35-83.22h-.75a117.2,117.2,0,0,0,35.21,83.75,121.51,121.51,0,0,0,170,0,117.2,117.2,0,0,0,0-167.5,121.51,121.51,0,0,0-170,0,117.2,117.2,0,0,0-35.21,83.75h.37" fill="#ffd967"/><path d="M428.13,219.78l4.95-12.88h1.84l5.27,12.88h-1.94l-1.5-3.9h-5.39l-1.42,3.9Zm3.72-5.29h4.37l-1.34-3.57q-.62-1.63-.91-2.67a16.43,16.43,0,0,1-.69,2.46Zm12.24,3.94a5.14,5.14,0,0,0,.69-.06l.23,1.4a5.88,5.88,0,0,1-1.2.14,2.71,2.71,0,0,1-1.34-.27,1.52,1.52,0,0,1-.67-.72,5.66,5.66,0,0,1-.19-1.87v-5.37h-1.16v-1.23h1.16v-2.31l1.57-.95v3.26h1.59v1.23h-1.59v5.46a2.75,2.75,0,0,0,.08.87.66.66,0,0,0,.27.31,1.05,1.05,0,0,0,.54.11Zm5,0a5.14,5.14,0,0,0,.69-.06l.23,1.4a5.88,5.88,0,0,1-1.2.14,2.71,2.71,0,0,1-1.34-.27,1.52,1.52,0,0,1-.67-.72,5.66,5.66,0,0,1-.19-1.87v-5.37h-1.16v-1.23h1.16v-2.31l1.57-.95v3.26h1.59v1.23h-1.59v5.46a2.75,2.75,0,0,0,.08.87.66.66,0,0,0,.27.31,1.05,1.05,0,0,0,.54.11Zm8.63,1.35a3.35,3.35,0,0,1-.32-1.15,5.89,5.89,0,0,1-1.69,1.05A4.89,4.89,0,0,1,454,220a3.39,3.39,0,0,1-2.36-.75,2.48,2.48,0,0,1-.83-1.92,2.55,2.55,0,0,1,.31-1.25,2.58,2.58,0,0,1,.82-.91,3.85,3.85,0,0,1,1.14-.52,11.32,11.32,0,0,1,1.41-.24,14.46,14.46,0,0,0,2.82-.54q0-.33,0-.41a1.75,1.75,0,0,0-.45-1.36,2.65,2.65,0,0,0-1.8-.54,2.79,2.79,0,0,0-1.65.39,2.39,2.39,0,0,0-.79,1.38l-1.55-.21a3.83,3.83,0,0,1,.69-1.6,3,3,0,0,1,1.4-.94,6.23,6.23,0,0,1,2.12-.33,5.61,5.61,0,0,1,1.94.28,2.56,2.56,0,0,1,1.1.71,2.49,2.49,0,0,1,.49,1.08,8.91,8.91,0,0,1,.08,1.46v2.11a22.37,22.37,0,0,0,.1,2.79,3.52,3.52,0,0,0,.4,1.12Zm-.45-4.68a11.6,11.6,0,0,1-2.58.6,6,6,0,0,0-1.38.32,1.38,1.38,0,0,0-.62.51,1.4,1.4,0,0,0,.26,1.81,2.06,2.06,0,0,0,1.4.42,3.26,3.26,0,0,0,1.63-.4,2.46,2.46,0,0,0,1-1.09,3.82,3.82,0,0,0,.25-1.58Zm10.14,1.27,1.56.2a4,4,0,0,1-1.31,2.52,3.8,3.8,0,0,1-2.58.91,4,4,0,0,1-3.08-1.25,5.08,5.08,0,0,1-1.16-3.59,6.5,6.5,0,0,1,.5-2.65,3.49,3.49,0,0,1,1.52-1.7,4.52,4.52,0,0,1,2.23-.57,3.87,3.87,0,0,1,2.49.77,3.53,3.53,0,0,1,1.24,2.18l-1.54.24a2.56,2.56,0,0,0-.78-1.42,2,2,0,0,0-1.35-.47,2.46,2.46,0,0,0-1.94.86,4.07,4.07,0,0,0-.75,2.71,4.2,4.2,0,0,0,.72,2.73,2.35,2.35,0,0,0,1.88.85,2.22,2.22,0,0,0,1.56-.57A2.84,2.84,0,0,0,467.4,216.36Zm2.92,3.42V206.9h1.58v7.35l3.74-3.8h2l-3.57,3.46,3.93,5.87h-2L473,215l-1.12,1.07v3.7Z" fill="#fff"/><path d="M228,46.95a46.57,46.57,0,1,1,46.57,46.57A46.57,46.57,0,0,1,228,46.95" fill="#e0e0e0" fill-rule="evenodd"/><path d="M228,46.95h.37a46.2,46.2,0,1,1,13.53,32.67,46.05,46.05,0,0,1-13.53-32.67h-.75A46.95,46.95,0,1,0,274.58,0a46.95,46.95,0,0,0-46.95,46.95H228" fill="#9e9d9e"/><path d="M255.51,52.14v-10h6.76V43.3h-5.43v3.1h4.7v1.18h-4.7v4.55Zm7.86-3.63a3.74,3.74,0,0,1,1.12-3,3.38,3.38,0,0,1,2.28-.81,3.26,3.26,0,0,1,2.45,1,3.73,3.73,0,0,1,1,2.71,4.8,4.8,0,0,1-.42,2.2,3,3,0,0,1-1.22,1.25,3.56,3.56,0,0,1-1.75.44,3.26,3.26,0,0,1-2.46-1A3.9,3.9,0,0,1,263.37,48.51Zm1.26,0a3.09,3.09,0,0,0,.61,2.09,2,2,0,0,0,3.06,0,3.17,3.17,0,0,0,.61-2.13,3,3,0,0,0-.61-2,2,2,0,0,0-3.05,0A3.08,3.08,0,0,0,264.63,48.51Zm7,3.63v-10h1.23v10Zm3.11,0v-10h1.23v10Zm2.68-3.63a3.74,3.74,0,0,1,1.12-3,3.38,3.38,0,0,1,2.28-.81,3.26,3.26,0,0,1,2.45,1,3.73,3.73,0,0,1,1,2.71,4.8,4.8,0,0,1-.42,2.2,3,3,0,0,1-1.22,1.25,3.56,3.56,0,0,1-1.75.44,3.26,3.26,0,0,1-2.46-1A3.9,3.9,0,0,1,277.37,48.51Zm1.26,0a3.09,3.09,0,0,0,.61,2.09,2,2,0,0,0,3.06,0,3.17,3.17,0,0,0,.61-2.13,3,3,0,0,0-.61-2,2,2,0,0,0-3.05,0A3.08,3.08,0,0,0,278.63,48.51ZM287,52.14l-2.22-7.26H286l1.16,4.19.43,1.56.38-1.5,1.16-4.25h1.26l1.09,4.21.36,1.39.42-1.4,1.24-4.2h1.2l-2.27,7.26h-1.28L290,47.79l-.28-1.24-1.47,5.58Z"/><path d="M.37,147.52A33.53,33.53,0,1,1,33.91,181,33.53,33.53,0,0,1,.37,147.52" fill="#e0e0e0" fill-rule="evenodd"/><path d="M.37,147.52H.75A33.16,33.16,0,1,1,10.46,171,33.05,33.05,0,0,1,.75,147.52H0a33.91,33.91,0,1,0,33.91-33.91A33.91,33.91,0,0,0,0,147.52H.37" fill="#9e9d9e"/><path d="M19.76,149.49l1.25-.11a2.76,2.76,0,0,0,.41,1.23,2.26,2.26,0,0,0,1,.78,3.82,3.82,0,0,0,1.54.3,3.69,3.69,0,0,0,1.34-.23,1.86,1.86,0,0,0,.86-.62,1.44,1.44,0,0,0,.28-.86,1.3,1.3,0,0,0-.27-.82,2,2,0,0,0-.9-.59,17.67,17.67,0,0,0-1.78-.49,9.11,9.11,0,0,1-1.93-.63,2.71,2.71,0,0,1-1.07-.93,2.29,2.29,0,0,1-.35-1.25,2.55,2.55,0,0,1,.43-1.42,2.67,2.67,0,0,1,1.26-1,4.77,4.77,0,0,1,1.84-.34,5,5,0,0,1,2,.36,2.83,2.83,0,0,1,1.31,1.06,3,3,0,0,1,.49,1.58l-1.27.1a2.05,2.05,0,0,0-.69-1.44,2.7,2.7,0,0,0-1.75-.49,2.8,2.8,0,0,0-1.75.44,1.32,1.32,0,0,0-.55,1.06,1.14,1.14,0,0,0,.39.89,5.28,5.28,0,0,0,2,.71,13.24,13.24,0,0,1,2.22.64,3,3,0,0,1,1.29,1,2.49,2.49,0,0,1,.42,1.43,2.73,2.73,0,0,1-.46,1.51,3,3,0,0,1-1.32,1.1,4.59,4.59,0,0,1-1.93.39,5.77,5.77,0,0,1-2.28-.4,3.19,3.19,0,0,1-1.44-1.19A3.38,3.38,0,0,1,19.76,149.49Zm11.76,2.17a4,4,0,0,0,.54,0l.18,1.09a4.57,4.57,0,0,1-.93.11,2.11,2.11,0,0,1-1-.21,1.19,1.19,0,0,1-.52-.56,4.4,4.4,0,0,1-.15-1.45V146.4h-.9v-1h.9v-1.8l1.22-.74v2.54h1.24v1H30.83v4.25a2.14,2.14,0,0,0,.06.68.51.51,0,0,0,.21.24.82.82,0,0,0,.42.09Zm6.71,1.05a2.61,2.61,0,0,1-.25-.9,4.58,4.58,0,0,1-1.32.82,3.8,3.8,0,0,1-1.36.24,2.64,2.64,0,0,1-1.84-.58,1.93,1.93,0,0,1-.64-1.49,2,2,0,0,1,.24-1,2,2,0,0,1,.64-.71,3,3,0,0,1,.89-.4,8.8,8.8,0,0,1,1.09-.18,11.25,11.25,0,0,0,2.19-.42q0-.25,0-.32a1.36,1.36,0,0,0-.35-1.06,2.06,2.06,0,0,0-1.4-.42,2.17,2.17,0,0,0-1.28.3,1.86,1.86,0,0,0-.61,1.08l-1.2-.16a3,3,0,0,1,.54-1.25,2.37,2.37,0,0,1,1.09-.73,4.85,4.85,0,0,1,1.65-.26,4.36,4.36,0,0,1,1.51.22,2,2,0,0,1,.85.55,1.94,1.94,0,0,1,.38.84,6.93,6.93,0,0,1,.06,1.13v1.64a17.4,17.4,0,0,0,.08,2.17,2.73,2.73,0,0,0,.31.87Zm-.35-3.64a9,9,0,0,1-2,.46,4.65,4.65,0,0,0-1.07.25,1.07,1.07,0,0,0-.49.4,1.09,1.09,0,0,0,.2,1.4,1.6,1.6,0,0,0,1.09.33,2.54,2.54,0,0,0,1.26-.31,1.92,1.92,0,0,0,.81-.85,3,3,0,0,0,.2-1.23ZM41,152.71v-7.26h1.11v1.1a3,3,0,0,1,.78-1,1.37,1.37,0,0,1,.79-.25,2.4,2.4,0,0,1,1.26.4l-.42,1.14a1.76,1.76,0,0,0-.9-.27,1.17,1.17,0,0,0-.72.24,1.31,1.31,0,0,0-.46.67,4.79,4.79,0,0,0-.21,1.44v3.8Zm6.82-1.05a4,4,0,0,0,.54,0l.18,1.09a4.57,4.57,0,0,1-.93.11,2.11,2.11,0,0,1-1-.21,1.19,1.19,0,0,1-.52-.56,4.4,4.4,0,0,1-.15-1.45V146.4H45v-1h.9v-1.8l1.22-.74v2.54h1.24v1H47.15v4.25a2.14,2.14,0,0,0,.06.68.51.51,0,0,0,.21.24.82.82,0,0,0,.42.09Z"/><polyline points="127.06 147.52 67.81 147.52 67.81 147.52 127.06 147.52 127.06 147.52" fill="#37474f"/><polyline points="127.44 147.52 127.06 147.52 127.06 147.52 127.44 147.52" fill="#9e9e9e"/><polyline points="67.81 147.52 67.44 147.52 67.81 147.52 67.81 147.52" fill="#9e9e9e"/><polyline points="67.44 147.89 122.94 147.89 122.94 147.14 67.44 147.14" fill="#9e9d9e"/><polygon points="122.94 148.75 126.34 147.52 122.94 146.28 122.94 148.75" fill="#9e9d9e" fill-rule="evenodd"/><polygon points="122.94 148.75 123.07 149.11 127.44 147.52 122.56 145.74 122.56 149.29 123.07 149.11 122.94 148.75 123.31 148.75 123.31 146.81 125.25 147.52 122.81 148.4 122.94 148.75 123.31 148.75 122.94 148.75" fill="#9e9d9e"/><polyline points="241.38 80.14 207.21 114.32 207.21 114.32 241.38 80.14 241.38 80.14" fill="#37474f"/><polyline points="207.21 114.32 206.94 114.59 207.21 114.32 207.21 114.32" fill="#9e9e9e"/><polyline points="241.64 79.89 241.38 80.14 241.38 80.14 241.64 79.89" fill="#9e9e9e"/><polyline points="207.21 114.85 238.72 83.33 238.19 82.8 206.67 114.32" fill="#cbd9f0"/><polygon points="239.33 83.94 240.87 80.66 237.58 82.19 239.33 83.94" fill="#cbd9f0" fill-rule="evenodd"/><polygon points="239.33 83.94 239.67 84.1 241.64 79.89 236.94 82.08 239.45 84.59 239.67 84.1 239.33 83.94 239.6 83.68 238.23 82.3 240.09 81.44 238.99 83.78 239.33 83.94 239.6 83.68 239.33 83.94" fill="#cbd9f0"/><polyline points="367.71 64.21 308.22 79.69 308.22 79.69 367.71 64.21 367.71 64.21" fill="#37474f"/><polyline points="368.41 64.03 367.71 64.21 367.71 64.21 368.41 64.03" fill="#ffda67"/><polyline points="308.22 79.69 307.51 79.88 308.22 79.69 308.22 79.69" fill="#9e9e9e"/><polyline points="307.61 80.24 364.15 65.52 363.96 64.8 307.42 79.51" fill="#d5a6bd"/><polygon points="364.37 66.36 367.35 64.3 363.74 63.96 364.37 66.36" fill="#d5a6bd" fill-rule="evenodd"/><polygon points="364.37 66.36 364.58 66.67 368.41 64.03 363.24 63.54 364.14 66.97 364.58 66.67 364.37 66.36 364.73 66.26 364.24 64.38 366.29 64.58 364.15 66.05 364.37 66.36 364.73 66.26 364.37 66.36" fill="#d5a6bd"/><polyline points="308.21 215.33 308.21 215.33 367.69 230.81 367.69 230.81 308.21 215.33" fill="#37474f"/><polyline points="307.52 215.15 308.21 215.33 308.21 215.33 307.52 215.15" fill="#9e9e9e"/><polyline points="367.69 230.81 367.69 230.81 368.42 231 367.69 230.81" fill="#ffda67"/><polyline points="368.51 230.64 311.97 215.92 311.78 216.65 368.32 231.37" fill="#ffd967"/><polygon points="312.19 215.09 308.58 215.43 311.56 217.48 312.19 215.09" fill="#ffd967" fill-rule="evenodd"/><polygon points="312.19 215.09 312.15 214.71 307.52 215.15 311.79 218.1 312.69 214.66 312.15 214.71 312.19 215.09 311.82 214.99 311.33 216.87 309.64 215.7 312.22 215.46 312.19 215.09 311.82 214.99 312.19 215.09" fill="#ffd967"/><polyline points="450.08 265.92 308.1 280.95 308.1 280.95 450.08 265.92 450.08 265.92" fill="#37474f"/><polyline points="308.1 280.95 307.51 281.02 308.1 280.95 308.1 280.95" fill="#9e9e9e"/><polyline points="453.16 265.59 450.08 265.92 450.08 265.92 453.16 265.59" fill="#ffda67"/><polyline points="307.55 281.39 448.73 266.44 448.65 265.69 307.47 280.64" fill="#f5f5f5"/><polygon points="448.82 267.3 452.07 265.71 448.56 264.83 448.82 267.3" fill="#f5f5f5" fill-rule="evenodd"/><polygon points="448.82 267.3 448.98 267.63 453.16 265.59 448.13 264.34 448.5 267.87 448.98 267.63 448.82 267.3 449.19 267.26 448.99 265.33 450.98 265.82 448.65 266.96 448.82 267.3 449.19 267.26 448.82 267.3" fill="#f5f5f5"/><polyline points="207.21 180.71 207.21 180.71 241.38 214.89 241.38 214.89 207.21 180.71" fill="#37474f"/><polyline points="241.38 214.89 241.38 214.89 241.64 215.15 241.38 214.89" fill="#9e9e9e"/><polyline points="206.94 180.45 207.21 180.71 207.21 180.71 206.94 180.45" fill="#9e9e9e"/><polyline points="206.67 180.71 238.19 212.23 238.72 211.7 207.21 180.18" fill="#cbd9f0"/><polygon points="237.58 212.84 240.87 214.37 239.33 211.09 237.58 212.84" fill="#cbd9f0" fill-rule="evenodd"/><polygon points="237.58 212.84 237.42 213.18 241.64 215.15 239.45 210.45 236.94 212.96 237.42 213.18 237.58 212.84 237.85 213.11 239.22 211.73 240.09 213.6 237.74 212.5 237.58 212.84 237.85 213.11 237.58 212.84" fill="#cbd9f0"/><polyline points="274.58 93.89 274.58 93.89 274.58 98.02 274.58 93.89" fill="#37474f"/><line x1="274.58" y1="201.52" x2="274.58" y2="201.52" fill="#9e9e9e"/><polyline points="274.58 93.52 274.58 93.89 274.58 93.89 274.58 93.52" fill="#9e9e9e"/><polyline points="274.95 201.52 274.95 98.02 274.2 98.02 274.2 201.52 274.95 201.52" fill="#f5f5f5"/><polygon points="275.82 98.02 274.58 94.61 273.34 98.02 275.82 98.02" fill="#f5f5f5" fill-rule="evenodd"/><polygon points="275.82 98.02 276.17 97.89 274.58 93.52 272.81 98.39 276.35 98.39 276.17 97.89 275.82 98.02 275.82 97.64 273.88 97.64 274.58 95.71 275.47 98.14 275.82 98.02 275.82 97.64 275.82 98.02" fill="#f5f5f5"/><polyline points="332.94 147.52 274.95 147.52 332.94 147.52 332.94 147.52" fill="#37474f"/><polyline points="333.32 147.52 332.94 147.52 332.94 147.52 333.32 147.52" fill="#ffda67"/><polyline points="274.2 147.52 220.96 147.52 220.96 147.52 274.2 147.52" fill="#37474f"/><polyline points="220.96 147.52 220.59 147.52 220.96 147.52 220.96 147.52" fill="#9e9e9e"/><polyline points="274.95 147.52 274.2 147.52 274.95 147.52" fill="#f5f6f6"/><polyline points="333.32 147.14 225.09 147.14 225.09 147.89 333.32 147.89" fill="#ffd967"/><polygon points="225.09 146.28 221.69 147.52 225.09 148.76 225.09 146.28" fill="#ffd967" fill-rule="evenodd"/><polygon points="225.09 146.28 224.96 145.93 220.59 147.52 225.47 149.29 225.47 145.74 224.96 145.93 225.09 146.28 224.72 146.28 224.72 148.22 222.78 147.52 225.22 146.63 225.09 146.28 224.72 146.28 225.09 146.28" fill="#ffd967"/><path d="M467.68,145.93a46.57,46.57,0,1,1,46.57,46.57,46.57,46.57,0,0,1-46.57-46.57" fill="#e0e0e0" fill-rule="evenodd"/><path d="M467.68,145.93h.37a46.2,46.2,0,1,1,13.53,32.67,46,46,0,0,1-13.53-32.67h-.75A46.95,46.95,0,1,0,514.25,99a46.95,46.95,0,0,0-46.95,46.95h.38" fill="#9e9d9e"/><path d="M496.24,151.12v-10h2l2.37,7.1q.33,1,.48,1.48.17-.55.53-1.61l2.4-7h1.78v10h-1.28v-8.39l-2.91,8.39h-1.2l-2.9-8.53v8.53Zm16.52-2.34,1.27.16a3.1,3.1,0,0,1-1.11,1.73,3.77,3.77,0,0,1-4.6-.37,3.83,3.83,0,0,1-.93-2.75,4,4,0,0,1,.94-2.84,3.19,3.19,0,0,1,2.45-1,3.1,3.1,0,0,1,2.38,1,3.94,3.94,0,0,1,.92,2.79q0,.11,0,.33h-5.41a2.79,2.79,0,0,0,.68,1.83,2,2,0,0,0,1.52.64,1.88,1.88,0,0,0,1.16-.36A2.36,2.36,0,0,0,512.75,148.78Zm-4-2h4.05a2.46,2.46,0,0,0-.46-1.37,1.89,1.89,0,0,0-1.52-.71,2,2,0,0,0-1.43.57A2.25,2.25,0,0,0,508.71,146.79Zm6.83,4.33v-10h1.23v10Zm8.11-2.34,1.27.16a3.1,3.1,0,0,1-1.11,1.73,3.77,3.77,0,0,1-4.6-.37,3.83,3.83,0,0,1-.93-2.75,4,4,0,0,1,.94-2.84,3.19,3.19,0,0,1,2.45-1,3.1,3.1,0,0,1,2.38,1,3.94,3.94,0,0,1,.92,2.79q0,.11,0,.33h-5.41a2.79,2.79,0,0,0,.68,1.83,2,2,0,0,0,1.52.64,1.88,1.88,0,0,0,1.16-.36A2.36,2.36,0,0,0,523.64,148.78Zm-4-2h4.05a2.46,2.46,0,0,0-.46-1.37,1.89,1.89,0,0,0-1.52-.71,2,2,0,0,0-1.43.57A2.25,2.25,0,0,0,519.6,146.79Zm11.82,2,1.27.16a3.1,3.1,0,0,1-1.11,1.73,3.77,3.77,0,0,1-4.6-.37,3.83,3.83,0,0,1-.93-2.75,4,4,0,0,1,.94-2.84,3.19,3.19,0,0,1,2.45-1,3.1,3.1,0,0,1,2.38,1,3.94,3.94,0,0,1,.92,2.79q0,.11,0,.33h-5.41a2.79,2.79,0,0,0,.68,1.83,2,2,0,0,0,1.52.64,1.88,1.88,0,0,0,1.16-.36A2.36,2.36,0,0,0,531.43,148.78Zm-4-2h4.05a2.46,2.46,0,0,0-.46-1.37,1.89,1.89,0,0,0-1.52-.71,2,2,0,0,0-1.43.57A2.25,2.25,0,0,0,527.39,146.79Z"/><path d="M344.93,145.93A46.57,46.57,0,1,1,391.5,192.5a46.57,46.57,0,0,1-46.57-46.57" fill="#e0e0e0" fill-rule="evenodd"/><path d="M344.93,145.93h.38a46.2,46.2,0,1,1,13.53,32.67,46,46,0,0,1-13.53-32.67h-.75A46.95,46.95,0,1,0,391.5,99a46.95,46.95,0,0,0-46.95,46.95h.37" fill="#9e9d9e"/><path d="M372,151.12v-10h4.44a5.92,5.92,0,0,1,2,.27,2.23,2.23,0,0,1,1.11,1,2.85,2.85,0,0,1,.42,1.51,2.52,2.52,0,0,1-.69,1.8,3.49,3.49,0,0,1-2.13.93,3.44,3.44,0,0,1,.8.5,6.89,6.89,0,0,1,1.1,1.33l1.74,2.73h-1.67L377.82,149q-.58-.9-1-1.38a3,3,0,0,0-.67-.67,2,2,0,0,0-.6-.27,4,4,0,0,0-.74,0h-1.54v4.45Zm1.33-5.6h2.85a4.27,4.27,0,0,0,1.42-.19,1.51,1.51,0,0,0,.78-.6,1.63,1.63,0,0,0,.27-.9,1.49,1.49,0,0,0-.52-1.17,2.42,2.42,0,0,0-1.63-.46h-3.17Zm13.59,5.6a2.6,2.6,0,0,1-.25-.9,4.58,4.58,0,0,1-1.32.82,3.8,3.8,0,0,1-1.36.24,2.64,2.64,0,0,1-1.84-.58,1.93,1.93,0,0,1-.64-1.49,2,2,0,0,1,.24-1,2,2,0,0,1,.64-.71,3,3,0,0,1,.89-.4,8.81,8.81,0,0,1,1.09-.18,11.25,11.25,0,0,0,2.19-.42q0-.25,0-.32a1.36,1.36,0,0,0-.35-1.06,2.06,2.06,0,0,0-1.4-.42,2.17,2.17,0,0,0-1.28.3,1.86,1.86,0,0,0-.61,1.08l-1.2-.16a3,3,0,0,1,.54-1.25,2.37,2.37,0,0,1,1.09-.73,4.85,4.85,0,0,1,1.65-.26,4.36,4.36,0,0,1,1.51.22,2,2,0,0,1,.85.55,1.94,1.94,0,0,1,.38.84,6.93,6.93,0,0,1,.06,1.13v1.64a17.39,17.39,0,0,0,.08,2.17,2.73,2.73,0,0,0,.31.87Zm-.35-3.64a9,9,0,0,1-2,.46,4.65,4.65,0,0,0-1.07.25,1.07,1.07,0,0,0-.49.4,1.09,1.09,0,0,0,.2,1.4,1.6,1.6,0,0,0,1.09.33,2.54,2.54,0,0,0,1.26-.31,1.92,1.92,0,0,0,.81-.85,3,3,0,0,0,.2-1.23Zm3.15,3.64v-7.26h1.11v1a2.61,2.61,0,0,1,2.31-1.2,3,3,0,0,1,1.21.24,1.9,1.9,0,0,1,.82.62,2.38,2.38,0,0,1,.38.91,7.06,7.06,0,0,1,.07,1.2v4.46h-1.23V146.7a3.32,3.32,0,0,0-.14-1.12,1.18,1.18,0,0,0-.51-.59,1.62,1.62,0,0,0-.86-.22,2,2,0,0,0-1.36.5,2.46,2.46,0,0,0-.57,1.89v4Zm7.56.6,1.2.18a1.14,1.14,0,0,0,.42.81,2,2,0,0,0,1.25.34,2.2,2.2,0,0,0,1.32-.34,1.68,1.68,0,0,0,.63-1,7.87,7.87,0,0,0,.09-1.58,2.53,2.53,0,0,1-2,1,2.74,2.74,0,0,1-2.32-1.08,4.16,4.16,0,0,1-.82-2.59,4.82,4.82,0,0,1,.38-1.92,3,3,0,0,1,1.09-1.36,2.94,2.94,0,0,1,1.68-.48,2.6,2.6,0,0,1,2.12,1v-.87h1.13v6.28a6,6,0,0,1-.35,2.4,2.53,2.53,0,0,1-1.09,1.12,3.79,3.79,0,0,1-1.84.41,3.47,3.47,0,0,1-2.1-.58A2,2,0,0,1,397.26,151.72Zm1-4.36a3.15,3.15,0,0,0,.57,2.08,1.87,1.87,0,0,0,2.84,0,3,3,0,0,0,.57-2,3,3,0,0,0-.59-2,1.83,1.83,0,0,0-1.43-.68,1.78,1.78,0,0,0-1.39.67A3,3,0,0,0,398.27,147.36Zm12,1.42,1.27.16a3.1,3.1,0,0,1-1.11,1.73,3.77,3.77,0,0,1-4.6-.37,3.83,3.83,0,0,1-.93-2.75,4,4,0,0,1,.94-2.84,3.19,3.19,0,0,1,2.45-1,3.1,3.1,0,0,1,2.38,1,3.94,3.94,0,0,1,.92,2.79q0,.11,0,.33h-5.41a2.79,2.79,0,0,0,.68,1.83,2,2,0,0,0,1.52.64,1.88,1.88,0,0,0,1.16-.36A2.36,2.36,0,0,0,410.23,148.78Zm-4-2h4.05a2.46,2.46,0,0,0-.46-1.37,1.89,1.89,0,0,0-1.52-.71,2,2,0,0,0-1.43.57A2.25,2.25,0,0,0,406.19,146.79Z"/><polyline points="308.09 14.07 308.09 14.07 450.01 29.12 450.01 29.12 308.09 14.07" fill="#37474f"/><polyline points="450.01 29.12 450.01 29.12 453.16 29.46 450.01 29.12" fill="#ffda67"/><polyline points="307.51 14.01 308.09 14.07 308.09 14.07 307.51 14.01" fill="#9e9e9e"/><polyline points="453.2 29.08 312.02 14.11 311.94 14.85 453.12 29.83" fill="#ffd967"/><polygon points="312.11 13.25 308.6 14.12 311.85 15.71 312.11 13.25" fill="#ffd967" fill-rule="evenodd"/><polygon points="312.11 13.25 312.02 12.89 307.51 14.01 312.17 16.29 312.54 12.76 312.02 12.89 312.11 13.25 311.74 13.21 311.54 15.14 309.69 14.24 312.2 13.61 312.11 13.25 311.74 13.21 312.11 13.25" fill="#ffd967"/><polyline points="480.8 113 424.96 113 424.96 113 480.8 113 480.8 113" fill="#37474f"/><polyline points="481.33 113 480.8 113 480.8 113 481.33 113" fill="#9e9e9e"/><polyline points="424.96 113 424.43 113 424.96 113 424.96 113" fill="#9e9e9e"/><polyline points="424.43 113.37 476.83 113.37 476.83 112.62 424.43 112.62" fill="#9e9d9e"/><polygon points="476.83 114.23 480.24 113 476.83 111.76 476.83 114.23" fill="#9e9d9e" fill-rule="evenodd"/><polygon points="476.83 114.23 476.96 114.59 481.33 113 476.46 111.22 476.46 114.77 476.96 114.59 476.83 114.23 477.21 114.23 477.21 112.29 479.14 113 476.71 113.88 476.83 114.23 477.21 114.23 476.83 114.23" fill="#9e9d9e"/><polyline points="480.79 178.86 424.96 178.86 424.96 178.86 480.79 178.86 480.79 178.86" fill="#37474f"/><polyline points="481.32 178.86 480.79 178.86 480.79 178.86 481.32 178.86" fill="#9e9e9e"/><polyline points="424.96 178.86 424.42 178.86 424.96 178.86 424.96 178.86" fill="#9e9e9e"/><polyline points="481.32 178.48 428.92 178.48 428.92 179.23 481.32 179.23" fill="#9e9d9e"/><polygon points="428.92 177.62 425.51 178.86 428.92 180.1 428.92 177.62" fill="#9e9d9e" fill-rule="evenodd"/><polygon points="428.92 177.62 428.79 177.27 424.42 178.86 429.29 180.63 429.29 177.08 428.79 177.27 428.92 177.62 428.54 177.62 428.54 179.56 426.61 178.86 429.05 177.97 428.92 177.62 428.54 177.62 428.92 177.62" fill="#9e9d9e"/><path d="M47.93,63.52h0A46.57,46.57,0,1,1,94.5,110.09,46.57,46.57,0,0,1,47.93,63.52Z" fill="#e0e0e0" fill-rule="evenodd"/><path d="M47.93,63.52h.38A46.2,46.2,0,1,1,61.83,96.18,46,46,0,0,1,48.3,63.52h-.75A46.95,46.95,0,1,0,94.5,16.57,46.95,46.95,0,0,0,47.55,63.52Z" fill="#9e9d9e"/><path d="M80,64.78V63.6h4.25v3.72a7.5,7.5,0,0,1-2,1.17,6,6,0,0,1-2.13.39,5.69,5.69,0,0,1-2.68-.63,4.18,4.18,0,0,1-1.82-1.83A5.76,5.76,0,0,1,75,63.74,6.2,6.2,0,0,1,75.63,61a4.07,4.07,0,0,1,1.76-1.88A5.52,5.52,0,0,1,80,58.51a5.24,5.24,0,0,1,2,.35,3.26,3.26,0,0,1,1.38,1,4.36,4.36,0,0,1,.76,1.64l-1.2.33a3.71,3.71,0,0,0-.56-1.2,2.3,2.3,0,0,0-1-.7A3.51,3.51,0,0,0,80,59.65a4.07,4.07,0,0,0-1.57.28,2.93,2.93,0,0,0-1.07.73,3.47,3.47,0,0,0-.63,1,5.24,5.24,0,0,0-.38,2,4.89,4.89,0,0,0,.46,2.24,3,3,0,0,0,1.34,1.34,4.16,4.16,0,0,0,1.87.44,4.45,4.45,0,0,0,1.68-.33A4.34,4.34,0,0,0,83,66.64V64.78Zm6,3.93v-10h1.23v10Zm2.68-3.63a3.74,3.74,0,0,1,1.12-3,3.38,3.38,0,0,1,2.28-.81,3.26,3.26,0,0,1,2.45,1,3.73,3.73,0,0,1,1,2.71,4.8,4.8,0,0,1-.42,2.2,3,3,0,0,1-1.22,1.25,3.56,3.56,0,0,1-1.75.44,3.26,3.26,0,0,1-2.46-1A3.9,3.9,0,0,1,88.73,65.08Zm1.26,0a3.09,3.09,0,0,0,.61,2.09,2,2,0,0,0,3.06,0A3.17,3.17,0,0,0,94.26,65a3,3,0,0,0-.61-2,2,2,0,0,0-3.05,0A3.08,3.08,0,0,0,90,65.08Zm8.11,3.63H97v-10h1.23v3.58a2.43,2.43,0,0,1,2-1,3,3,0,0,1,1.27.27,2.59,2.59,0,0,1,1,.76,3.67,3.67,0,0,1,.6,1.18,4.86,4.86,0,0,1,.22,1.48,4.15,4.15,0,0,1-.92,2.88,2.89,2.89,0,0,1-2.21,1,2.31,2.31,0,0,1-2-1.07Zm0-3.68a3.77,3.77,0,0,0,.36,1.89,1.76,1.76,0,0,0,3,.25,3.18,3.18,0,0,0,.59-2.09,3.24,3.24,0,0,0-.56-2.1,1.72,1.72,0,0,0-1.36-.68,1.77,1.77,0,0,0-1.39.7A3.08,3.08,0,0,0,98.09,65Zm11.65,3.68a2.61,2.61,0,0,1-.25-.9,4.58,4.58,0,0,1-1.32.82,3.8,3.8,0,0,1-1.36.24,2.64,2.64,0,0,1-1.84-.58,1.93,1.93,0,0,1-.64-1.49,2,2,0,0,1,.24-1,2,2,0,0,1,.64-.71,3,3,0,0,1,.89-.4,8.8,8.8,0,0,1,1.09-.18,11.25,11.25,0,0,0,2.19-.42q0-.25,0-.32a1.36,1.36,0,0,0-.35-1.06,2.06,2.06,0,0,0-1.4-.42,2.17,2.17,0,0,0-1.28.3,1.86,1.86,0,0,0-.61,1.08l-1.2-.16a3,3,0,0,1,.54-1.25,2.37,2.37,0,0,1,1.09-.73,4.85,4.85,0,0,1,1.65-.26,4.36,4.36,0,0,1,1.51.22,2,2,0,0,1,.85.55,1.94,1.94,0,0,1,.38.84,6.93,6.93,0,0,1,.06,1.13v1.64a17.41,17.41,0,0,0,.08,2.17,2.74,2.74,0,0,0,.31.87Zm-.35-3.64a9,9,0,0,1-2,.46,4.65,4.65,0,0,0-1.07.25,1.07,1.07,0,0,0-.49.4,1.09,1.09,0,0,0,.2,1.4,1.6,1.6,0,0,0,1.09.33,2.54,2.54,0,0,0,1.26-.31,1.92,1.92,0,0,0,.81-.85,3,3,0,0,0,.2-1.23Zm3.12,3.64v-10h1.23v10Z"/></g></g></svg>