<svg xmlns="http://www.w3.org/2000/svg" viewBox="0 0 570.75 155.24"><title>ubs</title><g id="Layer_2" data-name="Layer 2"><g id="Layer_1-2" data-name="Layer 1"><polyline points="0 0 0 155.24 0.75 155.24 0.75 0" fill="#9e9d9e"/><polyline points="113.72 0 113.72 155.24 114.47 155.24 114.47 0" fill="#9e9d9e"/><polyline points="570 0 570 155.24 570.75 155.24 570.75 0" fill="#9e9d9e"/><polyline points="0 0.75 570.75 0.75 570.75 0 0 0" fill="#9e9d9e"/><polyline points="0 31.65 570.75 31.65 570.75 30.9 0 30.9" fill="#9e9d9e"/><polyline points="0 62.55 570.75 62.55 570.75 61.8 0 61.8" fill="#9e9d9e"/><polyline points="0 93.44 570.75 93.44 570.75 92.69 0 92.69" fill="#9e9d9e"/><polyline points="0 124.34 570.75 124.34 570.75 123.59 0 123.59" fill="#9e9d9e"/><polyline points="0 155.24 570.75 155.24 570.75 154.49 0 154.49" fill="#9e9d9e"/><path d="M7.1,20.56l3.85-10h1.43l4.1,10H15l-1.17-3H9.61l-1.1,3ZM10,16.45h3.4l-1-2.78q-.48-1.26-.71-2.08a12.78,12.78,0,0,1-.54,1.91Zm12.11,1.46,1.21.16a3.14,3.14,0,0,1-1,2,3,3,0,0,1-2,.71,3.12,3.12,0,0,1-2.4-1A4,4,0,0,1,17,17a5.05,5.05,0,0,1,.39-2.06,2.72,2.72,0,0,1,1.19-1.32,3.52,3.52,0,0,1,1.73-.44,3,3,0,0,1,1.93.6,2.74,2.74,0,0,1,1,1.7l-1.2.18a2,2,0,0,0-.6-1.1,1.57,1.57,0,0,0-1-.37,1.91,1.91,0,0,0-1.51.67,3.16,3.16,0,0,0-.58,2.11,3.27,3.27,0,0,0,.56,2.13,1.82,1.82,0,0,0,1.46.66,1.72,1.72,0,0,0,1.21-.44A2.21,2.21,0,0,0,22.11,17.91Zm4.41,1.61a4,4,0,0,0,.54,0l.18,1.09a4.57,4.57,0,0,1-.93.11,2.1,2.1,0,0,1-1-.21,1.19,1.19,0,0,1-.52-.56,4.4,4.4,0,0,1-.15-1.45V14.26h-.9v-1h.9v-1.8l1.22-.74v2.54h1.24v1H25.82v4.25a2.14,2.14,0,0,0,.06.68.51.51,0,0,0,.21.24.82.82,0,0,0,.42.09ZM28.26,12V10.54h1.23V12Zm0,8.61V13.31h1.23v7.26Zm2.64-3.63a3.74,3.74,0,0,1,1.12-3,3.38,3.38,0,0,1,2.28-.81,3.26,3.26,0,0,1,2.45,1,3.73,3.73,0,0,1,1,2.71,4.8,4.8,0,0,1-.42,2.2,3,3,0,0,1-1.22,1.25,3.56,3.56,0,0,1-1.75.44,3.26,3.26,0,0,1-2.46-1A3.9,3.9,0,0,1,30.9,16.94Zm1.26,0A3.09,3.09,0,0,0,32.77,19a2,2,0,0,0,3.06,0,3.17,3.17,0,0,0,.61-2.13,3,3,0,0,0-.61-2,2,2,0,0,0-3.05,0A3.08,3.08,0,0,0,32.16,16.94Zm7,3.63V13.31h1.11v1a2.61,2.61,0,0,1,2.31-1.2,3,3,0,0,1,1.21.24,1.9,1.9,0,0,1,.82.62,2.38,2.38,0,0,1,.38.91A7.05,7.05,0,0,1,45,16.1v4.46H43.81V16.15A3.32,3.32,0,0,0,43.67,15a1.18,1.18,0,0,0-.51-.59,1.62,1.62,0,0,0-.86-.22,2,2,0,0,0-1.36.5,2.46,2.46,0,0,0-.57,1.89v4Z" fill="#fff"/><path d="M128.5,10.54h1.33v5.79a6.85,6.85,0,0,1-.34,2.4,2.93,2.93,0,0,1-1.23,1.45,4.37,4.37,0,0,1-2.34.56,4.81,4.81,0,0,1-2.3-.49,2.77,2.77,0,0,1-1.28-1.4,6.69,6.69,0,0,1-.38-2.51V10.54h1.33v5.78a5.64,5.64,0,0,0,.24,1.92,1.84,1.84,0,0,0,.83,1,2.89,2.89,0,0,0,1.45.33,2.76,2.76,0,0,0,2.08-.66,3.82,3.82,0,0,0,.62-2.55Zm5.52,9a4,4,0,0,0,.54,0l.18,1.09a4.57,4.57,0,0,1-.93.11,2.1,2.1,0,0,1-1-.21,1.19,1.19,0,0,1-.52-.56,4.4,4.4,0,0,1-.15-1.45V14.26h-.9v-1h.9v-1.8l1.22-.74v2.54h1.24v1h-1.24v4.25a2.14,2.14,0,0,0,.06.68.51.51,0,0,0,.21.24.82.82,0,0,0,.42.09ZM135.76,12V10.54H137V12Zm0,8.61V13.31H137v7.26Zm3.07,0v-10h1.23v10ZM142,12V10.54h1.23V12Zm0,8.61V13.31h1.23v7.26Zm5.25-1.05a4,4,0,0,0,.54,0l.18,1.09a4.57,4.57,0,0,1-.93.11,2.1,2.1,0,0,1-1-.21,1.19,1.19,0,0,1-.52-.56,4.4,4.4,0,0,1-.15-1.45V14.26h-.9v-1h.9v-1.8l1.22-.74v2.54h1.24v1h-1.24v4.25a2.14,2.14,0,0,0,.06.68.51.51,0,0,0,.21.24.82.82,0,0,0,.42.09Zm2.47,4a2.46,2.46,0,0,1-.79-.15l-.14-1.16a2.74,2.74,0,0,0,.7.11,1.35,1.35,0,0,0,.66-.14,1.12,1.12,0,0,0,.4-.38,6,6,0,0,0,.38-.92l.11-.3-2.75-7.27h1.33l1.51,4.2q.29.8.53,1.68a16.54,16.54,0,0,1,.51-1.65l1.55-4.23h1.23l-2.76,7.38a14.51,14.51,0,0,1-.69,1.65,2.43,2.43,0,0,1-.75.89,1.78,1.78,0,0,1-1,.28Z" fill="#fff"/><path d="M10,51.46l-2.66-10H8.66L10.18,48q.25,1,.42,2.05.38-1.61.45-1.85L13,41.44h1.6L16,46.51a26.9,26.9,0,0,1,.78,3.55q.19-1,.5-2.18l1.57-6.44h1.33l-2.75,10H16.16L14,43.83q-.27-1-.31-1.18-.16.69-.29,1.18l-2.13,7.64Zm15.76,0a2.61,2.61,0,0,1-.25-.9,4.58,4.58,0,0,1-1.32.82,3.8,3.8,0,0,1-1.36.24A2.64,2.64,0,0,1,21,51a1.93,1.93,0,0,1-.64-1.49,2,2,0,0,1,.24-1,2,2,0,0,1,.64-.71,3,3,0,0,1,.89-.4,8.8,8.8,0,0,1,1.09-.18,11.25,11.25,0,0,0,2.19-.42q0-.25,0-.32A1.36,1.36,0,0,0,25,45.47a2.06,2.06,0,0,0-1.4-.42,2.17,2.17,0,0,0-1.28.3,1.86,1.86,0,0,0-.61,1.08l-1.2-.16A3,3,0,0,1,21.07,45a2.37,2.37,0,0,1,1.09-.73A4.85,4.85,0,0,1,23.8,44a4.36,4.36,0,0,1,1.51.22,2,2,0,0,1,.85.55,1.94,1.94,0,0,1,.38.84,6.93,6.93,0,0,1,.06,1.13v1.64a17.4,17.4,0,0,0,.08,2.17,2.73,2.73,0,0,0,.31.87Zm-.35-3.64a9,9,0,0,1-2,.46,4.65,4.65,0,0,0-1.07.25,1.07,1.07,0,0,0-.49.4,1.09,1.09,0,0,0,.2,1.4,1.6,1.6,0,0,0,1.09.33,2.54,2.54,0,0,0,1.26-.31,1.92,1.92,0,0,0,.81-.85,3,3,0,0,0,.2-1.23Zm3.15,3.64V44.2h1.11v1A2.61,2.61,0,0,1,31.93,44a3,3,0,0,1,1.21.24,1.9,1.9,0,0,1,.82.62,2.38,2.38,0,0,1,.38.91,7.05,7.05,0,0,1,.07,1.2v4.46H33.18V47A3.32,3.32,0,0,0,33,45.92a1.18,1.18,0,0,0-.51-.59,1.62,1.62,0,0,0-.86-.22,2,2,0,0,0-1.36.5,2.46,2.46,0,0,0-.57,1.89v4Zm12.49,0v-.92a2.26,2.26,0,0,1-2,1.08,2.85,2.85,0,0,1-1.6-.48,3.15,3.15,0,0,1-1.13-1.34,4.62,4.62,0,0,1-.4-2,5.16,5.16,0,0,1,.36-2,2.86,2.86,0,0,1,1.09-1.36A2.91,2.91,0,0,1,38.92,44a2.42,2.42,0,0,1,2,1v-3.6h1.22v10Zm-3.89-3.62a3.15,3.15,0,0,0,.59,2.08,1.77,1.77,0,0,0,1.39.69A1.74,1.74,0,0,0,40.47,50a3,3,0,0,0,.56-2,3.41,3.41,0,0,0-.57-2.19,1.77,1.77,0,0,0-1.42-.7,1.7,1.7,0,0,0-1.37.67A3.31,3.31,0,0,0,37.12,47.84Zm11.93,1.29,1.27.16A3.1,3.1,0,0,1,49.21,51a3.77,3.77,0,0,1-4.6-.37,3.83,3.83,0,0,1-.93-2.75,4,4,0,0,1,.94-2.84,3.19,3.19,0,0,1,2.45-1,3.1,3.1,0,0,1,2.38,1,3.94,3.94,0,0,1,.92,2.79q0,.11,0,.33H44.95A2.79,2.79,0,0,0,45.62,50a2,2,0,0,0,1.52.64,1.88,1.88,0,0,0,1.16-.36A2.36,2.36,0,0,0,49.05,49.12Zm-4-2h4.05a2.46,2.46,0,0,0-.46-1.37,1.89,1.89,0,0,0-1.52-.71,2,2,0,0,0-1.43.57A2.25,2.25,0,0,0,45,47.14Zm6.84,4.33V44.2H53v1.1a3,3,0,0,1,.78-1,1.37,1.37,0,0,1,.79-.25,2.4,2.4,0,0,1,1.26.4l-.42,1.14a1.76,1.76,0,0,0-.9-.27,1.17,1.17,0,0,0-.72.24,1.31,1.31,0,0,0-.46.67,4.79,4.79,0,0,0-.21,1.44v3.8Z" fill="#fff"/><path d="M122.42,50.59a6.6,6.6,0,0,1-1-4.07,9.17,9.17,0,0,1,.37-2.86A3.56,3.56,0,0,1,122.88,42a2.78,2.78,0,0,1,1.81-.59,3,3,0,0,1,1.42.32,2.71,2.71,0,0,1,1,.94,5,5,0,0,1,.62,1.49,9.9,9.9,0,0,1,.23,2.37,9.2,9.2,0,0,1-.36,2.85A3.56,3.56,0,0,1,126.51,51a2.78,2.78,0,0,1-1.82.59,2.75,2.75,0,0,1-2.28-1Zm.91-7.46a6.36,6.36,0,0,0-.64,3.38,6.28,6.28,0,0,0,.58,3.28,1.65,1.65,0,0,0,2.85,0,6.29,6.29,0,0,0,.58-3.28,6.28,6.28,0,0,0-.58-3.29,1.71,1.71,0,0,0-1.44-.81,1.58,1.58,0,0,0-1.35.72Zm6.57,8.33v-1.4h1.4v1.4Zm9.65-1.18v1.18h-6.62a2.17,2.17,0,0,1,.14-.85,4.52,4.52,0,0,1,.81-1.33,12.68,12.68,0,0,1,1.61-1.52,13.64,13.64,0,0,0,2.21-2.12,2.54,2.54,0,0,0,.57-1.48,1.64,1.64,0,0,0-.52-1.23,1.89,1.89,0,0,0-1.36-.5A1.92,1.92,0,0,0,135,43a2,2,0,0,0-.54,1.48l-1.26-.13a3.11,3.11,0,0,1,1-2.16,3.33,3.33,0,0,1,2.28-.74,3.18,3.18,0,0,1,2.28.8,2.63,2.63,0,0,1,.84,2,3,3,0,0,1-.25,1.18,4.59,4.59,0,0,1-.82,1.22,19.9,19.9,0,0,1-1.9,1.76q-1.11.93-1.42,1.26a4,4,0,0,0-.52.67Z" fill="#fff"/><path d="M8.27,82.36v-10H15v1.18H9.6v3.1h4.7v1.18H9.6v4.55Zm7.86-3.63a3.74,3.74,0,0,1,1.12-3,3.38,3.38,0,0,1,2.28-.81,3.26,3.26,0,0,1,2.45,1,3.73,3.73,0,0,1,1,2.71,4.8,4.8,0,0,1-.42,2.2,3,3,0,0,1-1.22,1.25,3.56,3.56,0,0,1-1.75.44,3.26,3.26,0,0,1-2.46-1A3.9,3.9,0,0,1,16.13,78.73Zm1.26,0A3.09,3.09,0,0,0,18,80.82a2,2,0,0,0,3.06,0,3.17,3.17,0,0,0,.61-2.13,3,3,0,0,0-.61-2,2,2,0,0,0-3.05,0A3.08,3.08,0,0,0,17.39,78.73Zm7,3.63v-10h1.23v10Zm3.11,0v-10h1.23v10Zm2.68-3.63a3.74,3.74,0,0,1,1.12-3,3.38,3.38,0,0,1,2.28-.81,3.26,3.26,0,0,1,2.45,1,3.73,3.73,0,0,1,1,2.71,4.8,4.8,0,0,1-.42,2.2,3,3,0,0,1-1.22,1.25,3.56,3.56,0,0,1-1.75.44,3.26,3.26,0,0,1-2.46-1A3.9,3.9,0,0,1,30.13,78.73Zm1.26,0A3.09,3.09,0,0,0,32,80.82a2,2,0,0,0,3.06,0,3.17,3.17,0,0,0,.61-2.13,3,3,0,0,0-.61-2,2,2,0,0,0-3.05,0A3.08,3.08,0,0,0,31.39,78.73Zm8.32,3.63L37.49,75.1h1.27l1.16,4.19.43,1.56.38-1.5,1.16-4.25h1.26l1.09,4.21.36,1.39L45,79.3l1.24-4.2h1.2l-2.27,7.26H43.9L42.75,78l-.28-1.24L41,82.36Z" fill="#fff"/><path d="M123.91,81.31a4,4,0,0,0,.54,0l.18,1.09a4.57,4.57,0,0,1-.93.11,2.11,2.11,0,0,1-1-.21,1.19,1.19,0,0,1-.52-.56,4.4,4.4,0,0,1-.15-1.45V76.06h-.9v-1h.9V73.3l1.22-.74V75.1h1.24v1h-1.24V80.3a2.14,2.14,0,0,0,.06.68.51.51,0,0,0,.21.24.82.82,0,0,0,.42.09Zm6.71,1.05a2.61,2.61,0,0,1-.25-.9,4.58,4.58,0,0,1-1.32.82,3.8,3.8,0,0,1-1.36.24,2.64,2.64,0,0,1-1.84-.58,1.93,1.93,0,0,1-.64-1.49,2,2,0,0,1,.24-1,2,2,0,0,1,.64-.71,3,3,0,0,1,.89-.4,8.8,8.8,0,0,1,1.09-.18,11.25,11.25,0,0,0,2.19-.42q0-.25,0-.32a1.36,1.36,0,0,0-.35-1.06,2.06,2.06,0,0,0-1.4-.42,2.17,2.17,0,0,0-1.28.3,1.86,1.86,0,0,0-.61,1.08l-1.2-.16a3,3,0,0,1,.54-1.25,2.37,2.37,0,0,1,1.09-.73,4.85,4.85,0,0,1,1.65-.26,4.36,4.36,0,0,1,1.51.22,2,2,0,0,1,.85.55,1.94,1.94,0,0,1,.38.84,6.93,6.93,0,0,1,.06,1.13v1.64a17.4,17.4,0,0,0,.08,2.17,2.73,2.73,0,0,0,.31.87Zm-.35-3.64a9,9,0,0,1-2,.46,4.65,4.65,0,0,0-1.07.25,1.07,1.07,0,0,0-.49.4,1.09,1.09,0,0,0,.2,1.4,1.6,1.6,0,0,0,1.09.33,2.54,2.54,0,0,0,1.26-.31,1.92,1.92,0,0,0,.81-.85,3,3,0,0,0,.2-1.23Zm3.14,3.64V75.1h1.11v1.1a3,3,0,0,1,.78-1,1.37,1.37,0,0,1,.79-.25,2.4,2.4,0,0,1,1.26.4l-.42,1.14a1.76,1.76,0,0,0-.9-.27,1.17,1.17,0,0,0-.72.24,1.31,1.31,0,0,0-.46.67,4.79,4.79,0,0,0-.21,1.44v3.8Zm4.45.6,1.2.18a1.14,1.14,0,0,0,.42.81,2,2,0,0,0,1.25.34,2.2,2.2,0,0,0,1.32-.34,1.68,1.68,0,0,0,.63-1,7.87,7.87,0,0,0,.09-1.58,2.53,2.53,0,0,1-2,1,2.74,2.74,0,0,1-2.32-1.08,4.16,4.16,0,0,1-.82-2.59,4.82,4.82,0,0,1,.38-1.92,3,3,0,0,1,1.09-1.36,2.94,2.94,0,0,1,1.68-.48,2.6,2.6,0,0,1,2.12,1V75.1H144v6.28a6,6,0,0,1-.35,2.4,2.53,2.53,0,0,1-1.09,1.12,3.79,3.79,0,0,1-1.84.41,3.47,3.47,0,0,1-2.1-.58A2,2,0,0,1,137.86,83Zm1-4.36a3.15,3.15,0,0,0,.57,2.08,1.87,1.87,0,0,0,2.84,0,3,3,0,0,0,.57-2,3,3,0,0,0-.59-2,1.83,1.83,0,0,0-1.43-.68,1.78,1.78,0,0,0-1.39.67A3,3,0,0,0,138.88,78.6Zm12,1.42,1.27.16A3.1,3.1,0,0,1,151,81.91a3.77,3.77,0,0,1-4.6-.37,3.83,3.83,0,0,1-.93-2.75,4,4,0,0,1,.94-2.84,3.19,3.19,0,0,1,2.45-1,3.1,3.1,0,0,1,2.38,1,3.94,3.94,0,0,1,.92,2.79q0,.11,0,.33h-5.41a2.79,2.79,0,0,0,.68,1.83,2,2,0,0,0,1.52.64,1.88,1.88,0,0,0,1.16-.36A2.36,2.36,0,0,0,150.84,80Zm-4-2h4.05a2.46,2.46,0,0,0-.46-1.37,1.89,1.89,0,0,0-1.52-.71,2,2,0,0,0-1.43.57A2.25,2.25,0,0,0,146.8,78Zm9,3.27a4,4,0,0,0,.54,0l.18,1.09a4.57,4.57,0,0,1-.93.11,2.11,2.11,0,0,1-1-.21,1.19,1.19,0,0,1-.52-.56,4.4,4.4,0,0,1-.15-1.45V76.06H153v-1h.9V73.3l1.22-.74V75.1h1.24v1h-1.24V80.3a2.14,2.14,0,0,0,.06.68.51.51,0,0,0,.21.24.82.82,0,0,0,.42.09Zm7.91-1.42q0-.25,0-.37a3.44,3.44,0,0,1,.21-1.25,2.85,2.85,0,0,1,.49-.8,9.2,9.2,0,0,1,.89-.86,4.18,4.18,0,0,0,.83-.9,1.45,1.45,0,0,0,.19-.73,1.71,1.71,0,0,0-.56-1.26,1.9,1.9,0,0,0-1.37-.54,1.85,1.85,0,0,0-1.31.49,2.59,2.59,0,0,0-.69,1.54l-1.26-.15a3,3,0,0,1,3.25-2.89,3.34,3.34,0,0,1,2.34.8,2.53,2.53,0,0,1,.88,1.93,2.45,2.45,0,0,1-.31,1.21,5.74,5.74,0,0,1-1.2,1.35,6.09,6.09,0,0,0-.79.79,1.75,1.75,0,0,0-.27.58,4.86,4.86,0,0,0-.1,1.07Zm-.08,2.47V81H165v1.4Zm10.08-.87a6.6,6.6,0,0,1-1-4.07,9.17,9.17,0,0,1,.37-2.86,3.56,3.56,0,0,1,1.09-1.67A2.78,2.78,0,0,1,176,72.3a3,3,0,0,1,1.42.32,2.71,2.71,0,0,1,1,.94A5,5,0,0,1,179,75a9.9,9.9,0,0,1,.23,2.37,9.2,9.2,0,0,1-.36,2.85,3.56,3.56,0,0,1-1.08,1.67,2.78,2.78,0,0,1-1.82.59,2.75,2.75,0,0,1-2.28-1Zm.91-7.46a6.36,6.36,0,0,0-.64,3.38,6.28,6.28,0,0,0,.58,3.28,1.65,1.65,0,0,0,2.85,0,6.29,6.29,0,0,0,.58-3.28,6.28,6.28,0,0,0-.58-3.29,1.71,1.71,0,0,0-1.44-.81,1.58,1.58,0,0,0-1.35.72Zm6.57,8.33V81h1.4v1.4Zm3.27-8.71V72.47H191v1a13.67,13.67,0,0,0-1.9,2.71,16.49,16.49,0,0,0-1.45,3.47,12.91,12.91,0,0,0-.47,2.75h-1.26a12.28,12.28,0,0,1,.46-2.86,15,15,0,0,1,1.27-3.23,13.84,13.84,0,0,1,1.77-2.62Zm7.7,6.08,1.29-.11a2.32,2.32,0,0,0,.67,1.42,1.81,1.81,0,0,0,1.26.48,2,2,0,0,0,1.5-.67,2.52,2.52,0,0,0,.62-1.78,2.28,2.28,0,0,0-.59-1.66,2.06,2.06,0,0,0-1.55-.61,2.15,2.15,0,0,0-1.07.27,2.08,2.08,0,0,0-.75.7l-1.16-.15,1-5.15h5v1.18h-4l-.54,2.69a3.26,3.26,0,0,1,1.89-.63,3,3,0,0,1,2.21.91,3.18,3.18,0,0,1,.9,2.34,3.65,3.65,0,0,1-.79,2.35,3.18,3.18,0,0,1-2.63,1.22,3.24,3.24,0,0,1-2.23-.77A3,3,0,0,1,192.18,79.74Zm12.35-3.23V75.1h1.4v1.4Zm0,5.86V81h1.4v1.4Zm8.06-.87a6.6,6.6,0,0,1-1-4.07,9.17,9.17,0,0,1,.37-2.86,3.56,3.56,0,0,1,1.09-1.67,2.78,2.78,0,0,1,1.81-.59,3,3,0,0,1,1.42.32,2.71,2.71,0,0,1,1,.94,5,5,0,0,1,.62,1.49,9.9,9.9,0,0,1,.23,2.37,9.2,9.2,0,0,1-.36,2.85,3.56,3.56,0,0,1-1.08,1.67,2.78,2.78,0,0,1-1.82.59,2.75,2.75,0,0,1-2.28-1ZM213.5,74a6.36,6.36,0,0,0-.64,3.38,6.28,6.28,0,0,0,.58,3.28,1.65,1.65,0,0,0,2.85,0,6.29,6.29,0,0,0,.58-3.28,6.28,6.28,0,0,0-.58-3.29,1.71,1.71,0,0,0-1.44-.81,1.58,1.58,0,0,0-1.35.72Z" fill="#fff"/><path d="M7.1,113.26l3.85-10h1.43l4.1,10H15l-1.17-3H9.61l-1.1,3ZM10,109.14h3.4l-1-2.78q-.48-1.26-.71-2.08a12.78,12.78,0,0,1-.54,1.91Zm9.52,3.06a4,4,0,0,0,.54,0l.18,1.09a4.57,4.57,0,0,1-.93.11,2.11,2.11,0,0,1-1-.21,1.19,1.19,0,0,1-.52-.56,4.4,4.4,0,0,1-.15-1.45V107h-.9v-1h.9v-1.8l1.22-.74V106h1.24v1H18.82v4.25a2.14,2.14,0,0,0,.06.68.51.51,0,0,0,.21.24.82.82,0,0,0,.42.09Zm3.88,0a4,4,0,0,0,.54,0l.18,1.09a4.57,4.57,0,0,1-.93.11,2.11,2.11,0,0,1-1-.21,1.19,1.19,0,0,1-.52-.56,4.4,4.4,0,0,1-.15-1.45V107h-.9v-1h.9v-1.8l1.22-.74V106h1.24v1H22.7v4.25a2.14,2.14,0,0,0,.06.68.51.51,0,0,0,.21.24.82.82,0,0,0,.42.09Zm6.71,1.05a2.61,2.61,0,0,1-.25-.9,4.58,4.58,0,0,1-1.32.82,3.8,3.8,0,0,1-1.36.24,2.64,2.64,0,0,1-1.84-.58,1.93,1.93,0,0,1-.64-1.49,2,2,0,0,1,.24-1,2,2,0,0,1,.64-.71,3,3,0,0,1,.89-.4,8.8,8.8,0,0,1,1.09-.18,11.25,11.25,0,0,0,2.19-.42q0-.25,0-.32a1.36,1.36,0,0,0-.35-1.06,2.06,2.06,0,0,0-1.4-.42,2.17,2.17,0,0,0-1.28.3,1.86,1.86,0,0,0-.61,1.08l-1.2-.16a3,3,0,0,1,.54-1.25,2.37,2.37,0,0,1,1.09-.73,4.85,4.85,0,0,1,1.65-.26,4.36,4.36,0,0,1,1.51.22,2,2,0,0,1,.85.55,1.94,1.94,0,0,1,.38.84,6.93,6.93,0,0,1,.06,1.13v1.64a17.4,17.4,0,0,0,.08,2.17,2.73,2.73,0,0,0,.31.87Zm-.35-3.64a9,9,0,0,1-2,.46,4.65,4.65,0,0,0-1.07.25,1.07,1.07,0,0,0-.49.4,1.09,1.09,0,0,0,.2,1.4,1.6,1.6,0,0,0,1.09.33,2.54,2.54,0,0,0,1.26-.31,1.92,1.92,0,0,0,.81-.85,3,3,0,0,0,.2-1.23Zm7.89,1,1.21.16a3.14,3.14,0,0,1-1,2,3,3,0,0,1-2,.71,3.12,3.12,0,0,1-2.4-1,4,4,0,0,1-.91-2.79,5.05,5.05,0,0,1,.39-2.06,2.72,2.72,0,0,1,1.19-1.32,3.52,3.52,0,0,1,1.73-.44,3,3,0,0,1,1.93.6,2.74,2.74,0,0,1,1,1.7l-1.2.18a2,2,0,0,0-.6-1.1,1.57,1.57,0,0,0-1-.37,1.91,1.91,0,0,0-1.51.67,3.16,3.16,0,0,0-.58,2.11,3.27,3.27,0,0,0,.56,2.13,1.82,1.82,0,0,0,1.46.66A1.72,1.72,0,0,0,37,112,2.21,2.21,0,0,0,37.65,110.6Zm2.27,2.66v-10h1.23V109l2.91-3h1.59l-2.78,2.69,3.06,4.57H44.42L42,109.55l-.87.83v2.88Z" fill="#fff"/><path d="M123.91,112.21a4,4,0,0,0,.54,0l.18,1.09a4.57,4.57,0,0,1-.93.11,2.11,2.11,0,0,1-1-.21,1.19,1.19,0,0,1-.52-.56,4.4,4.4,0,0,1-.15-1.45V107h-.9v-1h.9v-1.8l1.22-.74V106h1.24v1h-1.24v4.25a2.14,2.14,0,0,0,.06.68.51.51,0,0,0,.21.24.82.82,0,0,0,.42.09Zm6.71,1.05a2.61,2.61,0,0,1-.25-.9,4.58,4.58,0,0,1-1.32.82,3.8,3.8,0,0,1-1.36.24,2.64,2.64,0,0,1-1.84-.58,1.93,1.93,0,0,1-.64-1.49,2,2,0,0,1,.24-1,2,2,0,0,1,.64-.71,3,3,0,0,1,.89-.4,8.8,8.8,0,0,1,1.09-.18,11.25,11.25,0,0,0,2.19-.42q0-.25,0-.32a1.36,1.36,0,0,0-.35-1.06,2.06,2.06,0,0,0-1.4-.42,2.17,2.17,0,0,0-1.28.3,1.86,1.86,0,0,0-.61,1.08l-1.2-.16a3,3,0,0,1,.54-1.25,2.37,2.37,0,0,1,1.09-.73,4.85,4.85,0,0,1,1.65-.26,4.36,4.36,0,0,1,1.51.22,2,2,0,0,1,.85.55,1.94,1.94,0,0,1,.38.84,6.93,6.93,0,0,1,.06,1.13v1.64a17.4,17.4,0,0,0,.08,2.17,2.73,2.73,0,0,0,.31.87Zm-.35-3.64a9,9,0,0,1-2,.46,4.65,4.65,0,0,0-1.07.25,1.07,1.07,0,0,0-.49.4,1.09,1.09,0,0,0,.2,1.4,1.6,1.6,0,0,0,1.09.33,2.54,2.54,0,0,0,1.26-.31,1.92,1.92,0,0,0,.81-.85,3,3,0,0,0,.2-1.23Zm3.14,3.64V106h1.11v1.1a3,3,0,0,1,.78-1,1.37,1.37,0,0,1,.79-.25,2.4,2.4,0,0,1,1.26.4l-.42,1.14a1.76,1.76,0,0,0-.9-.27,1.17,1.17,0,0,0-.72.24,1.31,1.31,0,0,0-.46.67,4.79,4.79,0,0,0-.21,1.44v3.8Zm4.45.6,1.2.18a1.14,1.14,0,0,0,.42.81,2,2,0,0,0,1.25.34,2.2,2.2,0,0,0,1.32-.34,1.68,1.68,0,0,0,.63-1,7.87,7.87,0,0,0,.09-1.58,2.53,2.53,0,0,1-2,1,2.74,2.74,0,0,1-2.32-1.08,4.16,4.16,0,0,1-.82-2.59,4.82,4.82,0,0,1,.38-1.92,3,3,0,0,1,1.09-1.36,2.94,2.94,0,0,1,1.68-.48,2.6,2.6,0,0,1,2.12,1V106H144v6.28a6,6,0,0,1-.35,2.4,2.53,2.53,0,0,1-1.09,1.12,3.79,3.79,0,0,1-1.84.41,3.47,3.47,0,0,1-2.1-.58A2,2,0,0,1,137.86,113.86Zm1-4.36a3.15,3.15,0,0,0,.57,2.08,1.87,1.87,0,0,0,2.84,0,3,3,0,0,0,.57-2,3,3,0,0,0-.59-2,1.83,1.83,0,0,0-1.43-.68,1.78,1.78,0,0,0-1.39.67A3,3,0,0,0,138.88,109.5Zm12,1.42,1.27.16a3.1,3.1,0,0,1-1.11,1.73,3.77,3.77,0,0,1-4.6-.37,3.83,3.83,0,0,1-.93-2.75,4,4,0,0,1,.94-2.84,3.19,3.19,0,0,1,2.45-1,3.1,3.1,0,0,1,2.38,1,3.94,3.94,0,0,1,.92,2.79q0,.11,0,.33h-5.41a2.79,2.79,0,0,0,.68,1.83,2,2,0,0,0,1.52.64,1.88,1.88,0,0,0,1.16-.36A2.36,2.36,0,0,0,150.84,110.92Zm-4-2h4.05a2.46,2.46,0,0,0-.46-1.37,1.89,1.89,0,0,0-1.52-.71,2,2,0,0,0-1.43.57A2.25,2.25,0,0,0,146.8,108.93Zm9,3.27a4,4,0,0,0,.54,0l.18,1.09a4.57,4.57,0,0,1-.93.11,2.11,2.11,0,0,1-1-.21,1.19,1.19,0,0,1-.52-.56,4.4,4.4,0,0,1-.15-1.45V107H153v-1h.9v-1.8l1.22-.74V106h1.24v1h-1.24v4.25a2.14,2.14,0,0,0,.06.68.51.51,0,0,0,.21.24.82.82,0,0,0,.42.09Zm10.59,1.05a2.61,2.61,0,0,1-.25-.9,4.58,4.58,0,0,1-1.32.82,3.8,3.8,0,0,1-1.36.24,2.64,2.64,0,0,1-1.84-.58,1.93,1.93,0,0,1-.64-1.49,2,2,0,0,1,.24-1,2,2,0,0,1,.64-.71,3,3,0,0,1,.89-.4,8.8,8.8,0,0,1,1.09-.18,11.25,11.25,0,0,0,2.19-.42q0-.25,0-.32a1.36,1.36,0,0,0-.35-1.06,2.06,2.06,0,0,0-1.4-.42,2.17,2.17,0,0,0-1.28.3,1.86,1.86,0,0,0-.61,1.08l-1.2-.16a3,3,0,0,1,.54-1.25,2.37,2.37,0,0,1,1.09-.73,4.85,4.85,0,0,1,1.65-.26,4.36,4.36,0,0,1,1.51.22,2,2,0,0,1,.85.55,1.94,1.94,0,0,1,.38.84,6.93,6.93,0,0,1,.06,1.13v1.64a17.41,17.41,0,0,0,.08,2.17,2.73,2.73,0,0,0,.31.87Zm-.35-3.64a9,9,0,0,1-2,.46,4.65,4.65,0,0,0-1.07.25,1.07,1.07,0,0,0-.49.4,1.09,1.09,0,0,0,.2,1.4,1.6,1.6,0,0,0,1.09.33,2.54,2.54,0,0,0,1.26-.31,1.92,1.92,0,0,0,.81-.85,3,3,0,0,0,.2-1.23Zm3.15,3.64V106h1.11v1a2.61,2.61,0,0,1,2.31-1.2,3,3,0,0,1,1.21.24,1.9,1.9,0,0,1,.82.62,2.38,2.38,0,0,1,.38.91,7.05,7.05,0,0,1,.07,1.2v4.46h-1.23v-4.42a3.32,3.32,0,0,0-.14-1.12,1.18,1.18,0,0,0-.51-.59,1.62,1.62,0,0,0-.86-.22,2,2,0,0,0-1.36.5,2.46,2.46,0,0,0-.57,1.89v4Zm12.49,0v-.92a2.26,2.26,0,0,1-2,1.08,2.85,2.85,0,0,1-1.6-.48,3.15,3.15,0,0,1-1.13-1.34,4.62,4.62,0,0,1-.4-2,5.16,5.16,0,0,1,.36-2,2.86,2.86,0,0,1,1.09-1.36,2.91,2.91,0,0,1,1.62-.47,2.42,2.42,0,0,1,2,1v-3.6h1.22v10Zm-3.89-3.62a3.15,3.15,0,0,0,.59,2.08,1.77,1.77,0,0,0,1.39.69,1.74,1.74,0,0,0,1.37-.66,3,3,0,0,0,.56-2,3.41,3.41,0,0,0-.57-2.19,1.77,1.77,0,0,0-1.42-.7,1.7,1.7,0,0,0-1.37.67A3.31,3.31,0,0,0,177.8,109.63Zm15.55,3.62v-.92a2.26,2.26,0,0,1-2,1.08,2.85,2.85,0,0,1-1.6-.48,3.15,3.15,0,0,1-1.13-1.34,4.62,4.62,0,0,1-.4-2,5.16,5.16,0,0,1,.36-2,2.86,2.86,0,0,1,1.09-1.36,2.91,2.91,0,0,1,1.62-.47,2.42,2.42,0,0,1,2,1v-3.6h1.22v10Zm-3.89-3.62a3.15,3.15,0,0,0,.59,2.08,1.77,1.77,0,0,0,1.39.69,1.74,1.74,0,0,0,1.37-.66,3,3,0,0,0,.56-2,3.41,3.41,0,0,0-.57-2.19,1.77,1.77,0,0,0-1.42-.7,1.7,1.7,0,0,0-1.37.67A3.31,3.31,0,0,0,189.46,109.63Zm7-5v-1.42h1.23v1.42Zm0,8.61V106h1.23v7.26Zm2.61-2.17,1.22-.19a1.7,1.7,0,0,0,.57,1.12,2,2,0,0,0,1.31.39,1.92,1.92,0,0,0,1.26-.35,1,1,0,0,0,.41-.81.75.75,0,0,0-.36-.66,5.34,5.34,0,0,0-1.26-.42,11.47,11.47,0,0,1-1.88-.59,1.79,1.79,0,0,1-1.06-1.66,1.87,1.87,0,0,1,.22-.9,2,2,0,0,1,.6-.69,2.54,2.54,0,0,1,.78-.36,3.72,3.72,0,0,1,1.06-.15,4.2,4.2,0,0,1,1.5.25,2,2,0,0,1,1,.67,2.61,2.61,0,0,1,.42,1.12l-1.2.16a1.32,1.32,0,0,0-.48-.87,1.74,1.74,0,0,0-1.11-.31,2,2,0,0,0-1.21.28.82.82,0,0,0-.36.66.68.68,0,0,0,.15.43,1.08,1.08,0,0,0,.47.33l1.09.31a15.15,15.15,0,0,1,1.82.57,1.85,1.85,0,0,1,.81.65,1.8,1.8,0,0,1,.29,1.05,2.07,2.07,0,0,1-.36,1.16,2.32,2.32,0,0,1-1,.84,3.77,3.77,0,0,1-1.53.3,3.41,3.41,0,0,1-2.16-.59A2.73,2.73,0,0,1,199,111.09Zm9.64,1.11a4,4,0,0,0,.54,0l.18,1.09a4.57,4.57,0,0,1-.93.11,2.11,2.11,0,0,1-1-.21,1.19,1.19,0,0,1-.52-.56,4.4,4.4,0,0,1-.15-1.45V107h-.9v-1h.9v-1.8l1.22-.74V106h1.24v1H208v4.25a2.14,2.14,0,0,0,.06.68.51.51,0,0,0,.21.24.82.82,0,0,0,.42.09Zm6.71,1.05a2.61,2.61,0,0,1-.25-.9,4.58,4.58,0,0,1-1.32.82,3.8,3.8,0,0,1-1.36.24,2.64,2.64,0,0,1-1.84-.58,1.93,1.93,0,0,1-.64-1.49,2,2,0,0,1,.24-1,2,2,0,0,1,.64-.71,3,3,0,0,1,.89-.4,8.8,8.8,0,0,1,1.09-.18,11.25,11.25,0,0,0,2.19-.42q0-.25,0-.32a1.36,1.36,0,0,0-.35-1.06,2.06,2.06,0,0,0-1.4-.42,2.17,2.17,0,0,0-1.28.3,1.86,1.86,0,0,0-.61,1.08l-1.2-.16a3,3,0,0,1,.54-1.25,2.37,2.37,0,0,1,1.09-.73,4.85,4.85,0,0,1,1.65-.26,4.36,4.36,0,0,1,1.51.22,2,2,0,0,1,.85.55,1.94,1.94,0,0,1,.38.84,6.93,6.93,0,0,1,.06,1.13v1.64a17.41,17.41,0,0,0,.08,2.17,2.73,2.73,0,0,0,.31.87Zm-.35-3.64a9,9,0,0,1-2,.46,4.65,4.65,0,0,0-1.07.25,1.07,1.07,0,0,0-.49.4,1.09,1.09,0,0,0,.2,1.4,1.6,1.6,0,0,0,1.09.33,2.54,2.54,0,0,0,1.26-.31,1.92,1.92,0,0,0,.81-.85,3,3,0,0,0,.2-1.23Zm3.15,3.64V106h1.11v1a2.61,2.61,0,0,1,2.31-1.2,3,3,0,0,1,1.21.24,1.9,1.9,0,0,1,.82.62,2.38,2.38,0,0,1,.38.91,7.05,7.05,0,0,1,.07,1.2v4.46h-1.23v-4.42a3.32,3.32,0,0,0-.14-1.12,1.18,1.18,0,0,0-.51-.59,1.62,1.62,0,0,0-.86-.22,2,2,0,0,0-1.36.5,2.46,2.46,0,0,0-.57,1.89v4Zm12.52-2.66,1.21.16a3.14,3.14,0,0,1-1,2,3,3,0,0,1-2,.71,3.12,3.12,0,0,1-2.4-1,4,4,0,0,1-.91-2.79,5.05,5.05,0,0,1,.39-2.06,2.72,2.72,0,0,1,1.19-1.32,3.52,3.52,0,0,1,1.73-.44,3,3,0,0,1,1.93.6,2.74,2.74,0,0,1,1,1.7l-1.2.18a2,2,0,0,0-.6-1.1,1.57,1.57,0,0,0-1-.37,1.91,1.91,0,0,0-1.51.67,3.16,3.16,0,0,0-.58,2.11,3.27,3.27,0,0,0,.56,2.13,1.82,1.82,0,0,0,1.46.66,1.72,1.72,0,0,0,1.21-.44A2.21,2.21,0,0,0,230.72,110.6Zm7.23.32,1.27.16a3.1,3.1,0,0,1-1.11,1.73,3.77,3.77,0,0,1-4.6-.37,3.83,3.83,0,0,1-.93-2.75,4,4,0,0,1,.94-2.84,3.19,3.19,0,0,1,2.45-1,3.1,3.1,0,0,1,2.38,1,3.94,3.94,0,0,1,.92,2.79q0,.11,0,.33h-5.41a2.79,2.79,0,0,0,.68,1.83,2,2,0,0,0,1.52.64,1.88,1.88,0,0,0,1.16-.36A2.36,2.36,0,0,0,238,110.92Zm-4-2H238a2.46,2.46,0,0,0-.46-1.37,1.89,1.89,0,0,0-1.52-.71,2,2,0,0,0-1.43.57A2.25,2.25,0,0,0,233.91,108.93Zm9.21,7.27a12.3,12.3,0,0,1-1.72-3,9.44,9.44,0,0,1-.18-6.69,13.1,13.1,0,0,1,1.9-3.45H244q-.83,1.42-1.09,2a11.09,11.09,0,0,0-.66,2,11.43,11.43,0,0,0-.29,2.57,12.34,12.34,0,0,0,2,6.57Zm4.46-4a4,4,0,0,0,.54,0l.18,1.09a4.57,4.57,0,0,1-.93.11,2.11,2.11,0,0,1-1-.21,1.19,1.19,0,0,1-.52-.56,4.4,4.4,0,0,1-.15-1.45V107h-.9v-1h.9v-1.8l1.22-.74V106h1.24v1h-1.24v4.25a2.14,2.14,0,0,0,.06.68.51.51,0,0,0,.21.24.82.82,0,0,0,.42.09Zm6.71,1.05a2.61,2.61,0,0,1-.25-.9,4.58,4.58,0,0,1-1.32.82,3.8,3.8,0,0,1-1.36.24,2.64,2.64,0,0,1-1.84-.58,1.93,1.93,0,0,1-.64-1.49,2,2,0,0,1,.24-1,2,2,0,0,1,.64-.71,3,3,0,0,1,.89-.4,8.8,8.8,0,0,1,1.09-.18,11.25,11.25,0,0,0,2.19-.42q0-.25,0-.32a1.36,1.36,0,0,0-.35-1.06,2.06,2.06,0,0,0-1.4-.42,2.17,2.17,0,0,0-1.28.3,1.86,1.86,0,0,0-.61,1.08l-1.2-.16a3,3,0,0,1,.54-1.25,2.37,2.37,0,0,1,1.09-.73,4.85,4.85,0,0,1,1.65-.26,4.36,4.36,0,0,1,1.51.22,2,2,0,0,1,.85.55,1.94,1.94,0,0,1,.38.84,6.93,6.93,0,0,1,.06,1.13v1.64a17.41,17.41,0,0,0,.08,2.17,2.73,2.73,0,0,0,.31.87Zm-.35-3.64a9,9,0,0,1-2,.46,4.65,4.65,0,0,0-1.07.25,1.07,1.07,0,0,0-.49.4,1.09,1.09,0,0,0,.2,1.4,1.6,1.6,0,0,0,1.09.33,2.54,2.54,0,0,0,1.26-.31,1.92,1.92,0,0,0,.81-.85,3,3,0,0,0,.2-1.23Zm3.14,3.64V106h1.11v1.1a3,3,0,0,1,.78-1,1.37,1.37,0,0,1,.79-.25,2.4,2.4,0,0,1,1.26.4l-.42,1.14a1.76,1.76,0,0,0-.9-.27,1.17,1.17,0,0,0-.72.24,1.31,1.31,0,0,0-.46.67,4.79,4.79,0,0,0-.21,1.44v3.8Zm4.45.6,1.2.18a1.14,1.14,0,0,0,.42.81,2,2,0,0,0,1.25.34,2.2,2.2,0,0,0,1.32-.34,1.68,1.68,0,0,0,.63-1,7.87,7.87,0,0,0,.09-1.58,2.53,2.53,0,0,1-2,1,2.74,2.74,0,0,1-2.32-1.08,4.16,4.16,0,0,1-.82-2.59,4.82,4.82,0,0,1,.38-1.92,3,3,0,0,1,1.09-1.36,2.94,2.94,0,0,1,1.68-.48,2.6,2.6,0,0,1,2.12,1V106h1.13v6.28a6,6,0,0,1-.35,2.4,2.53,2.53,0,0,1-1.09,1.12,3.79,3.79,0,0,1-1.84.41,3.47,3.47,0,0,1-2.1-.58A2,2,0,0,1,261.53,113.86Zm1-4.36a3.15,3.15,0,0,0,.57,2.08,1.87,1.87,0,0,0,2.84,0,3,3,0,0,0,.57-2,3,3,0,0,0-.59-2,1.83,1.83,0,0,0-1.43-.68,1.78,1.78,0,0,0-1.39.67A3,3,0,0,0,262.54,109.5Zm12,1.42,1.27.16a3.1,3.1,0,0,1-1.11,1.73,3.77,3.77,0,0,1-4.6-.37,3.83,3.83,0,0,1-.93-2.75,4,4,0,0,1,.94-2.84,3.19,3.19,0,0,1,2.45-1,3.1,3.1,0,0,1,2.38,1,3.94,3.94,0,0,1,.92,2.79q0,.11,0,.33H270.4a2.79,2.79,0,0,0,.68,1.83,2,2,0,0,0,1.52.64,1.88,1.88,0,0,0,1.16-.36A2.36,2.36,0,0,0,274.51,110.92Zm-4-2h4.05a2.46,2.46,0,0,0-.46-1.37,1.89,1.89,0,0,0-1.52-.71,2,2,0,0,0-1.43.57A2.25,2.25,0,0,0,270.47,108.93Zm9,3.27a4,4,0,0,0,.54,0l.18,1.09a4.57,4.57,0,0,1-.93.11,2.11,2.11,0,0,1-1-.21,1.19,1.19,0,0,1-.52-.56,4.4,4.4,0,0,1-.15-1.45V107h-.9v-1h.9v-1.8l1.22-.74V106H280v1h-1.24v4.25a2.14,2.14,0,0,0,.06.68.51.51,0,0,0,.21.24.82.82,0,0,0,.42.09Zm2.54,4h-.88a12.34,12.34,0,0,0,2-6.57,11.23,11.23,0,0,0-.29-2.55,10.72,10.72,0,0,0-.65-2,23.1,23.1,0,0,0-1.1-2.05H282a13.11,13.11,0,0,1,1.9,3.45,9.42,9.42,0,0,1-.18,6.69A12.52,12.52,0,0,1,282,116.2Zm7.58-7.33v-1.15l6.64-2.8v1.22L291,108.31l5.26,2.18v1.22Zm16.49,4.38h-1.23v-7.84a6.36,6.36,0,0,1-1.17.85,8.25,8.25,0,0,1-1.3.64v-1.19a7.43,7.43,0,0,0,1.8-1.18,4.63,4.63,0,0,0,1.09-1.34h.79Zm4.14-.87a6.6,6.6,0,0,1-1-4.07,9.17,9.17,0,0,1,.37-2.86,3.56,3.56,0,0,1,1.09-1.67,2.78,2.78,0,0,1,1.81-.59,3,3,0,0,1,1.42.32,2.71,2.71,0,0,1,1,.94,5,5,0,0,1,.62,1.49,9.9,9.9,0,0,1,.23,2.37,9.2,9.2,0,0,1-.36,2.85,3.56,3.56,0,0,1-1.08,1.67,2.78,2.78,0,0,1-1.82.59,2.75,2.75,0,0,1-2.28-1Zm.91-7.46a6.36,6.36,0,0,0-.64,3.38,6.28,6.28,0,0,0,.58,3.28,1.65,1.65,0,0,0,2.85,0,6.29,6.29,0,0,0,.58-3.28,6.28,6.28,0,0,0-.58-3.29,1.71,1.71,0,0,0-1.44-.81,1.58,1.58,0,0,0-1.35.72Zm12.41,5.86q0-.25,0-.37a3.44,3.44,0,0,1,.21-1.25,2.85,2.85,0,0,1,.49-.8,9.21,9.21,0,0,1,.89-.86,4.18,4.18,0,0,0,.83-.9,1.45,1.45,0,0,0,.19-.73,1.71,1.71,0,0,0-.56-1.26,1.9,1.9,0,0,0-1.37-.54,1.85,1.85,0,0,0-1.31.49,2.59,2.59,0,0,0-.69,1.54l-1.26-.15a3,3,0,0,1,3.25-2.89,3.34,3.34,0,0,1,2.34.8,2.53,2.53,0,0,1,.88,1.93,2.45,2.45,0,0,1-.31,1.21,5.74,5.74,0,0,1-1.2,1.35,6.09,6.09,0,0,0-.79.79,1.75,1.75,0,0,0-.27.58,4.86,4.86,0,0,0-.1,1.07Zm-.08,2.47v-1.4h1.4v1.4Zm13.73,0h-1.23v-7.84a6.36,6.36,0,0,1-1.17.85,8.25,8.25,0,0,1-1.3.64v-1.19a7.43,7.43,0,0,0,1.8-1.18,4.63,4.63,0,0,0,1.09-1.34h.79Zm7.71-5.86V106h1.4v1.4Zm0,5.86v-1.4h1.4v1.4Zm8.06-.87a6.6,6.6,0,0,1-1-4.07,9.17,9.17,0,0,1,.37-2.86,3.56,3.56,0,0,1,1.09-1.67,2.78,2.78,0,0,1,1.81-.59,3,3,0,0,1,1.42.32,2.71,2.71,0,0,1,1,.94,5,5,0,0,1,.62,1.49,9.9,9.9,0,0,1,.23,2.37,9.2,9.2,0,0,1-.36,2.85,3.56,3.56,0,0,1-1.08,1.67,2.78,2.78,0,0,1-1.82.59,2.75,2.75,0,0,1-2.28-1Zm.91-7.46a6.36,6.36,0,0,0-.64,3.38,6.28,6.28,0,0,0,.58,3.28,1.65,1.65,0,0,0,2.85,0,6.29,6.29,0,0,0,.58-3.28,6.28,6.28,0,0,0-.58-3.29,1.71,1.71,0,0,0-1.44-.81,1.58,1.58,0,0,0-1.35.72Z" fill="#fff"/><path d="M8.21,144.16v-10h3.45a8.37,8.37,0,0,1,1.78.14,3.4,3.4,0,0,1,1.47.72,4.08,4.08,0,0,1,1.19,1.71,6.72,6.72,0,0,1,.39,2.38,7,7,0,0,1-.27,2,4.91,4.91,0,0,1-.68,1.46,3.63,3.63,0,0,1-.91.91,3.72,3.72,0,0,1-1.2.5,6.83,6.83,0,0,1-1.61.17ZM9.53,143h2.14a5.19,5.19,0,0,0,1.56-.18,2.22,2.22,0,0,0,.9-.52,3.16,3.16,0,0,0,.73-1.27,6.2,6.2,0,0,0,.26-1.93,4.66,4.66,0,0,0-.52-2.42,2.6,2.6,0,0,0-1.25-1.13,5.19,5.19,0,0,0-1.72-.21H9.53Zm13.59-1.16,1.27.16a3.1,3.1,0,0,1-1.11,1.73,3.35,3.35,0,0,1-2.08.62,3.32,3.32,0,0,1-2.53-1,3.83,3.83,0,0,1-.93-2.75,4,4,0,0,1,.94-2.84,3.19,3.19,0,0,1,2.45-1,3.1,3.1,0,0,1,2.38,1,3.94,3.94,0,0,1,.92,2.79q0,.11,0,.33H19a2.79,2.79,0,0,0,.68,1.83,2,2,0,0,0,1.52.64,1.88,1.88,0,0,0,1.16-.36A2.36,2.36,0,0,0,23.13,141.82Zm-4-2h4.05a2.46,2.46,0,0,0-.46-1.37,1.89,1.89,0,0,0-1.52-.71,2,2,0,0,0-1.43.57A2.25,2.25,0,0,0,19.09,139.83Zm7.15,4.33v-6.3H25.15v-1h1.09v-.77a3.38,3.38,0,0,1,.13-1.09,1.57,1.57,0,0,1,.63-.78,2.25,2.25,0,0,1,1.25-.3,6,6,0,0,1,1.15.12l-.18,1.07a4.14,4.14,0,0,0-.72-.07,1.08,1.08,0,0,0-.79.24,1.3,1.3,0,0,0-.23.9v.67h1.42v1H27.46v6.3Zm8.55-2.34,1.27.16a3.1,3.1,0,0,1-1.11,1.73,3.77,3.77,0,0,1-4.6-.37,3.83,3.83,0,0,1-.93-2.75,4,4,0,0,1,.94-2.84,3.19,3.19,0,0,1,2.45-1,3.1,3.1,0,0,1,2.38,1,3.94,3.94,0,0,1,.92,2.79q0,.11,0,.33H30.68a2.79,2.79,0,0,0,.68,1.83,2,2,0,0,0,1.52.64A1.88,1.88,0,0,0,34,143,2.36,2.36,0,0,0,34.79,141.82Zm-4-2H34.8a2.46,2.46,0,0,0-.46-1.37,1.89,1.89,0,0,0-1.52-.71,2,2,0,0,0-1.43.57A2.25,2.25,0,0,0,30.75,139.83Zm6.85,4.33V136.9h1.11v1a2.61,2.61,0,0,1,2.31-1.2,3,3,0,0,1,1.21.24,1.9,1.9,0,0,1,.82.62,2.38,2.38,0,0,1,.38.91,7.05,7.05,0,0,1,.07,1.2v4.46H42.27v-4.42a3.32,3.32,0,0,0-.14-1.12,1.18,1.18,0,0,0-.51-.59,1.62,1.62,0,0,0-.86-.22,2,2,0,0,0-1.36.5,2.46,2.46,0,0,0-.57,1.89v4ZM44.89,142l1.22-.19a1.7,1.7,0,0,0,.57,1.12,2,2,0,0,0,1.31.39,1.92,1.92,0,0,0,1.26-.35,1,1,0,0,0,.41-.81.75.75,0,0,0-.36-.66,5.34,5.34,0,0,0-1.26-.42,11.47,11.47,0,0,1-1.88-.59,1.79,1.79,0,0,1-1.06-1.66,1.87,1.87,0,0,1,.22-.9,2,2,0,0,1,.6-.69,2.54,2.54,0,0,1,.78-.36,3.72,3.72,0,0,1,1.06-.15,4.2,4.2,0,0,1,1.5.25,2,2,0,0,1,1,.67,2.61,2.61,0,0,1,.42,1.12l-1.2.16a1.32,1.32,0,0,0-.48-.87,1.74,1.74,0,0,0-1.11-.31,2,2,0,0,0-1.21.28.82.82,0,0,0-.36.66.68.68,0,0,0,.15.43,1.08,1.08,0,0,0,.47.33l1.09.31a15.15,15.15,0,0,1,1.82.57,1.85,1.85,0,0,1,.81.65,1.8,1.8,0,0,1,.29,1.05,2.07,2.07,0,0,1-.36,1.16,2.32,2.32,0,0,1-1,.84,3.77,3.77,0,0,1-1.53.3,3.41,3.41,0,0,1-2.16-.59A2.73,2.73,0,0,1,44.89,142Zm12.46-.17,1.27.16a3.1,3.1,0,0,1-1.11,1.73,3.77,3.77,0,0,1-4.6-.37,3.83,3.83,0,0,1-.93-2.75,4,4,0,0,1,.94-2.84,3.19,3.19,0,0,1,2.45-1,3.1,3.1,0,0,1,2.38,1,3.94,3.94,0,0,1,.92,2.79q0,.11,0,.33H53.25a2.79,2.79,0,0,0,.68,1.83,2,2,0,0,0,1.52.64A1.88,1.88,0,0,0,56.6,143,2.36,2.36,0,0,0,57.36,141.82Zm-4-2h4.05a2.46,2.46,0,0,0-.46-1.37,1.89,1.89,0,0,0-1.52-.71,2,2,0,0,0-1.43.57A2.25,2.25,0,0,0,53.32,139.83Z" fill="#fff"/><path d="M121.77,144.16v-10H123v3.6a2.75,2.75,0,0,1,2.17-1,2.93,2.93,0,0,1,1.4.32,1.87,1.87,0,0,1,.85.88,4,4,0,0,1,.26,1.63v4.6h-1.23v-4.6a1.9,1.9,0,0,0-.4-1.34,1.49,1.49,0,0,0-1.13-.42,2,2,0,0,0-1,.28,1.6,1.6,0,0,0-.69.77,3.53,3.53,0,0,0-.21,1.34v4Zm7.79-8.61v-1.42h1.23v1.42Zm0,8.61V136.9h1.23v7.26Zm5.25-1.05a4,4,0,0,0,.54,0l.18,1.09a4.57,4.57,0,0,1-.93.11,2.11,2.11,0,0,1-1-.21,1.19,1.19,0,0,1-.52-.56,4.4,4.4,0,0,1-.15-1.45v-4.18H132v-1h.9v-1.8l1.22-.74v2.54h1.24v1h-1.24v4.25a2.14,2.14,0,0,0,.06.68.51.51,0,0,0,.21.24.82.82,0,0,0,.42.09Zm4-1.42q0-.25,0-.37a3.44,3.44,0,0,1,.21-1.25,2.85,2.85,0,0,1,.49-.8,9.2,9.2,0,0,1,.89-.86,4.18,4.18,0,0,0,.83-.9,1.45,1.45,0,0,0,.19-.73,1.71,1.71,0,0,0-.56-1.26,1.9,1.9,0,0,0-1.37-.54,1.85,1.85,0,0,0-1.31.49,2.59,2.59,0,0,0-.69,1.54l-1.26-.15a3,3,0,0,1,3.25-2.89,3.34,3.34,0,0,1,2.34.8,2.53,2.53,0,0,1,.88,1.93,2.45,2.45,0,0,1-.31,1.21,5.74,5.74,0,0,1-1.2,1.35,6.09,6.09,0,0,0-.79.79,1.75,1.75,0,0,0-.27.58,4.86,4.86,0,0,0-.1,1.07Zm-.08,2.47v-1.4h1.4v1.4Zm13.73,0h-1.23v-7.84a6.36,6.36,0,0,1-1.17.85,8.25,8.25,0,0,1-1.3.64v-1.19a7.43,7.43,0,0,0,1.8-1.18,4.63,4.63,0,0,0,1.09-1.34h.79Zm7.71-5.86v-1.4h1.4v1.4Zm0,5.86v-1.4h1.4v1.4Zm8.06-.87a6.6,6.6,0,0,1-1-4.07,9.17,9.17,0,0,1,.37-2.86,3.56,3.56,0,0,1,1.09-1.67,2.78,2.78,0,0,1,1.81-.59,3,3,0,0,1,1.42.32,2.71,2.71,0,0,1,1,.94,5,5,0,0,1,.62,1.49,9.9,9.9,0,0,1,.23,2.37,9.2,9.2,0,0,1-.36,2.85,3.56,3.56,0,0,1-1.08,1.67,2.78,2.78,0,0,1-1.82.59,2.75,2.75,0,0,1-2.28-1Zm.91-7.46a6.36,6.36,0,0,0-.64,3.38,6.28,6.28,0,0,0,.58,3.28,1.65,1.65,0,0,0,2.85,0,9.63,9.63,0,0,0,0-6.57,1.71,1.71,0,0,0-1.44-.81,1.58,1.58,0,0,0-1.35.72Zm6.57,8.33v-1.4h1.4v1.4Zm7.82,0h-1.23v-7.84a6.36,6.36,0,0,1-1.17.85,8.25,8.25,0,0,1-1.3.64v-1.19a7.43,7.43,0,0,0,1.8-1.18,4.63,4.63,0,0,0,1.09-1.34h.79Z" fill="#fff"/></g></g></svg>