<svg xmlns="http://www.w3.org/2000/svg" viewBox="0 0 175.94 13.14"><title>ubs2</title><g id="Layer_2" data-name="Layer 2"><g id="Layer_1-2" data-name="Layer 1"><path d="M2.66,10.19,0,.17H1.36L2.88,6.74q.25,1,.42,2.05.38-1.61.45-1.85L5.67.17h1.6L8.7,5.24a26.9,26.9,0,0,1,.78,3.55q.19-1,.5-2.18L11.55.17h1.33l-2.75,10H8.86L6.75,2.56q-.27-1-.31-1.18-.16.69-.29,1.18L4,10.19Zm16-2.34L19.94,8a3.1,3.1,0,0,1-1.11,1.73,3.35,3.35,0,0,1-2.08.62,3.32,3.32,0,0,1-2.53-1,3.83,3.83,0,0,1-.93-2.75,4,4,0,0,1,.94-2.84,3.19,3.19,0,0,1,2.45-1,3.1,3.1,0,0,1,2.38,1A3.94,3.94,0,0,1,20,6.55q0,.11,0,.33H14.56a2.79,2.79,0,0,0,.68,1.83,2,2,0,0,0,1.52.64A1.88,1.88,0,0,0,17.91,9,2.36,2.36,0,0,0,18.67,7.85Zm-4-2h4.05a2.46,2.46,0,0,0-.46-1.37,1.89,1.89,0,0,0-1.52-.71,2,2,0,0,0-1.43.57A2.25,2.25,0,0,0,14.63,5.87Zm6.86-4.28V.17h1.23V1.59Zm0,8.61V2.93h1.23v7.26Zm2.88.6,1.2.18a1.14,1.14,0,0,0,.42.81,2,2,0,0,0,1.25.34,2.2,2.2,0,0,0,1.32-.34,1.68,1.68,0,0,0,.63-1,7.87,7.87,0,0,0,.09-1.58,2.53,2.53,0,0,1-2,1,2.74,2.74,0,0,1-2.32-1.08,4.16,4.16,0,0,1-.82-2.59A4.82,4.82,0,0,1,24.5,4.6a3,3,0,0,1,1.09-1.36,2.94,2.94,0,0,1,1.68-.48,2.6,2.6,0,0,1,2.12,1V2.93h1.13V9.21a6,6,0,0,1-.35,2.4,2.53,2.53,0,0,1-1.09,1.12,3.79,3.79,0,0,1-1.84.41,3.47,3.47,0,0,1-2.1-.58A2,2,0,0,1,24.37,10.79Zm1-4.36A3.15,3.15,0,0,0,26,8.52a1.87,1.87,0,0,0,2.84,0,3,3,0,0,0,.57-2,3,3,0,0,0-.59-2,1.83,1.83,0,0,0-1.43-.68A1.78,1.78,0,0,0,26,4.45,3,3,0,0,0,25.39,6.43Zm7,3.76V.17h1.23v3.6a2.75,2.75,0,0,1,2.17-1,2.93,2.93,0,0,1,1.4.32A1.87,1.87,0,0,1,38,4a4,4,0,0,1,.26,1.63v4.6H37.06V5.59a1.9,1.9,0,0,0-.4-1.34,1.49,1.49,0,0,0-1.13-.42,2,2,0,0,0-1,.28,1.6,1.6,0,0,0-.69.77,3.53,3.53,0,0,0-.21,1.34v4Zm9.93-1.05a4,4,0,0,0,.54,0L43,10.18a4.57,4.57,0,0,1-.93.11,2.11,2.11,0,0,1-1-.21,1.19,1.19,0,0,1-.52-.56,4.4,4.4,0,0,1-.15-1.45V3.89h-.9v-1h.9V1.13L41.61.4V2.93h1.24v1H41.61V8.13a2.14,2.14,0,0,0,.06.68.51.51,0,0,0,.21.24.82.82,0,0,0,.42.09ZM49,7.85,50.28,8a3.1,3.1,0,0,1-1.11,1.73,3.77,3.77,0,0,1-4.6-.37,3.83,3.83,0,0,1-.93-2.75,4,4,0,0,1,.94-2.84,3.19,3.19,0,0,1,2.45-1,3.1,3.1,0,0,1,2.38,1,3.94,3.94,0,0,1,.92,2.79q0,.11,0,.33H44.9a2.79,2.79,0,0,0,.68,1.83,2,2,0,0,0,1.52.64A1.88,1.88,0,0,0,48.25,9,2.36,2.36,0,0,0,49,7.85Zm-4-2H49a2.46,2.46,0,0,0-.46-1.37A1.89,1.89,0,0,0,47,3.78a2,2,0,0,0-1.43.57A2.25,2.25,0,0,0,45,5.87Zm11.56,4.33V9.28a2.26,2.26,0,0,1-2,1.08,2.85,2.85,0,0,1-1.6-.48,3.15,3.15,0,0,1-1.13-1.34,4.62,4.62,0,0,1-.4-2,5.16,5.16,0,0,1,.36-2,2.86,2.86,0,0,1,1.09-1.36,2.91,2.91,0,0,1,1.62-.47A2.42,2.42,0,0,1,55.62,3a2.45,2.45,0,0,1,.83.72V.17h1.22v10ZM52.64,6.57a3.15,3.15,0,0,0,.59,2.08,1.77,1.77,0,0,0,1.39.69A1.74,1.74,0,0,0,56,8.69a3,3,0,0,0,.56-2A3.41,3.41,0,0,0,56,4.48a1.77,1.77,0,0,0-1.42-.7,1.7,1.7,0,0,0-1.37.67A3.31,3.31,0,0,0,52.64,6.57Zm11,3.62V.17h4.44a5.92,5.92,0,0,1,2,.27,2.23,2.23,0,0,1,1.11,1,2.85,2.85,0,0,1,.42,1.51A2.52,2.52,0,0,1,71,4.7a3.49,3.49,0,0,1-2.13.93,3.44,3.44,0,0,1,.8.5,6.89,6.89,0,0,1,1.1,1.33l1.74,2.73H70.83L69.5,8.11q-.58-.9-1-1.38a3,3,0,0,0-.67-.67,2,2,0,0,0-.6-.27,4,4,0,0,0-.74,0H65v4.45ZM65,4.59h2.85a4.27,4.27,0,0,0,1.42-.19A1.51,1.51,0,0,0,70,3.8a1.63,1.63,0,0,0,.27-.9,1.49,1.49,0,0,0-.52-1.17,2.42,2.42,0,0,0-1.63-.46H65Zm13.59,5.6a2.61,2.61,0,0,1-.25-.9,4.58,4.58,0,0,1-1.32.82,3.8,3.8,0,0,1-1.36.24,2.64,2.64,0,0,1-1.84-.58,1.93,1.93,0,0,1-.64-1.49,2,2,0,0,1,.24-1,2,2,0,0,1,.64-.71,3,3,0,0,1,.89-.4A8.81,8.81,0,0,1,76,6a11.24,11.24,0,0,0,2.19-.42q0-.25,0-.32a1.36,1.36,0,0,0-.35-1.06,2.06,2.06,0,0,0-1.4-.42,2.17,2.17,0,0,0-1.28.3,1.86,1.86,0,0,0-.61,1.08L73.39,5a3,3,0,0,1,.54-1.25A2.37,2.37,0,0,1,75,3a4.85,4.85,0,0,1,1.65-.26A4.36,4.36,0,0,1,78.17,3a2,2,0,0,1,.85.55,1.94,1.94,0,0,1,.38.84,6.93,6.93,0,0,1,.06,1.13V7.15a17.4,17.4,0,0,0,.08,2.17,2.73,2.73,0,0,0,.31.87Zm-.35-3.64a9,9,0,0,1-2,.46,4.65,4.65,0,0,0-1.07.25,1.07,1.07,0,0,0-.49.4,1.09,1.09,0,0,0,.2,1.4A1.6,1.6,0,0,0,76,9.39a2.54,2.54,0,0,0,1.26-.31A1.92,1.92,0,0,0,78,8.23,3,3,0,0,0,78.23,7Zm3.15,3.64V2.93h1.11V4a2.61,2.61,0,0,1,2.31-1.2A3,3,0,0,1,86,3a1.9,1.9,0,0,1,.82.62,2.38,2.38,0,0,1,.38.91,7.05,7.05,0,0,1,.07,1.2v4.46H86V5.78a3.32,3.32,0,0,0-.14-1.12,1.18,1.18,0,0,0-.51-.59,1.62,1.62,0,0,0-.86-.22,2,2,0,0,0-1.36.5,2.46,2.46,0,0,0-.57,1.89v4Zm12.49,0V9.28a2.26,2.26,0,0,1-2,1.08,2.85,2.85,0,0,1-1.6-.48,3.15,3.15,0,0,1-1.13-1.34,4.62,4.62,0,0,1-.4-2,5.16,5.16,0,0,1,.36-2,2.86,2.86,0,0,1,1.09-1.36,2.91,2.91,0,0,1,1.62-.47A2.42,2.42,0,0,1,93,3a2.45,2.45,0,0,1,.83.72V.17H95v10ZM90,6.57a3.15,3.15,0,0,0,.59,2.08A1.77,1.77,0,0,0,92,9.34a1.74,1.74,0,0,0,1.37-.66,3,3,0,0,0,.56-2,3.41,3.41,0,0,0-.57-2.19,1.77,1.77,0,0,0-1.42-.7,1.7,1.7,0,0,0-1.37.67A3.31,3.31,0,0,0,90,6.57Zm6.51,0a3.74,3.74,0,0,1,1.12-3,3.38,3.38,0,0,1,2.28-.81,3.26,3.26,0,0,1,2.45,1,3.73,3.73,0,0,1,1,2.71,4.8,4.8,0,0,1-.42,2.2,3,3,0,0,1-1.22,1.25,3.56,3.56,0,0,1-1.75.44,3.26,3.26,0,0,1-2.46-1A3.9,3.9,0,0,1,96.49,6.56Zm1.26,0a3.09,3.09,0,0,0,.61,2.09,2,2,0,0,0,3.06,0A3.17,3.17,0,0,0,102,6.52a3,3,0,0,0-.61-2,2,2,0,0,0-3.05,0A3.08,3.08,0,0,0,97.75,6.56Zm7,3.63V2.93h1.1V4a2.59,2.59,0,0,1,.91-.86A2.55,2.55,0,0,1,108,2.77a2.39,2.39,0,0,1,1.32.33,1.79,1.79,0,0,1,.73.94,2.61,2.61,0,0,1,2.24-1.27,2.21,2.21,0,0,1,1.66.6,2.56,2.56,0,0,1,.58,1.84v5h-1.22V5.62a3.37,3.37,0,0,0-.12-1.06,1,1,0,0,0-.43-.52,1.36,1.36,0,0,0-.74-.2,1.72,1.72,0,0,0-1.27.51A2.24,2.24,0,0,0,110.27,6v4.22H109V5.48a2.08,2.08,0,0,0-.3-1.23,1.14,1.14,0,0,0-1-.41,1.79,1.79,0,0,0-1,.27,1.55,1.55,0,0,0-.64.8,4.5,4.5,0,0,0-.2,1.52v3.77ZM120,7l1.25-.11a2.76,2.76,0,0,0,.41,1.23,2.26,2.26,0,0,0,1,.78,3.82,3.82,0,0,0,1.54.3,3.69,3.69,0,0,0,1.34-.23,1.86,1.86,0,0,0,.86-.62,1.44,1.44,0,0,0,.28-.86,1.3,1.3,0,0,0-.27-.82,2,2,0,0,0-.9-.59,17.68,17.68,0,0,0-1.78-.49,9.11,9.11,0,0,1-1.93-.63A2.71,2.71,0,0,1,120.71,4a2.29,2.29,0,0,1-.35-1.25,2.55,2.55,0,0,1,.43-1.42,2.67,2.67,0,0,1,1.26-1A4.77,4.77,0,0,1,123.89,0a5,5,0,0,1,2,.36,2.83,2.83,0,0,1,1.31,1.06A3,3,0,0,1,127.65,3l-1.27.1a2.05,2.05,0,0,0-.69-1.44,2.7,2.7,0,0,0-1.75-.49,2.8,2.8,0,0,0-1.75.44,1.32,1.32,0,0,0-.55,1.06,1.14,1.14,0,0,0,.39.89,5.28,5.28,0,0,0,2,.71,13.24,13.24,0,0,1,2.22.64,3,3,0,0,1,1.29,1A2.49,2.49,0,0,1,128,7.36a2.73,2.73,0,0,1-.46,1.51,3,3,0,0,1-1.32,1.1,4.59,4.59,0,0,1-1.93.39A5.77,5.77,0,0,1,122,10a3.19,3.19,0,0,1-1.44-1.19A3.38,3.38,0,0,1,120,7Zm14.59.88,1.27.16a3.1,3.1,0,0,1-1.11,1.73,3.77,3.77,0,0,1-4.6-.37,3.83,3.83,0,0,1-.93-2.75,4,4,0,0,1,.94-2.84,3.19,3.19,0,0,1,2.45-1,3.1,3.1,0,0,1,2.38,1,3.94,3.94,0,0,1,.92,2.79q0,.11,0,.33h-5.41a2.79,2.79,0,0,0,.68,1.83,2,2,0,0,0,1.52.64A1.88,1.88,0,0,0,133.8,9,2.36,2.36,0,0,0,134.56,7.85Zm-4-2h4.05a2.46,2.46,0,0,0-.46-1.37,1.89,1.89,0,0,0-1.52-.71,2,2,0,0,0-1.43.57A2.25,2.25,0,0,0,130.52,5.87Zm6.83,4.33V.17h1.23v10Zm8.11-2.34,1.27.16a3.1,3.1,0,0,1-1.11,1.73,3.77,3.77,0,0,1-4.6-.37,3.83,3.83,0,0,1-.93-2.75A4,4,0,0,1,141,3.78a3.19,3.19,0,0,1,2.45-1,3.1,3.1,0,0,1,2.38,1,3.94,3.94,0,0,1,.92,2.79q0,.11,0,.33h-5.41A2.79,2.79,0,0,0,142,8.71a2,2,0,0,0,1.52.64A1.88,1.88,0,0,0,144.7,9,2.36,2.36,0,0,0,145.46,7.85Zm-4-2h4.05A2.46,2.46,0,0,0,145,4.49a1.89,1.89,0,0,0-1.52-.71,2,2,0,0,0-1.43.57A2.25,2.25,0,0,0,141.42,5.87ZM153,7.53l1.21.16a3.14,3.14,0,0,1-1,2,3,3,0,0,1-2,.71,3.12,3.12,0,0,1-2.4-1,4,4,0,0,1-.91-2.79,5.05,5.05,0,0,1,.39-2.06,2.72,2.72,0,0,1,1.19-1.32,3.52,3.52,0,0,1,1.73-.44,3,3,0,0,1,1.93.6,2.74,2.74,0,0,1,1,1.7l-1.2.18a2,2,0,0,0-.6-1.1,1.57,1.57,0,0,0-1-.37,1.91,1.91,0,0,0-1.51.67,3.16,3.16,0,0,0-.58,2.11,3.27,3.27,0,0,0,.56,2.13,1.82,1.82,0,0,0,1.46.66,1.72,1.72,0,0,0,1.21-.44A2.21,2.21,0,0,0,153,7.53Zm4.41,1.61a4,4,0,0,0,.54,0l.18,1.09a4.57,4.57,0,0,1-.93.11,2.11,2.11,0,0,1-1-.21,1.19,1.19,0,0,1-.52-.56,4.4,4.4,0,0,1-.15-1.45V3.89h-.9v-1h.9V1.13L156.72.4V2.93H158v1h-1.24V8.13a2.14,2.14,0,0,0,.06.68.51.51,0,0,0,.21.24.82.82,0,0,0,.42.09Zm1.74-7.55V.17h1.23V1.59Zm0,8.61V2.93h1.23v7.26Zm2.64-3.63a3.74,3.74,0,0,1,1.12-3,3.38,3.38,0,0,1,2.28-.81,3.26,3.26,0,0,1,2.45,1,3.73,3.73,0,0,1,1,2.71,4.8,4.8,0,0,1-.42,2.2A3,3,0,0,1,167,9.91a3.56,3.56,0,0,1-1.75.44,3.26,3.26,0,0,1-2.46-1A3.9,3.9,0,0,1,161.8,6.56Zm1.26,0a3.09,3.09,0,0,0,.61,2.09,2,2,0,0,0,3.06,0,3.17,3.17,0,0,0,.61-2.13,3,3,0,0,0-.61-2,2,2,0,0,0-3.05,0A3.08,3.08,0,0,0,163.06,6.56Zm7,3.63V2.93h1.11V4a2.61,2.61,0,0,1,2.31-1.2,3,3,0,0,1,1.21.24,1.9,1.9,0,0,1,.82.62,2.38,2.38,0,0,1,.38.91,7.05,7.05,0,0,1,.07,1.2v4.46h-1.23V5.78a3.32,3.32,0,0,0-.14-1.12,1.18,1.18,0,0,0-.51-.59,1.62,1.62,0,0,0-.86-.22,2,2,0,0,0-1.36.5,2.46,2.46,0,0,0-.57,1.89v4Z" fill="#fff"/></g></g></svg>