<svg xmlns="http://www.w3.org/2000/svg" xmlns:xlink="http://www.w3.org/1999/xlink" viewBox="0 0 235.6 192.8"><defs><clipPath id="clip-path" transform="translate(-0.05 -0.05)"><rect x="0.3" y="0.25" width="235.1" height="192.3" fill="none"/></clipPath><linearGradient id="linear-gradient" x1="-64.08" y1="-349.64" x2="-63.08" y2="-349.64" gradientTransform="matrix(0, 192.3, 192.3, 0, 67353.91, 12323.28)" gradientUnits="userSpaceOnUse"><stop offset="0" stop-color="#fff"/><stop offset="1" stop-color="#808285"/></linearGradient><clipPath id="clip-path-2" transform="translate(-0.05 -0.05)"><rect width="235.6" height="192.8" fill="none"/></clipPath></defs><title>elements</title><g id="Layer_2" data-name="Layer 2"><g id="Layer_1-2" data-name="Layer 1"><g clip-path="url(#clip-path)"><rect x="0.25" y="0.2" width="235.1" height="192.3" fill="url(#linear-gradient)"/></g><g clip-path="url(#clip-path-2)"><path d="M118.05,72.55v47.3h-.5V72.55Zm23.4,23.9H94.15V96h47.3Zm-24,47.75L165.9,95.85l.35.35L117.8,144.55Zm.35.35L69.35,96.2l.35-.35,48.45,48.35Zm0-96.71L166.25,96.2l-.35.35L117.45,48.2Zm.35.35L69.7,96.55l-.35-.35L117.8,47.85ZM.3.3V0H235.65v192.8H.05V0H.3V.3H.55v192h234.6V.55H.3V.3h0Z" transform="translate(-0.05 -0.05)"/></g><path d="M112.72,13.83c0-.34.26-1.17.93-1.17.46,0,.7.45.7.93l0,.24Zm1.51.3A2.42,2.42,0,0,0,115,14a.35.35,0,0,0,.08-.26,1.3,1.3,0,0,0-1.35-1.38A1.82,1.82,0,0,0,112,14.31a1.65,1.65,0,0,0,1.7,1.79,2.5,2.5,0,0,0,.84-.19,1.67,1.67,0,0,0,.46-.58l0-.13a5.61,5.61,0,0,0-.67.43.66.66,0,0,1-.27,0,1.3,1.3,0,0,1-1.28-1.44v-.11ZM109,12.82l.42.23c0,.39,0,1.71,0,2.54l-.46.24,0,.18h2l0-.18-.81-.23v-2c.15-.38.49-.69.73-.69l.12,0a2.73,2.73,0,0,0,.29.54l.1-.06a3.33,3.33,0,0,0,.26-.87.54.54,0,0,0-.39-.14,1.4,1.4,0,0,0-1.11.78h0a3.33,3.33,0,0,0-.08-.78,3.82,3.82,0,0,0-.92.27Zm-2.41-.15c.7,0,1,.87,1,1.62s-.22,1.54-1,1.54-1.09-.85-1.09-1.6.33-1.56,1-1.56Zm0-.28a1.87,1.87,0,0,0-1.82,1.9,1.8,1.8,0,1,0,3.6-.08,1.76,1.76,0,0,0-1.78-1.82Zm-9-1.45c.66.18.71.19.78.42-.15,1.59-.36,3.52-.48,4.21l-.57.26,0,.18h1.78l0-.18-.72-.27c0-.77.14-2.69.24-3.84h0c1.21,2.72,1.53,3.46,1.93,4.37l.15,0c1-2.24,1.62-3.57,2.07-4.56h0c0,1.2,0,3.07.06,4.06l-.5.24-.06.19h2l0-.19-.73-.24c0-.23-.17-3.5-.19-4.41l.68-.23.06-.2h-1.48a.84.84,0,0,1,0,.32c-.7,1.51-1.62,3.33-1.83,3.76h0c-1-2.09-1.63-3.35-1.79-3.71a1.08,1.08,0,0,1-.1-.37h-1.3Z" transform="translate(-0.05 -0.05)"/><path d="M135.84,13.83c0-.34.26-1.17.93-1.17.46,0,.7.45.7.93l0,.24Zm1.51.3a2.42,2.42,0,0,0,.75-.11.35.35,0,0,0,.08-.26,1.3,1.3,0,0,0-1.35-1.38,1.82,1.82,0,0,0-1.74,1.93,1.65,1.65,0,0,0,1.7,1.79,2.5,2.5,0,0,0,.84-.19,1.67,1.67,0,0,0,.46-.58l0-.13a5.61,5.61,0,0,0-.67.43.66.66,0,0,1-.27,0,1.3,1.3,0,0,1-1.28-1.44v-.11Zm-3.26,1.46c0-.59,0-1.2,0-2.81,0-.87,0-1.65,0-2.47a6.68,6.68,0,0,0-1.1.23l-.08.17.46.19c0,.39,0,1.19,0,1.91,0,2,0,2.45,0,2.77l-.5.23,0,.18h1.74l.07-.19ZM129.74,13a1.44,1.44,0,0,1,.64-.17,1.28,1.28,0,0,1,1.26,1.39,1.36,1.36,0,0,1-1.34,1.5,1.78,1.78,0,0,1-.56-.12Zm-.67,3.09a2.7,2.7,0,0,0,.58-.25,2.24,2.24,0,0,0,.78.26,1.93,1.93,0,0,0,1.94-2,1.68,1.68,0,0,0-1.7-1.74,2.93,2.93,0,0,0-.94.37c0-.75,0-1.58,0-2.43a5.22,5.22,0,0,0-1.12.26l-.06.16.46.2c0,.6,0,1.28,0,2Zm-2.45-3.33.43.21v1c0,.64,0,1.33,0,1.6l-.46.24-.06.18h1.73l.06-.18-.57-.24c0-.22,0-.69,0-1.58V12.39a6.07,6.07,0,0,0-1.06.23Zm.74-2a1.49,1.49,0,0,0-.43.46l0,.06a1.28,1.28,0,0,0,.39.46l.06,0a1.46,1.46,0,0,0,.42-.46l0-.06a1.06,1.06,0,0,0-.4-.45Zm-2.62,1.65a1.08,1.08,0,0,0-1.19,1,1,1,0,0,0,.7.94c.3.14.56.26.78.38a.47.47,0,0,1,.32.48.67.67,0,0,1-.74.58,1.38,1.38,0,0,1-.49-.08c-.09-.22-.26-.7-.38-.91l-.11.06a4.8,4.8,0,0,0-.18.87,2.2,2.2,0,0,0,1.16.34c.5,0,1.41-.25,1.41-1.12a.92.92,0,0,0-.61-.85c-.27-.14-.71-.32-1-.46a.46.46,0,0,1-.29-.44.55.55,0,0,1,.61-.55.72.72,0,0,1,.47.14,6.4,6.4,0,0,0,.28.62l.11,0a4.6,4.6,0,0,0,.19-1l-.06-.06a1.84,1.84,0,0,0-.42.21,1.12,1.12,0,0,0-.59-.19Zm-3.42.38.43.21v1c0,.64,0,1.33,0,1.6l-.46.24-.06.18H123l.06-.18-.57-.24c0-.22,0-.69,0-1.58V12.39a6.07,6.07,0,0,0-1.06.23Zm.74-2a1.49,1.49,0,0,0-.43.46l0,.06a1.28,1.28,0,0,0,.39.46l.06,0a1.46,1.46,0,0,0,.42-.46l0-.06a1.06,1.06,0,0,0-.4-.45Zm-4.86,1.93a1,1,0,0,1,.54.36c.56,1.34,1.19,3,1.26,3.12h.07a1.6,1.6,0,0,0,.3-.42c.29-.73,1-2.44,1.13-2.68a1.07,1.07,0,0,1,.5-.36l.06-.2h-1.21l-.06.19.34.25c-.49,1.37-.66,1.82-.82,2.21h0c-.4-1-.7-1.78-.86-2.24l.25-.2.06-.21h-1.47Z" transform="translate(-0.05 -0.05)"/><path d="M133.95,179.27c0-.34.26-1.17.93-1.17.46,0,.7.45.7.93l0,.24Zm1.51.3a2.42,2.42,0,0,0,.75-.11.35.35,0,0,0,.08-.26,1.3,1.3,0,0,0-1.35-1.38,1.82,1.82,0,0,0-1.74,1.93,1.65,1.65,0,0,0,1.7,1.79,2.5,2.5,0,0,0,.84-.19,1.67,1.67,0,0,0,.46-.58l0-.13a5.61,5.61,0,0,0-.67.43.66.66,0,0,1-.27,0,1.3,1.3,0,0,1-1.28-1.44v-.11ZM132.2,181c0-.59,0-1.2,0-2.81,0-.87,0-1.65,0-2.47a6.68,6.68,0,0,0-1.1.23l-.08.17.46.19c0,.39,0,1.19,0,1.91,0,2,0,2.45,0,2.77l-.5.23,0,.18h1.74l.07-.19Zm-4.35-2.6a1.44,1.44,0,0,1,.64-.17,1.28,1.28,0,0,1,1.26,1.39,1.36,1.36,0,0,1-1.34,1.5,1.78,1.78,0,0,1-.56-.12Zm-.67,3.09a2.7,2.7,0,0,0,.58-.25,2.24,2.24,0,0,0,.78.26,1.93,1.93,0,0,0,1.94-2,1.68,1.68,0,0,0-1.7-1.74,2.93,2.93,0,0,0-.94.37c0-.75,0-1.58,0-2.43a5.22,5.22,0,0,0-1.12.26l-.06.16.46.2c0,.6,0,1.28,0,2Zm-2.45-3.33.43.21v1c0,.64,0,1.33,0,1.6l-.46.24-.06.18h1.73l.06-.18-.57-.24c0-.22,0-.69,0-1.58v-1.62a6.07,6.07,0,0,0-1.06.23Zm.74-2a1.49,1.49,0,0,0-.43.46l0,.06a1.28,1.28,0,0,0,.39.46l.06,0a1.46,1.46,0,0,0,.42-.46l0-.06a1.06,1.06,0,0,0-.4-.45Zm-2.62,1.65a1.08,1.08,0,0,0-1.19,1,1,1,0,0,0,.7.94c.3.14.56.26.78.38a.47.47,0,0,1,.32.48.67.67,0,0,1-.74.58,1.38,1.38,0,0,1-.49-.08c-.09-.22-.26-.7-.38-.91l-.11.06a4.8,4.8,0,0,0-.18.87,2.2,2.2,0,0,0,1.16.34c.5,0,1.41-.25,1.41-1.12a.92.92,0,0,0-.61-.85c-.27-.14-.71-.32-1-.46a.46.46,0,0,1-.29-.44.55.55,0,0,1,.61-.55.72.72,0,0,1,.47.14,6.4,6.4,0,0,0,.28.62l.11,0a4.6,4.6,0,0,0,.19-1l-.06-.06a1.84,1.84,0,0,0-.42.21,1.12,1.12,0,0,0-.59-.19Zm-3.42.38.43.21v1c0,.64,0,1.33,0,1.6l-.46.24-.06.18h1.73l.06-.18-.57-.24c0-.22,0-.69,0-1.58v-1.62a6.07,6.07,0,0,0-1.06.23Zm.74-2a1.49,1.49,0,0,0-.43.46l0,.06a1.28,1.28,0,0,0,.39.46l.06,0a1.46,1.46,0,0,0,.42-.46l0-.06a1.06,1.06,0,0,0-.4-.45Zm-4.86,1.93a1,1,0,0,1,.54.36c.56,1.34,1.19,3,1.26,3.12h.07a1.6,1.6,0,0,0,.3-.42c.29-.73,1-2.44,1.13-2.68a1.07,1.07,0,0,1,.5-.36l.06-.2H118l-.06.19.34.25c-.49,1.37-.66,1.82-.82,2.21h0c-.4-1-.7-1.78-.86-2.24l.25-.2.06-.21h-1.47Zm-3.4-.28a1.08,1.08,0,0,0-1.19,1,1,1,0,0,0,.7.94c.3.14.56.26.78.38a.47.47,0,0,1,.32.48.67.67,0,0,1-.74.58,1.38,1.38,0,0,1-.49-.08c-.09-.22-.26-.7-.38-.91l-.11.06a4.8,4.8,0,0,0-.18.87,2.2,2.2,0,0,0,1.16.34c.5,0,1.41-.25,1.41-1.12a.92.92,0,0,0-.61-.85c-.27-.14-.71-.32-1-.46a.46.46,0,0,1-.29-.44.55.55,0,0,1,.61-.55.72.72,0,0,1,.47.14,6.4,6.4,0,0,0,.28.62l.11,0a4.6,4.6,0,0,0,.19-1l-.06-.06a1.84,1.84,0,0,0-.42.21,1.12,1.12,0,0,0-.59-.19Zm-3.13,0a1.08,1.08,0,0,0-1.19,1,1,1,0,0,0,.7.94c.3.14.56.26.78.38a.47.47,0,0,1,.32.48.67.67,0,0,1-.74.58,1.38,1.38,0,0,1-.49-.08c-.09-.22-.26-.7-.38-.91l-.11.06a4.8,4.8,0,0,0-.18.87,2.2,2.2,0,0,0,1.16.34c.5,0,1.41-.25,1.41-1.12a.92.92,0,0,0-.61-.85c-.27-.14-.71-.32-1-.46a.46.46,0,0,1-.29-.44.55.55,0,0,1,.61-.55.72.72,0,0,1,.47.14,6.4,6.4,0,0,0,.28.62l.11,0a4.6,4.6,0,0,0,.19-1l-.06-.06a1.84,1.84,0,0,0-.42.21,1.12,1.12,0,0,0-.59-.19Zm-4.2,1.45c0-.34.26-1.17.93-1.17.46,0,.7.45.7.93l0,.24Zm1.51.3a2.42,2.42,0,0,0,.75-.11.35.35,0,0,0,.08-.26,1.3,1.3,0,0,0-1.35-1.38,1.82,1.82,0,0,0-1.74,1.93,1.65,1.65,0,0,0,1.7,1.79,2.5,2.5,0,0,0,.84-.19,1.67,1.67,0,0,0,.46-.58l0-.13a5.61,5.61,0,0,0-.67.43.66.66,0,0,1-.27,0,1.3,1.3,0,0,1-1.28-1.44v-.11Zm-6.76-3.21.66.24v2.09c0,1.25,0,2.22,0,2.33l-.66.24-.06.18h1.12c1.78,0,2.43,0,2.71,0a8.59,8.59,0,0,0,.27-1.37h-.15c-.18.2-.54.74-.74,1l-1.71-.1c0-.13,0-1.1,0-2.37V176.6l.56-.24.07-.19H99.4Z" transform="translate(-0.05 -0.05)" fill="#fff"/><g clip-path="url(#clip-path-2)"><path d="M69.7,71.6A24.68,24.68,0,1,1,45,96.28,24.58,24.58,0,0,1,69.7,71.6" transform="translate(-0.05 -0.05)" fill="#fff"/><path d="M69.7,71.6v-.25A24.83,24.83,0,1,1,52,78.62,24.85,24.85,0,0,1,69.7,71.35v.5A24.43,24.43,0,1,0,94.13,96.28,24.33,24.33,0,0,0,69.7,71.85Z" transform="translate(-0.05 -0.05)"/></g><path d="M59.16,96.33c0-.34.26-1.17.93-1.17.46,0,.7.45.7.93l0,.24Zm1.51.3a2.42,2.42,0,0,0,.75-.11.35.35,0,0,0,.08-.26,1.3,1.3,0,0,0-1.35-1.38,1.82,1.82,0,0,0-1.74,1.93,1.65,1.65,0,0,0,1.7,1.79,2.5,2.5,0,0,0,.84-.19,1.67,1.67,0,0,0,.46-.58l0-.13a5.61,5.61,0,0,0-.67.43.66.66,0,0,1-.27,0,1.3,1.3,0,0,1-1.28-1.44v-.11Zm-9.49-3.2c.66.18.71.19.78.42-.15,1.59-.36,3.52-.48,4.21l-.57.26,0,.18h1.78l0-.18L52,98.05c0-.77.14-2.69.24-3.84h0c1.21,2.72,1.53,3.46,1.93,4.37l.15,0C55.31,96.33,56,95,56.4,94h0c0,1.2,0,3.07.06,4.06l-.5.24-.06.19h2l0-.19-.73-.24c0-.23-.17-3.5-.19-4.41l.68-.23.06-.2H56.32a.84.84,0,0,1,0,.32c-.7,1.51-1.62,3.33-1.83,3.76h0c-1-2.09-1.63-3.35-1.79-3.71a1.08,1.08,0,0,1-.1-.37h-1.3Z" transform="translate(-0.05 -0.05)"/><path d="M85.35,94.89a1.08,1.08,0,0,0-1.19,1,1,1,0,0,0,.7.94c.3.14.56.26.78.38a.47.47,0,0,1,.32.48.67.67,0,0,1-.74.58,1.38,1.38,0,0,1-.49-.08c-.09-.22-.26-.7-.38-.91l-.11.06a4.8,4.8,0,0,0-.18.87,2.2,2.2,0,0,0,1.16.34c.5,0,1.41-.25,1.41-1.12a.92.92,0,0,0-.61-.85c-.27-.14-.71-.32-1-.46a.46.46,0,0,1-.29-.44.55.55,0,0,1,.61-.55.72.72,0,0,1,.47.14,6.4,6.4,0,0,0,.28.62l.11,0a4.6,4.6,0,0,0,.19-1l-.06-.06a1.84,1.84,0,0,0-.42.21,1.12,1.12,0,0,0-.59-.19ZM80.44,96.8a1.75,1.75,0,0,0,1.85,1.81,2.73,2.73,0,0,0,.75-.13,1.85,1.85,0,0,0,.51-.67l-.06-.11a3.66,3.66,0,0,0-.66.46l-.22.06a1.53,1.53,0,0,1-.07-3,.59.59,0,0,1,.3.06,6.24,6.24,0,0,0,.26.86l.12,0a4,4,0,0,0,.3-.86,1.73,1.73,0,0,0-1-.3,1.93,1.93,0,0,0-2.05,1.9Zm-2.11-1.53.43.21v1c0,.64,0,1.33,0,1.6l-.46.24-.06.18H80l.06-.18-.57-.24c0-.22,0-.69,0-1.58V94.89a6.07,6.07,0,0,0-1.06.23Zm.74-2a1.49,1.49,0,0,0-.43.46l0,.06a1.28,1.28,0,0,0,.39.46l.06,0a1.46,1.46,0,0,0,.42-.46l0-.06a1.06,1.06,0,0,0-.4-.45Zm-4.76,3c0,1,0,1.74,0,1.86l-.44.22-.06.18h1.61l0-.19L75,98.11c0-.17,0-1.7,0-2.3a1.39,1.39,0,0,1,.89-.44c.41,0,.75.25.75.86,0,1,0,1.62,0,1.85l-.32.23-.06.2h1.61l.06-.18-.47-.2L77.29,98V96.16c0-.59-.25-1.27-1.08-1.27a2,2,0,0,0-1.26.63h0l0-.63a4,4,0,0,0-1,.3l-.06.17.42.18ZM70.9,97.52a.43.43,0,0,1,.28-.44,4.87,4.87,0,0,1,1-.38l0,1-.07.18a.79.79,0,0,1-.54.25.61.61,0,0,1-.65-.62Zm1.28-1.07a7.19,7.19,0,0,0-1.66.58.69.69,0,0,0-.32.65,1,1,0,0,0,1,.94,1.48,1.48,0,0,0,1-.47h0c.07.21.26.46.79.46a.76.76,0,0,0,.4-.1l.06-.13a1.14,1.14,0,0,1-.62-.46c0-.54,0-1.24,0-1.78a1.12,1.12,0,0,0-1.1-1.22,1.64,1.64,0,0,0-.56.14,4,4,0,0,0-1,.55,2.18,2.18,0,0,0,.5.69l.09,0a6.56,6.56,0,0,0,.1-.81,1.08,1.08,0,0,1,.49-.14c.42,0,.78.17.79,1Zm-3-.35A1.18,1.18,0,0,0,68,94.89a1.74,1.74,0,0,0-1.11.48h0c0-.86,0-1.77,0-2.53a8.15,8.15,0,0,0-1.14.26l0,.15.46.21c0,.87,0,1.78,0,2.79s0,1.75,0,1.85l-.43.24-.06.18.84,0,.88,0,.06-.18-.58-.25c0-.14,0-1.66,0-2.45a1.23,1.23,0,0,1,.78-.29c.38,0,.86.16.86,1.07a18,18,0,0,1-.07,2,9.24,9.24,0,0,0,1.27.06l.06-.18-.42-.21c-.12,0-.16-.08-.16-.22Zm-7,.7A1.75,1.75,0,0,0,64,98.6a2.73,2.73,0,0,0,.75-.13,1.85,1.85,0,0,0,.51-.67l-.06-.11a3.66,3.66,0,0,0-.66.46l-.22.06a1.53,1.53,0,0,1-.07-3,.59.59,0,0,1,.3.06,6.24,6.24,0,0,0,.26.86l.12,0a4,4,0,0,0,.3-.86,1.73,1.73,0,0,0-1-.3,1.93,1.93,0,0,0-2.05,1.9Z" transform="translate(-0.05 -0.05)"/><g clip-path="url(#clip-path-2)"><path d="M117.8,119.6a24.68,24.68,0,1,1-24.68,24.68A24.58,24.58,0,0,1,117.8,119.6" transform="translate(-0.05 -0.05)" fill="#fff"/><path d="M117.8,119.6v-.25a24.83,24.83,0,1,1-17.66,7.27,24.85,24.85,0,0,1,17.66-7.27v.5a24.43,24.43,0,1,0,24.43,24.43,24.33,24.33,0,0,0-24.43-24.43Z" transform="translate(-0.05 -0.05)"/></g><path d="M103.88,144.33c0-.34.26-1.17.93-1.17.46,0,.7.45.7.93l0,.24Zm1.51.3a2.42,2.42,0,0,0,.75-.11.35.35,0,0,0,.08-.26,1.3,1.3,0,0,0-1.35-1.38,1.82,1.82,0,0,0-1.74,1.93,1.65,1.65,0,0,0,1.7,1.79,2.5,2.5,0,0,0,.84-.19,1.67,1.67,0,0,0,.46-.58l0-.13a5.61,5.61,0,0,0-.67.43.66.66,0,0,1-.27,0,1.3,1.3,0,0,1-1.28-1.44v-.11Zm-6.09-3.41-.61-.11,0,0c0,.25,0,1,0,1.34l.13,0c.1-.16.38-.72.49-.93l1.31.06v2.25c0,1.79,0,2,0,2.24l-.85.25-.06.19h2.55l.07-.19-.94-.25c0-.23,0-.45,0-2.5v-2l1.4-.06c0,.14.26.77.33,1l.13-.06a12.14,12.14,0,0,0,.23-1.27l0,0a6.24,6.24,0,0,0-.66.11Z" transform="translate(-0.05 -0.05)"/><path d="M127.37,143.17c.7,0,1,.87,1,1.62s-.22,1.54-1,1.54-1.09-.85-1.09-1.6.33-1.56,1-1.56Zm0-.28a1.87,1.87,0,0,0-1.82,1.9,1.8,1.8,0,1,0,1.82-1.9Zm-2.79,3.21c0-.59,0-1.2,0-2.81,0-.87,0-1.65,0-2.47a6.68,6.68,0,0,0-1.1.23l-.08.17.46.19c0,.39,0,1.19,0,1.91,0,2,0,2.45,0,2.77l-.5.23,0,.18h1.74l.07-.19Zm-3.49-2.93c.7,0,1,.87,1,1.62s-.22,1.54-1,1.54-1.09-.85-1.09-1.6.33-1.56,1-1.56Zm0-.28a1.87,1.87,0,0,0-1.82,1.9,1.8,1.8,0,1,0,1.82-1.9Zm-5.79,1.35c0,1,0,1.74,0,1.86l-.44.22-.06.18h1.61l0-.19-.45-.21c0-.17,0-1.7,0-2.3a1.39,1.39,0,0,1,.89-.44c.41,0,.75.25.75.86,0,1,0,1.62,0,1.85l-.32.23-.06.2h1.61l.06-.18-.47-.2-.11-.15v-1.82c0-.59-.25-1.27-1.08-1.27a2,2,0,0,0-1.26.63h0l0-.63a4,4,0,0,0-1,.3l-.06.17.42.18Zm-1.46-.14a1.18,1.18,0,0,0-1.19-1.21,1.74,1.74,0,0,0-1.11.48h0c0-.86,0-1.77,0-2.53a8.15,8.15,0,0,0-1.14.26l0,.15.46.21c0,.87,0,1.78,0,2.79s0,1.75,0,1.85l-.43.24-.06.18.84,0,.88,0,.06-.18-.58-.25c0-.14,0-1.66,0-2.45a1.23,1.23,0,0,1,.78-.29c.38,0,.86.16.86,1.07a18,18,0,0,1-.07,2,9.24,9.24,0,0,0,1.27.06l.06-.18-.42-.21c-.12,0-.16-.08-.16-.22Zm-7,.7a1.75,1.75,0,0,0,1.85,1.81,2.73,2.73,0,0,0,.75-.13,1.85,1.85,0,0,0,.51-.67l-.06-.11a3.66,3.66,0,0,0-.66.46l-.22.06a1.53,1.53,0,0,1-.07-3,.59.59,0,0,1,.3.06,6.24,6.24,0,0,0,.26.86l.12,0a4,4,0,0,0,.3-.86,1.73,1.73,0,0,0-1-.3,1.93,1.93,0,0,0-2.05,1.9Z" transform="translate(-0.05 -0.05)"/><path d="M136,143.17l.37.21c-.14.45-.48,1.38-.79,2.19h0c-.43-1.18-.7-1.89-.79-2.2l.26-.2.06-.19H133.6l-.07.18c.35.13.45.19.56.35.32.75,1.06,2.77,1.14,2.92-.12.27-.3.67-.41.88a6.69,6.69,0,0,0-.7.89.84.84,0,0,0,.58.26l.18,0c.07-.27.14-.6.21-.9.74-1.76,1.38-3.37,1.69-4a1.47,1.47,0,0,1,.49-.34l0-.18H136.1Zm-4.55,3.4a4.61,4.61,0,0,1,.82,0,.5.5,0,0,1,.41.5c0,.62-.58.9-1.25.9-.49,0-1-.22-1-.74a1.28,1.28,0,0,1,.38-.63,1.53,1.53,0,0,1,.67-.09Zm-.11-3.41c.5,0,.73.54.73,1s-.25,1-.71,1-.74-.52-.74-1,.23-1,.71-1Zm1.68.18.33-.5,0-.08-.69.29-.58-.1a3.63,3.63,0,0,0-.61-.06,1.37,1.37,0,0,0-1.5,1.3,1.09,1.09,0,0,0,.5,1c-.26.22-.55.52-.55.62a.88.88,0,0,0,.26.52,1.21,1.21,0,0,0,.36.26v0l-.65.7a.38.38,0,0,0-.12.25c0,.54.59.93,1.38.93a2.34,2.34,0,0,0,1.45-.5,1.44,1.44,0,0,0,.67-1.12.87.87,0,0,0-.28-.64.89.89,0,0,0-.5-.22,9.48,9.48,0,0,0-1.67,0,.46.46,0,0,1-.38-.37.78.78,0,0,1,.22-.36,1.53,1.53,0,0,0,.66.14,1.29,1.29,0,0,0,1.42-1.25,1.17,1.17,0,0,0-.27-.78v0Z" transform="translate(-0.05 -0.05)"/><g clip-path="url(#clip-path-2)"><path d="M165.9,71.6a24.68,24.68,0,1,1-24.68,24.68A24.58,24.58,0,0,1,165.9,71.6" transform="translate(-0.05 -0.05)" fill="#fff"/><path d="M165.9,71.6v-.25a24.83,24.83,0,1,1-17.66,7.27,24.85,24.85,0,0,1,17.66-7.27v.5a24.43,24.43,0,1,0,24.43,24.43A24.33,24.33,0,0,0,165.9,71.85Z" transform="translate(-0.05 -0.05)"/></g><path d="M168.13,95.32l.42.23c0,.39,0,1.71,0,2.54l-.46.24,0,.18h2l0-.18-.81-.23v-2c.15-.38.49-.69.73-.69l.12,0a2.73,2.73,0,0,0,.29.54l.1-.06a3.33,3.33,0,0,0,.26-.87.54.54,0,0,0-.39-.14,1.4,1.4,0,0,0-1.11.78h0a3.33,3.33,0,0,0-.08-.78,3.82,3.82,0,0,0-.92.27Zm-2.43-.15c.7,0,1,.87,1,1.62s-.22,1.54-1,1.54-1.09-.85-1.09-1.6.33-1.56,1-1.56Zm0-.28a1.87,1.87,0,0,0-1.82,1.9,1.8,1.8,0,1,0,1.82-1.9Zm-3.39.1,0-1.16a.85.85,0,0,0-.48.24,5.79,5.79,0,0,0-.22.92h-.42l-.14.28.54.1v2a1.27,1.27,0,0,0,.18.86,1,1,0,0,0,.77.34,1.17,1.17,0,0,0,.93-.42v-.25l0,0a1.09,1.09,0,0,1-.65.19.64.64,0,0,1-.4-.12.56.56,0,0,1-.13-.38c0-1,0-1.87,0-2.25l1.07-.1.15-.29ZM159,93.09a1.49,1.49,0,0,0-1.59,1.46,1.4,1.4,0,0,0,.76,1.25c.38.24.79.42,1.2.65a1,1,0,0,1,.58.85c0,.66-.47,1-1.19,1a1.64,1.64,0,0,1-.78-.14c-.16-.78-.21-1-.25-1.12l-.13.06a6,6,0,0,0-.36,1,2.63,2.63,0,0,0,1.57.54,1.68,1.68,0,0,0,1.87-1.58c0-.44-.15-.89-.94-1.3-.45-.24-.87-.44-1.2-.64a.84.84,0,0,1-.46-.78.93.93,0,0,1,1-.92,1.25,1.25,0,0,1,.7.2,7.26,7.26,0,0,0,.28.78l.12-.06a7.34,7.34,0,0,0,.29-1.22l-.07,0a2.23,2.23,0,0,0-.54.26,1.43,1.43,0,0,0-.84-.26Z" transform="translate(-0.05 -0.05)"/><path d="M173.57,95.17l.37.21c-.14.45-.48,1.38-.79,2.19h0c-.43-1.18-.7-1.89-.79-2.2l.26-.2.06-.19h-1.51l-.07.18c.35.13.45.19.56.35.32.75,1.06,2.77,1.14,2.92-.12.27-.3.67-.41.88a6.69,6.69,0,0,0-.7.89.84.84,0,0,0,.58.26l.18,0c.07-.27.14-.6.21-.9.74-1.76,1.38-3.37,1.69-4a1.47,1.47,0,0,1,.49-.34l0-.18h-1.22Z" transform="translate(-0.05 -0.05)"/><g clip-path="url(#clip-path-2)"><path d="M117.8,23.6A24.61,24.61,0,1,1,93.12,48.21,24.54,24.54,0,0,1,117.8,23.6" transform="translate(-0.05 -0.05)" fill="#fff"/><path d="M117.8,23.6v-.25a24.79,24.79,0,1,1-17.66,7.25,24.89,24.89,0,0,1,17.66-7.25v.5a24.36,24.36,0,1,0,24.43,24.36A24.29,24.29,0,0,0,117.8,23.85Z" transform="translate(-0.05 -0.05)"/></g><path d="M106.13,48.33c0-.34.26-1.17.93-1.17.46,0,.7.45.7.93l0,.24Zm1.51.3a2.42,2.42,0,0,0,.75-.11.35.35,0,0,0,.08-.26,1.3,1.3,0,0,0-1.35-1.38,1.82,1.82,0,0,0-1.74,1.93,1.65,1.65,0,0,0,1.7,1.79,2.5,2.5,0,0,0,.84-.19,1.67,1.67,0,0,0,.46-.58l0-.13a5.61,5.61,0,0,0-.67.43.66.66,0,0,1-.27,0,1.3,1.3,0,0,1-1.28-1.44v-.11Zm-5.5-2.45.75,2-1.52,0c.18-.51.38-1,.75-2Zm-.27-.75.08.22a.35.35,0,0,1,0,.25c-.65,1.66-1.52,3.68-1.75,4.15l-.56.26,0,.19h1.77l0-.18-.7-.27c.13-.38.25-.69.54-1.45a16.72,16.72,0,0,0,1.78,0c.31.78.54,1.34.6,1.54l-.3.23,0,.17h1.79l.06-.18c-.54-.18-.66-.25-.81-.45-.78-1.92-1.56-3.91-1.67-4.24a1.41,1.41,0,0,1-.11-.55l0,0Z" transform="translate(-0.05 -0.05)"/><path d="M132.7,46.89a1.08,1.08,0,0,0-1.19,1,1,1,0,0,0,.7.94c.3.14.56.26.78.38a.47.47,0,0,1,.32.48.67.67,0,0,1-.74.58,1.38,1.38,0,0,1-.49-.08c-.09-.22-.26-.7-.38-.91l-.11.06a4.8,4.8,0,0,0-.18.87,2.2,2.2,0,0,0,1.16.34c.5,0,1.41-.25,1.41-1.12a.92.92,0,0,0-.61-.85c-.27-.14-.71-.32-1-.46a.46.46,0,0,1-.29-.44.55.55,0,0,1,.61-.55.72.72,0,0,1,.47.14,6.4,6.4,0,0,0,.28.62l.11,0a4.6,4.6,0,0,0,.19-1l-.06-.06a1.84,1.84,0,0,0-.42.21,1.12,1.12,0,0,0-.59-.19Zm-4.93,1.91a1.75,1.75,0,0,0,1.85,1.81,2.73,2.73,0,0,0,.75-.13,1.85,1.85,0,0,0,.51-.67l-.06-.11a3.66,3.66,0,0,0-.66.46l-.22.06a1.53,1.53,0,0,1-.07-3,.59.59,0,0,1,.3.06,6.24,6.24,0,0,0,.26.86l.12,0a4,4,0,0,0,.3-.86,1.73,1.73,0,0,0-1-.3,1.93,1.93,0,0,0-2.05,1.9Zm-2.13-1.53.43.21v1c0,.64,0,1.33,0,1.6l-.46.24-.06.18h1.73l.06-.18-.57-.24c0-.22,0-.69,0-1.58V46.89a6.07,6.07,0,0,0-1.06.23Zm.74-2a1.49,1.49,0,0,0-.43.46l0,.06a1.28,1.28,0,0,0,.39.46l.06,0a1.46,1.46,0,0,0,.42-.46l0-.06a1.06,1.06,0,0,0-.4-.45ZM124,47l0-1.16a.85.85,0,0,0-.48.24,5.79,5.79,0,0,0-.22.92h-.42l-.14.28.54.1v2a1.27,1.27,0,0,0,.18.86,1,1,0,0,0,.77.34,1.17,1.17,0,0,0,.93-.42v-.25l0,0a1.09,1.09,0,0,1-.65.19.64.64,0,0,1-.4-.12.56.56,0,0,1-.13-.38c0-1,0-1.87,0-2.25l1.07-.1.15-.29Zm-4,1.34c0-.34.26-1.17.93-1.17.46,0,.7.45.7.93l0,.24Zm1.51.3a2.42,2.42,0,0,0,.75-.11.35.35,0,0,0,.08-.26A1.3,1.3,0,0,0,121,46.89a1.82,1.82,0,0,0-1.74,1.93A1.65,1.65,0,0,0,121,50.6a2.5,2.5,0,0,0,.84-.19,1.67,1.67,0,0,0,.46-.58l0-.13a5.61,5.61,0,0,0-.67.43.66.66,0,0,1-.27,0A1.3,1.3,0,0,1,120,48.75v-.11Zm-3.27-.54a1.18,1.18,0,0,0-1.19-1.21,1.74,1.74,0,0,0-1.11.48h0c0-.86,0-1.77,0-2.53a8.15,8.15,0,0,0-1.14.26l0,.15.46.21c0,.87,0,1.78,0,2.79s0,1.75,0,1.85l-.43.24-.06.18.84,0,.88,0,.06-.18-.58-.25c0-.14,0-1.66,0-2.45a1.23,1.23,0,0,1,.78-.29c.38,0,.86.16.86,1.07a18,18,0,0,1-.07,2,9.24,9.24,0,0,0,1.27.06l.06-.18-.42-.21c-.12,0-.16-.08-.16-.22Zm-5-1.1,0-1.16a.85.85,0,0,0-.48.24,5.79,5.79,0,0,0-.22.92h-.42l-.14.28.54.1v2a1.27,1.27,0,0,0,.18.86,1,1,0,0,0,.77.34,1.17,1.17,0,0,0,.93-.42v-.25l0,0a1.09,1.09,0,0,1-.65.19.64.64,0,0,1-.4-.12.56.56,0,0,1-.13-.38c0-1,0-1.87,0-2.25l1.07-.1.15-.29Zm-2.9-.1a1.08,1.08,0,0,0-1.19,1,1,1,0,0,0,.7.94c.3.14.56.26.78.38a.47.47,0,0,1,.32.48.67.67,0,0,1-.74.58,1.38,1.38,0,0,1-.49-.08c-.09-.22-.26-.7-.38-.91l-.11.06a4.8,4.8,0,0,0-.18.87,2.2,2.2,0,0,0,1.16.34c.5,0,1.41-.25,1.41-1.12a.92.92,0,0,0-.61-.85c-.27-.14-.71-.32-1-.46a.46.46,0,0,1-.29-.44.55.55,0,0,1,.61-.55.72.72,0,0,1,.47.14,6.4,6.4,0,0,0,.28.62l.11,0a4.6,4.6,0,0,0,.19-1l-.06-.06a1.84,1.84,0,0,0-.42.21,1.12,1.12,0,0,0-.59-.19Z" transform="translate(-0.05 -0.05)"/></g></g></svg>