<svg xmlns="http://www.w3.org/2000/svg" xmlns:xlink="http://www.w3.org/1999/xlink" viewBox="0 0 307.09 142.54"><defs><clipPath id="clip-path" transform="translate(-1.33)"><rect width="308.4" height="146.7" fill="none"/></clipPath></defs><title>ci1</title><g id="Layer_2" data-name="Layer 2"><g id="Layer_1-2" data-name="Layer 1"><g clip-path="url(#clip-path)"><path d="M159.87,139.21l.43.21v1c0,.64,0,1.33,0,1.6l-.46.24-.06.18h1.73l.06-.18L161,142c0-.22,0-.69,0-1.58v-1.62a6.07,6.07,0,0,0-1.06.23Zm.74-2a1.49,1.49,0,0,0-.43.46l0,.06a1.28,1.28,0,0,0,.39.46l.06,0a1.46,1.46,0,0,0,.42-.46l0-.06a1.06,1.06,0,0,0-.4-.45Zm-4.91,0-.61-.11,0,0c0,.25,0,1,0,1.34l.13,0c.1-.16.38-.72.49-.93l1.31.06v2.25c0,1.79,0,2,0,2.24l-.85.25-.06.19h2.55l.07-.19-.94-.25c0-.23,0-.45,0-2.5v-2l1.4-.06c0,.14.26.77.33,1l.13-.06a12.14,12.14,0,0,0,.23-1.27l0,0a6.26,6.26,0,0,0-.66.11Z" transform="translate(-1.33)"/><path d="M169.44,140.27c0-.34.26-1.17.93-1.17.46,0,.7.45.7.93l0,.24Zm1.51.3a2.42,2.42,0,0,0,.75-.11.35.35,0,0,0,.08-.26,1.3,1.3,0,0,0-1.35-1.38,1.82,1.82,0,0,0-1.74,1.93,1.65,1.65,0,0,0,1.7,1.79,2.5,2.5,0,0,0,.84-.19,1.68,1.68,0,0,0,.46-.58l0-.13a5.6,5.6,0,0,0-.67.43.66.66,0,0,1-.27,0,1.3,1.3,0,0,1-1.28-1.44v-.11Zm-8.5-.17c0,.77,0,1.46,0,1.62l-.44.22,0,.19h1.62l0-.19-.48-.22c0-.25,0-1.34,0-2.28a1.48,1.48,0,0,1,.85-.44c.66,0,.77.5.77.91,0,.7,0,1.33,0,1.81l-.38.22,0,.19h1.54l.06-.18-.47-.24v-1.61a4.46,4.46,0,0,0,0-.66,1.43,1.43,0,0,1,.92-.45c.63,0,.74.53.74,1,0,.9,0,1.45,0,1.74l-.35.24,0,.18h1.64l0-.18-.42-.18c-.1,0-.15-.09-.15-.16V140a1.08,1.08,0,0,0-1.08-1.2,2.14,2.14,0,0,0-1.32.66,1,1,0,0,0-1-.66,2.2,2.2,0,0,0-1.25.65h0l0-.65a4.28,4.28,0,0,0-1,.3l-.06.16.42.18Z" transform="translate(-1.33)"/></g><path d="M286,107.71l18.45,2-.08.75-18.45-2Zm-21.4-82.18,22.19,82.85-.72.19L263.84,25.72ZM245.72,75.06l18.36-49.55.7.26L246.42,75.32ZM183.29,49.6l63.4,25-.28.7L183,50.3ZM125.58,88l58-38.39.41.63L126,88.59ZM85.92,76.73l40.64,11.08-.2.72L85.72,77.45Zm-43.57,29.8L86.28,76.67l.42.62L42.77,107.15Zm-9.66-42L43.33,106.9l-.73.18L32,64.76ZM20.45,119.29l11.68-54.7.73.16-11.68,54.7Z" transform="translate(-1.33)"/><polygon points="301.67 112.4 306.23 110.39 302.21 107.44 301.67 112.4"/><polygon points="303.47 130.33 19.32 130.33 19.32 129.87 19.32 3.33 19.82 3.33 19.82 129.87 19.82 130.08 19.57 130.08 19.57 129.83 303.72 129.83 303.72 130.33 303.47 130.33"/><polygon points="19.57 0 17.08 4.32 22.06 4.32 19.57 0"/><polygon points="302.77 132.58 307.09 130.09 302.77 127.59 302.77 132.58"/><g clip-path="url(#clip-path)"><path d="M3.09,55.28l-1.16,0a.85.85,0,0,0,.24.48,5.79,5.79,0,0,0,.92.22v.42l.28.14.1-.54h2a1.27,1.27,0,0,0,.86-.18A1,1,0,0,0,6.7,55a1.17,1.17,0,0,0-.42-.93H6l0,0a1.09,1.09,0,0,1,.19.65.64.64,0,0,1-.12.4.56.56,0,0,1-.38.13H3.47l-.1-1.07-.29-.15ZM3,58.13a1.08,1.08,0,0,0,1,1.19,1,1,0,0,0,.94-.7c.14-.3.26-.56.38-.78a.47.47,0,0,1,.48-.32.67.67,0,0,1,.58.74,1.38,1.38,0,0,1-.08.49c-.22.09-.7.26-.91.38l.06.11a4.8,4.8,0,0,0,.87.18,2.2,2.2,0,0,0,.34-1.16c0-.5-.25-1.41-1.12-1.41a.92.92,0,0,0-.85.61c-.14.27-.32.71-.46,1a.46.46,0,0,1-.44.29.55.55,0,0,1-.55-.61.72.72,0,0,1,.14-.47A6.38,6.38,0,0,0,4,57.36l0-.11a4.6,4.6,0,0,0-1-.19L3,57.12a1.84,1.84,0,0,0,.21.42,1.12,1.12,0,0,0-.19.59Zm1.45,4.15c-.34,0-1.17-.26-1.17-.93,0-.46.45-.7.93-.7l.24,0Zm.3-1.51A2.42,2.42,0,0,0,4.63,60a.35.35,0,0,0-.26-.08A1.3,1.3,0,0,0,3,61.29,1.82,1.82,0,0,0,4.91,63a1.65,1.65,0,0,0,1.79-1.7,2.5,2.5,0,0,0-.19-.84A1.67,1.67,0,0,0,5.94,60l-.13,0a5.61,5.61,0,0,0,.43.67.66.66,0,0,1,0,.27A1.3,1.3,0,0,1,4.85,62.3H4.74ZM3.42,66l.23-.42c.39,0,1.71,0,2.54,0l.24.46.18,0c0-.24,0-.58,0-.83,0-.43,0-.83,0-1.14l-.18,0-.23.81h-2c-.38-.15-.69-.49-.69-.73l0-.12A2.72,2.72,0,0,0,4,63.79L4,63.69a3.33,3.33,0,0,0-.87-.26.54.54,0,0,0-.14.39,1.4,1.4,0,0,0,.78,1.11v0A3.32,3.32,0,0,0,3,65a3.82,3.82,0,0,0,.27.92Zm1,2.92c-.34,0-1.17-.26-1.17-.93,0-.46.45-.7.93-.7l.24,0Zm.3-1.51a2.42,2.42,0,0,0-.11-.75.35.35,0,0,0-.26-.08A1.3,1.3,0,0,0,3,67.94a1.82,1.82,0,0,0,1.93,1.73A1.65,1.65,0,0,0,6.7,68a2.5,2.5,0,0,0-.19-.84,1.67,1.67,0,0,0-.58-.46l-.13,0a5.61,5.61,0,0,0,.43.67.66.66,0,0,1,0,.27,1.3,1.3,0,0,1-1.44,1.28H4.74ZM3.09,71.24l-1.16,0a.85.85,0,0,0,.24.48,5.79,5.79,0,0,0,.92.22v.42l.28.14.1-.54h2a1.27,1.27,0,0,0,.86-.18A1,1,0,0,0,6.7,71a1.17,1.17,0,0,0-.42-.93H6l0,0a1.09,1.09,0,0,1,.19.65.64.64,0,0,1-.12.4.56.56,0,0,1-.38.13H3.47l-.1-1.07L3.09,70Zm1.25,5c1,0,1.74,0,1.86,0l.22.44.18.06c0-.26,0-.56,0-.84s0-.56,0-.77l-.19,0-.21.45c-.17,0-1.7,0-2.3,0a1.39,1.39,0,0,1-.44-.89c0-.41.25-.75.86-.75,1,0,1.62,0,1.85,0l.23.32.2.06c0-.25,0-.49,0-.71s0-.68,0-.9l-.18-.06-.2.47-.15.11H4.26c-.59,0-1.27.25-1.27,1.08a2,2,0,0,0,.63,1.26v0L3,75.6a4,4,0,0,0,.3,1l.17.06.18-.42ZM1.51,79.35l.23-.63H3.86c1.33,0,2.19,0,2.32,0l.24.63.19.06c0-.31,0-.7,0-1.1s0-.77,0-1.07l-.19-.06L6.18,78c-.14,0-1,0-2.32,0H1.75l-.23-.58-.19-.06c0,.33,0,.66,0,1s0,.62,0,.94Z" transform="translate(-1.33)"/></g><path d="M14.85,116.19l.75,2-1.52,0c.18-.51.38-1,.75-2Zm-.27-.75.08.22a.35.35,0,0,1,0,.25c-.65,1.66-1.52,3.68-1.75,4.15l-.56.26,0,.19H14l0-.18-.7-.27c.13-.38.25-.69.54-1.45a16.75,16.75,0,0,0,1.78,0c.31.78.54,1.34.6,1.54l-.3.23,0,.17h1.79l.06-.18c-.54-.18-.66-.25-.81-.45-.78-1.92-1.56-3.91-1.67-4.24a1.41,1.41,0,0,1-.11-.55l0,0Z" transform="translate(-1.33)"/><path d="M33.67,60.5a1.15,1.15,0,0,1-.27.81c-.25.28-.66.45-1.7.46,0-.6,0-1.5,0-2.16v-.22c1.71,0,2,.53,2,1.11Zm-2-3.48h.24a2.19,2.19,0,0,1,1,.18.82.82,0,0,1,.42.78c0,.9-.81,1.1-1.71,1.12ZM30.3,57l.67.16v2.57c0,1.1,0,1.75,0,1.87l-.58.23-.06.19,1.54,0c1.1,0,2.67-.18,2.67-1.56,0-.7-.5-1.17-1.66-1.29v-.06c.6-.1,1.32-.45,1.32-1.23s-.73-1.21-2-1.21c-.5,0-1.46.07-1.83.1Z" transform="translate(-1.33)"/><path d="M238.14,61l.66.23v2.13c0,1.46,0,2.18,0,2.29l-.57.26,0,.18h2.21l.06-.19-.89-.26c0-.22,0-.6,0-2,.24,0,1.47.09,1.66.09l.46-.46,0-.08a18.7,18.7,0,0,1-2.08.1V61.2l1.62-.06c.1.29.2.58.34.9l.14-.08c0-.22.18-1,.18-1.19l0,0c-.13,0-.56.08-.65.1h-2.92Z" transform="translate(-1.33)"/><path d="M86.79,68.78a2.89,2.89,0,0,0-3,2.82,2.73,2.73,0,0,0,3,2.74,4.14,4.14,0,0,0,1.38-.26,4.11,4.11,0,0,0,.54-1l-.18,0a11.21,11.21,0,0,0-.94.9,1.6,1.6,0,0,1-.53.06,2.31,2.31,0,0,1-2.47-2.41A2.28,2.28,0,0,1,87,69.13a2.09,2.09,0,0,1,1,.24,5.41,5.41,0,0,0,.27.89l.14-.08a6.29,6.29,0,0,0,.32-1.29l0,0a2.05,2.05,0,0,0-.61.23,2.39,2.39,0,0,0-1.25-.3Z" transform="translate(-1.33)"/><path d="M125.37,91.56a3.37,3.37,0,0,1,2.27.57,2.09,2.09,0,0,1,.74,1.73,2.3,2.3,0,0,1-.75,1.83,3.3,3.3,0,0,1-2.22.62c0-.1,0-1.15,0-2.47Zm-1.41,0,.7.14v2.15c0,1.34,0,2.24,0,2.34l-.63.21-.06.19c.34,0,.79,0,1.39,0a6.06,6.06,0,0,0,2.16-.3,2.5,2.5,0,0,0,1.74-2.48c0-1.77-1.32-2.57-3.33-2.57a18.17,18.17,0,0,0-1.85.1Z" transform="translate(-1.33)"/><path d="M181.48,42l.7.22v2.13c0,1.34,0,2.23,0,2.33l-.68.23-.06.19h2.36c.46,0,.93,0,1.45,0a9.53,9.53,0,0,0,.28-1.29h-.16c-.18.21-.53.72-.7.94l-1.7-.06c0-.66,0-1.65,0-2.17.22,0,1.46.09,1.58.09s.45-.39.48-.46l0-.07c-.5,0-1.29.1-2,.1v-2l1.62-.06c.06.18.26.67.34.86l.13-.07c.06-.25.19-.94.21-1.16l0,0a4.62,4.62,0,0,0-.66.09h-3Z" transform="translate(-1.33)"/><path d="M277,105.83l.64.23v2.07c0,1,0,2.15,0,2.35l-.6.24-.07.19h1.74l.06-.18-.37-.3c0-.82,0-1.5,0-2.15h1.75a8,8,0,0,0,1,0c0,.75,0,1.45,0,2.23l-.32.25-.06.2h1.82l.07-.2-.74-.26c0-.1-.06-1.38-.06-2.28v-2.1l.64-.24.06-.2h-1.74l-.06.17.39.28v1.81h-2.78v-1.81l.34-.25.06-.19H277Z" transform="translate(-1.33)"/><path d="M264.31,20.68l0,.1,1.69,0c0,.5-.1,1.18-.13,1.76a3,3,0,0,1-1,.16,2.26,2.26,0,0,1-2.4-2.38,2.28,2.28,0,0,1,2.37-2.42,2.25,2.25,0,0,1,1.1.26,6.36,6.36,0,0,0,.26.9l.15-.07a7.53,7.53,0,0,0,.34-1.38l-.06,0a2.45,2.45,0,0,0-.62.3,2.24,2.24,0,0,0-1.29-.34,2.88,2.88,0,0,0-3.08,2.81,2.69,2.69,0,0,0,2.92,2.76,3.7,3.7,0,0,0,1.3-.3.5.5,0,0,0,.4.27h.06a22.25,22.25,0,0,0,.47-2.74c-.45,0-1.77,0-2.19.06Z" transform="translate(-1.33)"/></g></g></svg>