<?xml version="1.0" encoding="utf-8"?>
<!-- Generator: Adobe Illustrator 21.1.0, SVG Export Plug-In . SVG Version: 6.00 Build 0)  -->
<svg version="1.1" id="Layer_1" xmlns="http://www.w3.org/2000/svg" xmlns:xlink="http://www.w3.org/1999/xlink" x="0px" y="0px"
	 viewBox="0 0 320.7 160.6" style="enable-background:new 0 0 320.7 160.6;" xml:space="preserve">
<style type="text/css">
	.st0{clip-path:url(#SVGID_2_);}
	.st1{fill:#FFFFFF;}
</style>
<title>ci2</title>
<g id="Layer_2">
	<g id="Layer_1-2">
		<g>
			<defs>
				<rect id="SVGID_1_" x="-1.4" y="0" width="322.1" height="164.7"/>
			</defs>
			<use xlink:href="#SVGID_1_"  style="overflow:visible;fill:#FFFFFF;"/>
			<clipPath id="SVGID_2_">
				<use xlink:href="#SVGID_1_"  style="overflow:visible;"/>
			</clipPath>
			<g class="st0">
				<path class="st1" d="M1.8,55.8l-1.1,0c0,0.2,0.1,0.4,0.2,0.5c0.3,0.1,0.6,0.2,0.9,0.2v0.4L2.1,57l0.1-0.5h2c0.3,0,0.6,0,0.9-0.2
					c0.2-0.2,0.3-0.5,0.3-0.8c0-0.4-0.1-0.7-0.4-0.9H4.7l0,0c0.1,0.2,0.2,0.4,0.2,0.7c0,0.1,0,0.3-0.1,0.4c-0.1,0.1-0.2,0.1-0.4,0.1
					H2.1L2,54.7l-0.3-0.2L1.8,55.8z M1.6,58.7c-0.1,0.6,0.4,1.1,1,1.2c0,0,0,0,0,0c0.4,0,0.8-0.3,0.9-0.7c0.1-0.3,0.3-0.6,0.4-0.8
					C4,58.1,4.2,58,4.5,58c0.4,0,0.6,0.4,0.6,0.7c0,0.2,0,0.3-0.1,0.5c-0.2,0.1-0.7,0.3-0.9,0.4l0.1,0.1c0.3,0.1,0.6,0.1,0.9,0.2
					c0.2-0.3,0.3-0.7,0.3-1.2c0-0.5-0.3-1.4-1.1-1.4c-0.4,0-0.7,0.2-0.8,0.6c-0.1,0.3-0.3,0.7-0.5,1c-0.1,0.2-0.2,0.3-0.4,0.3
					c-0.3,0-0.6-0.2-0.6-0.5c0,0,0,0,0-0.1c0-0.2,0-0.3,0.1-0.5c0.2-0.1,0.4-0.2,0.6-0.3v-0.1c-0.3-0.1-0.7-0.2-1-0.2l-0.1,0.1
					c0.1,0.1,0.1,0.3,0.2,0.4C1.7,58.2,1.7,58.4,1.6,58.7L1.6,58.7z M3.1,62.8c-0.3,0-1.2-0.3-1.2-0.9c0-0.5,0.4-0.7,0.9-0.7h0.2
					L3.1,62.8z M3.4,61.3c0-0.3,0-0.5-0.1-0.8c-0.1-0.1-0.2-0.1-0.3-0.1c-0.7-0.1-1.3,0.5-1.4,1.2c0,0.1,0,0.1,0,0.2
					c0,1,0.9,1.8,1.9,1.7c0,0,0.1,0,0.1,0C4.5,63.6,5.3,63,5.4,62c0-0.1,0-0.1,0-0.2c0-0.3-0.1-0.6-0.2-0.8
					c-0.1-0.2-0.3-0.3-0.6-0.5H4.5c0.1,0.2,0.3,0.5,0.4,0.7c0,0.1,0,0.2,0,0.3c0,0.7-0.6,1.3-1.3,1.3c0,0-0.1,0-0.1,0H3.4L3.4,61.3z
					 M2.1,66.5l0.2-0.4c0.4,0,1.7,0,2.5,0l0.2,0.5h0.2c0-0.2,0-0.6,0-0.8c0-0.4,0-0.8,0-1.1H5.1l-0.2,0.8h-2
					c-0.4-0.2-0.7-0.5-0.7-0.7v-0.1c0.2-0.1,0.4-0.2,0.5-0.3l-0.1-0.1C2.4,64.1,2.1,64,1.8,64c-0.1,0.1-0.1,0.2-0.1,0.4
					c0.1,0.5,0.3,0.9,0.8,1.1l0,0c-0.3,0-0.5,0-0.8,0.1c0.1,0.3,0.1,0.6,0.3,0.9L2.1,66.5z M3.1,69.4c-0.3,0-1.2-0.3-1.2-0.9
					c0-0.5,0.4-0.7,0.9-0.7h0.2L3.1,69.4z M3.4,67.9c0-0.3,0-0.5-0.1-0.8c-0.1-0.1-0.2-0.1-0.3-0.1c-0.7-0.1-1.3,0.5-1.4,1.2
					c0,0,0,0.1,0,0.1c0,1,0.9,1.8,1.9,1.7c0,0,0.1,0,0.1,0c0.9,0.1,1.7-0.6,1.8-1.5c0-0.1,0-0.1,0-0.2c0-0.3-0.1-0.6-0.2-0.8
					c-0.2-0.2-0.4-0.3-0.6-0.5H4.5c0.1,0.2,0.3,0.5,0.4,0.7c0,0.1,0,0.2,0,0.3c0,0.7-0.6,1.3-1.3,1.3c0,0-0.1,0-0.1,0H3.4L3.4,67.9z
					 M1.8,71.8l-1.1,0c0,0.2,0.1,0.4,0.2,0.5c0.3,0.1,0.6,0.2,0.9,0.2v0.4L2.1,73l0.1-0.5h2c0.3,0,0.6,0,0.9-0.2
					c0.2-0.2,0.3-0.5,0.3-0.8c0-0.4-0.1-0.7-0.4-0.9H4.7l0,0c0.1,0.2,0.2,0.4,0.2,0.7c0,0.1,0,0.3-0.1,0.4c-0.1,0.1-0.2,0.1-0.4,0.1
					H2.1L2,70.7l-0.3-0.2L1.8,71.8z M3,76.8c1,0,1.7,0,1.9,0l0.2,0.4l0.2,0.1c0-0.3,0-0.6,0-0.8s0-0.6,0-0.8H5.1l-0.2,0.4
					c-0.2,0-1.7,0-2.3,0c-0.3-0.2-0.4-0.5-0.4-0.9c0-0.4,0.3-0.8,0.9-0.8c1,0,1.6,0,1.8,0l0.2,0.3l0.2,0.1c0-0.3,0-0.5,0-0.7
					s0-0.7,0-0.9l-0.2-0.1l-0.2,0.5l-0.2,0.1H2.9c-0.6,0-1.3,0.3-1.3,1.1c0.1,0.5,0.3,0.9,0.6,1.3l0,0H1.7c0.1,0.3,0.2,0.7,0.3,1
					l0.2,0.1l0.2-0.4L3,76.8z M0.2,79.9l0.2-0.6h2.1c1.3,0,2.2,0,2.3,0l0.2,0.6l0.2,0.1c0-0.3,0-0.7,0-1.1s0-0.8,0-1.1l-0.2-0.1
					l-0.2,0.7c-0.1,0-1,0-2.3,0H0.4l-0.2-0.6L0,77.8c0,0.3,0,0.7,0,1s0,0.6,0,0.9L0.2,79.9z"/>
				<path class="st1" d="M167.1,157.2l0.4,0.2v1c0,0.6,0,1.3,0,1.6l-0.5,0.2l-0.1,0.2h1.7l0.1-0.2l-0.6-0.2c0-0.2,0-0.7,0-1.6v-1.6
					c-0.4,0-0.7,0.1-1.1,0.2L167.1,157.2z M167.9,155.2c-0.2,0.1-0.3,0.3-0.4,0.5v0.1c0.1,0.2,0.2,0.3,0.4,0.5h0.1
					c0.2-0.1,0.3-0.3,0.4-0.5v-0.1C168.2,155.5,168.1,155.3,167.9,155.2L167.9,155.2z M163,155.2l-0.6-0.1l0,0c0,0.3,0,1,0,1.3h0.1
					c0.1-0.2,0.4-0.7,0.5-0.9l1.3,0.1v2.3c0,1.8,0,2,0,2.2l-0.9,0.3l-0.1,0.2h2.6l0.1-0.2l-0.9-0.3c0-0.2,0-0.4,0-2.5v-2l1.4-0.1
					c0,0.1,0.3,0.8,0.3,1l0.1-0.1c0.1-0.4,0.2-0.8,0.2-1.3l0,0c-0.2,0-0.4,0.1-0.7,0.1L163,155.2z"/>
				<path class="st1" d="M176.7,158.3c0-0.3,0.3-1.2,0.9-1.2c0.5,0,0.7,0.4,0.7,0.9v0.2H176.7z M178.2,158.6c0.3,0,0.5,0,0.8-0.1
					c0.1-0.1,0.1-0.2,0.1-0.3c0-0.7-0.5-1.3-1.2-1.4c0,0-0.1,0-0.1,0c-1,0-1.8,0.9-1.7,1.9c0,0,0,0,0,0c-0.1,0.9,0.6,1.7,1.5,1.8
					c0.1,0,0.1,0,0.2,0c0.3,0,0.6-0.1,0.8-0.2c0.2-0.2,0.4-0.4,0.5-0.6v-0.1c-0.2,0.1-0.5,0.3-0.7,0.4c-0.1,0-0.2,0-0.3,0
					c-0.7,0-1.3-0.6-1.3-1.3c0,0,0-0.1,0-0.1v-0.1L178.2,158.6z M169.7,158.4c0,0.8,0,1.5,0,1.6l-0.4,0.2v0.2h1.6v-0.2l-0.5-0.2
					c0-0.3,0-1.3,0-2.3c0.2-0.2,0.5-0.4,0.9-0.4c0.7,0,0.8,0.5,0.8,0.9c0,0.7,0,1.3,0,1.8l-0.4,0.2v0.2h1.5l0.1-0.2l-0.6-0.3v-1.6
					c0-0.2,0-0.4,0-0.7c0.2-0.3,0.6-0.4,0.9-0.4c0.6,0,0.7,0.5,0.7,1c0,0.9,0,1.4,0,1.7l-0.4,0.2v0.2h1.6v-0.2l-0.4-0.2
					c-0.1,0-0.1-0.1-0.1-0.2V158c0.1-0.6-0.4-1.1-1-1.2c0,0-0.1,0-0.1,0c-0.5,0.1-1,0.3-1.3,0.7c-0.2-0.4-0.6-0.7-1-0.7
					c-0.5,0.1-0.9,0.3-1.3,0.6l0,0v-0.6c-0.3,0.1-0.7,0.2-1,0.3l-0.1,0.2l0.4,0.2L169.7,158.4z"/>
			</g>
		</g>
		<polyline class="st1" points="18.5,136.5 18.5,3.4 19,3.4 19,136.5 		"/>
		<polygon class="st1" points="16.3,4.3 21.3,4.3 18.8,0 		"/>
		<polyline class="st1" points="18.5,136.2 317.4,136.2 317.4,136.7 18.5,136.7 		"/>
		<polygon class="st1" points="316.4,138.9 320.7,136.4 316.4,133.9 		"/>
		<path class="st1" d="M12.6,115.1c0-0.2,0.1-0.4,0.3-0.4c0.3-0.2,0.7-0.3,1-0.4v1l-0.1,0.2c-0.1,0.2-0.3,0.2-0.5,0.3
			C12.9,115.8,12.6,115.5,12.6,115.1C12.6,115.2,12.6,115.1,12.6,115.1L12.6,115.1z M13.8,114.1c-0.6,0.1-1.1,0.3-1.7,0.6
			c-0.2,0.1-0.3,0.4-0.3,0.7c0,0.5,0.5,0.9,1,0.9c0.4,0,0.7-0.2,1-0.5l0,0c0.1,0.2,0.3,0.5,0.8,0.5c0.1,0,0.3,0,0.4-0.1l0.1-0.1
			c-0.3-0.1-0.5-0.2-0.6-0.5c0-0.5,0-1.2,0-1.8c0.1-0.6-0.4-1.2-1-1.2c0,0-0.1,0-0.1,0c-0.2,0-0.4,0.1-0.6,0.1
			c-0.4,0.1-0.7,0.3-1,0.6c0.1,0.3,0.3,0.5,0.5,0.7h0.1c0.1-0.3,0.1-0.5,0.1-0.8c0.1-0.1,0.3-0.1,0.5-0.1
			C13.4,113,13.8,113.1,13.8,114.1L13.8,114.1z"/>
		<path class="st1" d="M75.1,86.2c0.2-0.1,0.4-0.2,0.6-0.2c0.7,0,1.3,0.6,1.3,1.3c0,0,0,0.1,0,0.1c0.1,0.7-0.4,1.4-1.2,1.5
			c-0.1,0-0.1,0-0.2,0c-0.2,0-0.4-0.1-0.6-0.1L75.1,86.2z M74.4,89.3c0.2-0.1,0.4-0.1,0.6-0.3c0.2,0.1,0.5,0.2,0.8,0.3
			c1.1,0,1.9-0.9,1.9-1.9c0,0,0-0.1,0-0.1c0-0.9-0.7-1.7-1.6-1.7c0,0-0.1,0-0.1,0c-0.3,0.1-0.7,0.2-0.9,0.4c0-0.8,0-1.6,0-2.4
			c-0.4,0-0.8,0.1-1.1,0.3L73.9,84l0.5,0.2c0,0.6,0,1.3,0,2L74.4,89.3z"/>
		<path class="st1" d="M138.2,131.2c0,1,0.7,1.8,1.7,1.8c0.1,0,0.1,0,0.2,0c0.3,0,0.5-0.1,0.8-0.1c0.2-0.2,0.4-0.4,0.5-0.7l-0.1-0.1
			c-0.2,0.1-0.5,0.3-0.7,0.5l-0.2,0.1c-0.8-0.1-1.4-0.9-1.2-1.8c0.1-0.6,0.6-1.1,1.2-1.2c0.1,0,0.2,0,0.3,0.1
			c0.1,0.3,0.2,0.6,0.3,0.9h0.1c0.1-0.3,0.2-0.6,0.3-0.9c-0.3-0.2-0.6-0.3-1-0.3C139.2,129.3,138.3,130.1,138.2,131.2
			C138.2,131.2,138.2,131.3,138.2,131.2L138.2,131.2z"/>
		<path class="st1" d="M243.4,106.1c-0.2,0.1-0.4,0.2-0.6,0.2c-0.7,0-1.3-0.7-1.2-1.4c0,0,0,0,0,0c-0.1-0.8,0.5-1.4,1.3-1.5
			c0,0,0,0,0,0c0.2,0,0.4,0.1,0.6,0.2V106.1z M244,103.5c0-0.9,0-1.7,0-2.5c-0.4,0-0.8,0.1-1.1,0.3l-0.1,0.2l0.5,0.2
			c0,0.6,0,1.1,0,1.7l0,0c-0.2-0.1-0.4-0.2-0.7-0.2c-1.1,0-1.9,0.9-1.9,2c0,0.9,0.7,1.7,1.6,1.8c0,0,0,0,0,0c0.4-0.1,0.7-0.2,1-0.5
			l0,0c0.2,0.3,0.5,0.5,0.8,0.5c0.1,0,0.3,0,0.4-0.1l0.1-0.1c-0.2-0.1-0.5-0.3-0.6-0.5L244,103.5z"/>
		<path class="st1" d="M300.6,129c0-0.3,0.3-1.2,0.9-1.2c0.5,0,0.7,0.4,0.7,0.9v0.2H300.6z M302.1,129.3c0.3,0,0.5,0,0.8-0.1
			c0.1-0.1,0.1-0.2,0.1-0.3c0-0.7-0.5-1.3-1.2-1.4c0,0-0.1,0-0.1,0c-1,0-1.8,0.9-1.7,1.9c0,0,0,0,0,0c-0.1,0.9,0.6,1.7,1.5,1.8
			c0.1,0,0.1,0,0.2,0c0.3,0,0.6-0.1,0.8-0.2c0.2-0.2,0.4-0.4,0.5-0.6v-0.1c-0.2,0.1-0.5,0.3-0.7,0.4c-0.1,0-0.2,0-0.3,0
			c-0.7,0-1.3-0.6-1.3-1.3c0,0,0-0.1,0-0.1v-0.1L302.1,129.3z"/>
		<polygon class="st1" points="19,114.8 60.9,119.7 76.3,92 90.7,121.6 188.9,150.6 241.6,110.8 299.9,137.6 299.5,138.3 
			241.7,111.6 189,151.5 90.2,122.3 76.3,93.6 61.3,120.6 18.5,115.6 18.6,114.8 		"/>
		<polygon class="st1" points="297.7,139.7 302.6,139.3 299.8,135.2 		"/>
	</g>
</g>
</svg>
