<svg xmlns="http://www.w3.org/2000/svg" viewBox="0 0 284.39 150.16"><title>int</title><g id="Layer_2" data-name="Layer 2"><g id="Layer_2-2" data-name="Layer 2"><polygon points="10.97 99.6 22.51 65.04 32.83 93.84 78.91 56.88 112.77 65.04 163.37 36 237.27 38.64 247.67 21.12 266.37 90 268.97 114.96 10.97 114.72 10.97 99.6" fill="#858585"/><path d="M1.76,46.92.6,46.9a.85.85,0,0,0,.24.48,5.79,5.79,0,0,0,.92.22V48l.28.14.1-.54h2A1.27,1.27,0,0,0,5,47.42a1,1,0,0,0,.34-.77A1.17,1.17,0,0,0,5,45.73H4.71l0,0a1.09,1.09,0,0,1,.19.65.64.64,0,0,1-.12.4.56.56,0,0,1-.38.13H2.14L2,45.85l-.29-.15Zm-.1,2.86a1.08,1.08,0,0,0,1,1.19,1,1,0,0,0,.94-.7c.14-.3.26-.56.38-.78a.47.47,0,0,1,.48-.32.67.67,0,0,1,.58.74,1.38,1.38,0,0,1-.08.49c-.22.09-.7.26-.91.38l.06.11a4.8,4.8,0,0,0,.87.18,2.2,2.2,0,0,0,.34-1.16c0-.5-.25-1.41-1.12-1.41a.92.92,0,0,0-.85.61c-.14.27-.32.71-.46,1a.46.46,0,0,1-.44.29A.55.55,0,0,1,2,49.76a.72.72,0,0,1,.14-.47A6.4,6.4,0,0,0,2.71,49l0-.11a4.6,4.6,0,0,0-1-.19l-.06.06a1.84,1.84,0,0,0,.21.42,1.12,1.12,0,0,0-.19.59ZM3.1,53.94c-.34,0-1.17-.26-1.17-.93,0-.46.45-.7.93-.7l.24,0Zm.3-1.51a2.42,2.42,0,0,0-.11-.75A.35.35,0,0,0,3,51.6,1.3,1.3,0,0,0,1.66,53a1.82,1.82,0,0,0,1.93,1.74A1.65,1.65,0,0,0,5.37,53a2.5,2.5,0,0,0-.19-.84,1.67,1.67,0,0,0-.58-.46l-.13,0a5.61,5.61,0,0,0,.43.67.66.66,0,0,1,0,.27A1.3,1.3,0,0,1,3.52,54H3.41ZM2.09,57.68l.23-.42c.39,0,1.71,0,2.54,0l.24.46.18,0c0-.24,0-.58,0-.83,0-.43,0-.83,0-1.14l-.18,0-.23.81h-2c-.38-.15-.69-.49-.69-.73l0-.12a2.73,2.73,0,0,0,.54-.29l-.06-.1a3.33,3.33,0,0,0-.87-.26.54.54,0,0,0-.14.39,1.4,1.4,0,0,0,.78,1.11v0a3.33,3.33,0,0,0-.78.08,3.82,3.82,0,0,0,.27.92Zm1,2.93c-.34,0-1.17-.26-1.17-.93,0-.46.45-.7.93-.7l.24,0Zm.3-1.51a2.42,2.42,0,0,0-.11-.75A.35.35,0,0,0,3,58.27a1.3,1.3,0,0,0-1.38,1.35,1.82,1.82,0,0,0,1.93,1.74,1.65,1.65,0,0,0,1.79-1.7,2.5,2.5,0,0,0-.19-.84,1.67,1.67,0,0,0-.58-.46l-.13,0a5.61,5.61,0,0,0,.43.67.66.66,0,0,1,0,.27,1.3,1.3,0,0,1-1.44,1.28H3.41ZM1.76,62.93.6,62.9a.85.85,0,0,0,.24.48,5.79,5.79,0,0,0,.92.22V64l.28.14.1-.54h2A1.27,1.27,0,0,0,5,63.43a1,1,0,0,0,.34-.77A1.17,1.17,0,0,0,5,61.74H4.71l0,0a1.09,1.09,0,0,1,.19.65.64.64,0,0,1-.12.4.56.56,0,0,1-.38.13H2.14L2,61.86l-.29-.15ZM3,68c1,0,1.74,0,1.86,0l.22.44.18.06c0-.26,0-.56,0-.84s0-.56,0-.77l-.19,0-.21.45c-.17,0-1.7,0-2.3,0a1.39,1.39,0,0,1-.44-.89c0-.41.25-.75.86-.75,1,0,1.62,0,1.85,0l.23.32.2.06c0-.25,0-.49,0-.71s0-.68,0-.9l-.18-.06-.2.47L4.74,65H2.93c-.59,0-1.27.25-1.27,1.08a2,2,0,0,0,.63,1.26v0l-.63,0a4,4,0,0,0,.3,1l.17.06L2.3,68ZM.18,71l.23-.63H2.53c1.33,0,2.19,0,2.32,0l.24.63.19.06c0-.31,0-.7,0-1.1s0-.77,0-1.07l-.19-.06-.24.74c-.14,0-1,0-2.32,0H.42l-.23-.58L0,69.07c0,.33,0,.66,0,1s0,.62,0,.94Z" fill="#858585"/><path d="M153.61,124.53c0-.34.26-1.17.93-1.17.46,0,.7.45.7.93l0,.24Zm1.51.3a2.42,2.42,0,0,0,.75-.11.35.35,0,0,0,.08-.26,1.3,1.3,0,0,0-1.35-1.38,1.82,1.82,0,0,0-1.74,1.93,1.65,1.65,0,0,0,1.7,1.79,2.5,2.5,0,0,0,.84-.19,1.67,1.67,0,0,0,.46-.58l0-.13a5.61,5.61,0,0,0-.67.43.66.66,0,0,1-.27,0,1.3,1.3,0,0,1-1.28-1.44v-.11Zm-8.5-.17c0,.77,0,1.46,0,1.62l-.44.22,0,.19h1.62l0-.19-.48-.22c0-.25,0-1.34,0-2.28a1.48,1.48,0,0,1,.85-.44c.66,0,.77.5.77.91,0,.7,0,1.33,0,1.81l-.38.22,0,.19H150l.06-.18-.47-.24v-1.61a4.46,4.46,0,0,0,0-.66,1.43,1.43,0,0,1,.92-.45c.63,0,.74.53.74,1,0,.9,0,1.45,0,1.74l-.35.24,0,.18h1.64l0-.18-.42-.18c-.1,0-.15-.09-.15-.16v-1.9a1.08,1.08,0,0,0-1.08-1.2,2.14,2.14,0,0,0-1.32.66,1,1,0,0,0-1-.66,2.2,2.2,0,0,0-1.25.65h0l0-.65a4.28,4.28,0,0,0-1,.3l-.06.16.42.18Zm-2.58-1.2.43.21v1c0,.64,0,1.33,0,1.6l-.46.24-.06.18h1.73l.06-.18-.57-.24c0-.22,0-.69,0-1.58v-1.62a6.07,6.07,0,0,0-1.06.23Zm.74-2a1.49,1.49,0,0,0-.43.46l0,.06a1.28,1.28,0,0,0,.39.46l.06,0a1.46,1.46,0,0,0,.42-.46l0-.06a1.06,1.06,0,0,0-.4-.45Zm-4.91,0-.61-.11,0,0c0,.25,0,1,0,1.34l.13,0c.1-.16.38-.72.49-.93l1.31.06V124c0,1.79,0,2,0,2.24l-.85.25-.06.19h2.55l.07-.19-.94-.25c0-.23,0-.45,0-2.5v-2l1.4-.06c0,.14.26.77.33,1l.13-.06a12.14,12.14,0,0,0,.23-1.27l0,0a6.25,6.25,0,0,0-.66.11Z" fill="#858585"/><polygon points="10.97 107.1 22.51 96.78 40.99 99.42 82.03 78.3 115.37 86.22 167.47 47.1 234.47 52.14 245.47 39.18 263.47 93.18 267.57 114.3 10.97 115.02 10.97 107.1" fill="#858585"/><polygon points="10.97 112.4 22.25 107.36 40.73 107.36 81.53 91.52 115.17 104.72 167.17 75.92 222.87 81.2 241.37 73.28 260.07 96.8 267.57 115.04 10.97 115.28 10.97 112.4" fill="#858585"/><polyline points="11.22 3.35 11.22 115.25 10.72 115.25 10.72 3.35" fill="#858585"/><polygon points="10.97 0 8.48 4.32 13.46 4.32 10.97 0" fill="#858585"/><polyline points="281.02 115.25 10.72 115.25 10.72 114.75 281.02 114.75" fill="#858585"/><polygon points="280.07 117.5 284.39 115.01 280.07 112.51 280.07 117.5" fill="#858585"/><rect x="60.57" y="138.8" width="7.92" height="7.92" fill="#858585"/><polygon points="60.57 138.8 60.57 138.44 68.85 138.44 68.85 147.08 60.21 147.08 60.21 138.44 60.57 138.44 60.57 138.8 60.93 138.8 60.93 146.36 68.13 146.36 68.13 139.16 60.57 139.16 60.57 138.8 60.93 138.8 60.57 138.8" fill="#858585"/><rect x="164.47" y="138.8" width="7.92" height="7.92" fill="#858585"/><polygon points="164.47 138.8 164.47 138.55 172.64 138.55 172.64 146.97 164.22 146.97 164.22 138.55 164.47 138.55 164.47 138.8 164.72 138.8 164.72 146.47 172.14 146.47 172.14 139.05 164.47 139.05 164.47 138.8 164.72 138.8 164.47 138.8" fill="#858585"/><rect x="118.47" y="138.8" width="7.92" height="7.92" fill="#858585"/><polygon points="118.47 138.8 118.47 138.55 126.64 138.55 126.64 146.97 118.22 146.97 118.22 138.55 118.47 138.55 118.47 138.8 118.72 138.8 118.72 146.47 126.14 146.47 126.14 139.05 118.47 139.05 118.47 138.8 118.72 138.8 118.47 138.8" fill="#858585"/><path d="M83.53,142.06l.45.19c0,.47,0,1.69,0,2.33a2.77,2.77,0,0,1-.91,2.48v.07l.21.11a3.39,3.39,0,0,0,1.06-1.31,3,3,0,0,0,.3-1.34v-2.91a5.77,5.77,0,0,0-1.1.23Zm.76-2a1.7,1.7,0,0,0-.43.46l0,.06a1.37,1.37,0,0,0,.4.46l.06,0a1.55,1.55,0,0,0,.42-.46l0-.06a1.1,1.1,0,0,0-.39-.45ZM81.17,142c.7,0,1,.87,1,1.62s-.22,1.54-1,1.54-1.09-.85-1.09-1.6.33-1.56,1-1.56Zm0-.28a1.87,1.87,0,0,0-1.82,1.9,1.8,1.8,0,1,0,1.82-1.9Zm-4.83.43.42.23c0,.39,0,1.71,0,2.54l-.46.24,0,.18h2l0-.18-.81-.23v-2c.15-.38.49-.69.73-.69l.12,0a2.73,2.73,0,0,0,.29.54l.1-.06a3.33,3.33,0,0,0,.26-.87.54.54,0,0,0-.39-.14,1.4,1.4,0,0,0-1.11.78h0a3.33,3.33,0,0,0-.08-.78,3.82,3.82,0,0,0-.92.27Zm-4.56-1.83.65.16v2c0,1.84,0,2.23,0,2.39l-.56.26,0,.18H74l.07-.19-.88-.26c0-.14,0-.5,0-2.41v-2.17c1,0,1.75.28,1.75,1.3A1.29,1.29,0,0,1,73.56,143l.08.2a.92.92,0,0,0,.32,0,1.65,1.65,0,0,0,1.74-1.65,1.4,1.4,0,0,0-.66-1.23,2.7,2.7,0,0,0-1.51-.34c-.43,0-1.08.06-1.67.12Z" fill="#858585"/><path d="M89.34,143.6a1.75,1.75,0,0,0,1.85,1.81,2.73,2.73,0,0,0,.75-.13,1.85,1.85,0,0,0,.51-.67l-.06-.11a3.66,3.66,0,0,0-.66.46l-.22.06a1.53,1.53,0,0,1-.07-3,.59.59,0,0,1,.3.06,6.24,6.24,0,0,0,.26.86l.12,0a4,4,0,0,0,.3-.86,1.73,1.73,0,0,0-1-.3,1.93,1.93,0,0,0-2.05,1.9Zm-3-.46c0-.34.26-1.17.93-1.17.46,0,.7.45.7.93l0,.24Zm1.51.3a2.42,2.42,0,0,0,.75-.11.35.35,0,0,0,.08-.26,1.3,1.3,0,0,0-1.35-1.38,1.82,1.82,0,0,0-1.74,1.93,1.65,1.65,0,0,0,1.7,1.79,2.5,2.5,0,0,0,.84-.19,1.67,1.67,0,0,0,.46-.58l0-.13a5.61,5.61,0,0,0-.67.43.66.66,0,0,1-.27,0,1.3,1.3,0,0,1-1.28-1.44v-.11Z" fill="#858585"/><path d="M102.48,143c0,1,0,1.74,0,1.86l-.44.22-.06.18h1.61l0-.19-.45-.21c0-.17,0-1.7,0-2.3a1.39,1.39,0,0,1,.89-.44c.41,0,.75.25.75.86,0,1,0,1.62,0,1.85l-.32.23-.06.2H106l.06-.18-.47-.2-.11-.15V143c0-.59-.25-1.27-1.08-1.27a2,2,0,0,0-1.26.63h0l0-.63a4,4,0,0,0-1,.3l-.06.17.42.18ZM99.61,142c.7,0,1,.87,1,1.62s-.22,1.54-1,1.54-1.09-.85-1.09-1.6.33-1.56,1-1.56Zm0-.28a1.87,1.87,0,0,0-1.82,1.9,1.8,1.8,0,1,0,1.82-1.9Zm-3.94.38.43.21v1c0,.64,0,1.33,0,1.6l-.46.24-.06.18h1.73l.06-.18-.57-.24c0-.22,0-.69,0-1.58v-1.62a6.07,6.07,0,0,0-1.06.23Zm.74-2a1.49,1.49,0,0,0-.43.46l0,.06a1.28,1.28,0,0,0,.39.46l.06,0a1.46,1.46,0,0,0,.42-.46l0-.06a1.06,1.06,0,0,0-.4-.45Zm-2.37,1.75,0-1.16a.85.85,0,0,0-.48.24,5.79,5.79,0,0,0-.22.92H93l-.14.28.54.1v2a1.27,1.27,0,0,0,.18.86,1,1,0,0,0,.77.34,1.17,1.17,0,0,0,.93-.42v-.25l0,0a1.09,1.09,0,0,1-.65.19.64.64,0,0,1-.4-.12.56.56,0,0,1-.13-.38c0-1,0-1.87,0-2.25l1.07-.1.15-.29Z" fill="#858585"/><path d="M135.77,142c.7,0,1,.87,1,1.62s-.22,1.54-1,1.54-1.09-.85-1.09-1.6.33-1.56,1-1.56Zm0-.28a1.87,1.87,0,0,0-1.82,1.9,1.8,1.8,0,1,0,1.82-1.9Zm-6.14-1.4.65.16v2c0,1.84,0,2.23,0,2.39l-.56.26,0,.18h2.21l.07-.19-.88-.26c0-.14,0-.5,0-2.41v-2.17c1,0,1.75.28,1.75,1.3a1.29,1.29,0,0,1-1.35,1.37l.08.2a.92.92,0,0,0,.32,0,1.65,1.65,0,0,0,1.74-1.65,1.4,1.4,0,0,0-.66-1.23,2.7,2.7,0,0,0-1.51-.34c-.43,0-1.08.06-1.67.12Z" fill="#858585"/><path d="M143,141.79l0-1.16a.85.85,0,0,0-.48.24,5.79,5.79,0,0,0-.22.92h-.42l-.14.28.54.1v2a1.27,1.27,0,0,0,.18.86,1,1,0,0,0,.77.34,1.17,1.17,0,0,0,.93-.42v-.25l0,0a1.09,1.09,0,0,1-.65.19.64.64,0,0,1-.4-.12.56.56,0,0,1-.13-.38c0-1,0-1.87,0-2.25l1.07-.1.15-.29Zm-4,1.34c0-.34.26-1.17.93-1.17.46,0,.7.45.7.93l0,.24Zm1.51.3a2.42,2.42,0,0,0,.75-.11.35.35,0,0,0,.08-.26,1.3,1.3,0,0,0-1.35-1.38,1.82,1.82,0,0,0-1.73,1.93,1.65,1.65,0,0,0,1.7,1.79,2.5,2.5,0,0,0,.84-.19,1.67,1.67,0,0,0,.46-.58l0-.13a5.61,5.61,0,0,0-.67.43.66.66,0,0,1-.27,0,1.3,1.3,0,0,1-1.28-1.44v-.11Z" fill="#858585"/><path d="M150.12,142l.37.21c-.14.45-.48,1.38-.79,2.19h0c-.43-1.18-.7-1.89-.79-2.2l.26-.2.06-.19h-1.51l-.07.18c.35.13.45.19.56.35.32.75,1.06,2.77,1.14,2.92-.12.27-.3.67-.41.88a6.69,6.69,0,0,0-.7.89.84.84,0,0,0,.58.26l.18,0c.07-.27.14-.6.21-.9.74-1.76,1.38-3.37,1.69-4a1.47,1.47,0,0,1,.49-.34l0-.18h-1.22Zm-5.45.14.42.23c0,.39,0,1.71,0,2.54l-.46.24,0,.18h2l0-.18-.81-.23v-2c.15-.38.49-.69.73-.69l.12,0a2.73,2.73,0,0,0,.29.54l.1-.06a3.33,3.33,0,0,0,.26-.87.54.54,0,0,0-.39-.14,1.4,1.4,0,0,0-1.11.78h0a3.32,3.32,0,0,0-.08-.78,3.82,3.82,0,0,0-.92.27Z" fill="#858585"/><path d="M230.14,142l0-1.16a.85.85,0,0,0-.48.24,5.79,5.79,0,0,0-.22.92h-.42l-.14.28.54.1v2a1.27,1.27,0,0,0,.18.86,1,1,0,0,0,.77.34,1.17,1.17,0,0,0,.93-.42V145l0,0a1.09,1.09,0,0,1-.65.19.64.64,0,0,1-.4-.12.56.56,0,0,1-.13-.38c0-1,0-1.87,0-2.25l1.07-.1.15-.29Zm-2.87-.1a1.08,1.08,0,0,0-1.19,1,1,1,0,0,0,.7.94c.3.14.56.26.78.38a.47.47,0,0,1,.32.48.67.67,0,0,1-.74.58,1.38,1.38,0,0,1-.49-.08c-.09-.22-.26-.7-.38-.91l-.11.06a4.8,4.8,0,0,0-.18.87,2.2,2.2,0,0,0,1.16.34c.5,0,1.41-.25,1.41-1.12a.92.92,0,0,0-.61-.85c-.27-.14-.71-.32-1-.46a.46.46,0,0,1-.29-.44.55.55,0,0,1,.61-.55.72.72,0,0,1,.47.14,6.4,6.4,0,0,0,.28.62l.11,0a4.6,4.6,0,0,0,.19-1l-.06-.06a1.84,1.84,0,0,0-.42.21,1.12,1.12,0,0,0-.59-.19Zm-4.17,1.45c0-.34.26-1.17.93-1.17.46,0,.7.45.7.93l0,.24Zm1.51.3a2.42,2.42,0,0,0,.75-.11.35.35,0,0,0,.08-.26,1.3,1.3,0,0,0-1.35-1.38,1.82,1.82,0,0,0-1.74,1.93,1.65,1.65,0,0,0,1.7,1.79,2.5,2.5,0,0,0,.84-.19,1.67,1.67,0,0,0,.46-.58l0-.13a5.61,5.61,0,0,0-.67.43.66.66,0,0,1-.27,0,1.3,1.3,0,0,1-1.28-1.44v-.11Zm-5.25-1.32.42.23c0,.39,0,1.71,0,2.54l-.46.24,0,.18h2l0-.18-.81-.23v-2c.15-.38.49-.69.73-.69l.12,0a2.73,2.73,0,0,0,.29.54l.1-.06a3.33,3.33,0,0,0,.26-.87.54.54,0,0,0-.39-.14,1.4,1.4,0,0,0-1.11.78h0a3.33,3.33,0,0,0-.08-.78,3.82,3.82,0,0,0-.92.27Zm-2.94,1c0-.34.26-1.17.93-1.17.46,0,.7.45.7.93l0,.24Zm1.51.3a2.42,2.42,0,0,0,.75-.11.35.35,0,0,0,.08-.26,1.3,1.3,0,0,0-1.35-1.38,1.82,1.82,0,0,0-1.74,1.93,1.65,1.65,0,0,0,1.7,1.79,2.5,2.5,0,0,0,.84-.19,1.67,1.67,0,0,0,.46-.58l0-.13a5.61,5.61,0,0,0-.67.43.66.66,0,0,1-.27,0,1.3,1.3,0,0,1-1.28-1.44v-.11ZM214.09,142l0-1.16a.85.85,0,0,0-.48.24,5.79,5.79,0,0,0-.22.92H213l-.14.28.54.1v2a1.27,1.27,0,0,0,.18.86,1,1,0,0,0,.77.34,1.17,1.17,0,0,0,.93-.42V145l0,0a1.09,1.09,0,0,1-.65.19.64.64,0,0,1-.4-.12.56.56,0,0,1-.13-.38c0-1,0-1.87,0-2.25l1.07-.1.15-.29Zm-5,1.25c0,1,0,1.74,0,1.86l-.44.22-.06.18h1.61l0-.19-.45-.21c0-.17,0-1.7,0-2.3a1.39,1.39,0,0,1,.89-.44c.41,0,.75.25.75.86,0,1,0,1.62,0,1.85l-.32.23-.06.2h1.61l.06-.18-.47-.2L212,145v-1.82c0-.59-.25-1.27-1.08-1.27a2,2,0,0,0-1.26.63h0l0-.63a4,4,0,0,0-1,.3l-.06.17.42.18Zm-2.58-1,.43.21v1c0,.64,0,1.33,0,1.6l-.46.24-.06.18h1.73l.06-.18-.57-.24c0-.22,0-.69,0-1.58v-1.62a6.07,6.07,0,0,0-1.06.23Zm.74-2a1.49,1.49,0,0,0-.43.46l0,.06a1.28,1.28,0,0,0,.39.46l.06,0a1.46,1.46,0,0,0,.42-.46l0-.06a1.06,1.06,0,0,0-.4-.45ZM203,142l0-1.16a.85.85,0,0,0-.48.24,5.79,5.79,0,0,0-.22.92h-.42l-.14.28.54.1v2a1.27,1.27,0,0,0,.18.86,1,1,0,0,0,.77.34,1.17,1.17,0,0,0,.93-.42V145l0,0a1.09,1.09,0,0,1-.65.19.64.64,0,0,1-.4-.12.56.56,0,0,1-.13-.38c0-1,0-1.87,0-2.25l1.07-.1.15-.29Zm-5,1.25c0,1,0,1.74,0,1.86l-.44.22-.06.18H199l0-.19-.45-.21c0-.17,0-1.7,0-2.3a1.39,1.39,0,0,1,.89-.44c.41,0,.75.25.75.86,0,1,0,1.62,0,1.85l-.32.23-.06.2h1.61l.06-.18-.47-.2-.11-.15v-1.82c0-.59-.25-1.27-1.08-1.27a2,2,0,0,0-1.26.63h0l0-.63a4,4,0,0,0-1,.3l-.06.17.42.18Zm-3.35.1c0-.34.26-1.17.93-1.17.46,0,.7.45.7.93l0,.24Zm1.51.3a2.42,2.42,0,0,0,.75-.11.35.35,0,0,0,.08-.26,1.3,1.3,0,0,0-1.35-1.38,1.82,1.82,0,0,0-1.73,1.93,1.65,1.65,0,0,0,1.7,1.79,2.5,2.5,0,0,0,.84-.19,1.67,1.67,0,0,0,.46-.58l0-.13a5.61,5.61,0,0,0-.67.43.66.66,0,0,1-.27,0,1.3,1.3,0,0,1-1.28-1.44v-.11Zm-5.25-1.32.42.23c0,.39,0,1.71,0,2.54l-.46.24,0,.18h2l0-.18-.81-.23v-2c.15-.38.49-.69.73-.69l.12,0a2.73,2.73,0,0,0,.29.54l.1-.06a3.33,3.33,0,0,0,.26-.87.54.54,0,0,0-.39-.14,1.4,1.4,0,0,0-1.11.78h0a3.32,3.32,0,0,0-.08-.78,3.82,3.82,0,0,0-.92.27Zm-2.94,1c0-.34.26-1.17.93-1.17.46,0,.7.45.7.93l0,.24Zm1.51.3a2.42,2.42,0,0,0,.75-.11.35.35,0,0,0,.08-.26,1.3,1.3,0,0,0-1.35-1.38,1.82,1.82,0,0,0-1.74,1.93,1.65,1.65,0,0,0,1.7,1.79,2.5,2.5,0,0,0,.84-.19,1.67,1.67,0,0,0,.46-.58l0-.13a5.61,5.61,0,0,0-.67.43.66.66,0,0,1-.27,0,1.3,1.3,0,0,1-1.28-1.44v-.11Zm-3.25-.54a1.18,1.18,0,0,0-1.19-1.21,1.74,1.74,0,0,0-1.11.48h0c0-.86,0-1.77,0-2.53a8.15,8.15,0,0,0-1.14.26l0,.15.46.21c0,.87,0,1.78,0,2.79s0,1.75,0,1.85l-.43.24-.06.18.84,0,.88,0,.06-.18-.58-.25c0-.14,0-1.66,0-2.45a1.23,1.23,0,0,1,.78-.29c.38,0,.86.16.86,1.07a18,18,0,0,1-.07,2,9.24,9.24,0,0,0,1.27.06l.06-.18-.42-.21c-.12,0-.16-.08-.16-.22Zm-7.38.14c0,1,0,1.74,0,1.86l-.44.22-.06.18h1.61l0-.19-.45-.21c0-.17,0-1.7,0-2.3a1.39,1.39,0,0,1,.89-.44c.41,0,.75.25.75.86,0,1,0,1.62,0,1.85l-.32.23-.06.2h1.61l.06-.18-.47-.2-.11-.15v-1.82c0-.59-.25-1.27-1.08-1.27a2,2,0,0,0-1.26.63h0l0-.63a4,4,0,0,0-1,.3l-.06.17.42.18Zm-3.1-2.82.63.23v2.11c0,1.33,0,2.19,0,2.32l-.63.24-.06.19h2.17l.06-.19-.74-.24c0-.14,0-1,0-2.32v-2.1l.58-.23.06-.19h-1.93Z" fill="#858585"/><polygon points="237.47 149.8 237.47 150.16 57.21 150.16 57.21 135.13 237.83 135.13 237.83 150.16 237.47 150.16 237.47 149.8 237.11 149.8 237.11 135.85 57.93 135.85 57.93 149.44 237.47 149.44 237.47 149.8 237.11 149.8 237.47 149.8" fill="#858585"/><polygon points="10.97 99.6 22.51 65.04 32.83 93.84 78.91 56.88 112.77 65.04 163.37 36 237.27 38.64 247.67 21.12 266.37 90 268.97 114.96 10.97 114.72 10.97 99.6" fill-rule="evenodd"/><path d="M1.76,46.92.6,46.9a.85.85,0,0,0,.24.48,5.79,5.79,0,0,0,.92.22V48l.28.14.1-.54h2A1.27,1.27,0,0,0,5,47.42a1,1,0,0,0,.34-.77A1.17,1.17,0,0,0,5,45.73H4.71l0,0a1.09,1.09,0,0,1,.19.65.64.64,0,0,1-.12.4.56.56,0,0,1-.38.13H2.14L2,45.85l-.29-.15Zm-.1,2.86a1.08,1.08,0,0,0,1,1.19,1,1,0,0,0,.94-.7c.14-.3.26-.56.38-.78a.47.47,0,0,1,.48-.32.67.67,0,0,1,.58.74,1.38,1.38,0,0,1-.08.49c-.22.09-.7.26-.91.38l.06.11a4.8,4.8,0,0,0,.87.18,2.2,2.2,0,0,0,.34-1.16c0-.5-.25-1.41-1.12-1.41a.92.92,0,0,0-.85.61c-.14.27-.32.71-.46,1a.46.46,0,0,1-.44.29A.55.55,0,0,1,2,49.76a.72.72,0,0,1,.14-.47A6.4,6.4,0,0,0,2.71,49l0-.11a4.6,4.6,0,0,0-1-.19l-.06.06a1.84,1.84,0,0,0,.21.42,1.12,1.12,0,0,0-.19.59ZM3.1,53.94c-.34,0-1.17-.26-1.17-.93,0-.46.45-.7.93-.7l.24,0Zm.3-1.51a2.42,2.42,0,0,0-.11-.75A.35.35,0,0,0,3,51.6,1.3,1.3,0,0,0,1.66,53a1.82,1.82,0,0,0,1.93,1.74A1.65,1.65,0,0,0,5.37,53a2.5,2.5,0,0,0-.19-.84,1.67,1.67,0,0,0-.58-.46l-.13,0a5.61,5.61,0,0,0,.43.67.66.66,0,0,1,0,.27A1.3,1.3,0,0,1,3.52,54H3.41ZM2.09,57.68l.23-.42c.39,0,1.71,0,2.54,0l.24.46.18,0c0-.24,0-.58,0-.83,0-.43,0-.83,0-1.14l-.18,0-.23.81h-2c-.38-.15-.69-.49-.69-.73l0-.12a2.73,2.73,0,0,0,.54-.29l-.06-.1a3.33,3.33,0,0,0-.87-.26.54.54,0,0,0-.14.39,1.4,1.4,0,0,0,.78,1.11v0a3.33,3.33,0,0,0-.78.08,3.82,3.82,0,0,0,.27.92Zm1,2.93c-.34,0-1.17-.26-1.17-.93,0-.46.45-.7.93-.7l.24,0Zm.3-1.51a2.42,2.42,0,0,0-.11-.75A.35.35,0,0,0,3,58.27a1.3,1.3,0,0,0-1.38,1.35,1.82,1.82,0,0,0,1.93,1.74,1.65,1.65,0,0,0,1.79-1.7,2.5,2.5,0,0,0-.19-.84,1.67,1.67,0,0,0-.58-.46l-.13,0a5.61,5.61,0,0,0,.43.67.66.66,0,0,1,0,.27,1.3,1.3,0,0,1-1.44,1.28H3.41ZM1.76,62.93.6,62.9a.85.85,0,0,0,.24.48,5.79,5.79,0,0,0,.92.22V64l.28.14.1-.54h2A1.27,1.27,0,0,0,5,63.43a1,1,0,0,0,.34-.77A1.17,1.17,0,0,0,5,61.74H4.71l0,0a1.09,1.09,0,0,1,.19.65.64.64,0,0,1-.12.4.56.56,0,0,1-.38.13H2.14L2,61.86l-.29-.15ZM3,68c1,0,1.74,0,1.86,0l.22.44.18.06c0-.26,0-.56,0-.84s0-.56,0-.77l-.19,0-.21.45c-.17,0-1.7,0-2.3,0a1.39,1.39,0,0,1-.44-.89c0-.41.25-.75.86-.75,1,0,1.62,0,1.85,0l.23.32.2.06c0-.25,0-.49,0-.71s0-.68,0-.9l-.18-.06-.2.47L4.74,65H2.93c-.59,0-1.27.25-1.27,1.08a2,2,0,0,0,.63,1.26v0l-.63,0a4,4,0,0,0,.3,1l.17.06L2.3,68ZM.18,71l.23-.63H2.53c1.33,0,2.19,0,2.32,0l.24.63.19.06c0-.31,0-.7,0-1.1s0-.77,0-1.07l-.19-.06-.24.74c-.14,0-1,0-2.32,0H.42l-.23-.58L0,69.07c0,.33,0,.66,0,1s0,.62,0,.94Z" fill="#fff"/><path d="M153.61,124.53c0-.34.26-1.17.93-1.17.46,0,.7.45.7.93l0,.24Zm1.51.3a2.42,2.42,0,0,0,.75-.11.35.35,0,0,0,.08-.26,1.3,1.3,0,0,0-1.35-1.38,1.82,1.82,0,0,0-1.74,1.93,1.65,1.65,0,0,0,1.7,1.79,2.5,2.5,0,0,0,.84-.19,1.67,1.67,0,0,0,.46-.58l0-.13a5.61,5.61,0,0,0-.67.43.66.66,0,0,1-.27,0,1.3,1.3,0,0,1-1.28-1.44v-.11Zm-8.5-.17c0,.77,0,1.46,0,1.62l-.44.22,0,.19h1.62l0-.19-.48-.22c0-.25,0-1.34,0-2.28a1.48,1.48,0,0,1,.85-.44c.66,0,.77.5.77.91,0,.7,0,1.33,0,1.81l-.38.22,0,.19H150l.06-.18-.47-.24v-1.61a4.46,4.46,0,0,0,0-.66,1.43,1.43,0,0,1,.92-.45c.63,0,.74.53.74,1,0,.9,0,1.45,0,1.74l-.35.24,0,.18h1.64l0-.18-.42-.18c-.1,0-.15-.09-.15-.16v-1.9a1.08,1.08,0,0,0-1.08-1.2,2.14,2.14,0,0,0-1.32.66,1,1,0,0,0-1-.66,2.2,2.2,0,0,0-1.25.65h0l0-.65a4.28,4.28,0,0,0-1,.3l-.06.16.42.18Zm-2.58-1.2.43.21v1c0,.64,0,1.33,0,1.6l-.46.24-.06.18h1.73l.06-.18-.57-.24c0-.22,0-.69,0-1.58v-1.62a6.07,6.07,0,0,0-1.06.23Zm.74-2a1.49,1.49,0,0,0-.43.46l0,.06a1.28,1.28,0,0,0,.39.46l.06,0a1.46,1.46,0,0,0,.42-.46l0-.06a1.06,1.06,0,0,0-.4-.45Zm-4.91,0-.61-.11,0,0c0,.25,0,1,0,1.34l.13,0c.1-.16.38-.72.49-.93l1.31.06V124c0,1.79,0,2,0,2.24l-.85.25-.06.19h2.55l.07-.19-.94-.25c0-.23,0-.45,0-2.5v-2l1.4-.06c0,.14.26.77.33,1l.13-.06a12.14,12.14,0,0,0,.23-1.27l0,0a6.25,6.25,0,0,0-.66.11Z" fill="#fff"/><polygon points="10.97 107.1 22.51 96.78 40.99 99.42 82.03 78.3 115.37 86.22 167.47 47.1 234.47 52.14 245.47 39.18 263.47 93.18 267.57 114.3 10.97 115.02 10.97 107.1" fill="#e6e6e6" fill-rule="evenodd"/><polygon points="10.97 112.4 22.25 107.36 40.73 107.36 81.53 91.52 115.17 104.72 167.17 75.92 222.87 81.2 241.37 73.28 260.07 96.8 267.57 115.04 10.97 115.28 10.97 112.4" fill="#999" fill-rule="evenodd"/><polyline points="11.22 3.35 11.22 115.25 10.72 115.25 10.72 3.35" fill="#fff"/><polygon points="10.97 0 8.48 4.32 13.46 4.32 10.97 0" fill="#fff"/><polyline points="281.02 115.25 10.72 115.25 10.72 114.75 281.02 114.75" fill="#fff"/><polygon points="280.07 117.5 284.39 115.01 280.07 112.51 280.07 117.5" fill="#fff"/><rect x="60.57" y="138.8" width="7.92" height="7.92"/><polygon points="60.57 138.8 60.57 138.44 68.85 138.44 68.85 147.08 60.21 147.08 60.21 138.44 60.57 138.44 60.57 138.8 60.93 138.8 60.93 146.36 68.13 146.36 68.13 139.16 60.57 139.16 60.57 138.8 60.93 138.8 60.57 138.8"/><rect x="164.47" y="138.8" width="7.92" height="7.92" fill="#797979"/><polygon points="164.47 138.8 164.47 138.55 172.64 138.55 172.64 146.97 164.22 146.97 164.22 138.55 164.47 138.55 164.47 138.8 164.72 138.8 164.72 146.47 172.14 146.47 172.14 139.05 164.47 139.05 164.47 138.8 164.72 138.8 164.47 138.8"/><rect x="118.47" y="138.8" width="7.92" height="7.92" fill="#e6e6e6"/><polygon points="118.47 138.8 118.47 138.55 126.64 138.55 126.64 146.97 118.22 146.97 118.22 138.55 118.47 138.55 118.47 138.8 118.72 138.8 118.72 146.47 126.14 146.47 126.14 139.05 118.47 139.05 118.47 138.8 118.72 138.8 118.47 138.8"/><path d="M83.53,142.06l.45.19c0,.47,0,1.69,0,2.33a2.77,2.77,0,0,1-.91,2.48v.07l.21.11a3.39,3.39,0,0,0,1.06-1.31,3,3,0,0,0,.3-1.34v-2.91a5.77,5.77,0,0,0-1.1.23Zm.76-2a1.7,1.7,0,0,0-.43.46l0,.06a1.37,1.37,0,0,0,.4.46l.06,0a1.55,1.55,0,0,0,.42-.46l0-.06a1.1,1.1,0,0,0-.39-.45ZM81.17,142c.7,0,1,.87,1,1.62s-.22,1.54-1,1.54-1.09-.85-1.09-1.6.33-1.56,1-1.56Zm0-.28a1.87,1.87,0,0,0-1.82,1.9,1.8,1.8,0,1,0,1.82-1.9Zm-4.83.43.42.23c0,.39,0,1.71,0,2.54l-.46.24,0,.18h2l0-.18-.81-.23v-2c.15-.38.49-.69.73-.69l.12,0a2.73,2.73,0,0,0,.29.54l.1-.06a3.33,3.33,0,0,0,.26-.87.54.54,0,0,0-.39-.14,1.4,1.4,0,0,0-1.11.78h0a3.33,3.33,0,0,0-.08-.78,3.82,3.82,0,0,0-.92.27Zm-4.56-1.83.65.16v2c0,1.84,0,2.23,0,2.39l-.56.26,0,.18H74l.07-.19-.88-.26c0-.14,0-.5,0-2.41v-2.17c1,0,1.75.28,1.75,1.3A1.29,1.29,0,0,1,73.56,143l.08.2a.92.92,0,0,0,.32,0,1.65,1.65,0,0,0,1.74-1.65,1.4,1.4,0,0,0-.66-1.23,2.7,2.7,0,0,0-1.51-.34c-.43,0-1.08.06-1.67.12Z" fill="#fff"/><path d="M89.34,143.6a1.75,1.75,0,0,0,1.85,1.81,2.73,2.73,0,0,0,.75-.13,1.85,1.85,0,0,0,.51-.67l-.06-.11a3.66,3.66,0,0,0-.66.46l-.22.06a1.53,1.53,0,0,1-.07-3,.59.59,0,0,1,.3.06,6.24,6.24,0,0,0,.26.86l.12,0a4,4,0,0,0,.3-.86,1.73,1.73,0,0,0-1-.3,1.93,1.93,0,0,0-2.05,1.9Zm-3-.46c0-.34.26-1.17.93-1.17.46,0,.7.45.7.93l0,.24Zm1.51.3a2.42,2.42,0,0,0,.75-.11.35.35,0,0,0,.08-.26,1.3,1.3,0,0,0-1.35-1.38,1.82,1.82,0,0,0-1.74,1.93,1.65,1.65,0,0,0,1.7,1.79,2.5,2.5,0,0,0,.84-.19,1.67,1.67,0,0,0,.46-.58l0-.13a5.61,5.61,0,0,0-.67.43.66.66,0,0,1-.27,0,1.3,1.3,0,0,1-1.28-1.44v-.11Z" fill="#fff"/><path d="M102.48,143c0,1,0,1.74,0,1.86l-.44.22-.06.18h1.61l0-.19-.45-.21c0-.17,0-1.7,0-2.3a1.39,1.39,0,0,1,.89-.44c.41,0,.75.25.75.86,0,1,0,1.62,0,1.85l-.32.23-.06.2H106l.06-.18-.47-.2-.11-.15V143c0-.59-.25-1.27-1.08-1.27a2,2,0,0,0-1.26.63h0l0-.63a4,4,0,0,0-1,.3l-.06.17.42.18ZM99.61,142c.7,0,1,.87,1,1.62s-.22,1.54-1,1.54-1.09-.85-1.09-1.6.33-1.56,1-1.56Zm0-.28a1.87,1.87,0,0,0-1.82,1.9,1.8,1.8,0,1,0,1.82-1.9Zm-3.94.38.43.21v1c0,.64,0,1.33,0,1.6l-.46.24-.06.18h1.73l.06-.18-.57-.24c0-.22,0-.69,0-1.58v-1.62a6.07,6.07,0,0,0-1.06.23Zm.74-2a1.49,1.49,0,0,0-.43.46l0,.06a1.28,1.28,0,0,0,.39.46l.06,0a1.46,1.46,0,0,0,.42-.46l0-.06a1.06,1.06,0,0,0-.4-.45Zm-2.37,1.75,0-1.16a.85.85,0,0,0-.48.24,5.79,5.79,0,0,0-.22.92H93l-.14.28.54.1v2a1.27,1.27,0,0,0,.18.86,1,1,0,0,0,.77.34,1.17,1.17,0,0,0,.93-.42v-.25l0,0a1.09,1.09,0,0,1-.65.19.64.64,0,0,1-.4-.12.56.56,0,0,1-.13-.38c0-1,0-1.87,0-2.25l1.07-.1.15-.29Z" fill="#fff"/><path d="M135.77,142c.7,0,1,.87,1,1.62s-.22,1.54-1,1.54-1.09-.85-1.09-1.6.33-1.56,1-1.56Zm0-.28a1.87,1.87,0,0,0-1.82,1.9,1.8,1.8,0,1,0,1.82-1.9Zm-6.14-1.4.65.16v2c0,1.84,0,2.23,0,2.39l-.56.26,0,.18h2.21l.07-.19-.88-.26c0-.14,0-.5,0-2.41v-2.17c1,0,1.75.28,1.75,1.3a1.29,1.29,0,0,1-1.35,1.37l.08.2a.92.92,0,0,0,.32,0,1.65,1.65,0,0,0,1.74-1.65,1.4,1.4,0,0,0-.66-1.23,2.7,2.7,0,0,0-1.51-.34c-.43,0-1.08.06-1.67.12Z" fill="#fff"/><path d="M143,141.79l0-1.16a.85.85,0,0,0-.48.24,5.79,5.79,0,0,0-.22.92h-.42l-.14.28.54.1v2a1.27,1.27,0,0,0,.18.86,1,1,0,0,0,.77.34,1.17,1.17,0,0,0,.93-.42v-.25l0,0a1.09,1.09,0,0,1-.65.19.64.64,0,0,1-.4-.12.56.56,0,0,1-.13-.38c0-1,0-1.87,0-2.25l1.07-.1.15-.29Zm-4,1.34c0-.34.26-1.17.93-1.17.46,0,.7.45.7.93l0,.24Zm1.51.3a2.42,2.42,0,0,0,.75-.11.35.35,0,0,0,.08-.26,1.3,1.3,0,0,0-1.35-1.38,1.82,1.82,0,0,0-1.73,1.93,1.65,1.65,0,0,0,1.7,1.79,2.5,2.5,0,0,0,.84-.19,1.67,1.67,0,0,0,.46-.58l0-.13a5.61,5.61,0,0,0-.67.43.66.66,0,0,1-.27,0,1.3,1.3,0,0,1-1.28-1.44v-.11Z" fill="#fff"/><path d="M150.12,142l.37.21c-.14.45-.48,1.38-.79,2.19h0c-.43-1.18-.7-1.89-.79-2.2l.26-.2.06-.19h-1.51l-.07.18c.35.13.45.19.56.35.32.75,1.06,2.77,1.14,2.92-.12.27-.3.67-.41.88a6.69,6.69,0,0,0-.7.89.84.84,0,0,0,.58.26l.18,0c.07-.27.14-.6.21-.9.74-1.76,1.38-3.37,1.69-4a1.47,1.47,0,0,1,.49-.34l0-.18h-1.22Zm-5.45.14.42.23c0,.39,0,1.71,0,2.54l-.46.24,0,.18h2l0-.18-.81-.23v-2c.15-.38.49-.69.73-.69l.12,0a2.73,2.73,0,0,0,.29.54l.1-.06a3.33,3.33,0,0,0,.26-.87.54.54,0,0,0-.39-.14,1.4,1.4,0,0,0-1.11.78h0a3.32,3.32,0,0,0-.08-.78,3.82,3.82,0,0,0-.92.27Z" fill="#fff"/><path d="M230.14,142l0-1.16a.85.85,0,0,0-.48.24,5.79,5.79,0,0,0-.22.92h-.42l-.14.28.54.1v2a1.27,1.27,0,0,0,.18.86,1,1,0,0,0,.77.34,1.17,1.17,0,0,0,.93-.42V145l0,0a1.09,1.09,0,0,1-.65.19.64.64,0,0,1-.4-.12.56.56,0,0,1-.13-.38c0-1,0-1.87,0-2.25l1.07-.1.15-.29Zm-2.87-.1a1.08,1.08,0,0,0-1.19,1,1,1,0,0,0,.7.94c.3.14.56.26.78.38a.47.47,0,0,1,.32.48.67.67,0,0,1-.74.58,1.38,1.38,0,0,1-.49-.08c-.09-.22-.26-.7-.38-.91l-.11.06a4.8,4.8,0,0,0-.18.87,2.2,2.2,0,0,0,1.16.34c.5,0,1.41-.25,1.41-1.12a.92.92,0,0,0-.61-.85c-.27-.14-.71-.32-1-.46a.46.46,0,0,1-.29-.44.55.55,0,0,1,.61-.55.72.72,0,0,1,.47.14,6.4,6.4,0,0,0,.28.62l.11,0a4.6,4.6,0,0,0,.19-1l-.06-.06a1.84,1.84,0,0,0-.42.21,1.12,1.12,0,0,0-.59-.19Zm-4.17,1.45c0-.34.26-1.17.93-1.17.46,0,.7.45.7.93l0,.24Zm1.51.3a2.42,2.42,0,0,0,.75-.11.35.35,0,0,0,.08-.26,1.3,1.3,0,0,0-1.35-1.38,1.82,1.82,0,0,0-1.74,1.93,1.65,1.65,0,0,0,1.7,1.79,2.5,2.5,0,0,0,.84-.19,1.67,1.67,0,0,0,.46-.58l0-.13a5.61,5.61,0,0,0-.67.43.66.66,0,0,1-.27,0,1.3,1.3,0,0,1-1.28-1.44v-.11Zm-5.25-1.32.42.23c0,.39,0,1.71,0,2.54l-.46.24,0,.18h2l0-.18-.81-.23v-2c.15-.38.49-.69.73-.69l.12,0a2.73,2.73,0,0,0,.29.54l.1-.06a3.33,3.33,0,0,0,.26-.87.54.54,0,0,0-.39-.14,1.4,1.4,0,0,0-1.11.78h0a3.33,3.33,0,0,0-.08-.78,3.82,3.82,0,0,0-.92.27Zm-2.94,1c0-.34.26-1.17.93-1.17.46,0,.7.45.7.93l0,.24Zm1.51.3a2.42,2.42,0,0,0,.75-.11.35.35,0,0,0,.08-.26,1.3,1.3,0,0,0-1.35-1.38,1.82,1.82,0,0,0-1.74,1.93,1.65,1.65,0,0,0,1.7,1.79,2.5,2.5,0,0,0,.84-.19,1.67,1.67,0,0,0,.46-.58l0-.13a5.61,5.61,0,0,0-.67.43.66.66,0,0,1-.27,0,1.3,1.3,0,0,1-1.28-1.44v-.11ZM214.09,142l0-1.16a.85.85,0,0,0-.48.24,5.79,5.79,0,0,0-.22.92H213l-.14.28.54.1v2a1.27,1.27,0,0,0,.18.86,1,1,0,0,0,.77.34,1.17,1.17,0,0,0,.93-.42V145l0,0a1.09,1.09,0,0,1-.65.19.64.64,0,0,1-.4-.12.56.56,0,0,1-.13-.38c0-1,0-1.87,0-2.25l1.07-.1.15-.29Zm-5,1.25c0,1,0,1.74,0,1.86l-.44.22-.06.18h1.61l0-.19-.45-.21c0-.17,0-1.7,0-2.3a1.39,1.39,0,0,1,.89-.44c.41,0,.75.25.75.86,0,1,0,1.62,0,1.85l-.32.23-.06.2h1.61l.06-.18-.47-.2L212,145v-1.82c0-.59-.25-1.27-1.08-1.27a2,2,0,0,0-1.26.63h0l0-.63a4,4,0,0,0-1,.3l-.06.17.42.18Zm-2.58-1,.43.21v1c0,.64,0,1.33,0,1.6l-.46.24-.06.18h1.73l.06-.18-.57-.24c0-.22,0-.69,0-1.58v-1.62a6.07,6.07,0,0,0-1.06.23Zm.74-2a1.49,1.49,0,0,0-.43.46l0,.06a1.28,1.28,0,0,0,.39.46l.06,0a1.46,1.46,0,0,0,.42-.46l0-.06a1.06,1.06,0,0,0-.4-.45ZM203,142l0-1.16a.85.85,0,0,0-.48.24,5.79,5.79,0,0,0-.22.92h-.42l-.14.28.54.1v2a1.27,1.27,0,0,0,.18.86,1,1,0,0,0,.77.34,1.17,1.17,0,0,0,.93-.42V145l0,0a1.09,1.09,0,0,1-.65.19.64.64,0,0,1-.4-.12.56.56,0,0,1-.13-.38c0-1,0-1.87,0-2.25l1.07-.1.15-.29Zm-5,1.25c0,1,0,1.74,0,1.86l-.44.22-.06.18H199l0-.19-.45-.21c0-.17,0-1.7,0-2.3a1.39,1.39,0,0,1,.89-.44c.41,0,.75.25.75.86,0,1,0,1.62,0,1.85l-.32.23-.06.2h1.61l.06-.18-.47-.2-.11-.15v-1.82c0-.59-.25-1.27-1.08-1.27a2,2,0,0,0-1.26.63h0l0-.63a4,4,0,0,0-1,.3l-.06.17.42.18Zm-3.35.1c0-.34.26-1.17.93-1.17.46,0,.7.45.7.93l0,.24Zm1.51.3a2.42,2.42,0,0,0,.75-.11.35.35,0,0,0,.08-.26,1.3,1.3,0,0,0-1.35-1.38,1.82,1.82,0,0,0-1.73,1.93,1.65,1.65,0,0,0,1.7,1.79,2.5,2.5,0,0,0,.84-.19,1.67,1.67,0,0,0,.46-.58l0-.13a5.61,5.61,0,0,0-.67.43.66.66,0,0,1-.27,0,1.3,1.3,0,0,1-1.28-1.44v-.11Zm-5.25-1.32.42.23c0,.39,0,1.71,0,2.54l-.46.24,0,.18h2l0-.18-.81-.23v-2c.15-.38.49-.69.73-.69l.12,0a2.73,2.73,0,0,0,.29.54l.1-.06a3.33,3.33,0,0,0,.26-.87.54.54,0,0,0-.39-.14,1.4,1.4,0,0,0-1.11.78h0a3.32,3.32,0,0,0-.08-.78,3.82,3.82,0,0,0-.92.27Zm-2.94,1c0-.34.26-1.17.93-1.17.46,0,.7.45.7.93l0,.24Zm1.51.3a2.42,2.42,0,0,0,.75-.11.35.35,0,0,0,.08-.26,1.3,1.3,0,0,0-1.35-1.38,1.82,1.82,0,0,0-1.74,1.93,1.65,1.65,0,0,0,1.7,1.79,2.5,2.5,0,0,0,.84-.19,1.67,1.67,0,0,0,.46-.58l0-.13a5.61,5.61,0,0,0-.67.43.66.66,0,0,1-.27,0,1.3,1.3,0,0,1-1.28-1.44v-.11Zm-3.25-.54a1.18,1.18,0,0,0-1.19-1.21,1.74,1.74,0,0,0-1.11.48h0c0-.86,0-1.77,0-2.53a8.15,8.15,0,0,0-1.14.26l0,.15.46.21c0,.87,0,1.78,0,2.79s0,1.75,0,1.85l-.43.24-.06.18.84,0,.88,0,.06-.18-.58-.25c0-.14,0-1.66,0-2.45a1.23,1.23,0,0,1,.78-.29c.38,0,.86.16.86,1.07a18,18,0,0,1-.07,2,9.24,9.24,0,0,0,1.27.06l.06-.18-.42-.21c-.12,0-.16-.08-.16-.22Zm-7.38.14c0,1,0,1.74,0,1.86l-.44.22-.06.18h1.61l0-.19-.45-.21c0-.17,0-1.7,0-2.3a1.39,1.39,0,0,1,.89-.44c.41,0,.75.25.75.86,0,1,0,1.62,0,1.85l-.32.23-.06.2h1.61l.06-.18-.47-.2-.11-.15v-1.82c0-.59-.25-1.27-1.08-1.27a2,2,0,0,0-1.26.63h0l0-.63a4,4,0,0,0-1,.3l-.06.17.42.18Zm-3.1-2.82.63.23v2.11c0,1.33,0,2.19,0,2.32l-.63.24-.06.19h2.17l.06-.19-.74-.24c0-.14,0-1,0-2.32v-2.1l.58-.23.06-.19h-1.93Z" fill="#fff"/><polygon points="237.47 149.8 237.47 150.16 57.21 150.16 57.21 135.13 237.83 135.13 237.83 150.16 237.47 150.16 237.47 149.8 237.11 149.8 237.11 135.85 57.93 135.85 57.93 149.44 237.47 149.44 237.47 149.8 237.11 149.8 237.47 149.8" fill="#fff"/></g></g></svg>