<svg xmlns="http://www.w3.org/2000/svg" viewBox="0 0 368.67 154.07"><title>path</title><g id="Layer_2" data-name="Layer 2"><g id="Layer_1-2" data-name="Layer 1"><line y1="77.03" x2="31.45" y2="77.03" style="fill:none;stroke:#231f20;stroke-miterlimit:10;stroke-width:4px"/><polygon points="29.41 84.02 41.5 77.03 29.41 70.06 29.41 84.02" style="fill:#231f20"/><circle cx="61.65" cy="77.03" r="17.42" style="fill:none;stroke:#231f20;stroke-miterlimit:10;stroke-width:4px"/><line x1="81.79" y1="77.03" x2="113.24" y2="77.03" style="fill:none;stroke:#231f20;stroke-miterlimit:10;stroke-width:4px"/><polygon points="111.2 84.02 123.29 77.03 111.2 70.06 111.2 84.02" style="fill:#231f20"/><line x1="75.93" y1="92.89" x2="114.24" y2="117.52" style="fill:none;stroke:#231f20;stroke-miterlimit:10;stroke-width:4px"/><polygon points="107.98 121.79 126.49 125.39 115.53 110.05 107.98 121.79" style="fill:#231f20"/><line x1="75.27" y1="60.95" x2="114.09" y2="36.77" style="fill:none;stroke:#231f20;stroke-miterlimit:10;stroke-width:4px"/><polygon points="115.26 44.26 126.49 29.04 107.88 32.41 115.26 44.26" style="fill:#231f20"/><circle cx="143.44" cy="77.03" r="17.42" style="fill:none;stroke:#231f20;stroke-miterlimit:10;stroke-width:4px"/><circle cx="143.44" cy="134.65" r="17.42" style="fill:none;stroke:#231f20;stroke-miterlimit:10;stroke-width:4px"/><circle cx="143.44" cy="19.42" r="17.42" style="fill:none;stroke:#231f20;stroke-miterlimit:10;stroke-width:4px"/><line x1="163.58" y1="77.03" x2="196.65" y2="61.57" style="fill:none;stroke:#231f20;stroke-miterlimit:10;stroke-width:4px"/><polygon points="197.45 68.9 207.2 56.63 191.54 56.25 197.45 68.9" style="fill:#231f20"/><line x1="163.58" y1="134.65" x2="197.01" y2="120.3" style="fill:none;stroke:#231f20;stroke-miterlimit:10;stroke-width:4px"/><polygon points="197.58 127.65 207.68 115.72 192.08 114.82 197.58 127.65" style="fill:#231f20"/><line x1="163.58" y1="19.42" x2="197.67" y2="32.36" style="fill:none;stroke:#231f20;stroke-miterlimit:10;stroke-width:4px"/><polygon points="192.97 38.04 208.55 36.49 197.93 24.99 192.97 38.04" style="fill:#231f20"/><circle cx="225.23" cy="48.23" r="17.42" style="fill:none;stroke:#231f20;stroke-miterlimit:10;stroke-width:4px"/><circle cx="225.23" cy="105.84" r="17.42" style="fill:none;stroke:#231f20;stroke-miterlimit:10;stroke-width:4px"/><line x1="246.05" y1="105.84" x2="278.97" y2="90.08" style="fill:none;stroke:#231f20;stroke-miterlimit:10;stroke-width:4px"/><polygon points="279.85 97.4 289.49 85.04 273.81 84.81 279.85 97.4" style="fill:#231f20"/><line x1="245.38" y1="48.23" x2="278.91" y2="62.75" style="fill:none;stroke:#231f20;stroke-miterlimit:10;stroke-width:4px"/><polygon points="273.96 68.21 289.63 67.39 279.51 55.4 273.96 68.21" style="fill:#231f20"/><line x1="327.17" y1="77.03" x2="358.62" y2="77.03" style="fill:none;stroke:#231f20;stroke-miterlimit:10;stroke-width:4px"/><polygon points="356.58 84.02 368.67 77.03 356.58 70.06 356.58 84.02" style="fill:#231f20"/><circle cx="307.02" cy="77.03" r="17.42" style="fill:none;stroke:#231f20;stroke-miterlimit:10;stroke-width:4px"/></g></g></svg>