<svg xmlns="http://www.w3.org/2000/svg" viewBox="0 0 368.67 38.83"><title>pearl</title><g id="Layer_2" data-name="Layer 2"><g id="Layer_1-2" data-name="Layer 1"><line y1="19.42" x2="31.45" y2="19.42" style="fill:none;stroke:#231f20;stroke-miterlimit:10;stroke-width:4px"/><polygon points="29.41 26.4 41.5 19.42 29.41 12.44 29.41 26.4" style="fill:#231f20"/><circle cx="61.65" cy="19.42" r="17.42" style="fill:none;stroke:#231f20;stroke-miterlimit:10;stroke-width:4px"/><line x1="81.79" y1="19.42" x2="113.24" y2="19.42" style="fill:none;stroke:#231f20;stroke-miterlimit:10;stroke-width:4px"/><polygon points="111.2 26.4 123.29 19.42 111.2 12.44 111.2 26.4" style="fill:#231f20"/><circle cx="143.44" cy="19.42" r="17.42" style="fill:none;stroke:#231f20;stroke-miterlimit:10;stroke-width:4px"/><line x1="163.58" y1="19.42" x2="195.04" y2="19.42" style="fill:none;stroke:#231f20;stroke-miterlimit:10;stroke-width:4px"/><polygon points="192.99 26.4 205.08 19.42 192.99 12.44 192.99 26.4" style="fill:#231f20"/><circle cx="225.23" cy="19.42" r="17.42" style="fill:none;stroke:#231f20;stroke-miterlimit:10;stroke-width:4px"/><line x1="245.38" y1="19.42" x2="276.83" y2="19.42" style="fill:none;stroke:#231f20;stroke-miterlimit:10;stroke-width:4px"/><polygon points="274.79 26.4 286.88 19.42 274.79 12.44 274.79 26.4" style="fill:#231f20"/><line x1="327.17" y1="19.42" x2="358.62" y2="19.42" style="fill:none;stroke:#231f20;stroke-miterlimit:10;stroke-width:4px"/><polygon points="356.58 26.4 368.67 19.42 356.58 12.44 356.58 26.4" style="fill:#231f20"/><circle cx="307.02" cy="19.42" r="17.42" style="fill:none;stroke:#231f20;stroke-miterlimit:10;stroke-width:4px"/></g></g></svg>